<?xml version="1.0" encoding="UTF-8" standalone="no"?><svg xmlns="http://www.w3.org/2000/svg" xmlns:xlink="http://www.w3.org/1999/xlink" contentScriptType="application/ecmascript" contentStyleType="text/css" height="1334px" preserveAspectRatio="none" style="width:1028px;height:1334px;" version="1.1" viewBox="0 0 1028 1334" width="1028px" zoomAndPan="magnify"><defs/><g><text fill="#888888" font-family="monospace" font-size="16" lengthAdjust="spacingAndGlyphs" textLength="690" x="325.5" y="16.0859">This diagram is part of a visualisation of the code written for Sona.</text><text fill="#888888" font-family="monospace" font-size="16" lengthAdjust="spacingAndGlyphs" textLength="550" x="465.5" y="36.9766">View the project at github.com/cervonwong/sona-flutter.</text><text fill="#000000" font-family="monospace" font-size="24" font-weight="bold" lengthAdjust="spacingAndGlyphs" textLength="546" x="234.75" y="65.9102">Dependencies between layers of the app.</text><text fill="#000000" font-family="monospace" font-size="24" font-weight="bold" lengthAdjust="spacingAndGlyphs" textLength="0" x="514.75" y="97.2461"/><!--MD5=[8fd473fd151a2794da4f2c8684676405]
cluster Presentation--><path d="M789.1203,141.9334 C795.0989,131.7989 801.5044,127.7659 810.8197,138.4565 C817.132,126.8225 823.9864,123.1894 834.1665,134.5252 C840.1271,123.8336 849.381,122.0461 856.1368,133.7448 C862.4235,119.3679 870.437,119.4525 880.4659,130.1078 C889.7891,118.6971 897.2657,121.26 903.9128,132.8373 C912.0184,125.051 920.4216,123.7431 925.7337,135.8946 C933.6031,126.0239 943.5408,129.674 947.1425,140.3429 C957.4121,130.0744 972.6269,130.457 976.5,147.2755 C978.857,147.3259 980.0333,148.1213 979.1201,150.6849 C989.3606,155.3644 991.9234,165.8354 981.2953,172.5875 C994.5635,178.909 992.2198,190.9415 981.9435,197.8668 C995.5377,202.831 993.8718,214.2286 984.6152,221.7491 C998.776,227.9707 1000.0218,239.6049 986.4002,247.7348 C999.2226,253.2983 999.5109,262.1511 989.7589,270.9768 C1000.0868,279.1806 1002.0041,287.4532 988.9984,294.9156 C1001.097,301.1731 1001.0371,312.7518 990.5911,320.4174 C1000.9462,327.8899 1000.4465,337.7005 987.9599,342.4445 C998.9578,348.5162 1001.2936,360.6237 989.7046,368.2241 C999.697,377.5906 999.0274,385.5005 985.4974,390.4055 C999.2842,397.4978 997.0327,411.0476 985.1119,417.7778 C993.4772,425.6566 994.3046,434.4358 981.9944,439.323 C992.3927,448.1507 992.9194,458.4038 978.955,464.2624 C988.661,478.3361 987.5005,488.9302 969.5,494.2755 C971.4296,494.1055 971.9063,495.5436 971.2551,497.0225 C962.8717,513.3232 953.3971,510.6641 942.3077,499.9188 C933.4159,515.0275 922.4971,514.1413 912.6971,500.8662 C904.0956,514.8776 890.313,517.6748 879.8535,502.9929 C869.7898,517.8683 859.0904,514.5798 850.0746,501.862 C836.9849,518.0164 827.0814,514.9322 816.743,499.0036 C800.1829,515.3295 783.9669,507.1226 778.5,487.2755 C779.9498,487.4643 780.3873,488.3626 779.4976,489.569 C766.5769,479.857 768.4591,470.7626 781.915,463.4961 C769.27,458.0229 768.1974,449.0297 777.197,439.3307 C767.685,433.4415 765.9652,422.1166 777.7271,416.7263 C766.1709,409.768 767.1125,402.5922 776.7787,394.7193 C764.7264,387.7397 766.4163,374.5401 777.3182,368.0244 C765.8165,362.2655 766.2223,350.1011 776.4263,343.5511 C762.8612,337.9237 763.8332,330.2601 772.655,320.9046 C762.0728,312.4451 762.994,302.3896 775.7318,296.9218 C764.6189,290.3604 764.2547,278.3873 775.5162,271.6351 C763.1834,263.9472 766.4524,254.6235 776.6364,248.0029 C766.0395,240.2922 765.8132,228.1667 779.1058,222.7965 C767.28,215.5027 766.591,203.6995 779.2971,196.5846 C768.4983,191.1239 768.1278,180.9347 778.6218,174.8135 C766.5006,162.2794 767.3485,146.7808 785.5,140.2755 C787.4662,138.8726 788.911,139.4998 789.1203,141.9334 " fill="#FFFFFF" style="stroke:#000000;stroke-width:1.5;"/><text fill="#000000" font-family="monospace" font-size="16" font-weight="bold" lengthAdjust="spacingAndGlyphs" textLength="120" x="817.5" y="161.3615">Presentation</text><!--MD5=[121a8bf1197281ab89ed693fab589f94]
cluster Domain--><path d="M696.994,642.4164 C712.5366,612.8703 730.4066,610.8459 751.675,636.7723 C766.4452,613.697 787.1141,612.0913 800.5846,638.0682 C815.6465,617.8246 835.8425,612.8432 850.0185,639.0117 C866.5615,615.9071 893.877,615.5221 905.5,644.2755 C908.6003,645.7141 908.2864,648.5345 905.8511,650.296 C924.1212,660.1888 928.3923,671.9592 913.8323,688.6787 C937.1105,704.7876 934.5719,723.3611 910.7358,736.4137 C929.4181,746.2624 935.0897,765.3528 913.2404,777.6625 C934.3409,787.7172 933.7165,807.3226 915.4823,819.4858 C937.1891,831.0952 937.6431,846.3004 917.2413,859.7494 C934.673,873.405 934.6025,893.2346 912.3404,902.3207 C931.2981,915.3047 931.9832,927.7347 914.3872,942.5771 C937.2316,954.7503 937.1149,974.9723 915.7358,988.4458 C933.9104,999.9755 934.8569,1016.0287 914.0811,1025.8346 C935.7092,1041.2679 934.1896,1058.0962 914.6572,1074.0215 C931.3269,1089.5685 930.5874,1104.2667 908.6828,1114.0575 C930.2809,1125.6386 926.3537,1145.6078 908.3001,1156.8343 C927.3607,1169.5667 927.9346,1186.2465 910.0065,1200.4267 C929.3856,1220.9858 921.0088,1234.7083 898.5,1244.2755 C900.9017,1241.9321 903.0206,1242.399 904.117,1245.5983 C894.2916,1273.0168 869.9883,1271.413 855.2416,1250.5836 C835.523,1273.8021 819.1244,1276.5242 801.5461,1248.3476 C784.5355,1271.7212 766.1202,1275.9969 746.9786,1250.7388 C719.7544,1276.146 703.3006,1265.8307 688.5,1237.2755 C692.5432,1237.0831 694.3589,1238.7403 692.9514,1242.8784 C675.0499,1229.3547 672.3395,1210.0449 695.9632,1199.3975 C675.4296,1189.0452 671.0801,1173.1343 689.792,1157.0612 C673.41,1142.2674 671.6399,1125.9016 694.0672,1115.0578 C675.8052,1103.8451 675.9206,1084.3847 694.8256,1073.8561 C668.5945,1063.4402 671.3758,1041.0433 689.8854,1026.008 C674.5092,1013.8759 672.5984,996.1762 693.2201,987.1318 C669.5073,974.8968 669.0634,956.6865 690.8186,942.0305 C671.2157,927.5525 669.9444,911.4204 692.6872,898.7717 C677.5014,887.003 677.5687,873.1788 694.257,862.8011 C670.9742,852.5399 671.257,834.869 689.0723,819.6678 C664.4524,804.4325 670.4828,783.1656 693.4721,772.3579 C675.2246,761.4592 673.5371,740.9555 694.3413,730.8752 C674.33,718.6792 676.5095,702.1447 694.5193,690.1147 C666.1462,673.8983 670.186,652.4955 695.5,637.2755 C698.1747,638.4452 699.0905,639.8602 696.994,642.4164 " fill="#FFFFFF" style="stroke:#000000;stroke-width:1.5;"/><text fill="#000000" font-family="monospace" font-size="16" font-weight="bold" lengthAdjust="spacingAndGlyphs" textLength="60" x="767" y="658.3615">Domain</text><!--MD5=[f21b1f164e99c6b37934f23ad048ad54]
cluster Data--><path d="M302.6137,644.7228 C316.3549,614.6297 344.3538,614.1209 360.2972,642.5521 C370.6653,617.6156 394.2993,616.0309 411.1279,635.0876 C428.4994,605.2674 457.2265,612.9275 469.8877,639.9562 C490.5413,616.4228 510.5664,618.19 527.5,644.2755 C530.7169,645.9763 530.8354,648.5519 527.6193,650.3784 C546.8671,662.986 551.6458,679.829 528.6424,693.4404 C547.0912,704.5045 546.2982,719.5416 530.4177,732.1789 C553.0021,746.466 556.7614,764.2909 531.3242,779.498 C547.7713,792.8637 549.8834,807.0996 530.3477,819.5889 C552.1397,835.873 557.5612,851.8385 530.9037,868.6714 C550.6653,878.5375 551.0021,892.5973 535.5481,906.7578 C559.6892,920.6649 561.6936,940.6813 537.2702,956.2772 C561.3694,971.4898 557.8114,985.2947 537.0616,1000.2947 C554.0323,1015.6274 553.2868,1035.5155 529.6789,1043.9925 C548.6698,1052.9082 550.579,1066.0609 536.2144,1080.8854 C554.109,1096.5013 554.5907,1116.8687 529.7485,1126.4153 C548.4034,1139.4835 549.1624,1156.1281 528.6783,1168.1936 C550.8945,1177.6951 556.6964,1196.1052 535.0318,1211.9747 C556.2778,1235.9446 551.706,1252.7662 520.5,1261.2755 C523.9567,1262.7111 523.6063,1266.124 521.02,1268.0251 C506.7596,1290.3445 479.4787,1294.0333 465.9839,1267.1685 C453.0554,1291.9256 427.5636,1297.8336 410.0755,1272.2305 C392.3424,1293.054 368.4101,1294.761 356.3959,1266.0349 C331.1836,1293.4402 306.1636,1289.6218 292.5,1254.2755 C295.7823,1252.1669 299.5525,1253.0964 299.7482,1257.6392 C278.4946,1245.0808 279.6421,1231.1903 295.2859,1214.7895 C276.9991,1202.7937 271.0393,1189.0686 292.1875,1174.072 C273.8462,1161.6934 273.9634,1141.0042 292.6208,1128.9812 C267.9558,1114.606 268.4296,1093.5206 294.3115,1080.9237 C277.2424,1072.7481 272.8688,1056.9497 288.153,1043.4563 C267.2832,1028.9801 260.6237,1011.1833 286.5742,995.1761 C271.4814,984.3761 270.5488,967.0748 287.3626,956.9327 C267.6565,941.5127 269.9596,923.0563 290.8942,910.7436 C264.7946,897.9497 268.4851,877.8107 289.4565,863.582 C272.193,849.2282 267.5115,834.5626 290.1043,820.8125 C271.6359,808.4161 275.0001,790.7365 292.8274,780.811 C274.7129,770.5735 274.8506,750.7254 291.2916,739.2122 C270.3775,720.9059 275.4243,706.083 296.867,692.8729 C275.3562,672.4432 275.8388,655.566 299.5,637.2755 C303.4929,637.8404 304.8632,641.5479 302.6137,644.7228 " fill="#FFFFFF" style="stroke:#000000;stroke-width:1.5;"/><text fill="#000000" font-family="monospace" font-size="16" font-weight="bold" lengthAdjust="spacingAndGlyphs" textLength="40" x="390" y="658.3615">Data</text><!--MD5=[2c2e2644034c00788261e03c85b06837]
cluster Core--><path d="M330.2401,124.4907 C335.2062,118.8219 340.0984,117.3175 344.7079,124.8805 C348.2705,117.6849 353.812,116.0553 359.4545,122.6575 C364.2081,114.2481 369.2782,114.2614 375.8672,120.6173 C380.2255,114.0427 387.9662,114.7633 391.4387,121.6425 C395.3585,116.4485 400.1806,116.2098 404.1588,121.5722 C407.1622,111.2512 414.6348,111.7057 421.2554,117.8062 C425.935,110.4531 431.6684,112.1335 435.6813,118.5069 C440.9678,111.7799 446.0153,112.4684 450.6389,119.2413 C455.6523,111.2017 463.5388,111.6397 467.3819,120.4072 C471.7511,113.9915 478.0961,116.1488 480.8598,122.1499 C486.5332,115.0108 491.7856,113.8719 496.9139,122.6981 C501.8478,113.7819 508.8034,114.9713 513.3837,123.041 C517.2533,116.3508 523.6666,118.193 526.6577,123.9759 C535.3398,115.6844 545.3485,119.3914 548.5,130.2755 C549.6499,129.4432 550.9423,129.7786 551.1353,131.3324 C560.5609,135.3748 560.5365,143.0105 553.5333,149.2515 C560.699,153.4624 560.5214,158.7227 554.6526,163.9277 C564.5054,168.7927 563.8233,174.6738 557.1807,181.8638 C564.2237,187.984 563.6531,196.5825 553.7631,199.4033 C560.193,204.9807 558.9176,211.8613 551.1747,215.1019 C558.0231,227.0885 556.6753,234.8983 541.5,237.2755 C542.0932,237.6132 542.1729,237.9636 541.5928,238.3982 C538.3958,246.1766 531.3662,246.6549 526.5977,240.0348 C522.2342,247.7263 516.0249,245.9538 511.8513,239.832 C507.8324,246.4989 501.72,247.199 497.3493,240.2056 C493.069,249.5936 486.3715,249.7855 480.465,241.7846 C476.487,248.023 471.1201,248.004 467.6141,241.3154 C462.7027,250.0714 456.448,250.0038 451.0066,241.8355 C446.6313,249.0752 441.6244,247.9555 436.7235,242.4233 C430.5494,248.9978 424.7716,250.0359 419.709,241.1964 C415.4155,249.2677 410.027,247.885 405.2103,241.7297 C399.5797,247.505 394.5872,248.0668 390.2414,240.3086 C385.7447,247.7125 379.1472,246.3791 374.9133,240.016 C370.1406,247.1094 363.9473,245.2565 360.6546,238.493 C355.4295,246.0488 349.9762,246.4927 344.5218,238.7346 C333.8237,246.9198 323.742,243.2641 320.5,230.2755 C320.7523,230.3574 320.8495,230.5661 320.6501,230.7819 C313.0113,226.4319 311.7707,219.0069 319.864,213.9234 C311.436,210.6977 311.0177,204.6537 316.7009,198.5286 C307.0447,195.4302 306.936,189.7725 313.0059,182.9451 C303.6458,176.5013 306.3792,168.621 315.4236,164.6031 C306.9762,158.4006 309.2359,151.033 317.9937,147.4011 C309.2801,135.027 314.2756,127.0053 327.5,123.2755 C329.019,122.2004 329.9375,122.8229 330.2401,124.4907 " fill="#FFFFFF" style="stroke:#000000;stroke-width:1.5;"/><text fill="#000000" font-family="monospace" font-size="16" font-weight="bold" lengthAdjust="spacingAndGlyphs" textLength="40" x="414.5" y="144.3615">Core</text><rect fill="#FEFECE" height="40.8906" style="stroke:#A80036;stroke-width:1.5;" width="84" x="871.5" y="171.2755"/><text fill="#000000" font-family="monospace" font-size="16" font-weight="bold" lengthAdjust="spacingAndGlyphs" textLength="70" x="878.5" y="189.3615">Widgets</text><line style="stroke:#A80036;stroke-width:1.5;" x1="872.5" x2="954.5" y1="196.1662" y2="196.1662"/><rect fill="#FEFECE" height="74.6719" style="stroke:#A80036;stroke-width:1.5;" width="182" x="786.5" y="411.2755"/><text fill="#000000" font-family="monospace" font-size="16" font-weight="bold" lengthAdjust="spacingAndGlyphs" textLength="160" x="797.5" y="429.3615">State Management</text><line style="stroke:#A80036;stroke-width:1.5;" x1="787.5" x2="967.5" y1="436.1662" y2="436.1662"/><text fill="#000000" font-family="monospace" font-size="16" lengthAdjust="spacingAndGlyphs" textLength="50" x="792.5" y="456.2521">BLoC,</text><text fill="#000000" font-family="monospace" font-size="16" lengthAdjust="spacingAndGlyphs" textLength="170" x="792.5" y="477.1427">ChangeNotifier...</text><rect fill="#FEFECE" height="40.8906" style="stroke:#A80036;stroke-width:1.5;" width="104" x="763.5" y="668.2755"/><text fill="#000000" font-family="monospace" font-size="16" font-weight="bold" lengthAdjust="spacingAndGlyphs" textLength="90" x="770.5" y="686.3615">Use Cases</text><line style="stroke:#A80036;stroke-width:1.5;" x1="764.5" x2="866.5" y1="693.1662" y2="693.1662"/><rect fill="#FEFECE" height="40.8906" style="stroke:#A80036;stroke-width:1.5;" width="94" x="768.5" y="1195.2755"/><text fill="#000000" font-family="monospace" font-size="16" font-weight="bold" lengthAdjust="spacingAndGlyphs" textLength="80" x="775.5" y="1213.3615">Entities</text><line style="stroke:#A80036;stroke-width:1.5;" x1="769.5" x2="861.5" y1="1220.1662" y2="1220.1662"/><rect fill="#FEFECE" height="40.8906" style="stroke:#A80036;stroke-width:1.5;" width="164" x="733.5" y="897.7755"/><text fill="#000000" font-family="monospace" font-size="16" font-weight="bold" lengthAdjust="spacingAndGlyphs" textLength="150" x="740.5" y="915.8615">Repo Interfaces</text><line style="stroke:#A80036;stroke-width:1.5;" x1="734.5" x2="896.5" y1="922.6662" y2="922.6662"/><rect fill="#FEFECE" height="40.8906" style="stroke:#A80036;stroke-width:1.5;" width="114" x="396.5" y="668.2755"/><text fill="#000000" font-family="monospace" font-size="16" font-weight="bold" lengthAdjust="spacingAndGlyphs" textLength="100" x="403.5" y="686.3615">Repo Impls</text><line style="stroke:#A80036;stroke-width:1.5;" x1="397.5" x2="509.5" y1="693.1662" y2="693.1662"/><rect fill="#FEFECE" height="53.7813" style="stroke:#A80036;stroke-width:1.5;" width="182" x="337.5" y="891.2755"/><text fill="#000000" font-family="monospace" font-size="16" font-weight="bold" lengthAdjust="spacingAndGlyphs" textLength="40" x="408.5" y="909.3615">DAOs</text><line style="stroke:#A80036;stroke-width:1.5;" x1="338.5" x2="518.5" y1="916.1662" y2="916.1662"/><text fill="#000000" font-family="monospace" font-size="16" lengthAdjust="spacingAndGlyphs" textLength="170" x="343.5" y="936.2521">also Data Sources</text><rect fill="#FEFECE" height="74.6719" style="stroke:#A80036;stroke-width:1.5;" width="182" x="302.5" y="1178.2755"/><text fill="#000000" font-family="monospace" font-size="16" font-weight="bold" lengthAdjust="spacingAndGlyphs" textLength="130" x="328.5" y="1196.3615">Moor Database</text><line style="stroke:#A80036;stroke-width:1.5;" x1="303.5" x2="483.5" y1="1203.1662" y2="1203.1662"/><text fill="#000000" font-family="monospace" font-size="16" lengthAdjust="spacingAndGlyphs" textLength="160" x="308.5" y="1223.2521">Configs, Tables,</text><text fill="#000000" font-family="monospace" font-size="16" lengthAdjust="spacingAndGlyphs" textLength="60" x="308.5" y="1244.1427">Models</text><rect fill="#FEFECE" height="74.6719" style="stroke:#A80036;stroke-width:1.5;" width="212" x="328.5" y="154.2755"/><text fill="#000000" font-family="monospace" font-size="16" font-weight="bold" lengthAdjust="spacingAndGlyphs" textLength="150" x="359.5" y="172.3615">Service Locator</text><line style="stroke:#A80036;stroke-width:1.5;" x1="329.5" x2="539.5" y1="179.1662" y2="179.1662"/><text fill="#000000" font-family="monospace" font-size="16" lengthAdjust="spacingAndGlyphs" textLength="140" x="334.5" y="199.2521">GetIt used for</text><text fill="#000000" font-family="monospace" font-size="16" lengthAdjust="spacingAndGlyphs" textLength="200" x="334.5" y="220.1427">Dependency Injection</text><path d="M576,176.2755 L576,187.7755 L540.88,191.7755 L576,195.7755 L576,207.1662 A0,0 0 0 0 576,207.1662 L727,207.1662 A0,0 0 0 0 727,207.1662 L727,186.2755 L717,176.2755 L576,176.2755 A0,0 0 0 0 576,176.2755 " fill="#FBFB77" style="stroke:#A80036;stroke-width:1.0;"/><path d="M717,176.2755 L717,186.2755 L727,186.2755 L717,176.2755 " fill="#FBFB77" style="stroke:#A80036;stroke-width:1.0;"/><text fill="#000000" font-family="monospace" font-size="16" lengthAdjust="spacingAndGlyphs" textLength="130" x="582" y="197.3615">Unimplemented</text><path d="M6,1127.2755 L6,1304.4005 A0,0 0 0 0 6,1304.4005 L267,1304.4005 A0,0 0 0 0 267,1304.4005 L267,1219.7755 L302.09,1215.7755 L267,1211.7755 L267,1137.2755 L257,1127.2755 L6,1127.2755 A0,0 0 0 0 6,1127.2755 " fill="#FBFB77" style="stroke:#A80036;stroke-width:1.0;"/><path d="M257,1127.2755 L257,1137.2755 L267,1137.2755 L257,1127.2755 " fill="#FBFB77" style="stroke:#A80036;stroke-width:1.0;"/><text fill="#000000" font-family="monospace" font-size="16" lengthAdjust="spacingAndGlyphs" textLength="180" x="12" y="1148.3615">Models are part of</text><text fill="#000000" font-family="monospace" font-size="16" lengthAdjust="spacingAndGlyphs" textLength="190" x="12" y="1169.2521">the database due to</text><text fill="#000000" font-family="monospace" font-size="16" lengthAdjust="spacingAndGlyphs" textLength="180" x="12" y="1190.1427">the limitations of</text><text fill="#000000" font-family="monospace" font-size="16" lengthAdjust="spacingAndGlyphs" textLength="200" x="12" y="1211.0333">moor's builders. See</text><text fill="#000000" font-family="monospace" font-size="16" font-style="italic" lengthAdjust="spacingAndGlyphs" textLength="190" x="12" y="1231.924">https://github.com/</text><text fill="#000000" font-family="monospace" font-size="16" font-style="italic" lengthAdjust="spacingAndGlyphs" textLength="240" x="12" y="1252.8146">simolus3/moor/issues/490</text><text fill="#000000" font-family="monospace" font-size="16" lengthAdjust="spacingAndGlyphs" textLength="200" x="12" y="1273.7052">for progress on this</text><text fill="#000000" font-family="monospace" font-size="16" lengthAdjust="spacingAndGlyphs" textLength="20" x="12" y="1294.5958">:)</text><!--MD5=[d82ef6b2c738c1c7a188aee55dc2c4f7]
link w to s--><path codeLine="45" d="M910.73,212.3655 C904.91,253.5955 891.28,350.1555 883.4,405.9555 " fill="none" id="w-to-s" style="stroke:#A80036;stroke-width:1.0;stroke-dasharray:7.0,7.0;"/><polygon fill="#A80036" points="882.66,411.2255,887.8825,402.8753,883.3611,406.2749,879.9615,401.7536,882.66,411.2255" style="stroke:#A80036;stroke-width:1.0;"/><!--MD5=[4546973ef7dacf83725163dac0c05358]
link w to e--><path codeLine="46" d="M938.82,212.4455 C970.74,239.6655 1021.5,292.0855 1021.5,350.2755 C1021.5,350.2755 1021.5,350.2755 1021.5,1006.2755 C1021.5,1095.9155 923.95,1160.9155 863.11,1192.7455 " fill="none" id="w-to-e" style="stroke:#A80036;stroke-width:1.0;stroke-dasharray:7.0,7.0;"/><polygon fill="#A80036" points="858.43,1195.1655,868.2607,1194.5672,862.8673,1192.861,864.5735,1187.4676,858.43,1195.1655" style="stroke:#A80036;stroke-width:1.0;"/><!--MD5=[f7ac959458b02596d8dec769f76e38c2]
link s to u--><path codeLine="47" d="M867.95,486.4455 C855.15,535.5555 832.8,621.3855 821.87,663.3155 " fill="none" id="s-to-u" style="stroke:#A80036;stroke-width:1.0;stroke-dasharray:7.0,7.0;"/><polygon fill="#A80036" points="820.6,668.2055,826.7386,660.5037,821.8598,663.3668,818.9966,658.4881,820.6,668.2055" style="stroke:#A80036;stroke-width:1.0;"/><!--MD5=[fcf18d6011f98154ac9c493f12e89716]
link s to e--><path codeLine="48" d="M905.51,486.4055 C926.1,516.9955 950.5,562.6755 950.5,607.2755 C950.5,607.2755 950.5,607.2755 950.5,1006.2755 C950.5,1084.0855 883.44,1155.7855 843.85,1191.3355 " fill="none" id="s-to-e" style="stroke:#A80036;stroke-width:1.0;stroke-dasharray:7.0,7.0;"/><polygon fill="#A80036" points="839.64,1195.0755,849.0234,1192.0837,843.3763,1191.7528,843.7071,1186.1057,839.64,1195.0755" style="stroke:#A80036;stroke-width:1.0;"/><!--MD5=[045ac208ce3b5b3d224befd3f4c5c570]
link u to e--><path codeLine="49" d="M782.94,709.4055 C748.02,733.2355 697.5,776.9155 697.5,830.2755 C697.5,830.2755 697.5,830.2755 697.5,1006.2755 C697.5,1081.7255 756.74,1154.9255 791.27,1191.1955 " fill="none" id="u-to-e" style="stroke:#A80036;stroke-width:1.0;stroke-dasharray:7.0,7.0;"/><polygon fill="#A80036" points="794.95,1195.0055,791.6012,1185.7435,791.4867,1191.3992,785.831,1191.2847,794.95,1195.0055" style="stroke:#A80036;stroke-width:1.0;"/><!--MD5=[10426faf2822c007a77520b7cd00fe82]
link u to ir--><path codeLine="50" d="M815.5,709.5655 C815.5,751.0955 815.5,847.2555 815.5,892.6755 " fill="none" id="u-to-ir" style="stroke:#A80036;stroke-width:1.0;stroke-dasharray:7.0,7.0;"/><polygon fill="#A80036" points="815.5,897.6955,819.5,888.6955,815.5,892.6955,811.5,888.6955,815.5,897.6955" style="stroke:#A80036;stroke-width:1.0;"/><!--MD5=[3b1f9e3a281d418c889bfca96d71d676]
link ir to e--><path codeLine="51" d="M815.5,939.1255 C815.5,991.2755 815.5,1132.1055 815.5,1189.7055 " fill="none" id="ir-to-e" style="stroke:#A80036;stroke-width:1.0;stroke-dasharray:7.0,7.0;"/><polygon fill="#A80036" points="815.5,1195.0155,819.5,1186.0155,815.5,1190.0155,811.5,1186.0155,815.5,1195.0155" style="stroke:#A80036;stroke-width:1.0;"/><!--MD5=[4db938e82141146da7a044fb7966322c]
link ri to ir--><path codeLine="52" d="M491.63,709.3755 C521.21,724.9055 563.01,747.5155 598.5,769.2755 C660.34,807.1955 729.12,855.1355 772.34,886.0055 " fill="none" id="ri-to-ir" style="stroke:#A80036;stroke-width:1.0;stroke-dasharray:7.0,7.0;"/><polygon fill="none" points="776.49,880.3655,788.66,897.7155,768.33,891.7455,776.49,880.3655" style="stroke:#A80036;stroke-width:1.0;"/><!--MD5=[1ec66c5a9589f7ad11acf305e41ddddc]
link ri to d--><path codeLine="53" d="M451.33,709.5655 C446.97,749.2055 437.15,838.5855 431.92,886.1355 " fill="none" id="ri-to-d" style="stroke:#A80036;stroke-width:1.0;stroke-dasharray:7.0,7.0;"/><polygon fill="#A80036" points="431.37,891.1655,436.326,882.6545,431.9143,886.1952,428.3735,881.7836,431.37,891.1655" style="stroke:#A80036;stroke-width:1.0;"/><!--MD5=[717df48724e670f5b4538fa9178e9ed6]
link ri to db--><path codeLine="54" d="M406.65,709.3555 C361.99,731.5155 301.5,772.2355 301.5,830.2755 C301.5,830.2755 301.5,830.2755 301.5,1006.2755 C301.5,1068.6855 336.43,1133.3555 363.25,1173.7955 " fill="none" id="ri-to-db" style="stroke:#A80036;stroke-width:1.0;stroke-dasharray:7.0,7.0;"/><polygon fill="#A80036" points="366.15,1178.1155,364.4628,1168.4123,363.3666,1173.9619,357.817,1172.8657,366.15,1178.1155" style="stroke:#A80036;stroke-width:1.0;"/><!--MD5=[3aadb2425ab340d75a2b8369b88c3090]
link ri to e--><path codeLine="55" d="M486.33,709.3455 C521.56,733.1055 572.5,776.7355 572.5,830.2755 C572.5,830.2755 572.5,830.2755 572.5,1006.2755 C572.5,1106.0255 691.89,1168.3755 763.3,1196.7555 " fill="none" id="ri-to-e" style="stroke:#A80036;stroke-width:1.0;stroke-dasharray:7.0,7.0;"/><polygon fill="#A80036" points="768.36,1198.7355,761.4259,1191.7414,763.7011,1196.9205,758.5219,1199.1957,768.36,1198.7355" style="stroke:#A80036;stroke-width:1.0;"/><!--MD5=[167a8acec7488cb77145f107dbe38de2]
link d to db--><path codeLine="56" d="M425.39,945.4955 C419.31,996.8855 405.77,1111.1855 398.44,1173.0555 " fill="none" id="d-to-db" style="stroke:#A80036;stroke-width:1.0;stroke-dasharray:7.0,7.0;"/><polygon fill="#A80036" points="397.84,1178.1455,402.8684,1169.6771,398.4267,1173.1801,394.9237,1168.7383,397.84,1178.1455" style="stroke:#A80036;stroke-width:1.0;"/><text fill="#888888" font-family="monospace" font-size="16" lengthAdjust="spacingAndGlyphs" textLength="300" x="357.75" y="1326.4865">Copyright (C) 2020 Cervon Wong</text><!--MD5=[18e30dba88d410232d308c844c706067]
@startuml
skinparam classAttributeIconSize 0
skinparam wrapWidth 400

skinparam wrapWidth 200
skinparam maxMessageSize 100
skinparam defaultFontName Monospaced
skinparam defaultFontSize 16
skinparam arrowFontSize 12
skinparam objectFontStyle bold
skinparam titleFontSize 24
skinparam titleFontStyle bold
skinparam shadowing false

header This diagram is part of a visualisation of the code written for Sona.\n View the project at github.com/cervonwong/sona-flutter.
title Dependencies between layers of the app.\n
footer Copyright (C) 2020 Cervon Wong

package Presentation <<Cloud>> {
	object "Widgets" as w
    object "State Management" as s {
    	BLoC, ChangeNotifier...
    }
}

package Domain <<Cloud>> {
	object "Use Cases" as u
	object "Entities" as e
	object "Repo Interfaces" as ir
}

package Data <<Cloud>> {
	object "Repo Impls" as ri
    object "DAOs" AS d {
    	also Data Sources
    }
    object "Moor Database" as db {
    	Configs, Tables, Models
    }
}

package Core <<Cloud>> {
	object "Service Locator" as di {
    	GetIt used for Dependency Injection
    }
}

w  ....>  s
w  ....>  e
s  ....>  u
s  ....>  e
u  ....>  e
u  ....>  ir
ir ....>  e
ri ....|> ir
ri ....>  d
ri ....>  db
ri ....>  e
d  ....>  db

note right of di
	Unimplemented
end note

note left of db
	Models are part of the database due to the limitations of moor's builders. See <i>https://github.com/ simolus3/moor/issues/490</i>for progress on this :)
end note

@enduml

PlantUML version 1.2020.23(Mon Dec 14 03:14:58 SGT 2020)
(GPL source distribution)
Java Runtime: OpenJDK Runtime Environment
JVM: OpenJDK 64-Bit Server VM
Default Encoding: Cp1252
Language: en
Country: GB
--></g></svg>