<?xml version="1.0" encoding="UTF-8" standalone="no"?><svg xmlns="http://www.w3.org/2000/svg" xmlns:xlink="http://www.w3.org/1999/xlink" contentScriptType="application/ecmascript" contentStyleType="text/css" height="1717px" preserveAspectRatio="none" style="width:1470px;height:1717px;" version="1.1" viewBox="0 0 1470 1717" width="1470px" zoomAndPan="magnify"><defs/><g><text fill="#888888" font-family="monospace" font-size="16" lengthAdjust="spacingAndGlyphs" textLength="690" x="767" y="16.0859">This diagram is part of a visualisation of the code written for Sona.</text><text fill="#888888" font-family="monospace" font-size="16" lengthAdjust="spacingAndGlyphs" textLength="550" x="907" y="36.9766">View the project at github.com/cervonwong/sona-flutter.</text><text fill="#000000" font-family="monospace" font-size="24" font-weight="bold" lengthAdjust="spacingAndGlyphs" textLength="546" x="455.5" y="65.9102">Dependencies between layers of the app.</text><text fill="#000000" font-family="monospace" font-size="24" font-weight="bold" lengthAdjust="spacingAndGlyphs" textLength="0" x="735.5" y="97.2461"/><!--MD5=[e3bd33a92827c21193f8eb915c8968a3]
cluster Features--><polygon fill="#FFFFFF" points="304,161.4531,314,151.4531,1134,151.4531,1134,1676.4531,1124,1686.4531,304,1686.4531,304,161.4531" style="stroke:#000000;stroke-width:1.5;"/><line style="stroke:#000000;stroke-width:1.5;" x1="1124" x2="1134" y1="161.4531" y2="151.4531"/><line style="stroke:#000000;stroke-width:1.5;" x1="304" x2="1124" y1="161.4531" y2="161.4531"/><line style="stroke:#000000;stroke-width:1.5;" x1="1124" x2="1124" y1="161.4531" y2="1686.4531"/><text fill="#000000" font-family="monospace" font-size="16" font-weight="bold" lengthAdjust="spacingAndGlyphs" textLength="80" x="675" y="180.5391">Features</text><!--MD5=[8fd473fd151a2794da4f2c8684676405]
cluster Presentation--><path d="M890.4799,228.9036 C897.701,211.3678 909.2743,208.8533 921.7814,223.8118 C928.5514,208.8351 942.869,208.8674 951.4439,221.9005 C959.218,205.3937 975.9626,201.4455 986.7139,218.7995 C996.8129,205.9359 1010.2596,206.5194 1016.3773,222.8455 C1025.6299,209.9292 1036.8408,214.0257 1043.4602,225.7408 C1056.3948,211.4095 1073.5231,209.9182 1081,231.4531 C1082.6266,230.3916 1083.9488,231.2273 1083.8368,233.1216 C1097.4866,241.5293 1097.7834,251.7709 1084.5222,260.8439 C1097.1568,267.3801 1098.8446,281.1757 1086.0813,289.1127 C1097.882,296.6073 1099.4617,306.7986 1087.9597,315.9257 C1103.4538,323.9804 1103.3301,333.3647 1090.3473,343.8538 C1104.2365,353.3157 1104.6574,363.8545 1089.9459,372.9214 C1102.6002,377.9567 1104.1863,389.2485 1095.1726,398.6804 C1106.9666,405.7813 1104.8157,418.6121 1093.8931,424.5912 C1110.5279,431.6428 1107.8812,446.0477 1095.8711,454.9647 C1107.4431,463.7669 1102.4605,473.9767 1091.59,478.7374 C1106.7805,488.5062 1104.5137,498.3196 1090.8488,507.3406 C1105.396,516.5446 1101.7629,527.9357 1088.707,535.0023 C1104.1521,544.4662 1100.6366,554.5693 1088.2866,563.625 C1099.7088,572.8371 1099.5176,583.4171 1084.8084,589.0551 C1097.5195,604.2246 1094.5746,617.3881 1074,621.4531 C1075.7548,619.3862 1077.4235,619.6793 1078.7849,621.8929 C1071.5075,637.4605 1055.0391,638.1663 1045.8347,624.0305 C1038.3392,637.7489 1027.0979,640.7529 1016.8432,626.9357 C1005.913,640.0175 992.3562,640.4739 984.978,623.2064 C976.2671,636.0709 966.6818,638.9382 955.7281,625.7217 C944.1349,641.0851 931.9938,641.0484 922.6951,623.4241 C905.6894,638.5245 891.992,634.8118 883,614.4531 C884.4385,614.1415 884.9611,614.8422 884.7921,616.1896 C874.7854,608.4442 875.3832,595.4862 887.4029,589.9309 C871.9298,583.2262 872.0288,572.2513 883.3633,561.7094 C869.5498,553.9579 868.9292,542.0942 883.5387,534.526 C873.2476,527.5079 873.9108,515.9981 884.6679,509.9469 C869.8695,502.0845 872.1254,489.8068 884.3534,481.644 C868.4382,471.0317 872.3049,462.0218 884.7021,451.7395 C869.9133,444.113 870.6053,432.5556 883.6974,423.9221 C873.6824,416.1399 871.854,407.7876 883.6245,399.9392 C869.8968,389.284 873.4383,380.4064 886.1737,372.1814 C870.4031,363.2704 872.4938,351.7377 885.03,341.7625 C873.7724,334.1144 871.8981,326.5331 883.4958,317.4431 C869.5569,307.7528 870.044,292.5184 887.0975,286.427 C874.0062,280.6127 871.3356,270.8642 883.4876,261.4077 C868.9144,246.0045 868.9506,233.5787 890,224.4531 C892.4194,225.7438 892.1217,227.175 890.4799,228.9036 " fill="#FFFFFF" style="stroke:#000000;stroke-width:1.5;"/><text fill="#000000" font-family="monospace" font-size="16" font-weight="bold" lengthAdjust="spacingAndGlyphs" textLength="120" x="922" y="245.5391">Presentation</text><!--MD5=[121a8bf1197281ab89ed693fab589f94]
cluster Domain--><path d="M836.877,815.4359 C854.9093,789.4358 871.8381,788.0992 890.6779,814.6085 C903.6897,793.1552 924.2854,795.7474 936.7793,815.1923 C949.7644,789.9139 972.7468,786.2169 989.9241,810.7164 C1007.7117,786.0939 1033.6195,791.3035 1044,818.4531 C1048.596,816.5495 1051.2088,818.2581 1051.0254,823.2927 C1071.8084,834.8083 1066.0997,852.6383 1049.0107,862.1925 C1074.3238,874.1568 1069.8744,889.1549 1053.721,905.6171 C1075.4365,923.1847 1071.3206,939.9088 1047.255,950.9458 C1065.191,959.0123 1070.1025,974.4102 1055.3579,989.3687 C1073.3716,1005.7616 1074.7807,1021.5804 1051.0291,1033.9146 C1067.5107,1046.4311 1070.3606,1057.7287 1051.5237,1070.7199 C1074.4656,1085.0131 1080.1564,1100.1593 1057.4053,1119.9153 C1071.9645,1133.5505 1074.6539,1149.3538 1052.236,1157.9654 C1070.1749,1170.7425 1071.7495,1186.0281 1052.4987,1199.0431 C1074.3223,1211.9355 1069.7483,1232.1647 1050.884,1243.5819 C1070.4763,1252.6161 1068.9576,1271.2505 1052.6083,1281.9019 C1071.4764,1297.322 1067.8836,1317.0972 1046.4228,1326.984 C1063.4139,1338.1012 1065.9504,1352.2552 1049.3241,1365.88 C1068.8633,1385.4037 1060.2563,1405.0158 1037,1413.4531 C1037.7546,1413.6565 1037.8663,1414.1141 1037.5113,1414.7537 C1029.2627,1442.3841 1010.6281,1446.493 991.2504,1425.2986 C977.6646,1451.4839 959.2741,1453.0898 942.0513,1428.847 C923.4358,1447.0501 904.1702,1444.0608 891.8094,1421.1952 C866.5444,1451.0868 838.2531,1438.1608 827,1406.4531 C828.0282,1406.2746 828.7658,1406.5621 828.5079,1407.8114 C813.2447,1394.3905 812.4545,1378.314 831.7009,1367.6358 C809.1184,1356.6875 812.8313,1341.6285 828.437,1327.5693 C808.3987,1313.5692 805.0075,1297.8657 826.281,1281.9146 C806.4271,1268.7351 805.9185,1256.4228 826.0645,1243.0207 C801.3124,1231.5402 799.6938,1211.9469 822.8023,1197.0687 C806.1072,1182.2047 802.6754,1166.0328 826.3203,1154.5028 C807.0255,1141.6139 805.9056,1126.048 828.0128,1114.9299 C804.5813,1103.6762 806.3831,1089.7029 823.6549,1074.1044 C807.6573,1061.9277 808.4848,1044.3835 827.3915,1035.5934 C808.9524,1023.1199 807.426,1002.4081 828.8305,991.2269 C805.5567,976.4225 809.5709,961.5966 828.2102,946.2146 C809.9298,932.9224 813.0751,919.9284 829.3794,907.6857 C806.7763,895.8432 810.9262,878.8752 827.5109,865.305 C804.4749,844.4659 804.1159,825.9154 834,811.4531 C836.9408,811.2798 837.7758,812.8356 836.877,815.4359 " fill="#FFFFFF" style="stroke:#000000;stroke-width:1.5;"/><text fill="#000000" font-family="monospace" font-size="16" font-weight="bold" lengthAdjust="spacingAndGlyphs" textLength="60" x="905.5" y="832.5391">Domain</text><!--MD5=[f21b1f164e99c6b37934f23ad048ad54]
cluster Data--><path d="M364.6538,795.4993 C378.1158,774.4544 396.7815,773.7574 408.1639,797.5187 C421.7432,779.6429 437.1132,779.0518 450.9452,797.2187 C462.8151,779.0705 476.2013,779.6879 489.2309,795.9275 C501.6595,776.0578 522.5194,776.1315 531.0387,799.6909 C545.5973,776.9879 562.1462,779.4523 577.5428,798.7634 C588.2003,782.3772 604.4068,777.5902 616.6633,797.0169 C630.6546,778.0895 645.1578,775.8737 659.0017,797.1721 C671.0138,779.6867 690.7879,780.7542 698.3299,801.7414 C709.1146,778.7963 725.6938,779.6714 740.3877,797.7319 C754.2988,778.7679 776.2438,780.8978 787,801.4531 C792.2225,800.0984 794.5484,802.2499 793.8211,807.5508 C812.1303,819.1514 812.2993,837.8827 790.5797,846.1191 C810.9095,858.5389 812.7836,879.9978 792.8647,894.3253 C816.0742,908.4588 813.3716,924.2519 792.6121,938.1319 C810.75,955.093 810.76,968.6484 789.2652,982.6285 C814.0625,992.0176 816.9085,1012.8238 794.6106,1027.7875 C813.1338,1042.4327 810.5143,1057.7202 790.2256,1068.1487 C815.5054,1080.1891 816.023,1096.6441 793.7497,1112.466 C818.0809,1129.8312 814.8641,1144.5556 792.6173,1160.8301 C815.2221,1176.0014 812.3993,1193.3075 790.024,1205.89 C815.7272,1216.7368 817.3422,1235.9968 794.4921,1251.5906 C811.3452,1265.3768 810.0814,1281.4477 789.3794,1290.2698 C815.9668,1301.1061 818.0985,1326.3955 793.1679,1341.0736 C808.747,1355.8665 809.3785,1369.9986 789.5365,1381.6192 C810.3563,1401.0917 806.8356,1420.287 780,1430.4531 C782.5627,1428.4626 785.355,1429.2699 785.7213,1432.7501 C773.0628,1452.0165 758.4933,1452.1449 743.8815,1434.9943 C730.2527,1457.5996 709.5811,1459.2706 697.3004,1433.691 C688.9964,1455.7032 672.6277,1457.1584 656.8823,1441.7227 C646.1375,1463.3119 630.1354,1463.8829 617.3231,1443.6797 C605.7219,1460.7652 586.8027,1458.7692 576.639,1441.9545 C560.8431,1462.962 540.2074,1464.5314 528.7345,1437.6317 C518.3426,1454.7649 505.0363,1455.947 491.3712,1441.5048 C476.1819,1464.5156 458.118,1461.6282 446.6514,1437.94 C436.4885,1460.2204 415.8679,1456.1252 404.6691,1439.0448 C380.3045,1456.5072 362.4422,1453.0211 352,1423.4531 C355.8017,1424.7643 355.8063,1426.9218 353.871,1429.8983 C332.8217,1415.9435 328.0194,1398.1802 353.0732,1383.4336 C327.6071,1369.7894 328.3222,1350.6285 352.1159,1335.9903 C334.3271,1322.0275 334.5493,1303.908 355.5339,1293.03 C331.5658,1282.789 332.6344,1262.9304 350.6232,1248.1035 C332.4468,1233.2547 328.7434,1217.1539 352.3531,1203.9419 C334.3851,1194.628 331.819,1178.3566 346.6177,1164.3017 C324.5618,1149.4906 323.278,1128.5776 348.6463,1115.7479 C329.2862,1103.3527 329.8374,1090.5189 346.4131,1076.0996 C325.0802,1058.9482 329.2667,1036.8056 351.8525,1024.2627 C333.3193,1011.0526 332.9913,995.8148 350.6339,981.5721 C333.4019,968.628 331.975,954.2714 350.135,940.8933 C325.4295,924.7731 326.1541,902.6964 354.5805,891.343 C336.7889,877.463 337.2555,864.2881 357.4877,853.315 C326.9599,834.2741 327.005,811.8876 359,794.4531 C361.1388,792.1265 363.428,792.8923 364.6538,795.4993 " fill="#FFFFFF" style="stroke:#000000;stroke-width:1.5;"/><text fill="#000000" font-family="monospace" font-size="16" font-weight="bold" lengthAdjust="spacingAndGlyphs" textLength="40" x="549.5" y="815.5391">Data</text><!--MD5=[2c2e2644034c00788261e03c85b06837]
cluster Core--><polygon fill="#FFFFFF" points="1174,192.4531,1184,182.4531,1453,182.4531,1453,349.4531,1443,359.4531,1174,359.4531,1174,192.4531" style="stroke:#000000;stroke-width:1.5;"/><line style="stroke:#000000;stroke-width:1.5;" x1="1443" x2="1453" y1="192.4531" y2="182.4531"/><line style="stroke:#000000;stroke-width:1.5;" x1="1174" x2="1443" y1="192.4531" y2="192.4531"/><line style="stroke:#000000;stroke-width:1.5;" x1="1443" x2="1443" y1="192.4531" y2="359.4531"/><text fill="#000000" font-family="monospace" font-size="16" font-weight="bold" lengthAdjust="spacingAndGlyphs" textLength="40" x="1289.5" y="211.5391">Core</text><path d="M426.5,1485.4531 L426.5,1662.5781 A0,0 0 0 0 426.5,1662.5781 L687.5,1662.5781 A0,0 0 0 0 687.5,1662.5781 L687.5,1495.4531 L677.5,1485.4531 L561,1485.4531 L557,1422.9031 L553,1485.4531 L426.5,1485.4531 A0,0 0 0 0 426.5,1485.4531 " fill="#FBFB77" style="stroke:#A80036;stroke-width:1.0;"/><path d="M677.5,1485.4531 L677.5,1495.4531 L687.5,1495.4531 L677.5,1485.4531 " fill="#FBFB77" style="stroke:#A80036;stroke-width:1.0;"/><text fill="#000000" font-family="monospace" font-size="16" lengthAdjust="spacingAndGlyphs" textLength="180" x="432.5" y="1506.5391">Models are part of</text><text fill="#000000" font-family="monospace" font-size="16" lengthAdjust="spacingAndGlyphs" textLength="190" x="432.5" y="1527.4297">the database due to</text><text fill="#000000" font-family="monospace" font-size="16" lengthAdjust="spacingAndGlyphs" textLength="180" x="432.5" y="1548.3203">the limitations of</text><text fill="#000000" font-family="monospace" font-size="16" lengthAdjust="spacingAndGlyphs" textLength="200" x="432.5" y="1569.2109">moor's builders. See</text><text fill="#000000" font-family="monospace" font-size="16" font-style="italic" lengthAdjust="spacingAndGlyphs" textLength="190" x="432.5" y="1590.1016">https://github.com/</text><text fill="#000000" font-family="monospace" font-size="16" font-style="italic" lengthAdjust="spacingAndGlyphs" textLength="240" x="432.5" y="1610.9922">simolus3/moor/issues/490</text><text fill="#000000" font-family="monospace" font-size="16" lengthAdjust="spacingAndGlyphs" textLength="200" x="432.5" y="1631.8828">for progress on this</text><text fill="#000000" font-family="monospace" font-size="16" lengthAdjust="spacingAndGlyphs" textLength="20" x="432.5" y="1652.7734">:)</text><rect fill="#FEFECE" height="40.8906" style="stroke:#A80036;stroke-width:1.5;" width="84" x="965" y="278.4531"/><text fill="#000000" font-family="monospace" font-size="16" font-weight="bold" lengthAdjust="spacingAndGlyphs" textLength="70" x="972" y="296.5391">Widgets</text><line style="stroke:#A80036;stroke-width:1.5;" x1="966" x2="1048" y1="303.3438" y2="303.3438"/><rect fill="#FEFECE" height="74.6719" style="stroke:#A80036;stroke-width:1.5;" width="182" x="891" y="538.4531"/><text fill="#000000" font-family="monospace" font-size="16" font-weight="bold" lengthAdjust="spacingAndGlyphs" textLength="160" x="902" y="556.5391">State Management</text><line style="stroke:#A80036;stroke-width:1.5;" x1="892" x2="1072" y1="563.3438" y2="563.3438"/><text fill="#000000" font-family="monospace" font-size="16" lengthAdjust="spacingAndGlyphs" textLength="50" x="897" y="583.4297">BLoC,</text><text fill="#000000" font-family="monospace" font-size="16" lengthAdjust="spacingAndGlyphs" textLength="170" x="897" y="604.3203">ChangeNotifier...</text><rect fill="#FEFECE" height="40.8906" style="stroke:#A80036;stroke-width:1.5;" width="104" x="902" y="865.4531"/><text fill="#000000" font-family="monospace" font-size="16" font-weight="bold" lengthAdjust="spacingAndGlyphs" textLength="90" x="909" y="883.5391">Use Cases</text><line style="stroke:#A80036;stroke-width:1.5;" x1="903" x2="1005" y1="890.3438" y2="890.3438"/><rect fill="#FEFECE" height="40.8906" style="stroke:#A80036;stroke-width:1.5;" width="94" x="907" y="1364.4531"/><text fill="#000000" font-family="monospace" font-size="16" font-weight="bold" lengthAdjust="spacingAndGlyphs" textLength="80" x="914" y="1382.5391">Entities</text><line style="stroke:#A80036;stroke-width:1.5;" x1="908" x2="1000" y1="1389.3438" y2="1389.3438"/><rect fill="#FEFECE" height="40.8906" style="stroke:#A80036;stroke-width:1.5;" width="164" x="872" y="1114.9531"/><text fill="#000000" font-family="monospace" font-size="16" font-weight="bold" lengthAdjust="spacingAndGlyphs" textLength="150" x="879" y="1133.0391">Repo Interfaces</text><line style="stroke:#A80036;stroke-width:1.5;" x1="873" x2="1035" y1="1139.8438" y2="1139.8438"/><rect fill="#FEFECE" height="74.6719" style="stroke:#A80036;stroke-width:1.5;" width="202" x="577" y="848.4531"/><text fill="#000000" font-family="monospace" font-size="16" font-weight="bold" lengthAdjust="spacingAndGlyphs" textLength="100" x="628" y="866.5391">Repo Impls</text><line style="stroke:#A80036;stroke-width:1.5;" x1="578" x2="778" y1="873.3438" y2="873.3438"/><text fill="#000000" font-family="monospace" font-size="16" lengthAdjust="spacingAndGlyphs" textLength="180" x="583" y="893.4297">and Entity&lt;-&gt;Model</text><text fill="#000000" font-family="monospace" font-size="16" lengthAdjust="spacingAndGlyphs" textLength="70" x="583" y="914.3203">mappers</text><rect fill="#FEFECE" height="53.7813" style="stroke:#A80036;stroke-width:1.5;" width="182" x="360" y="858.9531"/><text fill="#000000" font-family="monospace" font-size="16" font-weight="bold" lengthAdjust="spacingAndGlyphs" textLength="90" x="406" y="877.0391">DAO Impls</text><line style="stroke:#A80036;stroke-width:1.5;" x1="361" x2="541" y1="883.8438" y2="883.8438"/><text fill="#000000" font-family="monospace" font-size="16" lengthAdjust="spacingAndGlyphs" textLength="170" x="366" y="903.9297">also Data Sources</text><rect fill="#FEFECE" height="53.7813" style="stroke:#A80036;stroke-width:1.5;" width="182" x="466" y="1108.4531"/><text fill="#000000" font-family="monospace" font-size="16" font-weight="bold" lengthAdjust="spacingAndGlyphs" textLength="140" x="487" y="1126.5391">DAO Interfaces</text><line style="stroke:#A80036;stroke-width:1.5;" x1="467" x2="647" y1="1133.3438" y2="1133.3438"/><text fill="#000000" font-family="monospace" font-size="16" lengthAdjust="spacingAndGlyphs" textLength="170" x="472" y="1153.4297">also Data Sources</text><rect fill="#FEFECE" height="74.6719" style="stroke:#A80036;stroke-width:1.5;" width="182" x="466" y="1347.4531"/><text fill="#000000" font-family="monospace" font-size="16" font-weight="bold" lengthAdjust="spacingAndGlyphs" textLength="130" x="492" y="1365.5391">Moor Database</text><line style="stroke:#A80036;stroke-width:1.5;" x1="467" x2="647" y1="1372.3438" y2="1372.3438"/><text fill="#000000" font-family="monospace" font-size="16" lengthAdjust="spacingAndGlyphs" textLength="160" x="472" y="1392.4297">Configs, Tables,</text><text fill="#000000" font-family="monospace" font-size="16" lengthAdjust="spacingAndGlyphs" textLength="60" x="472" y="1413.3203">Models</text><path d="M1217.5,262.4531 L1217.5,335.125 L1428.5,335.125 L1428.5,272.4531 L1418.5,262.4531 L1217.5,262.4531 " fill="#FBFB77" style="stroke:#A80036;stroke-width:1.0;"/><path d="M1418.5,262.4531 L1418.5,272.4531 L1428.5,272.4531 L1418.5,262.4531 " fill="#FBFB77" style="stroke:#A80036;stroke-width:1.0;"/><text fill="#000000" font-family="monospace" font-size="16" lengthAdjust="spacingAndGlyphs" textLength="170" x="1223.5" y="283.5391">Constants, utils,</text><text fill="#000000" font-family="monospace" font-size="16" lengthAdjust="spacingAndGlyphs" textLength="180" x="1223.5" y="304.4297">shared components,</text><text fill="#000000" font-family="monospace" font-size="16" lengthAdjust="spacingAndGlyphs" textLength="40" x="1223.5" y="325.3203">etc.</text><rect fill="#FEFECE" height="95.5625" style="stroke:#A80036;stroke-width:1.5;" width="212" x="7" y="250.9531"/><text fill="#000000" font-family="monospace" font-size="16" font-weight="bold" lengthAdjust="spacingAndGlyphs" textLength="150" x="38" y="269.0391">Service Locator</text><line style="stroke:#A80036;stroke-width:1.5;" x1="8" x2="218" y1="275.8438" y2="275.8438"/><text fill="#000000" font-family="monospace" font-size="16" lengthAdjust="spacingAndGlyphs" textLength="190" x="13" y="295.9297">Injection Container</text><text fill="#000000" font-family="monospace" font-size="16" lengthAdjust="spacingAndGlyphs" textLength="140" x="13" y="316.8203">for Dependency</text><text fill="#000000" font-family="monospace" font-size="16" lengthAdjust="spacingAndGlyphs" textLength="90" x="13" y="337.7109">Injection</text><!--MD5=[d82ef6b2c738c1c7a188aee55dc2c4f7]
link w to s--><path codeLine="58" d="M1005.2,319.7331 C1001.16,364.2031 991.28,472.8931 985.8,533.1031 " fill="none" id="w-to-s" style="stroke:#A80036;stroke-width:1.0;stroke-dasharray:7.0,7.0;"/><polygon fill="#A80036" points="985.32,538.4131,990.1006,529.8023,985.7624,533.4327,982.132,529.0945,985.32,538.4131" style="stroke:#A80036;stroke-width:1.0;"/><!--MD5=[4546973ef7dacf83725163dac0c05358]
link w to e--><path codeLine="59" d="M1041.25,319.5131 C1070.88,339.2731 1109,372.7931 1109,414.4531 C1109,414.4531 1109,414.4531 1109,1286.4531 C1109,1336.1431 1051.22,1361.5031 1006.21,1373.7131 " fill="none" id="w-to-e" style="stroke:#A80036;stroke-width:1.0;stroke-dasharray:7.0,7.0;"/><polygon fill="#A80036" points="1001.35,1375.0031,1011.0719,1376.5796,1006.1852,1373.73,1009.0348,1368.8433,1001.35,1375.0031" style="stroke:#A80036;stroke-width:1.0;"/><!--MD5=[f7ac959458b02596d8dec769f76e38c2]
link s to u--><path codeLine="60" d="M978.68,613.4931 C972.9,677.0931 961.13,806.4931 956.23,860.4631 " fill="none" id="s-to-u" style="stroke:#A80036;stroke-width:1.0;stroke-dasharray:7.0,7.0;"/><polygon fill="#A80036" points="955.77,865.4431,960.5751,856.846,956.2265,860.464,952.6085,856.1155,955.77,865.4431" style="stroke:#A80036;stroke-width:1.0;"/><!--MD5=[fcf18d6011f98154ac9c493f12e89716]
link s to e--><path codeLine="61" d="M1037.97,613.5031 C1056.28,630.0631 1072,651.5331 1072,676.4531 C1072,676.4531 1072,676.4531 1072,1286.4531 C1072,1323.1831 1037.61,1348.6731 1005.96,1364.3531 " fill="none" id="s-to-e" style="stroke:#A80036;stroke-width:1.0;stroke-dasharray:7.0,7.0;"/><polygon fill="#A80036" points="1001.32,1366.5931,1011.164,1366.2843,1005.8231,1364.4202,1007.6873,1359.0793,1001.32,1366.5931" style="stroke:#A80036;stroke-width:1.0;"/><!--MD5=[045ac208ce3b5b3d224befd3f4c5c570]
link u to e--><path codeLine="62" d="M902.24,906.4531 C870.54,922.1331 836,947.6431 836,984.4531 C836,984.4531 836,984.4531 836,1286.4531 C836,1323.1831 870.39,1348.6731 902.04,1364.3531 " fill="none" id="u-to-e" style="stroke:#A80036;stroke-width:1.0;stroke-dasharray:7.0,7.0;"/><polygon fill="#A80036" points="906.68,1366.5931,900.3127,1359.0793,902.1769,1364.4202,896.836,1366.2843,906.68,1366.5931" style="stroke:#A80036;stroke-width:1.0;"/><!--MD5=[10426faf2822c007a77520b7cd00fe82]
link u to ir--><path codeLine="63" d="M954,906.7931 C954,951.6131 954,1060.6231 954,1109.7431 " fill="none" id="u-to-ir" style="stroke:#A80036;stroke-width:1.0;stroke-dasharray:7.0,7.0;"/><polygon fill="#A80036" points="954,1114.8631,958,1105.8631,954,1109.8631,950,1105.8631,954,1114.8631" style="stroke:#A80036;stroke-width:1.0;"/><!--MD5=[3b1f9e3a281d418c889bfca96d71d676]
link ir to e--><path codeLine="64" d="M954,1156.2931 C954,1201.1131 954,1310.1231 954,1359.2431 " fill="none" id="ir-to-e" style="stroke:#A80036;stroke-width:1.0;stroke-dasharray:7.0,7.0;"/><polygon fill="#A80036" points="954,1364.3631,958,1355.3631,954,1359.3631,950,1355.3631,954,1364.3631" style="stroke:#A80036;stroke-width:1.0;"/><!--MD5=[4db938e82141146da7a044fb7966322c]
link ri to ir--><path codeLine="65" d="M718.72,923.4731 C772.17,971.4031 865.22,1054.8431 916.84,1101.1231 " fill="none" id="ri-to-ir" style="stroke:#A80036;stroke-width:1.0;stroke-dasharray:7.0,7.0;"/><polygon fill="none" points="921.82,1096.1931,932.04,1114.7531,912.47,1106.6131,921.82,1096.1931" style="stroke:#A80036;stroke-width:1.0;"/><!--MD5=[ef247cbac8668f60d8ea88c662449112]
link ri to id--><path codeLine="66" d="M660.15,923.4731 C636.25,972.3531 594.29,1058.1731 571.96,1103.8431 " fill="none" id="ri-to-id" style="stroke:#A80036;stroke-width:1.0;stroke-dasharray:7.0,7.0;"/><polygon fill="#A80036" points="569.73,1108.4031,577.2844,1102.084,571.9317,1103.914,570.1017,1098.5613,569.73,1108.4031" style="stroke:#A80036;stroke-width:1.0;"/><!--MD5=[717df48724e670f5b4538fa9178e9ed6]
link ri to db--><path codeLine="67" d="M681.32,923.4931 C682.7,941.7831 684,964.2731 684,984.4531 C684,984.4531 684,984.4531 684,1286.4531 C684,1310.6131 669.36,1329.6131 650.02,1344.1631 " fill="none" id="ri-to-db" style="stroke:#A80036;stroke-width:1.0;stroke-dasharray:7.0,7.0;"/><polygon fill="#A80036" points="645.55,1347.3831,655.1852,1345.3428,649.5992,1344.4499,650.4921,1338.864,645.55,1347.3831" style="stroke:#A80036;stroke-width:1.0;"/><!--MD5=[3aadb2425ab340d75a2b8369b88c3090]
link ri to e--><path codeLine="68" d="M710.31,923.6731 C722.28,940.9231 733,962.4931 733,984.4531 C733,984.4531 733,984.4531 733,1286.4531 C733,1323.1831 836.49,1355.3031 901.83,1371.9231 " fill="none" id="ri-to-e" style="stroke:#A80036;stroke-width:1.0;stroke-dasharray:7.0,7.0;"/><polygon fill="#A80036" points="906.86,1373.1831,899.1199,1367.0929,902.0135,1371.9536,897.1527,1374.8472,906.86,1373.1831" style="stroke:#A80036;stroke-width:1.0;"/><!--MD5=[99a72c7b55631d88e329c6e8e8a1d276]
link di to db--><path codeLine="69" d="M442.22,913.1131 C436.46,932.5531 430,959.8631 430,984.4531 C430,984.4531 430,984.4531 430,1286.4531 C430,1310.6131 444.64,1329.6131 463.98,1344.1631 " fill="none" id="di-to-db" style="stroke:#A80036;stroke-width:1.0;stroke-dasharray:7.0,7.0;"/><polygon fill="#A80036" points="468.45,1347.3831,463.5079,1338.864,464.4008,1344.4499,458.8148,1345.3428,468.45,1347.3831" style="stroke:#A80036;stroke-width:1.0;"/><!--MD5=[7aa9af87c0b9289b42293f157a53e025]
link di to id--><path codeLine="70" d="M462.14,912.9731 C480.12,954.9331 515.72,1038.0631 537.83,1089.6931 " fill="none" id="di-to-id" style="stroke:#A80036;stroke-width:1.0;stroke-dasharray:7.0,7.0;"/><polygon fill="none" points="544.41,1087.2731,545.85,1108.4131,531.54,1092.7831,544.41,1087.2731" style="stroke:#A80036;stroke-width:1.0;"/><!--MD5=[7a510777642ea981a0fd51bcb327fe86]
link id to db--><path codeLine="71" d="M557,1162.4731 C557,1205.1931 557,1290.5631 557,1341.9331 " fill="none" id="id-to-db" style="stroke:#A80036;stroke-width:1.0;stroke-dasharray:7.0,7.0;"/><polygon fill="#A80036" points="557,1347.1031,561,1338.1031,557,1342.1031,553,1338.1031,557,1347.1031" style="stroke:#A80036;stroke-width:1.0;"/><!--MD5=[02bc40338c3adfdf4b8dbb99de91cf24]
link sl to Features--><path codeLine="73" d="M219.2,298.9531 C241.43,298.9531 263.21,298.9531 280.0775,298.9531 C288.5113,298.9531 295.7169,298.9531 301.1366,298.9531 C301.814,298.9531 302.4636,298.9531 303.0841,298.9531 C303.3944,298.9531 303.6975,298.9531 303.9931,298.9531 " fill="none" id="sl-to-Features" style="stroke:#A80036;stroke-width:1.0;stroke-dasharray:7.0,7.0;"/><polygon fill="#A80036" points="303.9931,298.9531,294.9931,294.9531,298.9931,298.9531,294.9931,302.9531,303.9931,298.9531" style="stroke:#A80036;stroke-width:1.0;"/><!--MD5=[2c271655a0c9ad5e3dece1b2ef732d32]
link Features to Core--><path d="M1134.3506,195.7992 C1135.7238,197.6444 1137.0642,199.5101 1138.3721,201.3918 C1140.988,205.1552 1143.474,208.9822 1145.8334,212.835 C1150.5523,220.5406 1154.7647,228.3494 1158.4963,235.9581 C1162.2278,243.5669 1165.4785,250.9756 1168.2739,257.8813 C1169.6716,261.3341 1170.9555,264.6611 1172.1288,267.8245 C1172.7154,269.4061 1173.2744,270.9469 1173.8061,272.442 C1173.8393,272.5354 1173.8724,272.6287 1173.9055,272.7218 " fill="none" id="Features-to-Core" style="stroke:#A80036;stroke-width:1.0;stroke-dasharray:7.0,7.0;"/><polygon fill="#A80036" points="1173.9055,272.7218,1174.6665,262.9024,1172.2339,268.0095,1167.1268,265.5768,1173.9055,272.7218" style="stroke:#A80036;stroke-width:1.0;"/><text fill="#888888" font-family="monospace" font-size="16" lengthAdjust="spacingAndGlyphs" textLength="300" x="578.5" y="1708.5391">Copyright (C) 2020 Cervon Wong</text><!--MD5=[cc85f3391f8d3913ad371a2df1ecc913]
@startuml
skinparam classAttributeIconSize 0
skinparam wrapWidth 400

skinparam wrapWidth 200
skinparam maxMessageSize 100
skinparam defaultFontName Monospaced
skinparam defaultFontSize 16
skinparam arrowFontSize 12
skinparam objectFontStyle bold
skinparam titleFontSize 24
skinparam titleFontStyle bold
skinparam shadowing false

header This diagram is part of a visualisation of the code written for Sona.\n View the project at github.com/cervonwong/sona-flutter.
title Dependencies between layers of the app.\n
footer Copyright (C) 2020 Cervon Wong

package Features <<Node>> {
	package Presentation <<Cloud>> {
		object "Widgets" as w
		object "State Management" as s {
			BLoC, ChangeNotifier...
		}
	}
	
	package Domain <<Cloud>> {
		object "Use Cases" as u
		object "Entities" as e
		object "Repo Interfaces" as ir
	}
	
	package Data <<Cloud>> {
		object "Repo Impls" as ri {
			and Entity<->Model mappers
		}
		object "DAO Impls" AS di {
			also Data Sources
		}
		object "DAO Interfaces" as id {
			also Data Sources
		}
		object "Moor Database" as db {
			Configs, Tables, Models
		}
	}

	note bottom of db
    	Models are part of the database due to the limitations of moor's builders. See <i>https://github.com/ simolus3/moor/issues/490</i>for progress on this :)
    end note
}

object "Service Locator" as sl {
	Injection Container for Dependency Injection
}

package Core <<Node>> {
	note "Constants, utils, shared components, etc." as n1
}

w  ....>  s
w  ....>  e
s  ....>  u
s  ....>  e
u  ....>  e
u  ....>  ir
ir ....>  e
ri ....|> ir
ri ....>  id
ri ....>  db
ri ....>  e
di ....>  db
di ....|> id
id ....> db

sl .> Features : \t
Features .> Core : \t

@enduml

PlantUML version 1.2020.23(Mon Dec 14 03:14:58 SGT 2020)
(GPL source distribution)
Java Runtime: OpenJDK Runtime Environment
JVM: OpenJDK 64-Bit Server VM
Default Encoding: Cp1252
Language: en
Country: GB
--></g></svg>