<?xml version="1.0" encoding="UTF-8" standalone="no"?><svg xmlns="http://www.w3.org/2000/svg" xmlns:xlink="http://www.w3.org/1999/xlink" contentScriptType="application/ecmascript" contentStyleType="text/css" height="1347px" preserveAspectRatio="none" style="width:1064px;height:1347px;" version="1.1" viewBox="0 0 1064 1347" width="1064px" zoomAndPan="magnify"><defs/><g><text fill="#888888" font-family="monospace" font-size="16" lengthAdjust="spacingAndGlyphs" textLength="690" x="361.5" y="16.0859">This diagram is part of a visualisation of the code written for Sona.</text><text fill="#888888" font-family="monospace" font-size="16" lengthAdjust="spacingAndGlyphs" textLength="550" x="501.5" y="36.9766">View the project at github.com/cervonwong/sona-flutter.</text><text fill="#000000" font-family="monospace" font-size="24" font-weight="bold" lengthAdjust="spacingAndGlyphs" textLength="546" x="252.75" y="65.9102">Dependencies between layers of the app.</text><text fill="#000000" font-family="monospace" font-size="24" font-weight="bold" lengthAdjust="spacingAndGlyphs" textLength="0" x="532.75" y="97.2461"/><!--MD5=[8fd473fd151a2794da4f2c8684676405]
cluster Presentation--><path d="M825.1203,141.9334 C831.0989,131.7989 837.5044,127.7659 846.8197,138.4565 C853.132,126.8225 859.9864,123.1894 870.1665,134.5252 C876.1271,123.8336 885.381,122.0461 892.1368,133.7448 C898.4235,119.3679 906.437,119.4525 916.4659,130.1078 C925.7891,118.6971 933.2657,121.26 939.9128,132.8373 C948.0184,125.051 956.4216,123.7431 961.7337,135.8946 C969.6031,126.0239 979.5408,129.674 983.1425,140.3429 C993.4121,130.0744 1008.6269,130.457 1012.5,147.2755 C1014.857,147.3259 1016.0333,148.1213 1015.1201,150.6849 C1025.3606,155.3644 1027.9234,165.8354 1017.2953,172.5875 C1030.5635,178.909 1028.2198,190.9415 1017.9435,197.8668 C1031.5377,202.831 1029.8718,214.2286 1020.6152,221.7491 C1034.776,227.9707 1036.0218,239.6049 1022.4002,247.7348 C1035.2226,253.2983 1035.5109,262.1511 1025.7589,270.9768 C1036.0868,279.1806 1038.0041,287.4532 1024.9984,294.9156 C1037.097,301.1731 1037.0371,312.7518 1026.5911,320.4174 C1036.9462,327.8899 1036.4465,337.7005 1023.9599,342.4445 C1034.9578,348.5162 1037.2936,360.6237 1025.7046,368.2241 C1035.697,377.5906 1035.0274,385.5005 1021.4974,390.4055 C1035.2842,397.4978 1033.0327,411.0476 1021.1119,417.7778 C1029.4772,425.6566 1030.3046,434.4358 1017.9944,439.323 C1028.3927,448.1507 1028.9194,458.4038 1014.955,464.2624 C1024.661,478.3361 1023.5005,488.9302 1005.5,494.2755 C1007.4296,494.1055 1007.9063,495.5436 1007.2551,497.0225 C998.8717,513.3232 989.3971,510.6641 978.3077,499.9188 C969.4159,515.0275 958.4971,514.1413 948.6971,500.8662 C940.0956,514.8776 926.313,517.6748 915.8535,502.9929 C905.7898,517.8683 895.0904,514.5798 886.0746,501.862 C872.9849,518.0164 863.0814,514.9322 852.743,499.0036 C836.1829,515.3295 819.9669,507.1226 814.5,487.2755 C815.9498,487.4643 816.3873,488.3626 815.4976,489.569 C802.5769,479.857 804.4591,470.7626 817.915,463.4961 C805.27,458.0229 804.1974,449.0297 813.197,439.3307 C803.685,433.4415 801.9652,422.1166 813.7271,416.7263 C802.1709,409.768 803.1125,402.5922 812.7787,394.7193 C800.7264,387.7397 802.4163,374.5401 813.3182,368.0244 C801.8165,362.2655 802.2223,350.1011 812.4263,343.5511 C798.8612,337.9237 799.8332,330.2601 808.655,320.9046 C798.0728,312.4451 798.994,302.3896 811.7318,296.9218 C800.6189,290.3604 800.2547,278.3873 811.5162,271.6351 C799.1834,263.9472 802.4524,254.6235 812.6364,248.0029 C802.0395,240.2922 801.8132,228.1667 815.1058,222.7965 C803.28,215.5027 802.591,203.6995 815.2971,196.5846 C804.4983,191.1239 804.1278,180.9347 814.6218,174.8135 C802.5006,162.2794 803.3485,146.7808 821.5,140.2755 C823.4662,138.8726 824.911,139.4998 825.1203,141.9334 " fill="#FFFFFF" style="stroke:#000000;stroke-width:1.5;"/><text fill="#000000" font-family="monospace" font-size="16" font-weight="bold" lengthAdjust="spacingAndGlyphs" textLength="120" x="853.5" y="161.3615">Presentation</text><!--MD5=[121a8bf1197281ab89ed693fab589f94]
cluster Domain--><path d="M731.7282,644.2341 C746.9626,622.4521 774.2309,616.9252 786.8914,646.9735 C797.9198,619.2596 813.8357,614.8484 835.2768,636.8365 C855.362,614.274 874.519,622.7039 884.0597,647.6612 C904.9036,619.7721 923.6734,623.0139 941.5,650.7755 C945.9529,651.2142 947.5522,653.1817 946.3626,657.6257 C963.7537,670.8234 964.5317,682.1538 945.1394,694.1186 C966.9962,704.8662 969.8036,722.7764 948.7595,737.1344 C970.1627,749.471 970.2089,773.3193 948.2512,785.1973 C971.0088,796.6942 972.6444,809.8209 952.0509,825.4137 C971.721,837.2689 972.0092,855.6358 954.2252,869.3447 C972.5481,885.2673 971.6245,901.0267 951.8266,914.9441 C971.4712,921.8347 975.5407,938.4091 958.7592,952.0968 C982.196,970.4956 980.3694,986.5885 954.8567,1001.0881 C971.1003,1016.4917 966.1626,1028.4461 948.8268,1038.4269 C969.1003,1050.0918 967.8423,1067.7634 951.029,1081.3318 C969.7123,1097.3578 970.0747,1110.78 947.7633,1123.6417 C971.1575,1133.8969 971.8067,1153.2716 950.6608,1166.5354 C971.6427,1181.4583 968.4512,1201.7022 946.4728,1212.7303 C962.3506,1231.841 958.8496,1248.9771 934.5,1257.2755 C937.9177,1255.2182 940.815,1256.103 940.8846,1260.558 C925.2292,1280.7683 907.8813,1285.9971 891.3744,1261.5009 C876.5972,1286.9996 852.192,1286.82 835.3443,1263.8967 C821.049,1287.0943 801.4024,1290.2012 785.551,1265.515 C759.7198,1285.8067 737.2199,1282.509 724.5,1250.2755 C726.8857,1250.5682 727.7409,1251.9787 726.6111,1254.1747 C708.1025,1242.1281 707.9312,1224.3323 726.2563,1211.9759 C706.6944,1198.8847 706.4751,1180.5583 729.8257,1171.2259 C709.1243,1161.6082 705.3494,1143.2456 722.2146,1127.142 C705.6472,1111.5594 701.8306,1092.5843 727.8742,1082.3907 C709.7193,1072.8744 705.1373,1056.2811 722.4782,1042.0204 C704.6496,1029.8789 698.8104,1012.5568 721.4846,999.4695 C700.9945,983.5072 700.3574,964.9772 725.3914,952.828 C704.9819,944.2823 702.6774,926.4158 720.7778,913.3676 C697.393,897.348 699.9659,880.997 723.7403,868.061 C701.8935,850.5283 706.0073,835.4846 728.0877,822.1076 C705.2462,813.7874 704.1277,793.2692 723.8814,780.6294 C707.6908,765.9407 705.6282,750.6536 728.91,740.9699 C710.5319,729.1739 703.4895,712.2515 725.9482,697.6627 C699.4902,681.0522 704.7208,654.9012 731.5,643.7755 C731.7584,643.8171 731.8932,643.9818 731.7282,644.2341 " fill="#FFFFFF" style="stroke:#000000;stroke-width:1.5;"/><text fill="#000000" font-family="monospace" font-size="16" font-weight="bold" lengthAdjust="spacingAndGlyphs" textLength="60" x="803" y="664.8615">Domain</text><!--MD5=[f21b1f164e99c6b37934f23ad048ad54]
cluster Data--><path d="M298.619,640.4158 C314.74,621.7255 329.2231,623.7698 343.4496,642.6748 C352.0765,622.373 369.4713,615.62 385.2542,635.1677 C400.4191,612.6651 415.247,614.0459 430.4167,635.1627 C443.3241,612.6639 457.1338,613.0252 471.6489,633.6246 C484.0765,618.7022 499.4407,618.2764 507.1882,638.374 C525.4197,618.9165 540.438,618.1784 556.0769,641.3474 C564.4687,619.2792 584.8919,616.3788 597.3594,637.4469 C613.7913,621.3262 628.3923,622.2944 638.5,644.2755 C639.3483,642.9254 640.7673,643.172 641.3947,644.5131 C665.5611,661.8703 662.161,678.0152 640.3897,694.4478 C662.1806,708.4934 660.0708,726.6579 640.4257,740.7358 C660.6704,749.4437 663.052,769.028 643.3642,780.6739 C664.1842,798.0674 662.2652,811.9234 640.2362,826.3847 C659.4421,839.5785 658.2163,853.2157 642.0492,867.9522 C666.2019,877.6127 665.0545,897.2054 648.2751,912.5766 C671.162,931.251 666.003,948.3299 641.3756,960.1072 C663.2117,971.1435 667.7155,987.7688 647.1772,1004.3605 C668.7671,1020.5786 669.5137,1037.89 645.0769,1052.0824 C663.1664,1068.5409 662.7178,1083.2291 641.9798,1097.0111 C661.9162,1109.9234 661.0576,1126.6337 639.5048,1136.9767 C665.7937,1147.3359 661.9556,1171.0373 642.3206,1184.1384 C666.5507,1197.6379 662.705,1216.6157 641.9841,1229.7839 C657.0324,1248.4337 654.4282,1264.5746 631.5,1274.2755 C632.1926,1274.1508 632.465,1274.4569 632.3582,1275.1327 C621.2361,1297.3363 608.4104,1302.1448 590.5323,1281.769 C579.8148,1301.9955 561.3286,1298.6767 550.4815,1281.9092 C536.6411,1301.626 523.1403,1300.9417 507.7457,1283.7066 C498.967,1305.2791 483.0025,1304.2964 468.8861,1289.3932 C454.6597,1303.1266 434.2898,1303.873 429.3365,1279.7145 C419.0989,1302.71 401.0525,1302.978 386.2151,1284.4966 C370.1084,1306.1751 353.9963,1304.4341 343.1793,1279.6021 C322.6232,1300.5232 300.6263,1294.2738 291.5,1267.2755 C292.5776,1266.4575 293.5189,1266.4596 294.0293,1267.9084 C275.9992,1257.9338 275.7604,1240.96 290.8932,1228.3558 C268.5276,1211.6576 270.8456,1195.4115 295.6838,1183.7872 C272.0727,1172.1017 271.9106,1151.8571 292.1532,1136.8713 C272.4538,1122.5343 266.4707,1107.72 290.2979,1091.5993 C272.8738,1077.181 271.9006,1062.0245 291.9673,1049.0781 C272.8659,1038.5823 269.089,1017.5519 288.3699,1003.9935 C262.4173,993.6527 264.3275,974.2462 281.6583,957.6385 C263.9061,945.5681 263.9667,925.0287 283.9704,915.0059 C262.8163,896.6529 265.4298,879.7826 289.8533,867.0168 C274.0579,854.3391 272.7639,841.9125 289.401,828.8505 C269.6045,814.0747 268.9501,797.8786 288.5397,782.3729 C265.6014,767.698 270.4961,750.0745 291.1295,737.9392 C269.6009,723.9497 269.0134,702.824 294.4004,692.1887 C272.9944,672.5961 270.0573,653.1466 298.5,637.2755 C300.0477,638.2821 300.0066,639.298 298.619,640.4158 " fill="#FFFFFF" style="stroke:#000000;stroke-width:1.5;"/><text fill="#000000" font-family="monospace" font-size="16" font-weight="bold" lengthAdjust="spacingAndGlyphs" textLength="40" x="445" y="658.3615">Data</text><!--MD5=[2c2e2644034c00788261e03c85b06837]
cluster Core--><path d="M347.2401,124.4907 C352.2062,118.8219 357.0984,117.3175 361.7079,124.8805 C365.2705,117.6849 370.812,116.0553 376.4545,122.6575 C381.2081,114.2481 386.2782,114.2614 392.8672,120.6173 C397.2255,114.0427 404.9662,114.7633 408.4387,121.6425 C412.3585,116.4485 417.1806,116.2098 421.1588,121.5722 C424.1622,111.2512 431.6348,111.7057 438.2554,117.8062 C442.935,110.4531 448.6684,112.1335 452.6813,118.5069 C457.9678,111.7799 463.0153,112.4684 467.6389,119.2413 C472.6523,111.2017 480.5388,111.6397 484.3819,120.4072 C488.7511,113.9915 495.0961,116.1488 497.8598,122.1499 C503.5332,115.0108 508.7856,113.8719 513.9139,122.6981 C518.8478,113.7819 525.8034,114.9713 530.3837,123.041 C534.2533,116.3508 540.6666,118.193 543.6577,123.9759 C552.3398,115.6844 562.3485,119.3914 565.5,130.2755 C566.6499,129.4432 567.9423,129.7786 568.1353,131.3324 C577.5609,135.3748 577.5365,143.0105 570.5333,149.2515 C577.699,153.4624 577.5214,158.7227 571.6526,163.9277 C581.5054,168.7927 580.8233,174.6738 574.1807,181.8638 C581.2237,187.984 580.6531,196.5825 570.7631,199.4033 C577.193,204.9807 575.9176,211.8613 568.1747,215.1019 C575.0231,227.0885 573.6753,234.8983 558.5,237.2755 C559.0932,237.6132 559.1729,237.9636 558.5928,238.3982 C555.3958,246.1766 548.3662,246.6549 543.5977,240.0348 C539.2342,247.7263 533.0249,245.9538 528.8513,239.832 C524.8324,246.4989 518.72,247.199 514.3493,240.2056 C510.069,249.5936 503.3715,249.7855 497.465,241.7846 C493.487,248.023 488.1201,248.004 484.6141,241.3154 C479.7027,250.0714 473.448,250.0038 468.0066,241.8355 C463.6313,249.0752 458.6244,247.9555 453.7235,242.4233 C447.5494,248.9978 441.7716,250.0359 436.709,241.1964 C432.4155,249.2677 427.027,247.885 422.2103,241.7297 C416.5797,247.505 411.5872,248.0668 407.2414,240.3086 C402.7447,247.7125 396.1472,246.3791 391.9133,240.016 C387.1406,247.1094 380.9473,245.2565 377.6546,238.493 C372.4295,246.0488 366.9762,246.4927 361.5218,238.7346 C350.8237,246.9198 340.742,243.2641 337.5,230.2755 C337.7523,230.3574 337.8495,230.5661 337.6501,230.7819 C330.0113,226.4319 328.7707,219.0069 336.864,213.9234 C328.436,210.6977 328.0177,204.6537 333.7009,198.5286 C324.0447,195.4302 323.936,189.7725 330.0059,182.9451 C320.6458,176.5013 323.3792,168.621 332.4236,164.6031 C323.9762,158.4006 326.2359,151.033 334.9937,147.4011 C326.2801,135.027 331.2756,127.0053 344.5,123.2755 C346.019,122.2004 346.9375,122.8229 347.2401,124.4907 " fill="#FFFFFF" style="stroke:#000000;stroke-width:1.5;"/><text fill="#000000" font-family="monospace" font-size="16" font-weight="bold" lengthAdjust="spacingAndGlyphs" textLength="40" x="431.5" y="144.3615">Core</text><rect fill="#FEFECE" height="40.8906" style="stroke:#A80036;stroke-width:1.5;" width="84" x="907.5" y="171.2755"/><text fill="#000000" font-family="monospace" font-size="16" font-weight="bold" lengthAdjust="spacingAndGlyphs" textLength="70" x="914.5" y="189.3615">Widgets</text><line style="stroke:#A80036;stroke-width:1.5;" x1="908.5" x2="990.5" y1="196.1662" y2="196.1662"/><rect fill="#FEFECE" height="74.6719" style="stroke:#A80036;stroke-width:1.5;" width="182" x="822.5" y="411.2755"/><text fill="#000000" font-family="monospace" font-size="16" font-weight="bold" lengthAdjust="spacingAndGlyphs" textLength="160" x="833.5" y="429.3615">State Management</text><line style="stroke:#A80036;stroke-width:1.5;" x1="823.5" x2="1003.5" y1="436.1662" y2="436.1662"/><text fill="#000000" font-family="monospace" font-size="16" lengthAdjust="spacingAndGlyphs" textLength="50" x="828.5" y="456.2521">BLoC,</text><text fill="#000000" font-family="monospace" font-size="16" lengthAdjust="spacingAndGlyphs" textLength="170" x="828.5" y="477.1427">ChangeNotifier...</text><rect fill="#FEFECE" height="40.8906" style="stroke:#A80036;stroke-width:1.5;" width="104" x="799.5" y="674.7755"/><text fill="#000000" font-family="monospace" font-size="16" font-weight="bold" lengthAdjust="spacingAndGlyphs" textLength="90" x="806.5" y="692.8615">Use Cases</text><line style="stroke:#A80036;stroke-width:1.5;" x1="800.5" x2="902.5" y1="699.6662" y2="699.6662"/><rect fill="#FEFECE" height="40.8906" style="stroke:#A80036;stroke-width:1.5;" width="94" x="804.5" y="1208.2755"/><text fill="#000000" font-family="monospace" font-size="16" font-weight="bold" lengthAdjust="spacingAndGlyphs" textLength="80" x="811.5" y="1226.3615">Entities</text><line style="stroke:#A80036;stroke-width:1.5;" x1="805.5" x2="897.5" y1="1233.1662" y2="1233.1662"/><rect fill="#FEFECE" height="40.8906" style="stroke:#A80036;stroke-width:1.5;" width="164" x="769.5" y="910.7755"/><text fill="#000000" font-family="monospace" font-size="16" font-weight="bold" lengthAdjust="spacingAndGlyphs" textLength="150" x="776.5" y="928.8615">Repo Interfaces</text><line style="stroke:#A80036;stroke-width:1.5;" x1="770.5" x2="932.5" y1="935.6662" y2="935.6662"/><rect fill="#FEFECE" height="40.8906" style="stroke:#A80036;stroke-width:1.5;" width="114" x="516.5" y="674.7755"/><text fill="#000000" font-family="monospace" font-size="16" font-weight="bold" lengthAdjust="spacingAndGlyphs" textLength="100" x="523.5" y="692.8615">Repo Impls</text><line style="stroke:#A80036;stroke-width:1.5;" x1="517.5" x2="629.5" y1="699.6662" y2="699.6662"/><rect fill="#FEFECE" height="53.7813" style="stroke:#A80036;stroke-width:1.5;" width="182" x="299.5" y="668.2755"/><text fill="#000000" font-family="monospace" font-size="16" font-weight="bold" lengthAdjust="spacingAndGlyphs" textLength="90" x="345.5" y="686.3615">DAO Impls</text><line style="stroke:#A80036;stroke-width:1.5;" x1="300.5" x2="480.5" y1="693.1662" y2="693.1662"/><text fill="#000000" font-family="monospace" font-size="16" lengthAdjust="spacingAndGlyphs" textLength="170" x="305.5" y="713.2521">also Data Sources</text><rect fill="#FEFECE" height="53.7813" style="stroke:#A80036;stroke-width:1.5;" width="182" x="336.5" y="904.2755"/><text fill="#000000" font-family="monospace" font-size="16" font-weight="bold" lengthAdjust="spacingAndGlyphs" textLength="140" x="357.5" y="922.3615">DAO Interfaces</text><line style="stroke:#A80036;stroke-width:1.5;" x1="337.5" x2="517.5" y1="929.1662" y2="929.1662"/><text fill="#000000" font-family="monospace" font-size="16" lengthAdjust="spacingAndGlyphs" textLength="170" x="342.5" y="949.2521">also Data Sources</text><rect fill="#FEFECE" height="74.6719" style="stroke:#A80036;stroke-width:1.5;" width="182" x="311.5" y="1191.2755"/><text fill="#000000" font-family="monospace" font-size="16" font-weight="bold" lengthAdjust="spacingAndGlyphs" textLength="130" x="337.5" y="1209.3615">Moor Database</text><line style="stroke:#A80036;stroke-width:1.5;" x1="312.5" x2="492.5" y1="1216.1662" y2="1216.1662"/><text fill="#000000" font-family="monospace" font-size="16" lengthAdjust="spacingAndGlyphs" textLength="160" x="317.5" y="1236.2521">Configs, Tables,</text><text fill="#000000" font-family="monospace" font-size="16" lengthAdjust="spacingAndGlyphs" textLength="60" x="317.5" y="1257.1427">Models</text><rect fill="#FEFECE" height="74.6719" style="stroke:#A80036;stroke-width:1.5;" width="212" x="345.5" y="154.2755"/><text fill="#000000" font-family="monospace" font-size="16" font-weight="bold" lengthAdjust="spacingAndGlyphs" textLength="150" x="376.5" y="172.3615">Service Locator</text><line style="stroke:#A80036;stroke-width:1.5;" x1="346.5" x2="556.5" y1="179.1662" y2="179.1662"/><text fill="#000000" font-family="monospace" font-size="16" lengthAdjust="spacingAndGlyphs" textLength="140" x="351.5" y="199.2521">GetIt used for</text><text fill="#000000" font-family="monospace" font-size="16" lengthAdjust="spacingAndGlyphs" textLength="200" x="351.5" y="220.1427">Dependency Injection</text><path d="M593,176.2755 L593,187.7755 L557.88,191.7755 L593,195.7755 L593,207.1662 A0,0 0 0 0 593,207.1662 L744,207.1662 A0,0 0 0 0 744,207.1662 L744,186.2755 L734,176.2755 L593,176.2755 A0,0 0 0 0 593,176.2755 " fill="#FBFB77" style="stroke:#A80036;stroke-width:1.0;"/><path d="M734,176.2755 L734,186.2755 L744,186.2755 L734,176.2755 " fill="#FBFB77" style="stroke:#A80036;stroke-width:1.0;"/><text fill="#000000" font-family="monospace" font-size="16" lengthAdjust="spacingAndGlyphs" textLength="130" x="599" y="197.3615">Unimplemented</text><path d="M6,1140.2755 L6,1317.4005 A0,0 0 0 0 6,1317.4005 L267,1317.4005 A0,0 0 0 0 267,1317.4005 L267,1232.7755 L311.31,1228.7755 L267,1224.7755 L267,1150.2755 L257,1140.2755 L6,1140.2755 A0,0 0 0 0 6,1140.2755 " fill="#FBFB77" style="stroke:#A80036;stroke-width:1.0;"/><path d="M257,1140.2755 L257,1150.2755 L267,1150.2755 L257,1140.2755 " fill="#FBFB77" style="stroke:#A80036;stroke-width:1.0;"/><text fill="#000000" font-family="monospace" font-size="16" lengthAdjust="spacingAndGlyphs" textLength="180" x="12" y="1161.3615">Models are part of</text><text fill="#000000" font-family="monospace" font-size="16" lengthAdjust="spacingAndGlyphs" textLength="190" x="12" y="1182.2521">the database due to</text><text fill="#000000" font-family="monospace" font-size="16" lengthAdjust="spacingAndGlyphs" textLength="180" x="12" y="1203.1427">the limitations of</text><text fill="#000000" font-family="monospace" font-size="16" lengthAdjust="spacingAndGlyphs" textLength="200" x="12" y="1224.0333">moor's builders. See</text><text fill="#000000" font-family="monospace" font-size="16" font-style="italic" lengthAdjust="spacingAndGlyphs" textLength="190" x="12" y="1244.924">https://github.com/</text><text fill="#000000" font-family="monospace" font-size="16" font-style="italic" lengthAdjust="spacingAndGlyphs" textLength="240" x="12" y="1265.8146">simolus3/moor/issues/490</text><text fill="#000000" font-family="monospace" font-size="16" lengthAdjust="spacingAndGlyphs" textLength="200" x="12" y="1286.7052">for progress on this</text><text fill="#000000" font-family="monospace" font-size="16" lengthAdjust="spacingAndGlyphs" textLength="20" x="12" y="1307.5958">:)</text><!--MD5=[d82ef6b2c738c1c7a188aee55dc2c4f7]
link w to s--><path codeLine="48" d="M946.73,212.3655 C940.91,253.5955 927.28,350.1555 919.4,405.9555 " fill="none" id="w-to-s" style="stroke:#A80036;stroke-width:1.0;stroke-dasharray:7.0,7.0;"/><polygon fill="#A80036" points="918.66,411.2255,923.8825,402.8753,919.3611,406.2749,915.9615,401.7536,918.66,411.2255" style="stroke:#A80036;stroke-width:1.0;"/><!--MD5=[4546973ef7dacf83725163dac0c05358]
link w to e--><path codeLine="49" d="M974.82,212.4455 C1006.74,239.6655 1057.5,292.0855 1057.5,350.2755 C1057.5,350.2755 1057.5,350.2755 1057.5,1019.2755 C1057.5,1108.9155 959.95,1173.9155 899.11,1205.7455 " fill="none" id="w-to-e" style="stroke:#A80036;stroke-width:1.0;stroke-dasharray:7.0,7.0;"/><polygon fill="#A80036" points="894.43,1208.1655,904.2607,1207.5672,898.8673,1205.861,900.5735,1200.4676,894.43,1208.1655" style="stroke:#A80036;stroke-width:1.0;"/><!--MD5=[f7ac959458b02596d8dec769f76e38c2]
link s to u--><path codeLine="50" d="M904.22,486.3755 C891.43,536.8155 868.73,626.3455 857.77,669.5655 " fill="none" id="s-to-u" style="stroke:#A80036;stroke-width:1.0;stroke-dasharray:7.0,7.0;"/><polygon fill="#A80036" points="856.49,674.6055,862.5803,666.8655,857.7195,669.7591,854.8259,664.8983,856.49,674.6055" style="stroke:#A80036;stroke-width:1.0;"/><!--MD5=[fcf18d6011f98154ac9c493f12e89716]
link s to e--><path codeLine="51" d="M941.51,486.4055 C962.1,516.9955 986.5,562.6755 986.5,607.2755 C986.5,607.2755 986.5,607.2755 986.5,1019.2755 C986.5,1097.0855 919.44,1168.7855 879.85,1204.3355 " fill="none" id="s-to-e" style="stroke:#A80036;stroke-width:1.0;stroke-dasharray:7.0,7.0;"/><polygon fill="#A80036" points="875.64,1208.0755,885.0234,1205.0837,879.3763,1204.7528,879.7071,1199.1057,875.64,1208.0755" style="stroke:#A80036;stroke-width:1.0;"/><!--MD5=[045ac208ce3b5b3d224befd3f4c5c570]
link u to e--><path codeLine="52" d="M820.8,715.8455 C785.84,740.7955 733.5,787.4755 733.5,843.2755 C733.5,843.2755 733.5,843.2755 733.5,1019.2755 C733.5,1094.7255 792.74,1167.9255 827.27,1204.1955 " fill="none" id="u-to-e" style="stroke:#A80036;stroke-width:1.0;stroke-dasharray:7.0,7.0;"/><polygon fill="#A80036" points="830.95,1208.0055,827.6012,1198.7435,827.4867,1204.3992,821.831,1204.2847,830.95,1208.0055" style="stroke:#A80036;stroke-width:1.0;"/><!--MD5=[10426faf2822c007a77520b7cd00fe82]
link u to ir--><path codeLine="53" d="M851.5,715.8255 C851.5,758.2355 851.5,858.6455 851.5,905.4555 " fill="none" id="u-to-ir" style="stroke:#A80036;stroke-width:1.0;stroke-dasharray:7.0,7.0;"/><polygon fill="#A80036" points="851.5,910.6155,855.5,901.6155,851.5,905.6155,847.5,901.6155,851.5,910.6155" style="stroke:#A80036;stroke-width:1.0;"/><!--MD5=[3b1f9e3a281d418c889bfca96d71d676]
link ir to e--><path codeLine="54" d="M851.5,952.1255 C851.5,1004.2755 851.5,1145.1055 851.5,1202.7055 " fill="none" id="ir-to-e" style="stroke:#A80036;stroke-width:1.0;stroke-dasharray:7.0,7.0;"/><polygon fill="#A80036" points="851.5,1208.0155,855.5,1199.0155,851.5,1203.0155,847.5,1199.0155,851.5,1208.0155" style="stroke:#A80036;stroke-width:1.0;"/><!--MD5=[4db938e82141146da7a044fb7966322c]
link ri to ir--><path codeLine="55" d="M596.72,715.8255 C644.45,755.9955 754.01,848.2155 812.7,897.6155 " fill="none" id="ri-to-ir" style="stroke:#A80036;stroke-width:1.0;stroke-dasharray:7.0,7.0;"/><polygon fill="none" points="817.35,892.3855,828.15,910.6155,808.34,903.0955,817.35,892.3855" style="stroke:#A80036;stroke-width:1.0;"/><!--MD5=[ef247cbac8668f60d8ea88c662449112]
link ri to id--><path codeLine="56" d="M561.3,715.8255 C535.89,756.5555 477.11,850.7755 446.62,899.6355 " fill="none" id="ri-to-id" style="stroke:#A80036;stroke-width:1.0;stroke-dasharray:7.0,7.0;"/><polygon fill="#A80036" points="443.93,903.9355,452.0836,898.4112,446.5736,899.6915,445.2932,894.1815,443.93,903.9355" style="stroke:#A80036;stroke-width:1.0;"/><!--MD5=[717df48724e670f5b4538fa9178e9ed6]
link ri to db--><path codeLine="57" d="M569.28,716.1455 C563.69,744.2955 554.5,797.4755 554.5,843.2755 C554.5,843.2755 554.5,843.2755 554.5,1019.2755 C554.5,1088.1955 499.6,1149.5855 455.78,1187.6055 " fill="none" id="ri-to-db" style="stroke:#A80036;stroke-width:1.0;stroke-dasharray:7.0,7.0;"/><polygon fill="#A80036" points="451.85,1190.9755,461.2812,1188.1379,455.6402,1187.7145,456.0636,1182.0735,451.85,1190.9755" style="stroke:#A80036;stroke-width:1.0;"/><!--MD5=[3aadb2425ab340d75a2b8369b88c3090]
link ri to e--><path codeLine="58" d="M581.27,715.8955 C591.58,743.7555 608.5,796.5755 608.5,843.2755 C608.5,843.2755 608.5,843.2755 608.5,1019.2755 C608.5,1119.0255 727.89,1181.3755 799.3,1209.7555 " fill="none" id="ri-to-e" style="stroke:#A80036;stroke-width:1.0;stroke-dasharray:7.0,7.0;"/><polygon fill="#A80036" points="804.36,1211.7355,797.4259,1204.7414,799.7011,1209.9205,794.5219,1212.1957,804.36,1211.7355" style="stroke:#A80036;stroke-width:1.0;"/><!--MD5=[99a72c7b55631d88e329c6e8e8a1d276]
link di to db--><path codeLine="59" d="M362.27,722.3355 C335.88,749.6655 300.5,795.2455 300.5,843.2755 C300.5,843.2755 300.5,843.2755 300.5,1019.2755 C300.5,1082.6555 339,1146.8455 368.69,1186.9355 " fill="none" id="di-to-db" style="stroke:#A80036;stroke-width:1.0;stroke-dasharray:7.0,7.0;"/><polygon fill="#A80036" points="371.9,1191.2255,369.7,1181.6255,368.9,1187.2255,363.3,1186.4255,371.9,1191.2255" style="stroke:#A80036;stroke-width:1.0;"/><!--MD5=[7aa9af87c0b9289b42293f157a53e025]
link di to id--><path codeLine="60" d="M394.67,722.6655 C400.87,761.8255 412.58,835.8955 420.21,884.1455 " fill="none" id="di-to-id" style="stroke:#A80036;stroke-width:1.0;stroke-dasharray:7.0,7.0;"/><polygon fill="none" points="427.13,883.1355,423.34,903.9855,413.31,885.3255,427.13,883.1355" style="stroke:#A80036;stroke-width:1.0;"/><!--MD5=[7a510777642ea981a0fd51bcb327fe86]
link id to db--><path codeLine="61" d="M425.28,958.4955 C420.93,1009.8855 411.26,1124.1855 406.03,1186.0555 " fill="none" id="id-to-db" style="stroke:#A80036;stroke-width:1.0;stroke-dasharray:7.0,7.0;"/><polygon fill="#A80036" points="405.6,1191.1455,410.3582,1182.5223,406.0294,1186.164,402.3878,1181.8352,405.6,1191.1455" style="stroke:#A80036;stroke-width:1.0;"/><text fill="#888888" font-family="monospace" font-size="16" lengthAdjust="spacingAndGlyphs" textLength="300" x="375.75" y="1339.4865">Copyright (C) 2020 Cervon Wong</text><!--MD5=[abe6fd429398ec020ca21f1536c2c961]
@startuml
skinparam classAttributeIconSize 0
skinparam wrapWidth 400

skinparam wrapWidth 200
skinparam maxMessageSize 100
skinparam defaultFontName Monospaced
skinparam defaultFontSize 16
skinparam arrowFontSize 12
skinparam objectFontStyle bold
skinparam titleFontSize 24
skinparam titleFontStyle bold
skinparam shadowing false

header This diagram is part of a visualisation of the code written for Sona.\n View the project at github.com/cervonwong/sona-flutter.
title Dependencies between layers of the app.\n
footer Copyright (C) 2020 Cervon Wong

package Presentation <<Cloud>> {
	object "Widgets" as w
    object "State Management" as s {
    	BLoC, ChangeNotifier...
    }
}

package Domain <<Cloud>> {
	object "Use Cases" as u
	object "Entities" as e
	object "Repo Interfaces" as ir
}

package Data <<Cloud>> {
	object "Repo Impls" as ri
    object "DAO Impls" AS di {
    	also Data Sources
    }
    object "DAO Interfaces" as id {
    	also Data Sources
    }
    object "Moor Database" as db {
    	Configs, Tables, Models
    }
}

package Core <<Cloud>> {
	object "Service Locator" as sl {
    	GetIt used for Dependency Injection
    }
}

w  ....>  s
w  ....>  e
s  ....>  u
s  ....>  e
u  ....>  e
u  ....>  ir
ir ....>  e
ri ....|> ir
ri ....>  id
ri ....>  db
ri ....>  e
di ....>  db
di ....|> id
id ....> db

note right of sl
	Unimplemented
end note

note left of db
	Models are part of the database due to the limitations of moor's builders. See <i>https://github.com/ simolus3/moor/issues/490</i>for progress on this :)
end note

@enduml

PlantUML version 1.2020.23(Mon Dec 14 03:14:58 SGT 2020)
(GPL source distribution)
Java Runtime: OpenJDK Runtime Environment
JVM: OpenJDK 64-Bit Server VM
Default Encoding: Cp1252
Language: en
Country: GB
--></g></svg>