<?xml version="1.0" encoding="UTF-8" standalone="no"?><svg xmlns="http://www.w3.org/2000/svg" xmlns:xlink="http://www.w3.org/1999/xlink" contentScriptType="application/ecmascript" contentStyleType="text/css" height="1597.5px" preserveAspectRatio="none" style="width:1398px;height:1597px;" version="1.1" viewBox="0 0 1398 1597" width="1398.6px" zoomAndPan="magnify"><defs/><g><text fill="#888888" font-family="monospace" font-size="14.4" lengthAdjust="spacingAndGlyphs" textLength="621" x="765.9" y="14.4773">This diagram is part of a visualisation of the code written for Sona.</text><text fill="#888888" font-family="monospace" font-size="14.4" lengthAdjust="spacingAndGlyphs" textLength="495" x="891.9" y="33.2789">View the project at github.com/cervonwong/sona-flutter.</text><text fill="#000000" font-family="monospace" font-size="21.6" font-weight="bold" lengthAdjust="spacingAndGlyphs" textLength="491.4" x="447.75" y="59.3191">Dependencies between layers of the app.</text><text fill="#000000" font-family="monospace" font-size="21.6" font-weight="bold" lengthAdjust="spacingAndGlyphs" textLength="0" x="699.75" y="87.5215"/><!--MD5=[e3bd33a92827c21193f8eb915c8968a3]
cluster Features--><polygon fill="#FFFFFF" points="273.6,145.3078,282.6,136.3078,1096.2,136.3078,1096.2,1561.0078,1087.2,1570.0078,273.6,1570.0078,273.6,145.3078" style="stroke:#000000;stroke-width:1.35;"/><line style="stroke:#000000;stroke-width:1.35;" x1="1087.2" x2="1096.2" y1="145.3078" y2="136.3078"/><line style="stroke:#000000;stroke-width:1.35;" x1="273.6" x2="1087.2" y1="145.3078" y2="145.3078"/><line style="stroke:#000000;stroke-width:1.35;" x1="1087.2" x2="1087.2" y1="145.3078" y2="1570.0078"/><text fill="#000000" font-family="monospace" font-size="14.4" font-weight="bold" lengthAdjust="spacingAndGlyphs" textLength="72" x="645.3" y="162.4852">Features</text><!--MD5=[8fd473fd151a2794da4f2c8684676405]
cluster Presentation--><path d="M877.0319,206.0132 C883.5309,190.231 893.9469,187.968 905.2032,201.4306 C911.2963,187.9516 924.1821,187.9807 931.8995,199.7104 C938.8962,184.8544 953.9664,181.3009 963.6425,196.9195 C972.7316,185.3423 984.8337,185.8674 990.3396,200.5609 C998.6669,188.9363 1008.7567,192.6231 1014.7142,203.1667 C1026.3554,190.2685 1041.7707,188.9264 1048.5,208.3078 C1049.9639,207.3524 1051.1539,208.1045 1051.0531,209.8095 C1063.3379,217.3764 1063.605,226.5938 1051.67,234.7595 C1063.0411,240.6421 1064.5602,253.0581 1053.0731,260.2014 C1063.6938,266.9466 1065.1155,276.1187 1054.7637,284.3332 C1068.7084,291.5823 1068.5971,300.0282 1056.9126,309.4685 C1069.4128,317.9841 1069.7917,327.4691 1056.5513,335.6292 C1067.9402,340.161 1069.3677,350.3236 1061.2553,358.8124 C1071.87,365.2031 1069.9342,376.7509 1060.1038,382.1321 C1075.0751,388.4786 1072.693,401.4429 1061.884,409.4682 C1072.2988,417.3902 1067.8145,426.579 1058.031,430.8636 C1071.7024,439.6555 1069.6624,448.4877 1057.3639,456.6066 C1070.4564,464.8901 1067.1866,475.1421 1055.4363,481.5021 C1069.3369,490.0196 1066.173,499.1124 1055.0579,507.2625 C1065.3379,515.5534 1065.1658,525.0754 1051.9275,530.1496 C1063.3675,543.8022 1060.7171,555.6493 1042.2,559.3078 C1043.7793,557.4476 1045.2811,557.7114 1046.5064,559.7036 C1039.9567,573.7144 1025.1352,574.3497 1016.8512,561.6275 C1010.1053,573.974 999.9881,576.6776 990.7589,564.2422 C980.9217,576.0157 968.7206,576.4265 962.0802,560.8858 C954.2404,572.4638 945.6136,575.0444 935.7553,563.1496 C925.3214,576.9766 914.3944,576.9435 906.0255,561.0817 C890.7205,574.672 878.3928,571.3306 870.3,553.0078 C871.5947,552.7274 872.065,553.3579 871.9129,554.5706 C862.9068,547.5998 863.4449,535.9376 874.2626,530.9378 C860.3369,524.9036 860.4259,515.0261 870.627,505.5385 C858.1948,498.5621 857.6363,487.8848 870.7848,481.0734 C861.5228,474.7571 862.1198,464.3983 871.8011,458.9522 C858.4826,451.876 860.5129,440.8261 871.518,433.4796 C857.1943,423.9285 860.6744,415.8196 871.8319,406.5655 C858.522,399.7017 859.1448,389.3 870.9276,381.5299 C861.9142,374.5259 860.2686,367.0088 870.8621,359.9453 C858.5072,350.3556 861.6945,342.3658 873.1563,334.9632 C858.9628,326.9434 860.8444,316.5639 872.127,307.5863 C861.9952,300.7029 860.3083,293.8798 870.7462,285.6988 C858.2012,276.9775 858.6396,263.2665 873.9878,257.7843 C862.2056,252.5514 859.8021,243.7778 870.7389,235.2669 C857.623,221.404 857.6555,210.2208 876.6,202.0078 C878.7775,203.1694 878.5096,204.4575 877.0319,206.0132 " fill="#FFFFFF" style="stroke:#000000;stroke-width:1.35;"/><text fill="#000000" font-family="monospace" font-size="14.4" font-weight="bold" lengthAdjust="spacingAndGlyphs" textLength="108" x="905.4" y="220.9852">Presentation</text><!--MD5=[121a8bf1197281ab89ed693fab589f94]
cluster Domain--><path d="M829.7435,734.0214 C842.8401,711.801 858.4754,715.5616 873.0127,732.4265 C888.3666,710.3728 907.5277,709.5157 924.3632,730.6655 C937.5607,708.1001 956.057,714.115 967.7962,732.2227 C984.0303,710.7682 1003.1389,712.9513 1015.2,736.6078 C1018.9809,736.3993 1021.4063,738.5586 1019.7977,742.5325 C1038.2502,754.8618 1036.5223,771.247 1019.6921,783.4852 C1040.7459,796.4827 1043.2733,811.5009 1022.1868,826.9188 C1038.49,842.2609 1038.18,857.7228 1016.4217,867.6818 C1034.9187,880.0108 1035.9297,894.5148 1019.0345,909.0777 C1039.6403,918.2207 1039.1551,931.8486 1022.9231,944.9814 C1041.2225,958.581 1042.2733,976.3248 1020.5411,987.6918 C1043.5542,999.1241 1041.5427,1019.7584 1023.8008,1034.0561 C1039.8434,1047.8432 1043.3873,1059.3494 1022.4087,1071.77 C1041.5047,1085.8535 1037.7352,1105.0584 1017.5078,1114.6473 C1036.2826,1127.8715 1037.5812,1145.6029 1016.7771,1158.1625 C1034.843,1170.1772 1038.3297,1181.8478 1018.7031,1195.7918 C1043.2774,1209.3407 1039.4652,1226.5155 1019.3031,1240.6626 C1038.5846,1254.6085 1042.0312,1269.0097 1019.0868,1282.7386 C1032.3915,1300.4962 1031.9586,1315.4612 1008.9,1324.3078 C1011.2087,1324.9629 1011.8316,1326.2493 1010.1957,1328.2131 C1000.1815,1345.7919 984.4255,1348.081 970.5668,1332.8578 C956.4675,1350.7694 937.3078,1355.5039 924.802,1331.1331 C909.6186,1356.4493 890.8454,1355.7914 874.4426,1332.3938 C853.6706,1354.1682 826.2917,1350.7543 819.9,1318.0078 C824.4452,1318.3676 825.39,1321.9661 823.1656,1325.3406 C798.5822,1312.1423 806.1045,1289.2051 825.8685,1278.5696 C804.7551,1268.5403 805.5841,1251.7415 824.576,1240.3557 C803.7947,1229.6527 795.9701,1211.3049 817.187,1193.9191 C799.387,1178.6433 798.5808,1164.437 821.5774,1153.6041 C802.0587,1142.4423 799.5978,1129.8361 816.5402,1114.033 C797.8972,1098.7921 796.27,1085.1451 818.1165,1071.4012 C795.3675,1063.3831 795.9017,1044.0487 810.6941,1029.3967 C794.9635,1015.1685 797.3902,999.4363 818.1183,992.5551 C795.4226,982.5625 795.2428,962.5887 813.3689,948.2228 C794.791,932.3841 803.099,917.4338 821.7377,909.6749 C803.5511,896.4223 798.6513,884.3383 819.1239,868.6242 C795.9041,857.3577 798.2894,838.8487 818.0381,826.4752 C799.7646,811.3096 800.1747,795.0182 822.1265,783.697 C800.3426,765.4673 801.7005,745.0062 826.2,730.3078 C829.3697,729.5673 830.6397,730.8823 829.7435,734.0214 " fill="#FFFFFF" style="stroke:#000000;stroke-width:1.35;"/><text fill="#000000" font-family="monospace" font-size="14.4" font-weight="bold" lengthAdjust="spacingAndGlyphs" textLength="54" x="890.55" y="749.2852">Domain</text><!--MD5=[f21b1f164e99c6b37934f23ad048ad54]
cluster Data--><path d="M324.3512,721.6775 C337.7778,701.1944 358.9309,697.1136 371.9687,722.0848 C386.8218,702.9654 400.2842,700.6899 415.7751,721.383 C428.5734,699.2887 441.1377,696.2159 458.1868,717.1977 C473.3875,697.4684 489.9351,693.4354 506.1701,716.025 C520.7134,698.9186 537.23,696.3647 548.0144,719.8956 C562.2073,698.3912 576.6654,698.2747 591.0761,719.677 C603.0256,698.0895 619.0331,697.3182 632.6774,718.0094 C645.0185,697.8302 664.8153,694.8227 679.5628,715.2295 C694.4244,693.0873 714.4,697.6083 727.1597,717.6037 C742.5973,695.9339 758.0838,697.011 769.5,721.3078 C773.4197,718.8965 776.0777,721.3972 775.8982,725.3981 C795.4852,741.9466 792.56,757.7067 772.4797,771.3011 C793.4237,781.6882 797.3126,796.6537 777.4767,812.0425 C797.928,825.9121 794.0031,841.4122 776.6017,854.5017 C793.6829,869.2179 793.7287,886.4337 774.0808,899.0725 C799.3196,912.7098 796.4222,928.94 776.2014,944.6905 C800.5811,955.5874 801.2332,978.091 778.2893,991.1162 C793.9463,1004.3557 794.7802,1017.2165 776.8893,1029.2235 C794.1329,1043.909 795.5818,1064.5167 772.0265,1074.8543 C790.9753,1087.8564 795.7575,1105.1729 773.0154,1119.1067 C793.6359,1129.9619 790.7808,1148.4962 773.312,1159.6302 C792.4079,1175.0328 798.9705,1191.0703 773.7588,1206.8917 C796.7584,1216.8516 792.9192,1234.1914 777.0402,1247.3079 C797.9351,1264.6758 798.7064,1280.3242 772.4737,1292.9802 C789.9906,1309.1876 786.5254,1331.5236 763.2,1339.6078 C764.6146,1337.5837 766.6863,1337.9377 767.7751,1339.9748 C759.5278,1359.5131 739.0472,1365.7333 725.3192,1345.8821 C712.1206,1365.06 694.0413,1361.6611 682.8239,1343.6199 C670.8534,1368.5385 653.4018,1368.2947 636.0906,1349.304 C623.3238,1373.5485 608.1881,1370.087 591.5232,1353.5655 C575.9853,1373.6443 559.485,1377.3144 545.8029,1351.7083 C533.8042,1374.5114 514.1408,1374.3061 501.5209,1352.3224 C488.1549,1369.043 466.2124,1368.9902 457.7197,1346.8321 C445.3741,1366.8031 430.5913,1368.9805 414.5611,1351.025 C400.8951,1373.6624 381.4737,1371.3296 369.3889,1349.4215 C345.6336,1369.2199 326.0974,1360.6943 316.8,1333.3078 C318.6306,1332.8369 319.6812,1333.3994 319.5135,1335.4545 C300.3661,1325.1015 298.5016,1305.4959 319.2695,1294.9028 C296.7523,1282.8096 296.3617,1261.9307 319.9931,1250.591 C296.1331,1237.7075 301.9669,1214.1526 321.9527,1203.0774 C302.5446,1194.137 299.6671,1174.7695 319.81,1163.6783 C296.8809,1150.187 292.2609,1134.8549 314.6798,1116.4389 C297.2607,1104.0575 295.9808,1083.9397 317.0637,1073.7062 C295.9033,1061.4706 291.3027,1046.5099 313.3074,1030.5199 C293.8666,1019.1095 295.9534,998.2344 313.7402,987.196 C294.8848,972.9278 294.6073,950.8598 319.5202,942.2158 C296.9475,929.9193 298.1254,910.0086 319.6765,897.8677 C299.6393,885.1975 297.4417,871.4949 315.7511,855.2895 C293.4487,839.2306 301.8046,821.4964 321.6355,811.0406 C298.4531,797.0532 298.5135,784.2993 320.274,768.8611 C292.7399,752.6745 293.8403,728.2142 323.1,715.0078 C326.7374,716.5772 327.5171,718.8319 324.3512,721.6775 " fill="#FFFFFF" style="stroke:#000000;stroke-width:1.35;"/><text fill="#000000" font-family="monospace" font-size="14.4" font-weight="bold" lengthAdjust="spacingAndGlyphs" textLength="36" x="525.15" y="733.9852">Data</text><!--MD5=[2c2e2644034c00788261e03c85b06837]
cluster Core--><polygon fill="#FFFFFF" points="1132.2,173.2078,1141.2,164.2078,1383.3,164.2078,1383.3,314.5078,1374.3,323.5078,1132.2,323.5078,1132.2,173.2078" style="stroke:#000000;stroke-width:1.35;"/><line style="stroke:#000000;stroke-width:1.35;" x1="1374.3" x2="1383.3" y1="173.2078" y2="164.2078"/><line style="stroke:#000000;stroke-width:1.35;" x1="1132.2" x2="1374.3" y1="173.2078" y2="173.2078"/><line style="stroke:#000000;stroke-width:1.35;" x1="1374.3" x2="1374.3" y1="173.2078" y2="323.5078"/><text fill="#000000" font-family="monospace" font-size="14.4" font-weight="bold" lengthAdjust="spacingAndGlyphs" textLength="36" x="1236.15" y="190.3852">Core</text><path d="M409.95,1389.1078 L409.95,1548.5203 A0,0 0 0 0 409.95,1548.5203 L644.85,1548.5203 A0,0 0 0 0 644.85,1548.5203 L644.85,1398.1078 L635.85,1389.1078 L531,1389.1078 L527.4,1332.8128 L523.8,1389.1078 L409.95,1389.1078 A0,0 0 0 0 409.95,1389.1078 " fill="#FBFB77" style="stroke:#A80036;stroke-width:0.9;"/><path d="M635.85,1389.1078 L635.85,1398.1078 L644.85,1398.1078 L635.85,1389.1078 " fill="#FBFB77" style="stroke:#A80036;stroke-width:0.9;"/><text fill="#000000" font-family="monospace" font-size="14.4" lengthAdjust="spacingAndGlyphs" textLength="162" x="415.35" y="1408.0852">Models are part of</text><text fill="#000000" font-family="monospace" font-size="14.4" lengthAdjust="spacingAndGlyphs" textLength="171" x="415.35" y="1426.8867">the database due to</text><text fill="#000000" font-family="monospace" font-size="14.4" lengthAdjust="spacingAndGlyphs" textLength="162" x="415.35" y="1445.6883">the limitations of</text><text fill="#000000" font-family="monospace" font-size="14.4" lengthAdjust="spacingAndGlyphs" textLength="180" x="415.35" y="1464.4898">moor's builders. See</text><text fill="#000000" font-family="monospace" font-size="14.4" font-style="italic" lengthAdjust="spacingAndGlyphs" textLength="171" x="415.35" y="1483.2914">https://github.com/</text><text fill="#000000" font-family="monospace" font-size="14.4" font-style="italic" lengthAdjust="spacingAndGlyphs" textLength="216" x="415.35" y="1502.093">simolus3/moor/issues/490</text><text fill="#000000" font-family="monospace" font-size="14.4" lengthAdjust="spacingAndGlyphs" textLength="180" x="415.35" y="1520.8945">for progress on this</text><text fill="#000000" font-family="monospace" font-size="14.4" lengthAdjust="spacingAndGlyphs" textLength="18" x="415.35" y="1539.6961">:)</text><rect fill="#FEFECE" height="36.8016" style="stroke:#A80036;stroke-width:1.35;" width="75.6" x="944.1" y="250.6078"/><text fill="#000000" font-family="monospace" font-size="14.4" font-weight="bold" lengthAdjust="spacingAndGlyphs" textLength="63" x="950.4" y="266.8852">Widgets</text><line style="stroke:#A80036;stroke-width:1.35;" x1="945" x2="1018.8" y1="273.0094" y2="273.0094"/><rect fill="#FEFECE" height="67.2047" style="stroke:#A80036;stroke-width:1.35;" width="163.8" x="877.5" y="484.6078"/><text fill="#000000" font-family="monospace" font-size="14.4" font-weight="bold" lengthAdjust="spacingAndGlyphs" textLength="144" x="887.4" y="500.8852">State Management</text><line style="stroke:#A80036;stroke-width:1.35;" x1="878.4" x2="1040.4" y1="507.0094" y2="507.0094"/><text fill="#000000" font-family="monospace" font-size="14.4" lengthAdjust="spacingAndGlyphs" textLength="45" x="882.9" y="525.0867">BLoC,</text><text fill="#000000" font-family="monospace" font-size="14.4" lengthAdjust="spacingAndGlyphs" textLength="153" x="882.9" y="543.8883">ChangeNotifier...</text><rect fill="#FEFECE" height="36.8016" style="stroke:#A80036;stroke-width:1.35;" width="93.6" x="887.4" y="778.9078"/><text fill="#000000" font-family="monospace" font-size="14.4" font-weight="bold" lengthAdjust="spacingAndGlyphs" textLength="81" x="893.7" y="795.1852">Use Cases</text><line style="stroke:#A80036;stroke-width:1.35;" x1="888.3" x2="980.1" y1="801.3094" y2="801.3094"/><rect fill="#FEFECE" height="36.8016" style="stroke:#A80036;stroke-width:1.35;" width="84.6" x="891.9" y="1280.2078"/><text fill="#000000" font-family="monospace" font-size="14.4" font-weight="bold" lengthAdjust="spacingAndGlyphs" textLength="72" x="898.2" y="1296.4852">Entities</text><line style="stroke:#A80036;stroke-width:1.35;" x1="892.8" x2="975.6" y1="1302.6094" y2="1302.6094"/><rect fill="#FEFECE" height="36.8016" style="stroke:#A80036;stroke-width:1.35;" width="147.6" x="860.4" y="1022.3578"/><text fill="#000000" font-family="monospace" font-size="14.4" font-weight="bold" lengthAdjust="spacingAndGlyphs" textLength="135" x="866.7" y="1038.6352">Repo Interfaces</text><line style="stroke:#A80036;stroke-width:1.35;" x1="861.3" x2="1007.1" y1="1044.7594" y2="1044.7594"/><rect fill="#FEFECE" height="67.2047" style="stroke:#A80036;stroke-width:1.35;" width="181.8" x="580.5" y="763.6078"/><text fill="#000000" font-family="monospace" font-size="14.4" font-weight="bold" lengthAdjust="spacingAndGlyphs" textLength="90" x="626.4" y="779.8852">Repo Impls</text><line style="stroke:#A80036;stroke-width:1.35;" x1="581.4" x2="761.4" y1="786.0094" y2="786.0094"/><text fill="#000000" font-family="monospace" font-size="14.4" lengthAdjust="spacingAndGlyphs" textLength="162" x="585.9" y="804.0867">and Entity&lt;-&gt;Model</text><text fill="#000000" font-family="monospace" font-size="14.4" lengthAdjust="spacingAndGlyphs" textLength="63" x="585.9" y="822.8883">mappers</text><rect fill="#FEFECE" height="48.4031" style="stroke:#A80036;stroke-width:1.35;" width="163.8" x="354.6" y="773.0578"/><text fill="#000000" font-family="monospace" font-size="14.4" font-weight="bold" lengthAdjust="spacingAndGlyphs" textLength="81" x="396" y="789.3352">DAO Impls</text><line style="stroke:#A80036;stroke-width:1.35;" x1="355.5" x2="517.5" y1="795.4594" y2="795.4594"/><text fill="#000000" font-family="monospace" font-size="14.4" lengthAdjust="spacingAndGlyphs" textLength="153" x="360" y="813.5367">also Data Sources</text><rect fill="#FEFECE" height="48.4031" style="stroke:#A80036;stroke-width:1.35;" width="163.8" x="445.5" y="1016.5078"/><text fill="#000000" font-family="monospace" font-size="14.4" font-weight="bold" lengthAdjust="spacingAndGlyphs" textLength="126" x="464.4" y="1032.7852">DAO Interfaces</text><line style="stroke:#A80036;stroke-width:1.35;" x1="446.4" x2="608.4" y1="1038.9094" y2="1038.9094"/><text fill="#000000" font-family="monospace" font-size="14.4" lengthAdjust="spacingAndGlyphs" textLength="153" x="450.9" y="1056.9867">also Data Sources</text><rect fill="#FEFECE" height="67.2047" style="stroke:#A80036;stroke-width:1.35;" width="163.8" x="445.5" y="1264.9078"/><text fill="#000000" font-family="monospace" font-size="14.4" font-weight="bold" lengthAdjust="spacingAndGlyphs" textLength="117" x="468.9" y="1281.1852">Moor Database</text><line style="stroke:#A80036;stroke-width:1.35;" x1="446.4" x2="608.4" y1="1287.3094" y2="1287.3094"/><text fill="#000000" font-family="monospace" font-size="14.4" lengthAdjust="spacingAndGlyphs" textLength="144" x="450.9" y="1305.3867">Configs, Tables,</text><text fill="#000000" font-family="monospace" font-size="14.4" lengthAdjust="spacingAndGlyphs" textLength="54" x="450.9" y="1324.1883">Models</text><path d="M1171.35,236.2078 L1171.35,301.6125 L1361.25,301.6125 L1361.25,245.2078 L1352.25,236.2078 L1171.35,236.2078 " fill="#FBFB77" style="stroke:#A80036;stroke-width:0.9;"/><path d="M1352.25,236.2078 L1352.25,245.2078 L1361.25,245.2078 L1352.25,236.2078 " fill="#FBFB77" style="stroke:#A80036;stroke-width:0.9;"/><text fill="#000000" font-family="monospace" font-size="14.4" lengthAdjust="spacingAndGlyphs" textLength="153" x="1176.75" y="255.1852">Constants, utils,</text><text fill="#000000" font-family="monospace" font-size="14.4" lengthAdjust="spacingAndGlyphs" textLength="162" x="1176.75" y="273.9867">shared components,</text><text fill="#000000" font-family="monospace" font-size="14.4" lengthAdjust="spacingAndGlyphs" textLength="36" x="1176.75" y="292.7883">etc.</text><rect fill="#FEFECE" height="86.0063" style="stroke:#A80036;stroke-width:1.35;" width="190.8" x="6.3" y="225.8578"/><text fill="#000000" font-family="monospace" font-size="14.4" font-weight="bold" lengthAdjust="spacingAndGlyphs" textLength="135" x="34.2" y="242.1352">Service Locator</text><line style="stroke:#A80036;stroke-width:1.35;" x1="7.2" x2="196.2" y1="248.2594" y2="248.2594"/><text fill="#000000" font-family="monospace" font-size="14.4" lengthAdjust="spacingAndGlyphs" textLength="171" x="11.7" y="266.3367">Injection Container</text><text fill="#000000" font-family="monospace" font-size="14.4" lengthAdjust="spacingAndGlyphs" textLength="126" x="11.7" y="285.1383">for Dependency</text><text fill="#000000" font-family="monospace" font-size="14.4" lengthAdjust="spacingAndGlyphs" textLength="81" x="11.7" y="303.9398">Injection</text><!--MD5=[d82ef6b2c738c1c7a188aee55dc2c4f7]
link w to s--><path codeLine="58" d="M980.28,287.7598 C976.644,327.7828 967.752,425.6038 962.82,479.7928 " fill="none" id="w-to-s" style="stroke:#A80036;stroke-width:0.9;stroke-dasharray:7.0,7.0;"/><polygon fill="#A80036" points="962.388,484.5718,966.6905,476.8221,962.7861,480.0895,959.5188,476.1851,962.388,484.5718" style="stroke:#A80036;stroke-width:0.9;"/><!--MD5=[4546973ef7dacf83725163dac0c05358]
link w to e--><path codeLine="59" d="M1012.725,287.5618 C1039.392,305.3458 1073.7,335.5138 1073.7,373.0078 C1073.7,373.0078 1073.7,373.0078 1073.7,1210.0078 C1073.7,1254.7288 1021.698,1277.5528 981.189,1288.5418 " fill="none" id="w-to-e" style="stroke:#A80036;stroke-width:0.9;stroke-dasharray:7.0,7.0;"/><polygon fill="#A80036" points="976.815,1289.7028,985.5647,1291.1216,981.1667,1288.557,983.7313,1284.1589,976.815,1289.7028" style="stroke:#A80036;stroke-width:0.9;"/><!--MD5=[f7ac959458b02596d8dec769f76e38c2]
link s to u--><path codeLine="60" d="M956.412,552.1438 C951.21,609.3838 940.617,725.8438 936.207,774.4168 " fill="none" id="s-to-u" style="stroke:#A80036;stroke-width:0.9;stroke-dasharray:7.0,7.0;"/><polygon fill="#A80036" points="935.793,778.8988,940.1176,771.1614,936.2039,774.4176,932.9476,770.5039,935.793,778.8988" style="stroke:#A80036;stroke-width:0.9;"/><!--MD5=[fcf18d6011f98154ac9c493f12e89716]
link s to e--><path codeLine="61" d="M1009.773,552.1528 C1026.252,567.0568 1040.4,586.3798 1040.4,608.8078 C1040.4,608.8078 1040.4,608.8078 1040.4,1210.0078 C1040.4,1243.0648 1009.449,1266.0058 980.964,1280.1178 " fill="none" id="s-to-e" style="stroke:#A80036;stroke-width:0.9;stroke-dasharray:7.0,7.0;"/><polygon fill="#A80036" points="976.788,1282.1338,985.6476,1281.8559,980.8408,1280.1782,982.5186,1275.3714,976.788,1282.1338" style="stroke:#A80036;stroke-width:0.9;"/><!--MD5=[045ac208ce3b5b3d224befd3f4c5c570]
link u to e--><path codeLine="62" d="M924.264,816.0418 C905.661,850.1428 865.62,927.5788 845.1,997.6078 C830.772,1046.5228 828,1060.0408 828,1111.0078 C828,1111.0078 828,1111.0078 828,1210.0078 C828,1243.0648 858.951,1266.0058 887.436,1280.1178 " fill="none" id="u-to-e" style="stroke:#A80036;stroke-width:0.9;stroke-dasharray:7.0,7.0;"/><polygon fill="#A80036" points="891.612,1282.1338,885.8814,1275.3714,887.5592,1280.1782,882.7524,1281.8559,891.612,1282.1338" style="stroke:#A80036;stroke-width:0.9;"/><!--MD5=[10426faf2822c007a77520b7cd00fe82]
link u to ir--><path codeLine="63" d="M934.2,816.0238 C934.2,859.2328 934.2,969.7258 934.2,1017.4258 " fill="none" id="u-to-ir" style="stroke:#A80036;stroke-width:0.9;stroke-dasharray:7.0,7.0;"/><polygon fill="#A80036" points="934.2,1022.1148,937.8,1014.0148,934.2,1017.6148,930.6,1014.0148,934.2,1022.1148" style="stroke:#A80036;stroke-width:0.9;"/><!--MD5=[3b1f9e3a281d418c889bfca96d71d676]
link ir to e--><path codeLine="64" d="M934.2,1059.3028 C934.2,1104.6178 934.2,1225.2538 934.2,1275.4108 " fill="none" id="ir-to-e" style="stroke:#A80036;stroke-width:0.9;stroke-dasharray:7.0,7.0;"/><polygon fill="#A80036" points="934.2,1280.0368,937.8,1271.9368,934.2,1275.5368,930.6,1271.9368,934.2,1280.0368" style="stroke:#A80036;stroke-width:0.9;"/><!--MD5=[4db938e82141146da7a044fb7966322c]
link ri to ir--><path codeLine="65" d="M752.31,831.2428 C766.854,838.9558 781.335,847.9468 793.8,858.1078 C821.592,880.7698 879.633,961.3198 911.7,1007.2378 " fill="none" id="ri-to-ir" style="stroke:#A80036;stroke-width:0.9;stroke-dasharray:7.0,7.0;"/><polygon fill="none" points="916.965,1003.7728,922.05,1022.1508,906.615,1010.9548,916.965,1003.7728" style="stroke:#A80036;stroke-width:0.9;"/><!--MD5=[ef247cbac8668f60d8ea88c662449112]
link ri to id--><path codeLine="66" d="M651.681,831.3508 C623.043,879.4108 570.465,967.6378 543.816,1012.3588 " fill="none" id="ri-to-id" style="stroke:#A80036;stroke-width:0.9;stroke-dasharray:7.0,7.0;"/><polygon fill="#A80036" points="541.476,1016.2918,548.7104,1011.1699,543.7761,1012.4241,542.522,1007.4898,541.476,1016.2918" style="stroke:#A80036;stroke-width:0.9;"/><!--MD5=[717df48724e670f5b4538fa9178e9ed6]
link ri to db--><path codeLine="67" d="M671.895,831.1798 C672.102,847.6408 672.3,867.8818 672.3,886.0078 C672.3,886.0078 672.3,886.0078 672.3,1210.0078 C672.3,1242.7948 644.814,1263.6748 613.782,1276.7878 " fill="none" id="ri-to-db" style="stroke:#A80036;stroke-width:0.9;stroke-dasharray:7.0,7.0;"/><polygon fill="#A80036" points="609.588,1278.5068,618.4486,1278.7516,613.7491,1276.7934,615.7072,1272.0939,609.588,1278.5068" style="stroke:#A80036;stroke-width:0.9;"/><text fill="#000000" font-family="monospace" font-size="10.8" lengthAdjust="spacingAndGlyphs" textLength="69.3" x="682.65" y="1009.3658">models only</text><text fill="#000000" font-family="monospace" font-size="10.8" lengthAdjust="spacingAndGlyphs" textLength="0" x="720.45" y="1023.467"/><text fill="#000000" font-family="monospace" font-size="10.8" font-style="italic" lengthAdjust="spacingAndGlyphs" textLength="75.6" x="676.35" y="1037.5682">(also should</text><text fill="#000000" font-family="monospace" font-size="10.8" font-style="italic" lengthAdjust="spacingAndGlyphs" textLength="81.9" x="673.2" y="1051.6693">not depend on</text><text fill="#000000" font-family="monospace" font-size="10.8" font-style="italic" lengthAdjust="spacingAndGlyphs" textLength="81.9" x="673.2" y="1065.7705">moor-specific</text><text fill="#000000" font-family="monospace" font-size="10.8" font-style="italic" lengthAdjust="spacingAndGlyphs" textLength="31.5" x="701.55" y="1079.8717">code)</text><!--MD5=[3aadb2425ab340d75a2b8369b88c3090]
link ri to e--><path codeLine="68" d="M694.017,831.2698 C729.612,886.5388 794.7,1002.4498 794.7,1111.0078 C794.7,1111.0078 794.7,1111.0078 794.7,1210.0078 C794.7,1254.7288 846.702,1277.5528 887.211,1288.5418 " fill="none" id="ri-to-e" style="stroke:#A80036;stroke-width:0.9;stroke-dasharray:7.0,7.0;"/><polygon fill="#A80036" points="891.585,1289.7028,884.6687,1284.1589,887.2333,1288.557,882.8353,1291.1216,891.585,1289.7028" style="stroke:#A80036;stroke-width:0.9;"/><!--MD5=[99a72c7b55631d88e329c6e8e8a1d276]
link di to db--><path codeLine="69" d="M396.711,821.6938 C376.227,837.0208 355.5,859.1608 355.5,886.0078 C355.5,886.0078 355.5,886.0078 355.5,1210.0078 C355.5,1252.7668 398.214,1274.6998 441.063,1285.9498 " fill="none" id="di-to-db" style="stroke:#A80036;stroke-width:0.9;stroke-dasharray:7.0,7.0;"/><polygon fill="#A80036" points="445.482,1287.0658,438.5159,1281.5846,441.1202,1285.9593,436.7455,1288.5635,445.482,1287.0658" style="stroke:#A80036;stroke-width:0.9;"/><text fill="#000000" font-family="monospace" font-size="10.8" lengthAdjust="spacingAndGlyphs" textLength="50.4" x="356.4" y="1037.7158">tables &amp;</text><text fill="#000000" font-family="monospace" font-size="10.8" lengthAdjust="spacingAndGlyphs" textLength="37.8" x="365.85" y="1051.817">models</text><!--MD5=[7aa9af87c0b9289b42293f157a53e025]
link di to id--><path codeLine="70" d="M445.383,821.8648 C460.863,863.0128 492.948,948.3148 512.073,999.1648 " fill="none" id="di-to-id" style="stroke:#A80036;stroke-width:0.9;stroke-dasharray:7.0,7.0;"/><polygon fill="none" points="518.04,997.1398,518.481,1016.2018,506.25,1001.5678,518.04,997.1398" style="stroke:#A80036;stroke-width:0.9;"/><!--MD5=[7a510777642ea981a0fd51bcb327fe86]
link id to db--><path codeLine="71" d="M527.4,1065.1078 C527.4,1109.4508 527.4,1206.0658 527.4,1259.7958 " fill="none" id="id-to-db" style="stroke:#A80036;stroke-width:0.9;stroke-dasharray:7.0,7.0;"/><polygon fill="#A80036" points="527.4,1264.5388,531,1256.4388,527.4,1260.0388,523.8,1256.4388,527.4,1264.5388" style="stroke:#A80036;stroke-width:0.9;"/><text fill="#000000" font-family="monospace" font-size="10.8" lengthAdjust="spacingAndGlyphs" textLength="69.3" x="528.3" y="1178.5658">models only</text><!--MD5=[02bc40338c3adfdf4b8dbb99de91cf24]
link sl to Features--><path codeLine="73" d="M197.28,269.0578 C217.287,269.0578 236.889,269.0578 252.0698,269.0578 C259.6601,269.0578 266.1452,269.0578 271.0229,269.0578 C271.6326,269.0578 272.2172,269.0578 272.7757,269.0578 C273.055,269.0578 273.3277,269.0578 273.5938,269.0578 " fill="none" id="sl-to-Features" style="stroke:#A80036;stroke-width:0.9;stroke-dasharray:7.0,7.0;"/><polygon fill="#A80036" points="273.5938,269.0578,265.4938,265.4578,269.0938,269.0578,265.4938,272.6578,273.5938,269.0578" style="stroke:#A80036;stroke-width:0.9;"/><!--MD5=[2c271655a0c9ad5e3dece1b2ef732d32]
link Features to Core--><path d="M1096.5156,176.2193 C1097.7515,177.8799 1098.9578,179.5591 1100.1349,181.2526 C1102.4892,184.6396 1104.7266,188.084 1106.8501,191.5515 C1111.097,198.4866 1114.8882,205.5144 1118.2466,212.3623 C1121.605,219.2102 1124.5307,225.8781 1127.0465,232.0931 C1128.3045,235.2007 1129.46,238.195 1130.5159,241.042 C1131.0439,242.4655 1131.5469,243.8522 1132.0255,245.1978 C1132.0554,245.2819 1132.0852,245.3658 1132.1149,245.4496 " fill="none" id="Features-to-Core" style="stroke:#A80036;stroke-width:0.9;stroke-dasharray:7.0,7.0;"/><polygon fill="#A80036" points="1132.1149,245.4496,1132.7999,236.6122,1130.6105,241.2085,1126.0142,239.0192,1132.1149,245.4496" style="stroke:#A80036;stroke-width:0.9;"/><text fill="#888888" font-family="monospace" font-size="14.4" lengthAdjust="spacingAndGlyphs" textLength="270" x="558.45" y="1589.8852">Copyright (C) 2020 Cervon Wong</text><!--MD5=[61bd696fd40e8dbac57b3033e371b9ea]
@startuml
skinparam classAttributeIconSize 0
skinparam wrapWidth 400

skinparam wrapWidth 200
skinparam maxMessageSize 100
skinparam defaultFontName Monospaced
skinparam defaultFontSize 16
skinparam arrowFontSize 12
skinparam objectFontStyle bold
skinparam titleFontSize 24
skinparam titleFontStyle bold
skinparam shadowing false

header This diagram is part of a visualisation of the code written for Sona.\n View the project at github.com/cervonwong/sona-flutter.
title Dependencies between layers of the app.\n
footer Copyright (C) 2020 Cervon Wong

package Features <<Node>> {
	package Presentation <<Cloud>> {
		object "Widgets" as w
		object "State Management" as s {
			BLoC, ChangeNotifier...
		}
	}
	
	package Domain <<Cloud>> {
		object "Use Cases" as u
		object "Entities" as e
		object "Repo Interfaces" as ir
	}
	
	package Data <<Cloud>> {
		object "Repo Impls" as ri {
			and Entity<->Model mappers
		}
		object "DAO Impls" AS di {
			also Data Sources
		}
		object "DAO Interfaces" as id {
			also Data Sources
		}
		object "Moor Database" as db {
			Configs, Tables, Models
		}
	}

	note bottom of db
    	Models are part of the database due to the limitations of moor's builders. See <i>https://github.com/ simolus3/moor/issues/490</i>for progress on this :)
    end note
}

object "Service Locator" as sl {
	Injection Container for Dependency Injection
}

package Core <<Node>> {
	note "Constants, utils, shared components, etc." as n1
}

w  ....>  s
w  ....>  e
s  ....>  u
s  ....>  e
u  ....>  e
u  ....>  ir
ir ....>  e
ri ....|> ir
ri ....>  id
ri ....>  db : models only\n\n<i>(also should not depend on moor-specific code)
ri ....>  e
di ....>  db : tables & models
di ....|> id
id ....>  db : models only

sl .> Features : \t
Features .> Core : \t

@enduml

PlantUML version 1.2020.23(Mon Dec 14 03:14:58 SGT 2020)
(GPL source distribution)
Java Runtime: OpenJDK Runtime Environment
JVM: OpenJDK 64-Bit Server VM
Default Encoding: Cp1252
Language: en
Country: GB
--></g></svg>