<?xml version="1.0" encoding="UTF-8" standalone="no"?><svg xmlns="http://www.w3.org/2000/svg" xmlns:xlink="http://www.w3.org/1999/xlink" contentScriptType="application/ecmascript" contentStyleType="text/css" height="1142.1px" preserveAspectRatio="none" style="width:692px;height:1142px;" version="1.1" viewBox="0 0 692 1142" width="692.1px" zoomAndPan="magnify"><defs/><g><text fill="#888888" font-family="monospace" font-size="14.4" lengthAdjust="spacingAndGlyphs" textLength="621" x="60.2851" y="14.4773">This diagram is part of a visualisation of the code written for Sona.</text><text fill="#888888" font-family="monospace" font-size="14.4" lengthAdjust="spacingAndGlyphs" textLength="495" x="186.2851" y="33.2789">View the project at github.com/cervonwong/sona-flutter.</text><text fill="#000000" font-family="monospace" font-size="21.6" font-weight="bold" lengthAdjust="spacingAndGlyphs" textLength="491.4" x="94.9425" y="59.3191">Dependencies between layers of the app.</text><text fill="#000000" font-family="monospace" font-size="21.6" font-weight="bold" lengthAdjust="spacingAndGlyphs" textLength="0" x="346.9425" y="87.5215"/><!--MD5=[8fd473fd151a2794da4f2c8684676405]
cluster Presentation--><path d="M477.5434,127.74 C482.9241,118.619 488.689,114.9893 497.0728,124.6108 C502.7539,114.1402 508.9228,110.8704 518.0849,121.0726 C523.4495,111.4502 531.778,109.8415 537.8582,120.3703 C543.5163,107.4311 550.7284,107.5072 559.7544,117.097 C568.1453,106.8274 574.8742,109.134 580.8566,119.5535 C588.1517,112.5459 595.7145,111.3688 600.4954,122.3051 C607.5779,113.4215 616.5218,116.7066 619.7634,126.3086 C629.006,117.067 642.6993,117.4113 646.1851,132.548 C648.3064,132.5933 649.3651,133.3091 648.5432,135.6164 C657.7596,139.828 660.0662,149.2518 650.5008,155.3287 C662.4423,161.0181 660.3329,171.8474 651.0842,178.0801 C663.3191,182.5479 661.8197,192.8057 653.4888,199.5742 C666.2335,205.1736 667.3547,215.6444 655.0953,222.9613 C666.6354,227.9684 666.8949,235.936 658.1181,243.8792 C667.4132,251.2625 669.1388,258.7079 657.4336,265.424 C668.3224,271.0558 668.2685,281.4767 658.8671,288.3756 C668.1866,295.1009 667.7369,303.9304 656.499,308.2001 C666.3971,313.6646 668.4994,324.5614 658.0692,331.4017 C667.0624,339.8316 666.4598,346.9505 654.2828,351.365 C666.6909,357.748 664.6646,369.9429 653.9358,376 C661.4646,383.0909 662.2093,390.9922 651.1301,395.3907 C660.4885,403.3356 660.9626,412.5634 648.3946,417.8362 C657.13,430.5025 656.0855,440.0372 639.8851,444.848 C641.6217,444.6949 642.0508,445.9892 641.4647,447.3202 C633.9196,461.9909 625.3925,459.5977 615.412,449.9269 C607.4094,463.5248 597.5825,462.7272 588.7625,450.7796 C581.0211,463.3898 568.6168,465.9073 559.2032,452.6936 C550.1459,466.0815 540.5164,463.1218 532.4023,451.6758 C520.6215,466.2148 511.7084,463.439 502.4038,449.1033 C487.4997,463.7966 472.9053,456.4103 467.9851,438.548 C469.2899,438.7179 469.6836,439.5264 468.883,440.6121 C457.2543,431.8713 458.9482,423.6864 471.0586,417.1465 C459.6781,412.2206 458.7127,404.1267 466.8124,395.3976 C458.2516,390.0974 456.7038,379.905 467.2894,375.0537 C456.8889,368.7912 457.7364,362.333 466.4359,355.2474 C455.5888,348.9657 457.1098,337.0861 466.9215,331.222 C456.5699,326.0389 456.9351,315.091 466.1187,309.196 C453.9102,304.1313 454.785,297.2341 462.7246,288.8142 C453.2006,281.2005 454.0296,272.1506 465.4937,267.2296 C455.4921,261.3243 455.1643,250.5486 465.2997,244.4716 C454.2002,237.5525 457.1423,229.1612 466.3078,223.2026 C456.7707,216.263 456.5669,205.35 468.5303,200.5169 C457.8871,193.9524 457.267,183.3295 468.7025,176.9261 C458.9836,172.0115 458.6501,162.8412 468.0947,157.3321 C457.1856,146.0514 457.9487,132.1027 474.2851,126.248 C476.0546,124.9853 477.355,125.5498 477.5434,127.74 " fill="#FFFFFF" style="stroke:#000000;stroke-width:1.35;"/><text fill="#000000" font-family="monospace" font-size="14.4" font-weight="bold" lengthAdjust="spacingAndGlyphs" textLength="108" x="503.0851" y="145.2253">Presentation</text><!--MD5=[121a8bf1197281ab89ed693fab589f94]
cluster Domain--><path d="M395.1047,577.8131 C408.0733,551.768 427.6645,553.3862 443.7813,574.5684 C455.4405,555.5508 469.2875,550.744 485.823,569.0801 C500.1195,546.2103 524.9499,545.6032 535.4577,572.8336 C552.1813,553.2566 572.0208,556.3032 582.2851,579.848 C585.4863,579.4476 587.2479,580.5682 586.2985,584.0925 C600.9636,594.0687 599.7067,608.3357 585.6818,617.7868 C602.4511,627.5176 603.5502,641.9966 588.5145,654.2015 C607.531,664.138 603.7728,681.6854 587.5628,690.7035 C603.6986,701.5925 601.4112,716.6901 584.3261,724.3867 C601.0068,733.9762 604.7053,747.9824 586.6485,759.8471 C602.4459,771.3759 602.9191,783.7725 585.1525,793.8235 C604.5799,801.7032 606.4999,815.6258 590.0663,828.576 C605.2998,842.1501 606.0864,853.7257 586.7194,864.0338 C603.3133,876.0501 603.1743,890.3276 584.0687,899.69 C601.5424,909.2999 601.0905,919.9199 586.1277,931.6214 C600.9334,940.5495 606.0404,956.113 588.2736,967.0158 C605.476,977.1058 603.1513,991.0123 588.0333,1000.8729 C606.4217,1013.3905 606.8349,1026.9526 586.5554,1037.928 C602.8983,1055.3493 597.4545,1067.6229 575.9851,1073.948 C576.748,1074.2365 576.8832,1074.9719 576.3221,1075.5406 C566.6019,1096.1001 546.7828,1097.5929 533.1431,1079.9734 C519.3739,1104.0736 502.7085,1101.6403 487.9239,1080.9997 C471.7384,1100.3615 458.1575,1097.3185 444.0238,1078.6324 C421.9902,1102.6479 398.2516,1099.5427 386.9851,1067.648 C388.9754,1066.1467 390.1067,1066.8069 391.025,1068.8648 C370.9035,1060.5472 370.4692,1046.0346 387.3716,1033.8536 C372.8436,1024.1531 372.9802,1008.6803 389.5712,1001.0675 C375.8014,991.0829 376.0537,977.4939 390.0821,967.9379 C373.2184,958.0093 371.8519,945.6992 386.4388,932.5341 C366.0526,920.3834 370.9556,904.1772 388.2527,893.7908 C372.3469,885.4282 370.2053,872.7141 386.5487,862.5902 C368.9487,847.6939 370.8575,834.9869 390.5378,823.9381 C374.6268,815.5518 374.4437,802.5683 390.0479,793.6717 C373.9893,783.098 375.6503,767.427 390.5521,757.2821 C373.5933,751.1594 372.1534,735.3102 386.953,725.5818 C368.7583,713.5805 371.3518,694.5815 391.1995,686.7392 C374.0634,673.8956 376.2004,661.7653 392.3105,649.9249 C377.1013,640.1909 374.9938,629.6764 389.8418,617.6438 C368.4072,600.9166 374.4524,587.1308 393.2851,573.548 C396.0942,573.827 396.3719,575.7949 395.1047,577.8131 " fill="#FFFFFF" style="stroke:#000000;stroke-width:1.35;"/><text fill="#000000" font-family="monospace" font-size="14.4" font-weight="bold" lengthAdjust="spacingAndGlyphs" textLength="54" x="457.6351" y="592.5253">Domain</text><!--MD5=[f21b1f164e99c6b37934f23ad048ad54]
cluster Data--><path d="M38.0535,574.1266 C48.9518,555.7678 61.7916,560.5574 72.1574,574.6856 C81.5948,554.3995 96.1031,554.4384 108.1673,572.1994 C118.0907,558.3772 129.4389,556.2994 139.2032,572.3646 C148.5112,556.1623 162.5268,557.2825 172.3908,571.7633 C185.6768,554.6007 196.5595,558.2528 206.3994,575.1992 C218.4438,556.8549 234.6539,562.7802 242.0851,579.848 C245.7603,577.953 248.8485,579.5374 248.7104,583.8911 C265.3826,595.2226 265.3025,610.061 247.3594,620.101 C259.9126,632.2556 260.2033,645.0656 242.6556,652.9039 C262.0435,661.9921 261.3008,676.8687 245.0848,688.3939 C264.0468,697.1272 264.53,711.6767 248.4306,723.7298 C268.5068,738.6533 263.0525,752.8342 244.7842,764.3123 C259.8895,774.7119 264.7317,788.8554 245.9182,800.3232 C260.6944,810.6474 264.2102,825.5968 246.5499,836.4876 C264.9133,848.2989 261.8904,860.2265 247.38,872.7895 C264.8661,882.7359 261.5352,899.2205 245.0859,906.8835 C262.9374,919.4506 261.3607,931.4229 244.4701,943.404 C263.2082,954.3125 258.5933,967.4747 244.3461,978.2659 C260.5836,989.4277 261.8366,1001.9181 246.589,1015.0022 C260.2893,1026.9079 259.3899,1040.0251 243.0783,1048.8148 C259.119,1065.8345 259.5923,1079.4159 235.7851,1089.248 C238.1865,1088.3075 239.9022,1089.3746 239.5571,1092.0854 C233.012,1109.0911 217.9918,1111.6872 207.0357,1096.5481 C196.4859,1111.0828 182.6475,1109.0616 175.2449,1093.2509 C167.0605,1114.7597 150.3109,1111.4673 138.1624,1097.3806 C128.8263,1112.3685 116.864,1113.4812 106.737,1098.2017 C95.3839,1111.0895 84.6922,1110.4441 75.0572,1096.196 C54.2425,1110.8838 38.8678,1110.3288 30.5851,1082.948 C31.9379,1081.797 33.3428,1082.3782 33.4782,1084.1521 C19.9368,1075.8424 16.21,1059.8282 32.7035,1050.8204 C14.6454,1040.5801 13.992,1027.0271 32.6122,1016.6887 C13.7528,1005.9067 17.7964,986.7878 34.4745,977.7034 C17.8257,969.5415 16.8988,952.7684 32.7376,942.9814 C15.651,932.8177 13.7011,919.6954 30.7763,907.6361 C10.6692,897.7509 9.6914,880.7275 29.7716,869.7759 C13.8496,857.2481 13.1981,843.8888 31.5108,832.9792 C16.8562,822.1606 13.4158,805.7981 33.5069,796.9019 C16.1164,786.7291 15.8208,773.8295 32.0382,762.233 C14.3262,749.3116 16.5134,736.8059 33.1857,724.9425 C17.949,714.1707 17.9939,702.4571 34.0069,692.4757 C19.1401,680.5137 18.3711,669.7086 34.6031,658.289 C17.8184,648.4667 16.0749,632.4491 30.6512,619.4368 C10.1207,601.227 13.0858,585.7357 36.8851,573.548 C37.5123,573.2673 37.9767,573.2959 38.0535,574.1266 " fill="#FFFFFF" style="stroke:#000000;stroke-width:1.35;"/><text fill="#000000" font-family="monospace" font-size="14.4" font-weight="bold" lengthAdjust="spacingAndGlyphs" textLength="36" x="118.3351" y="592.5253">Data</text><!--MD5=[2c2e2644034c00788261e03c85b06837]
cluster Core--><path d="M62.3024,111.248 C68.2657,103.5063 73.1786,104.3857 77.6243,112.6966 C79.7935,105.3214 84.9582,105.3312 89.9955,109.6667 C94.3602,103.7507 99.505,102.624 104.3452,109.1169 C108.1093,101.1566 113.4767,100.5233 118.6956,107.7414 C123.0753,101.8218 127.7403,100.8242 131.9784,107.8863 C135.1673,101.5085 140.9509,102.1192 144.0545,107.9706 C147.2333,100.1557 154.5288,99.5964 159.6961,105.7428 C164.4168,100.389 169.9947,100.9729 173.6428,107.0513 C178.823,100.5341 183.6563,102.494 187.3268,108.6779 C191.0755,102.5625 196.0288,102.7681 199.0826,109.3226 C203.7618,101.2289 210.4777,102.9274 214.6731,109.8258 C218.3899,102.6184 225.0893,103.1963 228.2317,110.3674 C232.6488,105.0932 237.9099,105.9614 240.2504,112.4831 C247.8574,104.2041 256.8183,107.46 260.0851,117.248 C261.791,116.6092 262.6128,117.6777 262.2767,119.2616 C270.5486,122.1424 271.0151,128.588 265.6207,134.4731 C272.9429,137.1353 275.0957,143.7072 268.6533,149.2032 C276.3854,151.4736 276.0484,158.3261 271.0414,162.8293 C277.6534,169.7519 276.1376,175.5018 267.913,179.6681 C273.9608,184.9165 272.8587,191.6488 264.8552,193.8724 C270.8988,206.0775 267.4426,212.4273 253.7851,213.548 C255.024,213.1395 255.478,213.7498 255.4553,214.8999 C251.2906,222.0428 244.7165,220.1804 241.4767,213.9343 C237.5545,221.472 231.1011,221.52 226.7734,214.3395 C223.1291,222.5007 218.7081,222.868 212.628,216.7531 C208.6872,223.4109 203.1433,222.4185 198.9655,217.0217 C195.3228,223.6137 188.7574,223.062 185.3304,216.793 C182.1674,222.7027 177.4902,223.8079 173.5366,217.5599 C168.8386,223.2561 162.0828,223.8238 158.7954,216.0196 C155.2375,223.3545 148.179,222.7309 144.0729,216.6198 C139.3079,223.386 135.1783,222.8214 130.4419,216.5897 C127.176,221.3841 121.7504,221.7703 118.9536,216.0759 C114.6796,223.4298 107.8802,223.2505 104.2186,215.4793 C99.7887,221.9387 93.8985,224.1698 88.7209,216.2873 C83.8195,221.8934 78.5335,221.1338 75.0218,214.7054 C66.3576,221.8152 56.2512,219.8444 54.8851,207.248 C56.0074,206.6985 56.5109,207.3266 56.5296,208.3802 C47.6323,205.607 47.2358,197.8405 54.0832,192.6229 C48.3336,188.1145 47.7072,184.0543 53.7392,179.2429 C46.7319,174.9622 45.7397,166.5321 53.8008,162.3062 C48.0861,158.5939 47.0586,152.2319 54.3883,149.1001 C48.6958,144.2636 48.4759,137.9155 55.8136,134.3369 C47.6595,125.0373 49.4307,115.6754 61.1851,110.948 C61.7018,110.477 62.0964,110.5618 62.3024,111.248 " fill="#FFFFFF" style="stroke:#000000;stroke-width:1.35;"/><text fill="#000000" font-family="monospace" font-size="14.4" font-weight="bold" lengthAdjust="spacingAndGlyphs" textLength="36" x="139.4851" y="129.9253">Core</text><rect fill="#FEFECE" height="36.8016" style="stroke:#A80036;stroke-width:1.35;" width="75.6" x="551.6851" y="154.148"/><text fill="#000000" font-family="monospace" font-size="14.4" font-weight="bold" lengthAdjust="spacingAndGlyphs" textLength="63" x="557.9851" y="170.4253">Widgets</text><line style="stroke:#A80036;stroke-width:1.35;" x1="552.5851" x2="626.3851" y1="176.5495" y2="176.5495"/><rect fill="#FEFECE" height="67.2047" style="stroke:#A80036;stroke-width:1.35;" width="163.8" x="475.1851" y="370.148"/><text fill="#000000" font-family="monospace" font-size="14.4" font-weight="bold" lengthAdjust="spacingAndGlyphs" textLength="144" x="485.0851" y="386.4253">State Management</text><line style="stroke:#A80036;stroke-width:1.35;" x1="476.0851" x2="638.0851" y1="392.5495" y2="392.5495"/><text fill="#000000" font-family="monospace" font-size="14.4" lengthAdjust="spacingAndGlyphs" textLength="45" x="480.5851" y="410.6269">BLoC,</text><text fill="#000000" font-family="monospace" font-size="14.4" lengthAdjust="spacingAndGlyphs" textLength="153" x="480.5851" y="429.4284">ChangeNotifier...</text><rect fill="#FEFECE" height="36.8016" style="stroke:#A80036;stroke-width:1.35;" width="93.6" x="454.4851" y="601.448"/><text fill="#000000" font-family="monospace" font-size="14.4" font-weight="bold" lengthAdjust="spacingAndGlyphs" textLength="81" x="460.7851" y="617.7253">Use Cases</text><line style="stroke:#A80036;stroke-width:1.35;" x1="455.3851" x2="547.1851" y1="623.8495" y2="623.8495"/><rect fill="#FEFECE" height="36.8016" style="stroke:#A80036;stroke-width:1.35;" width="84.6" x="458.9851" y="1029.848"/><text fill="#000000" font-family="monospace" font-size="14.4" font-weight="bold" lengthAdjust="spacingAndGlyphs" textLength="72" x="465.2851" y="1046.1253">Entities</text><line style="stroke:#A80036;stroke-width:1.35;" x1="459.8851" x2="542.6851" y1="1052.2495" y2="1052.2495"/><rect fill="#FEFECE" height="36.8016" style="stroke:#A80036;stroke-width:1.35;" width="147.6" x="427.4851" y="807.998"/><text fill="#000000" font-family="monospace" font-size="14.4" font-weight="bold" lengthAdjust="spacingAndGlyphs" textLength="135" x="433.7851" y="824.2753">Repo Interfaces</text><line style="stroke:#A80036;stroke-width:1.35;" x1="428.3851" x2="574.1851" y1="830.3995" y2="830.3995"/><rect fill="#FEFECE" height="36.8016" style="stroke:#A80036;stroke-width:1.35;" width="102.6" x="132.2851" y="601.448"/><text fill="#000000" font-family="monospace" font-size="14.4" font-weight="bold" lengthAdjust="spacingAndGlyphs" textLength="90" x="138.5851" y="617.7253">Repo Impls</text><line style="stroke:#A80036;stroke-width:1.35;" x1="133.1851" x2="233.9851" y1="623.8495" y2="623.8495"/><rect fill="#FEFECE" height="48.4031" style="stroke:#A80036;stroke-width:1.35;" width="163.8" x="37.7851" y="802.148"/><text fill="#000000" font-family="monospace" font-size="14.4" font-weight="bold" lengthAdjust="spacingAndGlyphs" textLength="36" x="101.6851" y="818.4253">DAOs</text><line style="stroke:#A80036;stroke-width:1.35;" x1="38.6851" x2="200.6851" y1="824.5495" y2="824.5495"/><text fill="#000000" font-family="monospace" font-size="14.4" lengthAdjust="spacingAndGlyphs" textLength="153" x="43.1851" y="842.6269">also Data Sources</text><rect fill="#FEFECE" height="67.2047" style="stroke:#A80036;stroke-width:1.35;" width="163.8" x="54.8851" y="1014.548"/><text fill="#000000" font-family="monospace" font-size="14.4" font-weight="bold" lengthAdjust="spacingAndGlyphs" textLength="117" x="78.2851" y="1030.8253">Moor Database</text><line style="stroke:#A80036;stroke-width:1.35;" x1="55.7851" x2="217.7851" y1="1036.9495" y2="1036.9495"/><text fill="#000000" font-family="monospace" font-size="14.4" lengthAdjust="spacingAndGlyphs" textLength="144" x="60.2851" y="1055.0269">Configs, Tables,</text><text fill="#000000" font-family="monospace" font-size="14.4" lengthAdjust="spacingAndGlyphs" textLength="54" x="60.2851" y="1073.8284">Models</text><rect fill="#FEFECE" height="67.2047" style="stroke:#A80036;stroke-width:1.35;" width="190.8" x="62.0851" y="138.848"/><text fill="#000000" font-family="monospace" font-size="14.4" font-weight="bold" lengthAdjust="spacingAndGlyphs" textLength="135" x="89.9851" y="155.1253">Service Locator</text><line style="stroke:#A80036;stroke-width:1.35;" x1="62.9851" x2="251.9851" y1="161.2495" y2="161.2495"/><text fill="#000000" font-family="monospace" font-size="14.4" lengthAdjust="spacingAndGlyphs" textLength="126" x="67.4851" y="179.3269">GetIt used for</text><text fill="#000000" font-family="monospace" font-size="14.4" lengthAdjust="spacingAndGlyphs" textLength="180" x="67.4851" y="198.1284">Dependency Injection</text><path d="M284.8351,158.648 L284.8351,168.998 L253.2271,172.598 L284.8351,176.198 L284.8351,186.4495 A0,0 0 0 0 284.8351,186.4495 L420.7351,186.4495 A0,0 0 0 0 420.7351,186.4495 L420.7351,167.648 L411.7351,158.648 L284.8351,158.648 A0,0 0 0 0 284.8351,158.648 " fill="#FBFB77" style="stroke:#A80036;stroke-width:0.9;"/><path d="M411.7351,158.648 L411.7351,167.648 L420.7351,167.648 L411.7351,158.648 " fill="#FBFB77" style="stroke:#A80036;stroke-width:0.9;"/><text fill="#000000" font-family="monospace" font-size="14.4" lengthAdjust="spacingAndGlyphs" textLength="117" x="290.2351" y="177.6253">Unimplemented</text><!--MD5=[d82ef6b2c738c1c7a188aee55dc2c4f7]
link w to s--><path codeLine="45" d="M586.9921,191.129 C581.7541,228.236 569.4871,315.14 562.3951,365.36 " fill="none" id="w-to-s" style="stroke:#A80036;stroke-width:0.9;stroke-dasharray:7.0,7.0;"/><polygon fill="#A80036" points="561.7291,370.103,566.4293,362.5878,562.3601,365.6474,559.3004,361.5782,561.7291,370.103" style="stroke:#A80036;stroke-width:0.9;"/><!--MD5=[4546973ef7dacf83725163dac0c05358]
link w to e--><path codeLine="46" d="M612.2731,191.201 C641.0011,215.699 686.6851,262.877 686.6851,315.248 C686.6851,315.248 686.6851,315.248 686.6851,905.648 C686.6851,975.308 603.0751,1015.331 548.1481,1034.114 " fill="none" id="w-to-e" style="stroke:#A80036;stroke-width:0.9;stroke-dasharray:7.0,7.0;"/><polygon fill="#A80036" points="543.5851,1035.644,552.4109,1036.4659,547.849,1034.2056,550.1094,1029.6437,543.5851,1035.644" style="stroke:#A80036;stroke-width:0.9;"/><!--MD5=[f7ac959458b02596d8dec769f76e38c2]
link s to u--><path codeLine="47" d="M548.4901,437.801 C536.9701,482 516.8551,559.247 507.0181,596.984 " fill="none" id="s-to-u" style="stroke:#A80036;stroke-width:0.9;stroke-dasharray:7.0,7.0;"/><polygon fill="#A80036" points="505.8751,601.385,511.3998,594.4533,507.0089,597.0302,504.4321,592.6393,505.8751,601.385" style="stroke:#A80036;stroke-width:0.9;"/><!--MD5=[fcf18d6011f98154ac9c493f12e89716]
link s to e--><path codeLine="48" d="M582.2941,437.765 C600.8251,465.296 622.7851,506.408 622.7851,546.548 C622.7851,546.548 622.7851,546.548 622.7851,905.648 C622.7851,959.594 571.4311,1003.307 535.4941,1027.292 " fill="none" id="s-to-e" style="stroke:#A80036;stroke-width:0.9;stroke-dasharray:7.0,7.0;"/><polygon fill="#A80036" points="531.6331,1029.839,540.3755,1028.3759,535.3872,1027.3577,536.4054,1022.3694,531.6331,1029.839" style="stroke:#A80036;stroke-width:0.9;"/><!--MD5=[045ac208ce3b5b3d224befd3f4c5c570]
link u to e--><path codeLine="49" d="M471.9811,638.465 C440.5531,659.912 395.0851,699.224 395.0851,747.248 C395.0851,747.248 395.0851,747.248 395.0851,905.648 C395.0851,957.209 440.6521,1002.038 472.0891,1026.833 " fill="none" id="u-to-e" style="stroke:#A80036;stroke-width:0.9;stroke-dasharray:7.0,7.0;"/><polygon fill="#A80036" points="475.8511,1029.758,471.6597,1021.9476,472.2962,1026.9988,467.245,1027.6353,475.8511,1029.758" style="stroke:#A80036;stroke-width:0.9;"/><!--MD5=[10426faf2822c007a77520b7cd00fe82]
link u to ir--><path codeLine="50" d="M501.2851,638.609 C501.2851,675.986 501.2851,762.53 501.2851,803.408 " fill="none" id="u-to-ir" style="stroke:#A80036;stroke-width:0.9;stroke-dasharray:7.0,7.0;"/><polygon fill="#A80036" points="501.2851,807.926,504.8851,799.826,501.2851,803.426,497.6851,799.826,501.2851,807.926" style="stroke:#A80036;stroke-width:0.9;"/><!--MD5=[3b1f9e3a281d418c889bfca96d71d676]
link ir to e--><path codeLine="51" d="M501.2851,844.988 C501.2851,884.741 501.2851,981.284 501.2851,1025.105 " fill="none" id="ir-to-e" style="stroke:#A80036;stroke-width:0.9;stroke-dasharray:7.0,7.0;"/><polygon fill="#A80036" points="501.2851,1029.677,504.8851,1021.577,501.2851,1025.177,497.6851,1021.577,501.2851,1029.677" style="stroke:#A80036;stroke-width:0.9;"/><!--MD5=[4db938e82141146da7a044fb7966322c]
link ri to ir--><path codeLine="52" d="M215.1391,638.438 C240.0691,652.568 275.6101,673.142 305.9851,692.348 C361.0201,727.142 422.8411,769.964 461.9101,797.504 " fill="none" id="ri-to-ir" style="stroke:#A80036;stroke-width:0.9;stroke-dasharray:7.0,7.0;"/><polygon fill="none" points="465.6271,792.419,476.6791,807.953,458.3461,802.706,465.6271,792.419" style="stroke:#A80036;stroke-width:0.9;"/><!--MD5=[1ec66c5a9589f7ad11acf305e41ddddc]
link ri to d--><path codeLine="53" d="M178.0231,638.609 C166.8901,674.285 141.7891,754.727 128.4331,797.522 " fill="none" id="ri-to-d" style="stroke:#A80036;stroke-width:0.9;stroke-dasharray:7.0,7.0;"/><polygon fill="#A80036" points="127.0201,802.049,132.8654,795.3855,128.3579,797.7524,125.991,793.245,127.0201,802.049" style="stroke:#A80036;stroke-width:0.9;"/><!--MD5=[717df48724e670f5b4538fa9178e9ed6]
link ri to db--><path codeLine="54" d="M195.7891,638.753 C210.7021,662.486 233.9851,706.127 233.9851,747.248 C233.9851,747.248 233.9851,747.248 233.9851,905.648 C233.9851,946.769 205.8151,984.695 179.8051,1010.948 " fill="none" id="ri-to-db" style="stroke:#A80036;stroke-width:0.9;stroke-dasharray:7.0,7.0;"/><polygon fill="#A80036" points="176.3221,1014.413,184.6017,1011.2477,179.5105,1011.2374,179.5208,1006.1463,176.3221,1014.413" style="stroke:#A80036;stroke-width:0.9;"/><!--MD5=[3aadb2425ab340d75a2b8369b88c3090]
link ri to e--><path codeLine="55" d="M210.1171,638.357 C239.4391,660.11 282.5851,700.133 282.5851,747.248 C282.5851,747.248 282.5851,747.248 282.5851,905.648 C282.5851,986.837 390.0361,1023.854 454.3051,1038.731 " fill="none" id="ri-to-e" style="stroke:#A80036;stroke-width:0.9;stroke-dasharray:7.0,7.0;"/><polygon fill="#A80036" points="458.8591,1039.766,451.751,1034.4703,454.4696,1038.7748,450.1651,1041.4935,458.8591,1039.766" style="stroke:#A80036;stroke-width:0.9;"/><!--MD5=[167a8acec7488cb77145f107dbe38de2]
link d to db--><path codeLine="56" d="M121.5121,850.901 C124.4731,888.953 130.3231,964.283 133.8691,1009.823 " fill="none" id="d-to-db" style="stroke:#A80036;stroke-width:0.9;stroke-dasharray:7.0,7.0;"/><polygon fill="#A80036" points="134.2201,1014.404,137.1846,1006.0504,133.873,1009.9174,130.006,1006.6058,134.2201,1014.404" style="stroke:#A80036;stroke-width:0.9;"/><text fill="#888888" font-family="monospace" font-size="14.4" lengthAdjust="spacingAndGlyphs" textLength="270" x="205.6425" y="1134.6636">Copyright (C) 2020 Cervon Wong</text><!--MD5=[7d3783f87111bef5e5892bd106e0784e]
@startuml
skinparam classAttributeIconSize 0
skinparam wrapWidth 400

skinparam wrapWidth 200
skinparam maxMessageSize 100
skinparam defaultFontName Monospaced
skinparam defaultFontSize 16
skinparam arrowFontSize 12
skinparam objectFontStyle bold
skinparam titleFontSize 24
skinparam titleFontStyle bold
skinparam shadowing false

header This diagram is part of a visualisation of the code written for Sona.\n View the project at github.com/cervonwong/sona-flutter.
title Dependencies between layers of the app.\n
footer Copyright (C) 2020 Cervon Wong

package Presentation <<Cloud>> {
	object "Widgets" as w
    object "State Management" as s {
    	BLoC, ChangeNotifier...
    }
}

package Domain <<Cloud>> {
	object "Use Cases" as u
	object "Entities" as e
	object "Repo Interfaces" as ir
}

package Data <<Cloud>> {
	object "Repo Impls" as ri
    object "DAOs" AS d {
    	also Data Sources
    }
    object "Moor Database" as db {
    	Configs, Tables, Models
    }
}

package Core <<Cloud>> {
	object "Service Locator" as di {
    	GetIt used for Dependency Injection
    }
}

w  ....>  s
w  ....>  e
s  ....>  u
s  ....>  e
u  ....>  e
u  ....>  ir
ir ....>  e
ri ....|> ir
ri ....>  d
ri ....>  db
ri ....>  e
d  ....>  db

note right of di
Unimplemented
end note

@enduml

PlantUML version 1.2020.23(Mon Dec 14 03:14:58 SGT 2020)
(GPL source distribution)
Java Runtime: OpenJDK Runtime Environment
JVM: OpenJDK 64-Bit Server VM
Default Encoding: Cp1252
Language: en
Country: GB
--></g></svg>