<?xml version="1.0" encoding="UTF-8" standalone="no"?><svg xmlns="http://www.w3.org/2000/svg" xmlns:xlink="http://www.w3.org/1999/xlink" contentScriptType="application/ecmascript" contentStyleType="text/css" height="1356.8px" preserveAspectRatio="none" style="width:1105px;height:1356px;" version="1.1" viewBox="0 0 1105 1356" width="1105.6px" zoomAndPan="magnify"><defs/><g><text fill="#888888" font-family="monospace" font-size="12.8" lengthAdjust="spacingAndGlyphs" textLength="552" x="543.2" y="12.8688">This diagram is part of a visualisation of the code written for Sona.</text><text fill="#888888" font-family="monospace" font-size="12.8" lengthAdjust="spacingAndGlyphs" textLength="440" x="655.2" y="29.5813">View the project at github.com/cervonwong/sona-flutter.</text><text fill="#000000" font-family="monospace" font-size="19.2" font-weight="bold" lengthAdjust="spacingAndGlyphs" textLength="436.8" x="329.2" y="52.7281">Dependencies between layers of the app.</text><text fill="#000000" font-family="monospace" font-size="19.2" font-weight="bold" lengthAdjust="spacingAndGlyphs" textLength="0" x="553.2" y="77.7969"/><!--MD5=[e3bd33a92827c21193f8eb915c8968a3]
cluster Features--><polygon fill="#FFFFFF" points="243.2,129.1625,251.2,121.1625,836.8,121.1625,836.8,1324.3625,828.8,1332.3625,243.2,1332.3625,243.2,129.1625" style="stroke:#000000;stroke-width:1.2000000000000002;"/><line style="stroke:#000000;stroke-width:1.2000000000000002;" x1="828.8" x2="836.8" y1="129.1625" y2="121.1625"/><line style="stroke:#000000;stroke-width:1.2000000000000002;" x1="243.2" x2="828.8" y1="129.1625" y2="129.1625"/><line style="stroke:#000000;stroke-width:1.2000000000000002;" x1="828.8" x2="828.8" y1="129.1625" y2="1332.3625"/><text fill="#000000" font-family="monospace" font-size="12.8" font-weight="bold" lengthAdjust="spacingAndGlyphs" textLength="64" x="504.8" y="144.4313">Features</text><!--MD5=[8fd473fd151a2794da4f2c8684676405]
cluster Presentation--><path d="M641.9839,183.1229 C647.7608,169.0942 657.0195,167.0826 667.0251,179.0494 C672.4412,167.0681 683.8952,167.094 690.7551,177.5204 C696.9744,164.315 710.3701,161.1564 718.9711,175.0396 C727.0503,164.7487 737.8077,165.2155 742.7018,178.2764 C750.1039,167.9434 759.0726,171.2205 764.3682,180.5926 C774.7159,169.1276 788.4184,167.9346 794.4,185.1625 C795.7012,184.3133 796.759,184.9818 796.6694,186.4973 C807.5893,193.2234 807.8267,201.4167 797.2177,208.6751 C807.3254,213.9041 808.6757,224.9406 798.465,231.2902 C807.9056,237.2858 809.1693,245.4389 799.9678,252.7406 C812.363,259.1843 812.2641,266.6917 801.8779,275.0831 C812.9892,282.6526 813.3259,291.0836 801.5567,298.3371 C811.6802,302.3653 812.9491,311.3988 805.7381,318.9443 C815.1733,324.625 813.4526,334.8897 804.7145,339.673 C818.0223,345.3143 815.9049,356.8382 806.2969,363.9718 C815.5545,371.0135 811.5684,379.1814 802.872,382.9899 C815.0244,390.8049 813.211,398.6557 802.279,405.8725 C813.9168,413.2357 811.0103,422.3485 800.5656,428.0019 C812.9217,435.5729 810.1093,443.6555 800.2292,450.9 C809.367,458.2696 809.2141,466.7337 797.4467,471.2441 C807.6156,483.3797 805.2596,493.9104 788.8,497.1625 C790.2038,495.509 791.5388,495.7435 792.6279,497.5143 C786.806,509.9684 773.6313,510.533 766.2677,499.2244 C760.2714,510.1991 751.2784,512.6023 743.0745,501.5486 C734.3304,512.014 723.485,512.3791 717.5824,498.5651 C710.6137,508.8567 702.9455,511.1505 694.1825,500.5774 C684.908,512.868 675.195,512.8387 667.756,498.7393 C654.1515,510.8196 643.1936,507.8495 636,491.5625 C637.1508,491.3132 637.5689,491.8737 637.4337,492.9517 C629.4283,486.7553 629.9066,476.389 639.5223,471.9447 C627.1439,466.581 627.223,457.801 636.2907,449.3675 C625.2398,443.1663 624.7433,433.6754 636.4309,427.6208 C628.1981,422.0063 628.7287,412.7985 637.3343,407.9575 C625.4956,401.6676 627.3003,391.8454 637.0827,385.3152 C624.3505,376.8253 627.4439,369.6174 637.3617,361.3916 C625.5306,355.2904 626.0842,346.0445 636.5579,339.1377 C628.5459,332.912 627.0832,326.23 636.4996,319.9514 C625.5175,311.4272 628.3507,304.3251 638.5389,297.7451 C625.9225,290.6163 627.595,281.3902 637.624,273.41 C628.6179,267.2915 627.1185,261.2265 636.3967,253.9545 C625.2455,246.2022 625.6352,234.0147 639.278,229.1416 C628.805,224.4901 626.6685,216.6913 636.3901,209.1261 C624.7315,196.8036 624.7605,186.863 641.6,179.5625 C643.5355,180.5951 643.2974,181.74 641.9839,183.1229 " fill="#FFFFFF" style="stroke:#000000;stroke-width:1.2000000000000002;"/><text fill="#000000" font-family="monospace" font-size="12.8" font-weight="bold" lengthAdjust="spacingAndGlyphs" textLength="96" x="667.2" y="196.4313">Presentation</text><!--MD5=[121a8bf1197281ab89ed693fab589f94]
cluster Domain--><path d="M597.681,644.5571 C610.0359,625.3655 627.9344,622.2659 641.6927,643.0104 C652.8814,621.0419 666.3661,622.1071 680.6006,640.0404 C694.5151,619.5115 708.8475,619.9374 722.4514,640.358 C736.0923,623.7558 756.6221,624.4351 764.8,646.3625 C769.0615,645.8093 770.8101,647.7223 769.9885,651.9171 C783.9405,664.0166 783.1543,673.3749 766.4041,681.7906 C783.5219,688.3432 788.7477,704.4494 771.2836,715.9429 C788.1485,728.4472 787.1875,739.7316 768.8944,749.7513 C782.8491,758.9649 783.7277,772.3682 767.8388,780.5592 C787.2143,790.5512 785.3028,804.4473 769.0179,815.638 C783.0724,824.4988 783.5505,837.7798 770.0372,847.522 C783.756,857.5173 786.1887,867.5082 772.0468,879.2672 C787.7777,887.7488 788.3139,904.8127 772.9281,914.082 C787.3978,923.6491 788.3015,934.2491 772.9173,943.8054 C786.9987,955.0211 788.2272,971.751 768.5139,978.7025 C783.6497,988.19 788.3236,1002.668 770.2607,1013.8074 C784.7531,1023.9171 784.1526,1035.7001 771.0391,1046.4678 C785.1224,1060.0189 783.9459,1072.9435 765.5803,1081.428 C779.212,1092.9479 774.975,1108.2095 759.2,1113.9625 C761.6738,1112.0194 763.5575,1112.7574 764.4771,1115.6563 C753.0919,1139.194 736.1364,1139.5667 720.223,1120.3425 C711.0495,1143.3842 692.6946,1139.7702 679.5789,1124.5277 C663.9636,1144.117 649.8046,1141.9001 639.0316,1119.8163 C619.5424,1141.9182 599.5303,1132.8606 591.2,1108.3625 C594.9566,1107.4899 597.234,1109.6676 595.8784,1113.4741 C578.391,1106.7847 579.4311,1090.955 592.1328,1080.8044 C575.4522,1067.9917 578.3824,1057.4849 593.3841,1045.8049 C580.1273,1037.1729 578.1481,1022.177 594.0033,1014.1138 C575.5146,1006.8198 575.4862,992.7833 589.9984,981.4438 C570.5766,971.9256 570.0972,955.0961 589.5318,945.0792 C574.2825,932.8265 572.2895,920.3295 592.0262,910.6086 C578.9869,902.0505 577.7034,890.27 592.6949,882.3758 C579.4548,873.5104 579.8106,858.1413 593.6722,850.0964 C575.5516,840.506 576.1717,823.5252 593.8328,814.0945 C577.4641,804.076 574.6027,788.36 593.8695,778.3781 C580.7213,769.5088 581.5947,756.7268 594.489,748.3956 C578.5316,738.1418 581.4692,723.4719 595.7096,714.2991 C578.1423,708.6808 577.2914,692.8721 591.4068,682.9108 C575.6638,667.4302 577.5463,651.7649 596.8,640.7625 C598.7811,641.5286 599.273,642.9614 597.681,644.5571 " fill="#FFFFFF" style="stroke:#000000;stroke-width:1.2000000000000002;"/><text fill="#000000" font-family="monospace" font-size="12.8" font-weight="bold" lengthAdjust="spacingAndGlyphs" textLength="48" x="654" y="657.6313">Domain</text><!--MD5=[f21b1f164e99c6b37934f23ad048ad54]
cluster Data--><path d="M292.9456,639.1678 C303.283,624.357 314.8389,625.339 325.3828,638.932 C334.205,624.0015 350.3648,620.5208 359.3217,638.7943 C367.5622,623.0949 380.1633,622.6213 389.4611,637.7609 C400.8697,620.5545 412.8603,622.9691 422.1165,639.8245 C430.6709,623.0051 446.3376,620.6953 459.0129,634.9281 C468.1798,621.2451 484.2816,620.5833 492.1709,636.3658 C502.7368,623.165 517.7178,624.2573 524.9273,640.1454 C534.5912,624.9421 550.5286,622.9213 559.2,641.1625 C562.8129,641.553 564.7277,643.6998 562.3545,647.2118 C578.1319,656.7405 579.6754,671.209 562.8429,681.2063 C577.122,691.1898 576.3432,701.8615 561.6739,710.6975 C579.1854,722.6238 577.6793,733.1472 560.9039,744.2875 C579.9692,754.9279 576.7962,771.8201 561.291,782.808 C579.8929,790.7385 582.2951,804.0433 567.6787,818.0027 C581.4729,830.1318 579.3901,842.2458 564.7231,851.8927 C578.4608,859.5244 579.2268,874.4503 566.0785,883.2444 C580.3057,893.2491 584.157,910.3121 564.6347,918.9521 C581.3503,929.4853 581.1624,939.8328 567.5795,952.9875 C579.9704,966.8273 581.1967,979.5829 561.7645,988.1617 C577.7253,999.0088 580.2067,1012.6928 561.658,1023.4357 C575.8098,1031.5222 576.8452,1044.0075 564.8119,1054.7328 C581.6985,1066.403 581.9676,1082.9286 562.8103,1092.6985 C577.3329,1108.3571 570.8362,1120.2939 553.6,1127.5625 C555.3385,1125.0209 557.262,1125.6941 558.5023,1128.0601 C550.1892,1145.5882 534.6525,1149.3758 520.366,1135.2587 C511.1647,1149.7932 500.6595,1150.3498 491.9048,1134.8356 C481.0837,1149.9701 470.9131,1150.4809 459.4453,1135.5334 C451.0482,1154.6962 437.888,1153.8889 426.1003,1138.838 C413.9988,1152.9791 398.8011,1152.4274 389.5305,1135.5054 C380.9529,1147.4298 365.5891,1147.3963 358.8769,1133.3073 C347.4231,1148.0906 335.6988,1150.8811 323.0898,1134.6397 C304.2193,1147.1419 289.4371,1145.5701 281.6,1121.9625 C283.3386,1119.4362 286.2722,1119.6575 287.7384,1122.2868 C269.5478,1113.8787 271.1572,1097.2279 287.1338,1088.2136 C270.2699,1082.7732 267.9544,1067.2458 282.422,1057.0658 C267.4883,1046.3217 268.0662,1035.7751 280.9335,1023.7875 C265.6618,1013.5559 266.2353,997.1742 284.0867,990.0372 C267.7328,980.4098 266.0249,965.6752 282.988,955.003 C265.3463,944.1362 267.8833,927.5838 283.3659,917.0468 C268.8844,905.7556 266.9278,894.8644 283.7671,883.9528 C271.3352,874.0728 269.7662,861.2585 285.4503,852.9027 C268.8104,841.9292 266.8172,824.5377 285.7314,813.82 C269.3673,805.6248 268.2976,791.8426 284.7446,782.61 C268.6501,772.2481 265.2201,753.7948 285.618,744.2639 C272.0711,735.7752 271.7014,727.0378 282.2685,715.7195 C265.4699,705.2971 265.3274,689.5251 282.1395,678.9848 C262.4949,664.5064 265.8546,645.2639 287.2,635.5625 C290.4711,633.9774 293.2317,635.0839 292.9456,639.1678 " fill="#FFFFFF" style="stroke:#000000;stroke-width:1.2000000000000002;"/><text fill="#000000" font-family="monospace" font-size="12.8" font-weight="bold" lengthAdjust="spacingAndGlyphs" textLength="32" x="404.4" y="652.4313">Data</text><!--MD5=[2c2e2644034c00788261e03c85b06837]
cluster Core--><polygon fill="#FFFFFF" points="868.8,153.9625,876.8,145.9625,1092,145.9625,1092,279.5625,1084,287.5625,868.8,287.5625,868.8,153.9625" style="stroke:#000000;stroke-width:1.2000000000000002;"/><line style="stroke:#000000;stroke-width:1.2000000000000002;" x1="1084" x2="1092" y1="153.9625" y2="145.9625"/><line style="stroke:#000000;stroke-width:1.2000000000000002;" x1="868.8" x2="1084" y1="153.9625" y2="153.9625"/><line style="stroke:#000000;stroke-width:1.2000000000000002;" x1="1084" x2="1084" y1="153.9625" y2="287.5625"/><text fill="#000000" font-family="monospace" font-size="12.8" font-weight="bold" lengthAdjust="spacingAndGlyphs" textLength="32" x="961.2" y="169.2313">Core</text><path d="M301.2,1171.5625 L301.2,1313.2625 A0,0 0 0 0 301.2,1313.2625 L510,1313.2625 A0,0 0 0 0 510,1313.2625 L510,1179.5625 L502,1171.5625 L408.8,1171.5625 L405.6,1121.5225 L402.4,1171.5625 L301.2,1171.5625 A0,0 0 0 0 301.2,1171.5625 " fill="#FBFB77" style="stroke:#A80036;stroke-width:0.8;"/><path d="M502,1171.5625 L502,1179.5625 L510,1179.5625 L502,1171.5625 " fill="#FBFB77" style="stroke:#A80036;stroke-width:0.8;"/><text fill="#000000" font-family="monospace" font-size="12.8" lengthAdjust="spacingAndGlyphs" textLength="144" x="306" y="1188.4313">Models are part of</text><text fill="#000000" font-family="monospace" font-size="12.8" lengthAdjust="spacingAndGlyphs" textLength="152" x="306" y="1205.1438">the database due to</text><text fill="#000000" font-family="monospace" font-size="12.8" lengthAdjust="spacingAndGlyphs" textLength="144" x="306" y="1221.8563">the limitations of</text><text fill="#000000" font-family="monospace" font-size="12.8" lengthAdjust="spacingAndGlyphs" textLength="160" x="306" y="1238.5688">moor's builders. See</text><text fill="#000000" font-family="monospace" font-size="12.8" font-style="italic" lengthAdjust="spacingAndGlyphs" textLength="152" x="306" y="1255.2813">https://github.com/</text><text fill="#000000" font-family="monospace" font-size="12.8" font-style="italic" lengthAdjust="spacingAndGlyphs" textLength="192" x="306" y="1271.9938">simolus3/moor/issues/490</text><text fill="#000000" font-family="monospace" font-size="12.8" lengthAdjust="spacingAndGlyphs" textLength="160" x="306" y="1288.7063">for progress on this</text><text fill="#000000" font-family="monospace" font-size="12.8" lengthAdjust="spacingAndGlyphs" textLength="16" x="306" y="1305.4188">:)</text><rect fill="#FEFECE" height="32.7125" style="stroke:#A80036;stroke-width:1.2000000000000002;" width="67.2" x="701.6" y="222.7625"/><text fill="#000000" font-family="monospace" font-size="12.8" font-weight="bold" lengthAdjust="spacingAndGlyphs" textLength="56" x="707.2" y="237.2313">Widgets</text><line style="stroke:#A80036;stroke-width:1.2000000000000002;" x1="702.4" x2="768" y1="242.675" y2="242.675"/><rect fill="#FEFECE" height="59.7375" style="stroke:#A80036;stroke-width:1.2000000000000002;" width="145.6" x="642.4" y="430.7625"/><text fill="#000000" font-family="monospace" font-size="12.8" font-weight="bold" lengthAdjust="spacingAndGlyphs" textLength="128" x="651.2" y="445.2313">State Management</text><line style="stroke:#A80036;stroke-width:1.2000000000000002;" x1="643.2" x2="787.2" y1="450.675" y2="450.675"/><text fill="#000000" font-family="monospace" font-size="12.8" lengthAdjust="spacingAndGlyphs" textLength="40" x="647.2" y="466.7438">BLoC,</text><text fill="#000000" font-family="monospace" font-size="12.8" lengthAdjust="spacingAndGlyphs" textLength="136" x="647.2" y="483.4563">ChangeNotifier...</text><rect fill="#FEFECE" height="32.7125" style="stroke:#A80036;stroke-width:1.2000000000000002;" width="83.2" x="651.2" y="683.9625"/><text fill="#000000" font-family="monospace" font-size="12.8" font-weight="bold" lengthAdjust="spacingAndGlyphs" textLength="72" x="656.8" y="698.4313">Use Cases</text><line style="stroke:#A80036;stroke-width:1.2000000000000002;" x1="652" x2="733.6" y1="703.875" y2="703.875"/><rect fill="#FEFECE" height="32.7125" style="stroke:#A80036;stroke-width:1.2000000000000002;" width="75.2" x="655.2" y="1074.7625"/><text fill="#000000" font-family="monospace" font-size="12.8" font-weight="bold" lengthAdjust="spacingAndGlyphs" textLength="64" x="660.8" y="1089.2313">Entities</text><line style="stroke:#A80036;stroke-width:1.2000000000000002;" x1="656" x2="729.6" y1="1094.675" y2="1094.675"/><rect fill="#FEFECE" height="32.7125" style="stroke:#A80036;stroke-width:1.2000000000000002;" width="131.2" x="627.2" y="875.1625"/><text fill="#000000" font-family="monospace" font-size="12.8" font-weight="bold" lengthAdjust="spacingAndGlyphs" textLength="120" x="632.8" y="889.6313">Repo Interfaces</text><line style="stroke:#A80036;stroke-width:1.2000000000000002;" x1="628" x2="757.6" y1="895.075" y2="895.075"/><rect fill="#FEFECE" height="32.7125" style="stroke:#A80036;stroke-width:1.2000000000000002;" width="91.2" x="461.6" y="683.9625"/><text fill="#000000" font-family="monospace" font-size="12.8" font-weight="bold" lengthAdjust="spacingAndGlyphs" textLength="80" x="467.2" y="698.4313">Repo Impls</text><line style="stroke:#A80036;stroke-width:1.2000000000000002;" x1="462.4" x2="552" y1="703.875" y2="703.875"/><rect fill="#FEFECE" height="43.025" style="stroke:#A80036;stroke-width:1.2000000000000002;" width="145.6" x="288" y="678.7625"/><text fill="#000000" font-family="monospace" font-size="12.8" font-weight="bold" lengthAdjust="spacingAndGlyphs" textLength="72" x="324.8" y="693.2313">DAO Impls</text><line style="stroke:#A80036;stroke-width:1.2000000000000002;" x1="288.8" x2="432.8" y1="698.675" y2="698.675"/><text fill="#000000" font-family="monospace" font-size="12.8" lengthAdjust="spacingAndGlyphs" textLength="136" x="292.8" y="714.7438">also Data Sources</text><rect fill="#FEFECE" height="43.025" style="stroke:#A80036;stroke-width:1.2000000000000002;" width="145.6" x="332.8" y="869.9625"/><text fill="#000000" font-family="monospace" font-size="12.8" font-weight="bold" lengthAdjust="spacingAndGlyphs" textLength="112" x="349.6" y="884.4313">DAO Interfaces</text><line style="stroke:#A80036;stroke-width:1.2000000000000002;" x1="333.6" x2="477.6" y1="889.875" y2="889.875"/><text fill="#000000" font-family="monospace" font-size="12.8" lengthAdjust="spacingAndGlyphs" textLength="136" x="337.6" y="905.9438">also Data Sources</text><rect fill="#FEFECE" height="59.7375" style="stroke:#A80036;stroke-width:1.2000000000000002;" width="145.6" x="332.8" y="1061.1625"/><text fill="#000000" font-family="monospace" font-size="12.8" font-weight="bold" lengthAdjust="spacingAndGlyphs" textLength="104" x="353.6" y="1075.6313">Moor Database</text><line style="stroke:#A80036;stroke-width:1.2000000000000002;" x1="333.6" x2="477.6" y1="1081.075" y2="1081.075"/><text fill="#000000" font-family="monospace" font-size="12.8" lengthAdjust="spacingAndGlyphs" textLength="128" x="337.6" y="1097.1438">Configs, Tables,</text><text fill="#000000" font-family="monospace" font-size="12.8" lengthAdjust="spacingAndGlyphs" textLength="48" x="337.6" y="1113.8563">Models</text><path d="M903.6,209.9625 L903.6,268.1 L1072.4,268.1 L1072.4,217.9625 L1064.4,209.9625 L903.6,209.9625 " fill="#FBFB77" style="stroke:#A80036;stroke-width:0.8;"/><path d="M1064.4,209.9625 L1064.4,217.9625 L1072.4,217.9625 L1064.4,209.9625 " fill="#FBFB77" style="stroke:#A80036;stroke-width:0.8;"/><text fill="#000000" font-family="monospace" font-size="12.8" lengthAdjust="spacingAndGlyphs" textLength="136" x="908.4" y="226.8313">Constants, utils,</text><text fill="#000000" font-family="monospace" font-size="12.8" lengthAdjust="spacingAndGlyphs" textLength="144" x="908.4" y="243.5438">shared components,</text><text fill="#000000" font-family="monospace" font-size="12.8" lengthAdjust="spacingAndGlyphs" textLength="32" x="908.4" y="260.2563">etc.</text><rect fill="#FEFECE" height="76.45" style="stroke:#A80036;stroke-width:1.2000000000000002;" width="169.6" x="5.6" y="200.7625"/><text fill="#000000" font-family="monospace" font-size="12.8" font-weight="bold" lengthAdjust="spacingAndGlyphs" textLength="120" x="30.4" y="215.2313">Service Locator</text><line style="stroke:#A80036;stroke-width:1.2000000000000002;" x1="6.4" x2="174.4" y1="220.675" y2="220.675"/><text fill="#000000" font-family="monospace" font-size="12.8" lengthAdjust="spacingAndGlyphs" textLength="152" x="10.4" y="236.7438">Injection Container</text><text fill="#000000" font-family="monospace" font-size="12.8" lengthAdjust="spacingAndGlyphs" textLength="112" x="10.4" y="253.4563">for Dependency</text><text fill="#000000" font-family="monospace" font-size="12.8" lengthAdjust="spacingAndGlyphs" textLength="72" x="10.4" y="270.1688">Injection</text><!--MD5=[d82ef6b2c738c1c7a188aee55dc2c4f7]
link w to s--><path codeLine="56" d="M733.76,255.7865 C730.528,291.3625 722.624,378.3145 718.24,426.4825 " fill="none" id="w-to-s" style="stroke:#A80036;stroke-width:0.8;stroke-dasharray:7.0,7.0;"/><polygon fill="#A80036" points="717.856,430.7305,721.6805,423.8419,718.2099,426.7462,715.3056,423.2756,717.856,430.7305" style="stroke:#A80036;stroke-width:0.8;"/><!--MD5=[4546973ef7dacf83725163dac0c05358]
link w to e--><path codeLine="57" d="M762.6,255.6105 C786.304,271.4185 816.8,298.2345 816.8,331.5625 C816.8,331.5625 816.8,331.5625 816.8,1012.3625 C816.8,1052.1145 770.576,1072.4025 734.568,1082.1705 " fill="none" id="w-to-e" style="stroke:#A80036;stroke-width:0.8;stroke-dasharray:7.0,7.0;"/><polygon fill="#A80036" points="730.68,1083.2025,738.4575,1084.4637,734.5481,1082.184,736.8278,1078.2746,730.68,1083.2025" style="stroke:#A80036;stroke-width:0.8;"/><!--MD5=[f7ac959458b02596d8dec769f76e38c2]
link s to u--><path codeLine="58" d="M712.432,490.9865 C707.8,540.1625 698.616,637.7865 694.672,679.6985 " fill="none" id="s-to-u" style="stroke:#A80036;stroke-width:0.8;stroke-dasharray:7.0,7.0;"/><polygon fill="#A80036" points="694.28,683.8105,698.1454,676.9447,694.6576,679.8284,691.774,676.3406,694.28,683.8105" style="stroke:#A80036;stroke-width:0.8;"/><!--MD5=[fcf18d6011f98154ac9c493f12e89716]
link s to e--><path codeLine="59" d="M759.976,490.8025 C774.624,504.0505 787.2,521.2265 787.2,541.1625 C787.2,541.1625 787.2,541.1625 787.2,1012.3625 C787.2,1041.7465 759.688,1062.1385 734.368,1074.6825 " fill="none" id="s-to-e" style="stroke:#A80036;stroke-width:0.8;stroke-dasharray:7.0,7.0;"/><polygon fill="#A80036" points="730.656,1076.4745,738.5312,1076.2275,734.2585,1074.7361,735.7498,1070.4634,730.656,1076.4745" style="stroke:#A80036;stroke-width:0.8;"/><!--MD5=[045ac208ce3b5b3d224befd3f4c5c570]
link u to e--><path codeLine="60" d="M651.12,713.9785 C625.832,724.6345 598.4,742.6665 598.4,770.7625 C598.4,770.7625 598.4,770.7625 598.4,1012.3625 C598.4,1041.7465 625.912,1062.1385 651.232,1074.6825 " fill="none" id="u-to-e" style="stroke:#A80036;stroke-width:0.8;stroke-dasharray:7.0,7.0;"/><polygon fill="#A80036" points="654.944,1076.4745,649.8502,1070.4634,651.3415,1074.7361,647.0688,1076.2275,654.944,1076.4745" style="stroke:#A80036;stroke-width:0.8;"/><!--MD5=[10426faf2822c007a77520b7cd00fe82]
link u to ir--><path codeLine="61" d="M692.8,717.0025 C692.8,751.4505 692.8,833.1305 692.8,870.9305 " fill="none" id="u-to-ir" style="stroke:#A80036;stroke-width:0.8;stroke-dasharray:7.0,7.0;"/><polygon fill="#A80036" points="692.8,875.0985,696,867.8985,692.8,871.0985,689.6,867.8985,692.8,875.0985" style="stroke:#A80036;stroke-width:0.8;"/><!--MD5=[3b1f9e3a281d418c889bfca96d71d676]
link ir to e--><path codeLine="62" d="M692.8,908.2345 C692.8,944.0905 692.8,1031.2985 692.8,1070.5945 " fill="none" id="ir-to-e" style="stroke:#A80036;stroke-width:0.8;stroke-dasharray:7.0,7.0;"/><polygon fill="#A80036" points="692.8,1074.6905,696,1067.4905,692.8,1070.6905,689.6,1067.4905,692.8,1074.6905" style="stroke:#A80036;stroke-width:0.8;"/><!--MD5=[4db938e82141146da7a044fb7966322c]
link ri to ir--><path codeLine="63" d="M520.416,717.0905 C536.584,736.3545 565.048,769.5305 591.2,796.3625 C614.328,820.0985 641.96,845.5945 662.56,864.1065 " fill="none" id="ri-to-ir" style="stroke:#A80036;stroke-width:0.8;stroke-dasharray:7.0,7.0;"/><polygon fill="none" points="666.464,860.0825,674.672,874.9065,659.008,868.4345,666.464,860.0825" style="stroke:#A80036;stroke-width:0.8;"/><!--MD5=[ef247cbac8668f60d8ea88c662449112]
link ri to id--><path codeLine="64" d="M498.712,717.0025 C481.016,750.0265 440.072,826.4345 418.864,866.0105 " fill="none" id="ri-to-id" style="stroke:#A80036;stroke-width:0.8;stroke-dasharray:7.0,7.0;"/><polygon fill="#A80036" points="416.872,869.7225,423.0984,864.8942,418.765,866.1988,417.4604,861.8654,416.872,869.7225" style="stroke:#A80036;stroke-width:0.8;"/><!--MD5=[717df48724e670f5b4538fa9178e9ed6]
link ri to db--><path codeLine="65" d="M507.2,716.9225 C507.2,731.0265 507.2,752.2745 507.2,770.7625 C507.2,770.7625 507.2,770.7625 507.2,1012.3625 C507.2,1031.6905 495.488,1046.8905 480.016,1058.5305 " fill="none" id="ri-to-db" style="stroke:#A80036;stroke-width:0.8;stroke-dasharray:7.0,7.0;"/><polygon fill="#A80036" points="476.44,1061.1065,484.1482,1059.4742,479.6794,1058.7599,480.3937,1054.2912,476.44,1061.1065" style="stroke:#A80036;stroke-width:0.8;"/><!--MD5=[3aadb2425ab340d75a2b8369b88c3090]
link ri to e--><path codeLine="66" d="M518.52,716.9065 C527.16,730.4905 537.6,750.9865 537.6,770.7625 C537.6,770.7625 537.6,770.7625 537.6,1012.3625 C537.6,1063.1465 604.768,1080.8745 650.736,1087.0505 " fill="none" id="ri-to-e" style="stroke:#A80036;stroke-width:0.8;stroke-dasharray:7.0,7.0;"/><polygon fill="#A80036" points="654.832,1087.5865,648.1033,1083.4871,650.8652,1087.0721,647.2803,1089.834,654.832,1087.5865" style="stroke:#A80036;stroke-width:0.8;"/><!--MD5=[99a72c7b55631d88e329c6e8e8a1d276]
link di to db--><path codeLine="67" d="M331.072,722.1705 C317.328,734.4905 304,751.4265 304,770.7625 C304,770.7625 304,770.7625 304,1012.3625 C304,1031.6905 315.712,1046.8905 331.184,1058.5305 " fill="none" id="di-to-db" style="stroke:#A80036;stroke-width:0.8;stroke-dasharray:7.0,7.0;"/><polygon fill="#A80036" points="334.76,1061.1065,330.8063,1054.2912,331.5206,1058.7599,327.0518,1059.4742,334.76,1061.1065" style="stroke:#A80036;stroke-width:0.8;"/><!--MD5=[7aa9af87c0b9289b42293f157a53e025]
link di to id--><path codeLine="68" d="M365.768,722.1785 C373.288,754.0105 387.672,814.8825 396.944,854.1145 " fill="none" id="di-to-id" style="stroke:#A80036;stroke-width:0.8;stroke-dasharray:7.0,7.0;"/><polygon fill="none" points="402.448,853.0825,400.68,869.9385,391.552,855.6585,402.448,853.0825" style="stroke:#A80036;stroke-width:0.8;"/><!--MD5=[7a510777642ea981a0fd51bcb327fe86]
link id to db--><path codeLine="69" d="M405.6,913.1785 C405.6,947.3545 405.6,1015.6505 405.6,1056.7465 " fill="none" id="id-to-db" style="stroke:#A80036;stroke-width:0.8;stroke-dasharray:7.0,7.0;"/><polygon fill="#A80036" points="405.6,1060.8825,408.8,1053.6825,405.6,1056.8825,402.4,1053.6825,405.6,1060.8825" style="stroke:#A80036;stroke-width:0.8;"/><!--MD5=[02bc40338c3adfdf4b8dbb99de91cf24]
link sl to Features--><path codeLine="71" d="M175.36,239.1625 C193.144,239.1625 210.568,239.1625 224.062,239.1625 C230.809,239.1625 236.5735,239.1625 240.9093,239.1625 C241.4512,239.1625 241.9709,239.1625 242.4673,239.1625 C242.7155,239.1625 242.958,239.1625 243.1945,239.1625 " fill="none" id="sl-to-Features" style="stroke:#A80036;stroke-width:0.8;stroke-dasharray:7.0,7.0;"/><polygon fill="#A80036" points="243.1945,239.1625,235.9945,235.9625,239.1945,239.1625,235.9945,242.3625,243.1945,239.1625" style="stroke:#A80036;stroke-width:0.8;"/><!--MD5=[2c271655a0c9ad5e3dece1b2ef732d32]
link Features to Core--><path d="M837.0805,156.6394 C838.1791,158.1155 839.2514,159.6081 840.2977,161.1134 C842.3904,164.1241 844.3792,167.1857 846.2667,170.268 C850.0418,176.4325 853.4118,182.6795 856.397,188.7665 C859.3823,194.8535 861.9828,200.7805 864.2191,206.305 C865.3373,209.0673 866.3644,211.7289 867.303,214.2596 C867.7723,215.5249 868.2195,216.7575 868.6449,217.9536 C868.6714,218.0284 868.6979,218.103 868.7244,218.1774 " fill="none" id="Features-to-Core" style="stroke:#A80036;stroke-width:0.8;stroke-dasharray:7.0,7.0;"/><polygon fill="#A80036" points="868.7244,218.1774,869.3332,210.3219,867.3871,214.4076,863.3015,212.4615,868.7244,218.1774" style="stroke:#A80036;stroke-width:0.8;"/><text fill="#888888" font-family="monospace" font-size="12.8" lengthAdjust="spacingAndGlyphs" textLength="240" x="427.6" y="1350.0313">Copyright (C) 2020 Cervon Wong</text><!--MD5=[5ff1fa76720d3f44ab1cf2899892e957]
@startuml
skinparam classAttributeIconSize 0
skinparam wrapWidth 400

skinparam wrapWidth 200
skinparam maxMessageSize 100
skinparam defaultFontName Monospaced
skinparam defaultFontSize 16
skinparam arrowFontSize 12
skinparam objectFontStyle bold
skinparam titleFontSize 24
skinparam titleFontStyle bold
skinparam shadowing false

header This diagram is part of a visualisation of the code written for Sona.\n View the project at github.com/cervonwong/sona-flutter.
title Dependencies between layers of the app.\n
footer Copyright (C) 2020 Cervon Wong

package Features <<Node>> {
	package Presentation <<Cloud>> {
		object "Widgets" as w
		object "State Management" as s {
			BLoC, ChangeNotifier...
		}
	}
	
	package Domain <<Cloud>> {
		object "Use Cases" as u
		object "Entities" as e
		object "Repo Interfaces" as ir
	}
	
	package Data <<Cloud>> {
		object "Repo Impls" as ri
		object "DAO Impls" AS di {
			also Data Sources
		}
		object "DAO Interfaces" as id {
			also Data Sources
		}
		object "Moor Database" as db {
			Configs, Tables, Models
		}
	}

	note bottom of db
    	Models are part of the database due to the limitations of moor's builders. See <i>https://github.com/ simolus3/moor/issues/490</i>for progress on this :)
    end note
}

object "Service Locator" as sl {
	Injection Container for Dependency Injection
}

package Core <<Node>> {
	note "Constants, utils, shared components, etc." as n1
}

w  ....>  s
w  ....>  e
s  ....>  u
s  ....>  e
u  ....>  e
u  ....>  ir
ir ....>  e
ri ....|> ir
ri ....>  id
ri ....>  db
ri ....>  e
di ....>  db
di ....|> id
id ....> db

sl .> Features : \t
Features .> Core : \t

@enduml

PlantUML version 1.2020.23(Mon Dec 14 03:14:58 SGT 2020)
(GPL source distribution)
Java Runtime: OpenJDK Runtime Environment
JVM: OpenJDK 64-Bit Server VM
Default Encoding: Cp1252
Language: en
Country: GB
--></g></svg>