<?xml version="1.0" encoding="UTF-8" standalone="no"?><svg xmlns="http://www.w3.org/2000/svg" xmlns:xlink="http://www.w3.org/1999/xlink" contentScriptType="application/ecmascript" contentStyleType="text/css" height="1592.1px" preserveAspectRatio="none" style="width:1070px;height:1592px;" version="1.1" viewBox="0 0 1070 1592" width="1070.1px" zoomAndPan="magnify"><defs/><g><text fill="#888888" font-family="monospace" font-size="14.4" lengthAdjust="spacingAndGlyphs" textLength="621" x="437.4" y="14.4773">This diagram is part of a visualisation of the code written for Sona.</text><text fill="#888888" font-family="monospace" font-size="14.4" lengthAdjust="spacingAndGlyphs" textLength="495" x="563.4" y="33.2789">View the project at github.com/cervonwong/sona-flutter.</text><text fill="#000000" font-family="monospace" font-size="21.6" font-weight="bold" lengthAdjust="spacingAndGlyphs" textLength="441" x="308.7" y="59.3191">Relationships of material entities.</text><text fill="#000000" font-family="monospace" font-size="21.6" font-weight="bold" lengthAdjust="spacingAndGlyphs" textLength="0" x="535.5" y="87.5215"/><!--MD5=[5e305716458bbdabbd2d7f572ed2bae2]
class Card--><rect codeLine="15" fill="#FEFECE" height="99.6047" id="Card" style="stroke:#A80036;stroke-width:1.35;" width="154.8" x="858.6" y="1142.5078"/><ellipse cx="914.175" cy="1156.9078" fill="#ADD1B2" rx="9.9" ry="9.9" style="stroke:#A80036;stroke-width:0.9;"/><path d="M916.2,1154.2078 Q916.8328,1153.7578 916.8188,1153.5328 Q916.8047,1153.3078 917.0438,1153.3078 Q917.4656,1153.3078 917.7328,1153.5047 Q918,1153.6875 918,1154.1234 L918,1155.1781 Q918,1155.6281 917.8734,1155.825 Q917.7469,1156.0078 917.55,1156.0078 Q917.3672,1156.0078 917.2688,1155.8531 Q917.1563,1155.6984 917.1,1155.2906 Q917.0438,1155.0094 916.875,1154.8547 Q916.5234,1154.5594 915.9188,1154.3906 Q915.3141,1154.2078 914.7094,1154.2078 Q913.95,1154.2078 913.2469,1154.5031 Q912.5578,1154.7984 912.1219,1155.4594 Q911.7,1156.1063 911.7,1157.0063 L911.7,1157.9766 Q911.7,1159.0594 912.4594,1159.7906 Q913.2188,1160.5078 914.5688,1160.5078 Q915.3703,1160.5078 915.9328,1160.1422 Q916.2563,1159.9313 916.6219,1159.3125 Q916.8609,1158.9328 916.9875,1158.8203 Q917.1141,1158.7078 917.2688,1158.7078 Q917.5641,1158.7078 917.775,1158.9469 Q918,1159.1719 918,1159.4953 Q918,1159.8047 917.2406,1160.1703 Q917.2406,1160.7047 916.5234,1161 Q915.5813,1161.4078 914.4281,1161.4078 Q913.0781,1161.4078 911.9953,1160.9297 Q911.1234,1160.55 910.5047,1159.7344 Q909.9,1158.9047 909.9,1157.9203 L909.9,1157.0484 Q909.9,1156.0219 910.4344,1155.15 Q910.9828,1154.2641 911.925,1153.7859 Q912.8813,1153.3078 913.95,1153.3078 Q914.5969,1153.3078 915.2156,1153.4766 Q915.8344,1153.6453 916.2,1154.2078 Z " fill="#000000"/><text fill="#000000" font-family="monospace" font-size="14.4" font-weight="bold" lengthAdjust="spacingAndGlyphs" textLength="36" x="932.625" y="1161.9844">Card</text><line style="stroke:#A80036;stroke-width:1.35;" x1="859.5" x2="1012.5" y1="1171.3078" y2="1171.3078"/><text fill="#000000" font-family="monospace" font-size="14.4" lengthAdjust="spacingAndGlyphs" textLength="135" x="864" y="1189.3852">id        : int</text><text fill="#000000" font-family="monospace" font-size="14.4" lengthAdjust="spacingAndGlyphs" textLength="144" x="864" y="1208.1867">isStarred : bool</text><text fill="#000000" font-family="monospace" font-size="14.4" lengthAdjust="spacingAndGlyphs" textLength="144" x="864" y="1226.9883">isHidden  : bool</text><line style="stroke:#A80036;stroke-width:1.35;" x1="859.5" x2="1012.5" y1="1234.9125" y2="1234.9125"/><!--MD5=[96293e8b231702a792e4ba32419ac2da]
class Entry--><rect codeLine="21" fill="#FEFECE" height="118.4063" id="Entry" style="stroke:#A80036;stroke-width:1.35;" width="298.8" x="541.8" y="325.3078"/><ellipse cx="664.875" cy="339.7078" fill="#ADD1B2" rx="9.9" ry="9.9" style="stroke:#A80036;stroke-width:0.9;"/><path d="M666.9,337.0078 Q667.5328,336.5578 667.5188,336.3328 Q667.5047,336.1078 667.7438,336.1078 Q668.1656,336.1078 668.4328,336.3047 Q668.7,336.4875 668.7,336.9234 L668.7,337.9781 Q668.7,338.4281 668.5734,338.625 Q668.4469,338.8078 668.25,338.8078 Q668.0672,338.8078 667.9688,338.6531 Q667.8563,338.4984 667.8,338.0906 Q667.7438,337.8094 667.575,337.6547 Q667.2234,337.3594 666.6188,337.1906 Q666.0141,337.0078 665.4094,337.0078 Q664.65,337.0078 663.9469,337.3031 Q663.2578,337.5984 662.8219,338.2594 Q662.4,338.9063 662.4,339.8063 L662.4,340.7766 Q662.4,341.8594 663.1594,342.5906 Q663.9188,343.3078 665.2688,343.3078 Q666.0703,343.3078 666.6328,342.9422 Q666.9563,342.7313 667.3219,342.1125 Q667.5609,341.7328 667.6875,341.6203 Q667.8141,341.5078 667.9688,341.5078 Q668.2641,341.5078 668.475,341.7469 Q668.7,341.9719 668.7,342.2953 Q668.7,342.6047 667.9406,342.9703 Q667.9406,343.5047 667.2234,343.8 Q666.2813,344.2078 665.1281,344.2078 Q663.7781,344.2078 662.6953,343.7297 Q661.8234,343.35 661.2047,342.5344 Q660.6,341.7047 660.6,340.7203 L660.6,339.8484 Q660.6,338.8219 661.1344,337.95 Q661.6828,337.0641 662.625,336.5859 Q663.5813,336.1078 664.65,336.1078 Q665.2969,336.1078 665.9156,336.2766 Q666.5344,336.4453 666.9,337.0078 Z " fill="#000000"/><text fill="#000000" font-family="monospace" font-size="14.4" font-weight="bold" lengthAdjust="spacingAndGlyphs" textLength="45" x="683.325" y="344.7844">Entry</text><line style="stroke:#A80036;stroke-width:1.35;" x1="542.7" x2="839.7" y1="354.1078" y2="354.1078"/><text fill="#000000" font-family="monospace" font-size="14.4" lengthAdjust="spacingAndGlyphs" textLength="135" x="547.2" y="372.1852">id        : int</text><text fill="#000000" font-family="monospace" font-size="14.4" lengthAdjust="spacingAndGlyphs" textLength="225" x="547.2" y="390.9867">tags      : Set&lt;EntryTag&gt;</text><text fill="#000000" font-family="monospace" font-size="14.4" lengthAdjust="spacingAndGlyphs" textLength="279" x="547.2" y="409.7883">fieldData : Map&lt;EntryFieldSpec,</text><text fill="#000000" font-family="monospace" font-size="14.4" lengthAdjust="spacingAndGlyphs" textLength="144" x="547.2" y="428.5898">EntryFieldDatum&gt;</text><line style="stroke:#A80036;stroke-width:1.35;" x1="542.7" x2="839.7" y1="436.5141" y2="436.5141"/><!--MD5=[30299a58ba6b78debaaed5ddbb42f29a]
class Deck--><rect codeLine="27" fill="#FEFECE" height="156.0094" id="Deck" style="stroke:#A80036;stroke-width:1.35;" width="271.8" x="771.3" y="100.3078"/><ellipse cx="885.375" cy="114.7078" fill="#ADD1B2" rx="9.9" ry="9.9" style="stroke:#A80036;stroke-width:0.9;"/><path d="M887.4,112.0078 Q888.0328,111.5578 888.0188,111.3328 Q888.0047,111.1078 888.2438,111.1078 Q888.6656,111.1078 888.9328,111.3047 Q889.2,111.4875 889.2,111.9234 L889.2,112.9781 Q889.2,113.4281 889.0734,113.625 Q888.9469,113.8078 888.75,113.8078 Q888.5672,113.8078 888.4688,113.6531 Q888.3563,113.4984 888.3,113.0906 Q888.2438,112.8094 888.075,112.6547 Q887.7234,112.3594 887.1188,112.1906 Q886.5141,112.0078 885.9094,112.0078 Q885.15,112.0078 884.4469,112.3031 Q883.7578,112.5984 883.3219,113.2594 Q882.9,113.9063 882.9,114.8063 L882.9,115.7766 Q882.9,116.8594 883.6594,117.5906 Q884.4188,118.3078 885.7688,118.3078 Q886.5703,118.3078 887.1328,117.9422 Q887.4563,117.7313 887.8219,117.1125 Q888.0609,116.7328 888.1875,116.6203 Q888.3141,116.5078 888.4688,116.5078 Q888.7641,116.5078 888.975,116.7469 Q889.2,116.9719 889.2,117.2953 Q889.2,117.6047 888.4406,117.9703 Q888.4406,118.5047 887.7234,118.8 Q886.7813,119.2078 885.6281,119.2078 Q884.2781,119.2078 883.1953,118.7297 Q882.3234,118.35 881.7047,117.5344 Q881.1,116.7047 881.1,115.7203 L881.1,114.8484 Q881.1,113.8219 881.6344,112.95 Q882.1828,112.0641 883.125,111.5859 Q884.0813,111.1078 885.15,111.1078 Q885.7969,111.1078 886.4156,111.2766 Q887.0344,111.4453 887.4,112.0078 Z " fill="#000000"/><text fill="#000000" font-family="monospace" font-size="14.4" font-weight="bold" lengthAdjust="spacingAndGlyphs" textLength="36" x="903.825" y="119.7844">Deck</text><line style="stroke:#A80036;stroke-width:1.35;" x1="772.2" x2="1042.2" y1="129.1078" y2="129.1078"/><text fill="#000000" font-family="monospace" font-size="14.4" lengthAdjust="spacingAndGlyphs" textLength="216" x="776.7" y="147.1852">id                 : int</text><text fill="#000000" font-family="monospace" font-size="14.4" lengthAdjust="spacingAndGlyphs" textLength="243" x="776.7" y="165.9867">name               : String</text><text fill="#000000" font-family="monospace" font-size="14.4" lengthAdjust="spacingAndGlyphs" textLength="261" x="776.7" y="184.7883">createdDateTime    : DateTime</text><text fill="#000000" font-family="monospace" font-size="14.4" lengthAdjust="spacingAndGlyphs" textLength="261" x="776.7" y="203.5898">lastEditedDateTime : DateTime</text><text fill="#000000" font-family="monospace" font-size="14.4" lengthAdjust="spacingAndGlyphs" textLength="243" x="776.7" y="222.3914">authorName         : String</text><text fill="#000000" font-family="monospace" font-size="14.4" lengthAdjust="spacingAndGlyphs" textLength="243" x="776.7" y="241.193">description        : String</text><line style="stroke:#A80036;stroke-width:1.35;" x1="772.2" x2="1042.2" y1="249.1172" y2="249.1172"/><!--MD5=[4722c72c0cc62bb66b1eedbfdebc182b]
class EntryTag--><rect codeLine="36" fill="#FEFECE" height="80.8031" id="EntryTag" style="stroke:#A80036;stroke-width:1.35;" width="127.8" x="529.2" y="630.4078"/><ellipse cx="554.85" cy="644.8078" fill="#ADD1B2" rx="9.9" ry="9.9" style="stroke:#A80036;stroke-width:0.9;"/><path d="M556.875,642.1078 Q557.5078,641.6578 557.4938,641.4328 Q557.4797,641.2078 557.7188,641.2078 Q558.1406,641.2078 558.4078,641.4047 Q558.675,641.5875 558.675,642.0234 L558.675,643.0781 Q558.675,643.5281 558.5484,643.725 Q558.4219,643.9078 558.225,643.9078 Q558.0422,643.9078 557.9438,643.7531 Q557.8313,643.5984 557.775,643.1906 Q557.7188,642.9094 557.55,642.7547 Q557.1984,642.4594 556.5938,642.2906 Q555.9891,642.1078 555.3844,642.1078 Q554.625,642.1078 553.9219,642.4031 Q553.2328,642.6984 552.7969,643.3594 Q552.375,644.0063 552.375,644.9063 L552.375,645.8766 Q552.375,646.9594 553.1344,647.6906 Q553.8938,648.4078 555.2438,648.4078 Q556.0453,648.4078 556.6078,648.0422 Q556.9313,647.8313 557.2969,647.2125 Q557.5359,646.8328 557.6625,646.7203 Q557.7891,646.6078 557.9438,646.6078 Q558.2391,646.6078 558.45,646.8469 Q558.675,647.0719 558.675,647.3953 Q558.675,647.7047 557.9156,648.0703 Q557.9156,648.6047 557.1984,648.9 Q556.2563,649.3078 555.1031,649.3078 Q553.7531,649.3078 552.6703,648.8297 Q551.7984,648.45 551.1797,647.6344 Q550.575,646.8047 550.575,645.8203 L550.575,644.9484 Q550.575,643.9219 551.1094,643.05 Q551.6578,642.1641 552.6,641.6859 Q553.5563,641.2078 554.625,641.2078 Q555.2719,641.2078 555.8906,641.3766 Q556.5094,641.5453 556.875,642.1078 Z " fill="#000000"/><text fill="#000000" font-family="monospace" font-size="14.4" font-weight="bold" lengthAdjust="spacingAndGlyphs" textLength="72" x="570.15" y="649.8844">EntryTag</text><line style="stroke:#A80036;stroke-width:1.35;" x1="530.1" x2="656.1" y1="659.2078" y2="659.2078"/><text fill="#000000" font-family="monospace" font-size="14.4" lengthAdjust="spacingAndGlyphs" textLength="90" x="534.6" y="677.2852">id   : int</text><text fill="#000000" font-family="monospace" font-size="14.4" lengthAdjust="spacingAndGlyphs" textLength="117" x="534.6" y="696.0867">name : String</text><line style="stroke:#A80036;stroke-width:1.35;" x1="530.1" x2="656.1" y1="704.0109" y2="704.0109"/><!--MD5=[0366a75604b4b181d94e41fa62d982a6]
class EntryFieldDatum--><rect codeLine="41" fill="#FEFECE" height="62.0016" id="EntryFieldDatum" style="stroke:#A80036;stroke-width:1.35;" width="199.8" x="688.5" y="639.8578"/><ellipse cx="718.2" cy="654.2578" fill="#A9DCDF" rx="9.9" ry="9.9" style="stroke:#A80036;stroke-width:0.9;"/><path d="M719.4938,655.1578 L716.4563,655.1578 L716.4844,656.9578 L716.4844,656.9578 L716.85,656.9578 L717.3,657.0844 L717.3,657.4078 L717.3,657.7313 L716.85,657.8578 L716.4844,657.8578 L714.4172,657.8578 L714.15,657.8578 L713.7,657.7313 L713.7,657.4078 L713.7,657.0844 L714.15,656.9578 L714.4172,656.9578 L716.5688,650.6578 L715.6688,650.6578 L715.05,650.6578 L714.6,650.5313 L714.6,650.2078 L714.6,649.8844 L715.05,649.7578 L715.6688,649.7578 L719.5078,649.7578 L721.9828,656.9578 L722.25,656.9578 L722.25,656.9578 L722.7,657.0844 L722.7,657.4078 L722.7,657.7313 L722.25,657.8578 L721.9828,657.8578 L720.0703,657.8578 L719.55,657.8578 L719.1,657.7313 L719.1,657.4078 L719.1,657.0844 L719.55,656.9578 L720.0703,656.9578 L720.0703,656.9578 L719.4938,655.1578 Z M719.3109,654.2578 L718.2,650.3766 L717.0609,654.2578 L719.3109,654.2578 Z " fill="#000000"/><text fill="#000000" font-family="monospace" font-size="14.4" font-style="italic" font-weight="bold" lengthAdjust="spacingAndGlyphs" textLength="135" x="734.4" y="659.3344">EntryFieldDatum</text><line style="stroke:#A80036;stroke-width:1.35;" x1="689.4" x2="887.4" y1="668.6578" y2="668.6578"/><text fill="#000000" font-family="monospace" font-size="14.4" lengthAdjust="spacingAndGlyphs" textLength="189" x="693.9" y="686.7352">type : EntryFieldType</text><line style="stroke:#A80036;stroke-width:1.35;" x1="689.4" x2="887.4" y1="694.6594" y2="694.6594"/><!--MD5=[b2d156dca0a40869c1874008509ae15f]
class EntryType--><rect codeLine="45" fill="#FEFECE" height="118.4063" id="EntryType" style="stroke:#A80036;stroke-width:1.35;" width="316.8" x="42.3" y="611.5078"/><ellipse cx="156.375" cy="625.9078" fill="#ADD1B2" rx="9.9" ry="9.9" style="stroke:#A80036;stroke-width:0.9;"/><path d="M158.4,623.2078 Q159.0328,622.7578 159.0188,622.5328 Q159.0047,622.3078 159.2438,622.3078 Q159.6656,622.3078 159.9328,622.5047 Q160.2,622.6875 160.2,623.1234 L160.2,624.1781 Q160.2,624.6281 160.0734,624.825 Q159.9469,625.0078 159.75,625.0078 Q159.5672,625.0078 159.4688,624.8531 Q159.3563,624.6984 159.3,624.2906 Q159.2438,624.0094 159.075,623.8547 Q158.7234,623.5594 158.1188,623.3906 Q157.5141,623.2078 156.9094,623.2078 Q156.15,623.2078 155.4469,623.5031 Q154.7578,623.7984 154.3219,624.4594 Q153.9,625.1063 153.9,626.0063 L153.9,626.9766 Q153.9,628.0594 154.6594,628.7906 Q155.4188,629.5078 156.7688,629.5078 Q157.5703,629.5078 158.1328,629.1422 Q158.4563,628.9313 158.8219,628.3125 Q159.0609,627.9328 159.1875,627.8203 Q159.3141,627.7078 159.4688,627.7078 Q159.7641,627.7078 159.975,627.9469 Q160.2,628.1719 160.2,628.4953 Q160.2,628.8047 159.4406,629.1703 Q159.4406,629.7047 158.7234,630 Q157.7813,630.4078 156.6281,630.4078 Q155.2781,630.4078 154.1953,629.9297 Q153.3234,629.55 152.7047,628.7344 Q152.1,627.9047 152.1,626.9203 L152.1,626.0484 Q152.1,625.0219 152.6344,624.15 Q153.1828,623.2641 154.125,622.7859 Q155.0813,622.3078 156.15,622.3078 Q156.7969,622.3078 157.4156,622.4766 Q158.0344,622.6453 158.4,623.2078 Z " fill="#000000"/><text fill="#000000" font-family="monospace" font-size="14.4" font-weight="bold" lengthAdjust="spacingAndGlyphs" textLength="81" x="174.825" y="630.9844">EntryType</text><line style="stroke:#A80036;stroke-width:1.35;" x1="43.2" x2="358.2" y1="640.3078" y2="640.3078"/><text fill="#000000" font-family="monospace" font-size="14.4" lengthAdjust="spacingAndGlyphs" textLength="153" x="47.7" y="658.3852">id          : int</text><text fill="#000000" font-family="monospace" font-size="14.4" lengthAdjust="spacingAndGlyphs" textLength="180" x="47.7" y="677.1867">name        : String</text><text fill="#000000" font-family="monospace" font-size="14.4" lengthAdjust="spacingAndGlyphs" textLength="270" x="47.7" y="695.9883">cardFormats : List&lt;CardFormat&gt;</text><text fill="#000000" font-family="monospace" font-size="14.4" lengthAdjust="spacingAndGlyphs" textLength="306" x="47.7" y="714.7898">fieldSpecs  : List&lt;EntryFieldSpec&gt;</text><line style="stroke:#A80036;stroke-width:1.35;" x1="43.2" x2="358.2" y1="722.7141" y2="722.7141"/><!--MD5=[efd546f96fee886f76cb42981cca7ab1]
class EntryFieldSpec--><rect codeLine="52" fill="#FEFECE" height="99.6047" id="EntryFieldSpec" style="stroke:#A80036;stroke-width:1.35;" width="199.8" x="305.1" y="921.5578"/><ellipse cx="338.85" cy="935.9578" fill="#ADD1B2" rx="9.9" ry="9.9" style="stroke:#A80036;stroke-width:0.9;"/><path d="M340.875,933.2578 Q341.5078,932.8078 341.4938,932.5828 Q341.4797,932.3578 341.7188,932.3578 Q342.1406,932.3578 342.4078,932.5547 Q342.675,932.7375 342.675,933.1734 L342.675,934.2281 Q342.675,934.6781 342.5484,934.875 Q342.4219,935.0578 342.225,935.0578 Q342.0422,935.0578 341.9438,934.9031 Q341.8313,934.7484 341.775,934.3406 Q341.7188,934.0594 341.55,933.9047 Q341.1984,933.6094 340.5938,933.4406 Q339.9891,933.2578 339.3844,933.2578 Q338.625,933.2578 337.9219,933.5531 Q337.2328,933.8484 336.7969,934.5094 Q336.375,935.1563 336.375,936.0563 L336.375,937.0266 Q336.375,938.1094 337.1344,938.8406 Q337.8938,939.5578 339.2438,939.5578 Q340.0453,939.5578 340.6078,939.1922 Q340.9313,938.9813 341.2969,938.3625 Q341.5359,937.9828 341.6625,937.8703 Q341.7891,937.7578 341.9438,937.7578 Q342.2391,937.7578 342.45,937.9969 Q342.675,938.2219 342.675,938.5453 Q342.675,938.8547 341.9156,939.2203 Q341.9156,939.7547 341.1984,940.05 Q340.2563,940.4578 339.1031,940.4578 Q337.7531,940.4578 336.6703,939.9797 Q335.7984,939.6 335.1797,938.7844 Q334.575,937.9547 334.575,936.9703 L334.575,936.0984 Q334.575,935.0719 335.1094,934.2 Q335.6578,933.3141 336.6,932.8359 Q337.5563,932.3578 338.625,932.3578 Q339.2719,932.3578 339.8906,932.5266 Q340.5094,932.6953 340.875,933.2578 Z " fill="#000000"/><text fill="#000000" font-family="monospace" font-size="14.4" font-weight="bold" lengthAdjust="spacingAndGlyphs" textLength="126" x="355.95" y="941.0344">EntryFieldSpec</text><line style="stroke:#A80036;stroke-width:1.35;" x1="306" x2="504" y1="950.3578" y2="950.3578"/><text fill="#000000" font-family="monospace" font-size="14.4" lengthAdjust="spacingAndGlyphs" textLength="90" x="310.5" y="968.4352">id   : int</text><text fill="#000000" font-family="monospace" font-size="14.4" lengthAdjust="spacingAndGlyphs" textLength="189" x="310.5" y="987.2367">type : EntryFieldType</text><text fill="#000000" font-family="monospace" font-size="14.4" lengthAdjust="spacingAndGlyphs" textLength="117" x="310.5" y="1006.0383">name : String</text><line style="stroke:#A80036;stroke-width:1.35;" x1="306" x2="504" y1="1013.9625" y2="1013.9625"/><!--MD5=[a2a32ce212da801967a91f887b856d92]
class CardFormat--><rect codeLine="58" fill="#FEFECE" height="118.4063" id="CardFormat" style="stroke:#A80036;stroke-width:1.35;" width="253.8" x="10.8" y="912.1078"/><ellipse cx="88.875" cy="926.5078" fill="#ADD1B2" rx="9.9" ry="9.9" style="stroke:#A80036;stroke-width:0.9;"/><path d="M90.9,923.8078 Q91.5328,923.3578 91.5188,923.1328 Q91.5047,922.9078 91.7438,922.9078 Q92.1656,922.9078 92.4328,923.1047 Q92.7,923.2875 92.7,923.7234 L92.7,924.7781 Q92.7,925.2281 92.5734,925.425 Q92.4469,925.6078 92.25,925.6078 Q92.0672,925.6078 91.9688,925.4531 Q91.8563,925.2984 91.8,924.8906 Q91.7438,924.6094 91.575,924.4547 Q91.2234,924.1594 90.6188,923.9906 Q90.0141,923.8078 89.4094,923.8078 Q88.65,923.8078 87.9469,924.1031 Q87.2578,924.3984 86.8219,925.0594 Q86.4,925.7063 86.4,926.6063 L86.4,927.5766 Q86.4,928.6594 87.1594,929.3906 Q87.9188,930.1078 89.2688,930.1078 Q90.0703,930.1078 90.6328,929.7422 Q90.9563,929.5313 91.3219,928.9125 Q91.5609,928.5328 91.6875,928.4203 Q91.8141,928.3078 91.9688,928.3078 Q92.2641,928.3078 92.475,928.5469 Q92.7,928.7719 92.7,929.0953 Q92.7,929.4047 91.9406,929.7703 Q91.9406,930.3047 91.2234,930.6 Q90.2813,931.0078 89.1281,931.0078 Q87.7781,931.0078 86.6953,930.5297 Q85.8234,930.15 85.2047,929.3344 Q84.6,928.5047 84.6,927.5203 L84.6,926.6484 Q84.6,925.6219 85.1344,924.75 Q85.6828,923.8641 86.625,923.3859 Q87.5813,922.9078 88.65,922.9078 Q89.2969,922.9078 89.9156,923.0766 Q90.5344,923.2453 90.9,923.8078 Z " fill="#000000"/><text fill="#000000" font-family="monospace" font-size="14.4" font-weight="bold" lengthAdjust="spacingAndGlyphs" textLength="90" x="107.325" y="931.5844">CardFormat</text><line style="stroke:#A80036;stroke-width:1.35;" x1="11.7" x2="263.7" y1="940.9078" y2="940.9078"/><text fill="#000000" font-family="monospace" font-size="14.4" lengthAdjust="spacingAndGlyphs" textLength="99" x="16.2" y="958.9852">id    : int</text><text fill="#000000" font-family="monospace" font-size="14.4" lengthAdjust="spacingAndGlyphs" textLength="126" x="16.2" y="977.7867">name  : String</text><text fill="#000000" font-family="monospace" font-size="14.4" lengthAdjust="spacingAndGlyphs" textLength="243" x="16.2" y="996.5883">front : CardFormatStructure</text><text fill="#000000" font-family="monospace" font-size="14.4" lengthAdjust="spacingAndGlyphs" textLength="243" x="16.2" y="1015.3898">back  : CardFormatStructure</text><line style="stroke:#A80036;stroke-width:1.35;" x1="11.7" x2="263.7" y1="1023.3141" y2="1023.3141"/><!--MD5=[2ebb7e34a8accc695b7c3b6efb33eac9]
class CardFormatStructure--><rect codeLine="65" fill="#FEFECE" height="62.0016" id="CardFormatStructure" style="stroke:#A80036;stroke-width:1.35;" width="262.8" x="6.3" y="1297.3078"/><ellipse cx="48.375" cy="1311.7078" fill="#ADD1B2" rx="9.9" ry="9.9" style="stroke:#A80036;stroke-width:0.9;"/><path d="M50.4,1309.0078 Q51.0328,1308.5578 51.0188,1308.3328 Q51.0047,1308.1078 51.2438,1308.1078 Q51.6656,1308.1078 51.9328,1308.3047 Q52.2,1308.4875 52.2,1308.9234 L52.2,1309.9781 Q52.2,1310.4281 52.0734,1310.625 Q51.9469,1310.8078 51.75,1310.8078 Q51.5672,1310.8078 51.4688,1310.6531 Q51.3563,1310.4984 51.3,1310.0906 Q51.2438,1309.8094 51.075,1309.6547 Q50.7234,1309.3594 50.1188,1309.1906 Q49.5141,1309.0078 48.9094,1309.0078 Q48.15,1309.0078 47.4469,1309.3031 Q46.7578,1309.5984 46.3219,1310.2594 Q45.9,1310.9063 45.9,1311.8063 L45.9,1312.7766 Q45.9,1313.8594 46.6594,1314.5906 Q47.4188,1315.3078 48.7688,1315.3078 Q49.5703,1315.3078 50.1328,1314.9422 Q50.4563,1314.7313 50.8219,1314.1125 Q51.0609,1313.7328 51.1875,1313.6203 Q51.3141,1313.5078 51.4688,1313.5078 Q51.7641,1313.5078 51.975,1313.7469 Q52.2,1313.9719 52.2,1314.2953 Q52.2,1314.6047 51.4406,1314.9703 Q51.4406,1315.5047 50.7234,1315.8 Q49.7813,1316.2078 48.6281,1316.2078 Q47.2781,1316.2078 46.1953,1315.7297 Q45.3234,1315.35 44.7047,1314.5344 Q44.1,1313.7047 44.1,1312.7203 L44.1,1311.8484 Q44.1,1310.8219 44.6344,1309.95 Q45.1828,1309.0641 46.125,1308.5859 Q47.0813,1308.1078 48.15,1308.1078 Q48.7969,1308.1078 49.4156,1308.2766 Q50.0344,1308.4453 50.4,1309.0078 Z " fill="#000000"/><text fill="#000000" font-family="monospace" font-size="14.4" font-weight="bold" lengthAdjust="spacingAndGlyphs" textLength="171" x="66.825" y="1316.7844">CardFormatStructure</text><line style="stroke:#A80036;stroke-width:1.35;" x1="7.2" x2="268.2" y1="1326.1078" y2="1326.1078"/><text fill="#000000" font-family="monospace" font-size="14.4" lengthAdjust="spacingAndGlyphs" textLength="252" x="11.7" y="1344.1852">components : List&lt;Component&gt;</text><line style="stroke:#A80036;stroke-width:1.35;" x1="7.2" x2="268.2" y1="1352.1094" y2="1352.1094"/><!--MD5=[4e13963c9dc916a21a8436ef39422b32]
class Component--><rect codeLine="69" fill="#FEFECE" height="80.8031" id="Component" style="stroke:#A80036;stroke-width:1.35;" width="190.8" x="42.3" y="1484.5078"/><ellipse cx="93.375" cy="1498.9078" fill="#A9DCDF" rx="9.9" ry="9.9" style="stroke:#A80036;stroke-width:0.9;"/><path d="M94.6688,1499.8078 L91.6313,1499.8078 L91.6594,1501.6078 L91.6594,1501.6078 L92.025,1501.6078 L92.475,1501.7344 L92.475,1502.0578 L92.475,1502.3813 L92.025,1502.5078 L91.6594,1502.5078 L89.5922,1502.5078 L89.325,1502.5078 L88.875,1502.3813 L88.875,1502.0578 L88.875,1501.7344 L89.325,1501.6078 L89.5922,1501.6078 L91.7438,1495.3078 L90.8438,1495.3078 L90.225,1495.3078 L89.775,1495.1813 L89.775,1494.8578 L89.775,1494.5344 L90.225,1494.4078 L90.8438,1494.4078 L94.6828,1494.4078 L97.1578,1501.6078 L97.425,1501.6078 L97.425,1501.6078 L97.875,1501.7344 L97.875,1502.0578 L97.875,1502.3813 L97.425,1502.5078 L97.1578,1502.5078 L95.2453,1502.5078 L94.725,1502.5078 L94.275,1502.3813 L94.275,1502.0578 L94.275,1501.7344 L94.725,1501.6078 L95.2453,1501.6078 L95.2453,1501.6078 L94.6688,1499.8078 Z M94.4859,1498.9078 L93.375,1495.0266 L92.2359,1498.9078 L94.4859,1498.9078 Z " fill="#000000"/><text fill="#000000" font-family="monospace" font-size="14.4" font-style="italic" font-weight="bold" lengthAdjust="spacingAndGlyphs" textLength="81" x="111.825" y="1503.9844">Component</text><line style="stroke:#A80036;stroke-width:1.35;" x1="43.2" x2="232.2" y1="1513.3078" y2="1513.3078"/><text fill="#000000" font-family="monospace" font-size="14.4" lengthAdjust="spacingAndGlyphs" textLength="117" x="47.7" y="1531.3852">name : String</text><text fill="#000000" font-family="monospace" font-size="14.4" lengthAdjust="spacingAndGlyphs" textLength="180" x="47.7" y="1550.1867">type : ComponentType</text><line style="stroke:#A80036;stroke-width:1.35;" x1="43.2" x2="232.2" y1="1558.1109" y2="1558.1109"/><!--MD5=[ccc747f01eddbd59fce34d989a37199f]
link Deck to Entry--><path codeLine="74" d="M822.438,259.4008 C800.433,280.2628 777.078,302.4028 756.261,322.1398 " fill="none" id="Deck-Entry" style="stroke:#A80036;stroke-width:0.9;"/><polygon fill="#A80036" points="752.94,325.2808,761.2938,322.3171,756.2044,322.1835,756.3381,317.0941,752.94,325.2808" style="stroke:#A80036;stroke-width:0.9;"/><polygon fill="#A80036" points="825.849,256.1698,817.489,259.1161,822.5782,259.2604,822.4339,264.3495,825.849,256.1698" style="stroke:#A80036;stroke-width:0.9;"/><polygon fill="#000000" points="792.9875,293.4352,799.1694,290.4902,796.2578,287.419,792.9875,293.4352" style="stroke:#000000;stroke-width:0.9;"/><text fill="#000000" font-family="monospace" font-size="10.8" lengthAdjust="spacingAndGlyphs" textLength="25.2" x="803.7" y="294.7658">owns</text><text fill="#000000" font-family="monospace" font-size="10.8" lengthAdjust="spacingAndGlyphs" textLength="6.3" x="812.2872" y="274.3246">1</text><text fill="#000000" font-family="monospace" font-size="10.8" lengthAdjust="spacingAndGlyphs" textLength="25.2" x="733.4218" y="315.0446">0..*</text><!--MD5=[9979ec116d4477b40d23877d49752063]
link Entry to Card--><path codeLine="75" d="M844.821,420.7078 C894.015,441.7138 936,474.8788 936,526.9078 C936,526.9078 936,526.9078 936,972.4078 C936,1028.7568 936,1093.2508 936,1137.6118 " fill="none" id="Entry-Card" style="stroke:#A80036;stroke-width:0.9;"/><polygon fill="#A80036" points="936,1142.3818,939.6,1134.2818,936,1137.8818,932.4,1134.2818,936,1142.3818" style="stroke:#A80036;stroke-width:0.9;"/><polygon fill="#A80036" points="840.654,418.9618,846.7392,425.407,844.8059,420.6971,849.5158,418.7639,840.654,418.9618" style="stroke:#A80036;stroke-width:0.9;"/><polygon fill="#000000" points="940.0542,768.8296,941.3317,762.1022,937.1334,762.6362,940.0542,768.8296" style="stroke:#000000;stroke-width:0.9;"/><text fill="#000000" font-family="monospace" font-size="10.8" lengthAdjust="spacingAndGlyphs" textLength="56.7" x="947.7" y="769.0658">generates</text><text fill="#000000" font-family="monospace" font-size="10.8" lengthAdjust="spacingAndGlyphs" textLength="6.3" x="847.5689" y="417.5886">1</text><text fill="#000000" font-family="monospace" font-size="10.8" lengthAdjust="spacingAndGlyphs" textLength="25.2" x="909.1069" y="1132.1641">1..*</text><!--MD5=[c905f1b8e8f3426bca82a4905da2e16e]
link Deck to Card--><path codeLine="76" d="M979.875,259.9588 C1004.544,295.4188 1026,339.0958 1026,383.8078 C1026,383.8078 1026,383.8078 1026,972.4078 C1026,1032.3748 996.804,1095.1228 971.676,1138.0258 " fill="none" id="Deck-Card" style="stroke:#A80036;stroke-width:0.9;"/><polygon fill="#A80036" points="969.255,1142.1118,976.4768,1136.9722,971.5456,1138.2384,970.2793,1133.3072,969.255,1142.1118" style="stroke:#A80036;stroke-width:0.9;"/><polygon fill="#A80036" points="977.166,256.1158,978.8781,264.8129,979.7535,259.7975,984.7688,260.6729,977.166,256.1158" style="stroke:#A80036;stroke-width:0.9;"/><polygon fill="#000000" points="1029.5664,674.8082,1031.7431,668.3158,1027.5113,668.2763,1029.5664,674.8082" style="stroke:#000000;stroke-width:0.9;"/><text fill="#000000" font-family="monospace" font-size="10.8" lengthAdjust="spacingAndGlyphs" textLength="25.2" x="1037.7" y="675.0158">owns</text><text fill="#000000" font-family="monospace" font-size="10.8" lengthAdjust="spacingAndGlyphs" textLength="6.3" x="976.608" y="274.266">1</text><text fill="#000000" font-family="monospace" font-size="10.8" lengthAdjust="spacingAndGlyphs" textLength="25.2" x="946.7014" y="1132.2118">0..*</text><!--MD5=[aaeb6ccba3c6ba94b26795672558142d]
reverse link Entry to EntryTag--><path codeLine="77" d="M643.428,454.4938 C635.211,468.7138 627.525,483.9688 621.9,499.0078 C605.772,542.1538 598.635,594.8038 595.503,630.1918 " fill="none" id="Entry-backto-EntryTag" style="stroke:#A80036;stroke-width:0.9;"/><polygon fill="#FFFFFF" points="649.476,444.3328,643.6218,447.1343,643.9561,453.6157,649.8104,450.8142,649.476,444.3328" style="stroke:#A80036;stroke-width:0.9;"/><polygon fill="#000000" points="624.5526,531.2827,628.3079,525.5566,624.225,524.4429,624.5526,531.2827" style="stroke:#000000;stroke-width:0.9;"/><text fill="#000000" font-family="monospace" font-size="10.8" lengthAdjust="spacingAndGlyphs" textLength="12.6" x="668.25" y="517.5158">is</text><text fill="#000000" font-family="monospace" font-size="10.8" lengthAdjust="spacingAndGlyphs" textLength="81.9" x="633.6" y="531.617">categorizable</text><text fill="#000000" font-family="monospace" font-size="10.8" lengthAdjust="spacingAndGlyphs" textLength="12.6" x="671.4" y="545.7182">by</text><text fill="#000000" font-family="monospace" font-size="10.8" lengthAdjust="spacingAndGlyphs" textLength="25.2" x="618.9285" y="461.7736">0..*</text><text fill="#000000" font-family="monospace" font-size="10.8" lengthAdjust="spacingAndGlyphs" textLength="25.2" x="568.6779" y="620.0485">0..*</text><!--MD5=[70d7557a94af25ce1808f2d96c9065c9]
reverse link Entry to EntryFieldDatum--><path codeLine="78" d="M715.014,455.2858 C735.156,514.2178 763.056,595.8478 777.987,639.5338 " fill="none" id="Entry-backto-EntryFieldDatum" style="stroke:#A80036;stroke-width:0.9;"/><polygon fill="#A80036" points="711.225,444.1888,709.5696,450.4641,714.7256,454.4058,716.3809,448.1304,711.225,444.1888" style="stroke:#A80036;stroke-width:0.9;"/><polygon fill="#000000" points="753.5643,531.3655,753.4604,524.5187,749.4558,525.8874,753.5643,531.3655" style="stroke:#000000;stroke-width:0.9;"/><text fill="#000000" font-family="monospace" font-size="10.8" lengthAdjust="spacingAndGlyphs" textLength="69.3" x="763.65" y="524.7158">has data of</text><text fill="#000000" font-family="monospace" font-size="10.8" lengthAdjust="spacingAndGlyphs" textLength="81.9" x="760.5" y="538.817">each field in</text><text fill="#000000" font-family="monospace" font-size="10.8" lengthAdjust="spacingAndGlyphs" textLength="81.9" x="726.5071" y="461.7405">&lt;&lt;qualifier&gt;&gt;</text><text fill="#000000" font-family="monospace" font-size="10.8" lengthAdjust="spacingAndGlyphs" textLength="100.8" x="717.0571" y="475.8417">[EntryFieldSpec]</text><text fill="#000000" font-family="monospace" font-size="10.8" lengthAdjust="spacingAndGlyphs" textLength="6.3" x="764.3071" y="489.9429">1</text><text fill="#000000" font-family="monospace" font-size="10.8" lengthAdjust="spacingAndGlyphs" textLength="6.3" x="769.0168" y="629.455">1</text><!--MD5=[255c1cea35baf15e69e7ce5cb9234b82]
link Entry to EntryFieldSpec--><path codeLine="79" d="M541.701,409.9888 C479.763,429.4648 422.1,464.3758 422.1,526.9078 C422.1,526.9078 422.1,526.9078 422.1,829.3078 C422.1,858.3868 418.482,890.5978 414.585,916.9048 " fill="none" id="Entry-to-EntryFieldSpec" style="stroke:#A80036;stroke-width:0.9;stroke-dasharray:7.0,7.0;"/><polygon fill="#A80036" points="413.901,921.4138,418.6859,913.9523,414.5824,916.9657,411.569,912.8621,413.901,921.4138" style="stroke:#A80036;stroke-width:0.9;"/><polygon fill="#000000" points="424.8244,674.7003,428.4609,668.8981,424.3559,667.8687,424.8244,674.7003" style="stroke:#000000;stroke-width:0.9;"/><text fill="#000000" font-family="monospace" font-size="10.8" lengthAdjust="spacingAndGlyphs" textLength="63" x="433.8" y="675.0158">depends on</text><!--MD5=[cfec0ab29adb9efd8a6c964edc7a195e]
link Entry to EntryType--><path codeLine="80" d="M537.309,402.0778 C458.991,416.9368 366.174,445.2148 297.9,499.0078 C262.845,526.6288 238.248,570.6118 222.57,607.0528 " fill="none" id="Entry-EntryType" style="stroke:#A80036;stroke-width:0.9;"/><polygon fill="#A80036" points="220.707,611.4628,227.1908,605.4188,222.4688,607.322,220.5655,602.6,220.707,611.4628" style="stroke:#A80036;stroke-width:0.9;"/><polygon fill="#A80036" points="541.737,401.2498,533.1094,399.2163,537.3152,402.0853,534.4462,406.2911,541.737,401.2498" style="stroke:#A80036;stroke-width:0.9;"/><polygon fill="#000000" points="298.4833,530.0748,305.0953,528.2939,302.7858,524.7476,298.4833,530.0748" style="stroke:#000000;stroke-width:0.9;"/><text fill="#000000" font-family="monospace" font-size="10.8" lengthAdjust="spacingAndGlyphs" textLength="88.2" x="309.6" y="510.7658">has fields and</text><text fill="#000000" font-family="monospace" font-size="10.8" lengthAdjust="spacingAndGlyphs" textLength="25.2" x="337.95" y="524.867">Card</text><text fill="#000000" font-family="monospace" font-size="10.8" lengthAdjust="spacingAndGlyphs" textLength="63" x="319.05" y="538.9682">generation</text><text fill="#000000" font-family="monospace" font-size="10.8" lengthAdjust="spacingAndGlyphs" textLength="63" x="322.2" y="553.0693">defined by</text><text fill="#000000" font-family="monospace" font-size="10.8" lengthAdjust="spacingAndGlyphs" textLength="25.2" x="509.1935" y="399.0741">0..*</text><text fill="#000000" font-family="monospace" font-size="10.8" lengthAdjust="spacingAndGlyphs" textLength="6.3" x="216.3561" y="601.2245">1</text><!--MD5=[2aac9294946bbd31e65ecbfd6b136182]
reverse link EntryType to CardFormat--><path codeLine="81" d="M170.802,741.6208 C163.926,760.1698 157.365,780.3928 153,799.6078 C144.657,836.3728 140.823,878.5648 139.077,911.8288 " fill="none" id="EntryType-backto-CardFormat" style="stroke:#A80036;stroke-width:0.9;"/><polygon fill="#A80036" points="174.987,730.6138,169.6997,734.3774,171.1403,740.7055,176.4275,736.9419,174.987,730.6138" style="stroke:#A80036;stroke-width:0.9;"/><polygon fill="#000000" points="155.9404,832.2492,159.2139,826.2347,155.0535,825.4593,155.9404,832.2492" style="stroke:#000000;stroke-width:0.9;"/><text fill="#000000" font-family="monospace" font-size="10.8" lengthAdjust="spacingAndGlyphs" textLength="75.6" x="164.7" y="811.3658">contains for</text><text fill="#000000" font-family="monospace" font-size="10.8" lengthAdjust="spacingAndGlyphs" textLength="56.7" x="174.15" y="825.467">each Card</text><text fill="#000000" font-family="monospace" font-size="10.8" lengthAdjust="spacingAndGlyphs" textLength="75.6" x="164.7" y="839.5682">generated by</text><text fill="#000000" font-family="monospace" font-size="10.8" lengthAdjust="spacingAndGlyphs" textLength="63" x="174.15" y="853.6693">each Entry</text><text fill="#000000" font-family="monospace" font-size="10.8" lengthAdjust="spacingAndGlyphs" textLength="6.3" x="165.8458" y="748.0626">1</text><text fill="#000000" font-family="monospace" font-size="10.8" lengthAdjust="spacingAndGlyphs" textLength="25.2" x="112.5793" y="901.5635">1..*</text><!--MD5=[fb4432f1c08088e56047396f0082ea25]
link CardFormat to Card--><path codeLine="82" d="M269.316,1024.4548 C275.913,1026.7048 282.465,1028.8738 288.9,1030.9078 C488.853,1094.1328 729.882,1148.3308 853.704,1174.6108 " fill="none" id="CardFormat-Card" style="stroke:#A80036;stroke-width:0.9;"/><polygon fill="#A80036" points="858.429,1175.6098,851.2558,1170.4025,854.0276,1174.6731,849.757,1177.4448,858.429,1175.6098" style="stroke:#A80036;stroke-width:0.9;"/><polygon fill="#A80036" points="264.744,1022.8798,271.2302,1028.9213,268.9987,1024.3452,273.5748,1022.1137,264.744,1022.8798" style="stroke:#A80036;stroke-width:0.9;"/><polygon fill="#000000" points="595.6867,1087.9061,589.9058,1084.2359,588.8526,1088.3348,595.6867,1087.9061" style="stroke:#000000;stroke-width:0.9;"/><text fill="#000000" font-family="monospace" font-size="10.8" lengthAdjust="spacingAndGlyphs" textLength="56.7" x="612.9" y="1069.6658">specifies</text><text fill="#000000" font-family="monospace" font-size="10.8" lengthAdjust="spacingAndGlyphs" textLength="81.9" x="600.3" y="1083.767">display style</text><text fill="#000000" font-family="monospace" font-size="10.8" lengthAdjust="spacingAndGlyphs" textLength="81.9" x="600.3" y="1097.8682">and structure</text><text fill="#000000" font-family="monospace" font-size="10.8" lengthAdjust="spacingAndGlyphs" textLength="12.6" x="638.1" y="1111.9693">of</text><text fill="#000000" font-family="monospace" font-size="10.8" lengthAdjust="spacingAndGlyphs" textLength="6.3" x="271.864" y="1022.7053">1</text><text fill="#000000" font-family="monospace" font-size="10.8" lengthAdjust="spacingAndGlyphs" textLength="25.2" x="826.3253" y="1171.1954">0..*</text><!--MD5=[16d0c882c8d324787220be535d491a6e]
reverse link EntryType to EntryFieldSpec--><path codeLine="83" d="M238.068,740.8108 C258.219,776.4238 284.283,820.0738 310.5,857.2078 C325.944,879.0868 344.529,902.0008 361.116,921.4588 " fill="none" id="EntryType-backto-EntryFieldSpec" style="stroke:#A80036;stroke-width:0.9;"/><polygon fill="#A80036" points="232.281,730.5148,231.7904,736.9862,237.5753,739.9281,238.0659,733.4567,232.281,730.5148" style="stroke:#A80036;stroke-width:0.9;"/><polygon fill="#000000" points="316.1267,831.5343,314.2093,824.9606,310.7115,827.3431,316.1267,831.5343" style="stroke:#000000;stroke-width:0.9;"/><text fill="#000000" font-family="monospace" font-size="10.8" lengthAdjust="spacingAndGlyphs" textLength="63" x="325.35" y="825.3158">has fields</text><text fill="#000000" font-family="monospace" font-size="10.8" lengthAdjust="spacingAndGlyphs" textLength="75.6" x="322.2" y="839.417">specified by</text><text fill="#000000" font-family="monospace" font-size="10.8" lengthAdjust="spacingAndGlyphs" textLength="6.3" x="228.7797" y="747.9538">1</text><text fill="#000000" font-family="monospace" font-size="10.8" lengthAdjust="spacingAndGlyphs" textLength="25.2" x="328.326" y="911.2447">1..*</text><!--MD5=[499010a3f9f5c1505401b65f50e7d61b]
reverse link CardFormat to CardFormatStructure--><path codeLine="84" d="M137.7,1042.8418 C137.7,1120.3138 137.7,1241.2108 137.7,1297.1638 " fill="none" id="CardFormat-backto-CardFormatStructure" style="stroke:#A80036;stroke-width:0.9;"/><polygon fill="#A80036" points="137.7,1031.0338,134.1,1036.4338,137.7,1041.8338,141.3,1036.4338,137.7,1031.0338" style="stroke:#A80036;stroke-width:0.9;"/><polygon fill="#000000" points="141.3,1196.209,143.416,1189.6965,139.184,1189.6965,141.3,1196.209" style="stroke:#000000;stroke-width:0.9;"/><text fill="#000000" font-family="monospace" font-size="10.8" lengthAdjust="spacingAndGlyphs" textLength="81.9" x="149.4" y="1189.3658">has structure</text><text fill="#000000" font-family="monospace" font-size="10.8" lengthAdjust="spacingAndGlyphs" textLength="75.6" x="155.7" y="1203.467">specified by</text><text fill="#000000" font-family="monospace" font-size="10.8" lengthAdjust="spacingAndGlyphs" textLength="6.3" x="131.0752" y="1048.7778">1</text><text fill="#000000" font-family="monospace" font-size="10.8" lengthAdjust="spacingAndGlyphs" textLength="6.3" x="130.7503" y="1286.768">2</text><!--MD5=[2e2e4d03125a574c29033226ea946ab3]
reverse link CardFormatStructure to Component--><path codeLine="85" d="M137.7,1371.4228 C137.7,1404.9658 137.7,1451.5678 137.7,1484.4448 " fill="none" id="CardFormatStructure-backto-Component" style="stroke:#A80036;stroke-width:0.9;"/><polygon fill="#A80036" points="137.7,1359.7048,134.1,1365.1048,137.7,1370.5048,141.3,1365.1048,137.7,1359.7048" style="stroke:#A80036;stroke-width:0.9;"/><polygon fill="#000000" points="141.3,1425.8584,143.416,1419.3459,139.184,1419.3459,141.3,1425.8584" style="stroke:#000000;stroke-width:0.9;"/><text fill="#000000" font-family="monospace" font-size="10.8" lengthAdjust="spacingAndGlyphs" textLength="88.2" x="149.4" y="1426.0658">is composed of</text><text fill="#000000" font-family="monospace" font-size="10.8" lengthAdjust="spacingAndGlyphs" textLength="6.3" x="130.8389" y="1377.4112">1</text><text fill="#000000" font-family="monospace" font-size="10.8" lengthAdjust="spacingAndGlyphs" textLength="25.2" x="110.4131" y="1474.0327">0..*</text><text fill="#888888" font-family="monospace" font-size="14.4" lengthAdjust="spacingAndGlyphs" textLength="270" x="394.2" y="1585.1883">Copyright (C) 2020 Cervon Wong</text><!--MD5=[68e65f4aa933debaedce5a4de7544d26]
@startuml
skinparam classAttributeIconSize 0
skinparam wrapWidth 400

skinparam maxMessageSize 100
skinparam shadowing false
skinparam defaultFontName monospaced
skinparam defaultFontSize 16
skinparam classFontStyle bold
skinparam arrowFontSize 12
skinparam titleFontSize 24
skinparam titleFontStyle bold

header This diagram is part of a visualisation of the code written for Sona.\n View the project at github.com/cervonwong/sona-flutter.
title Relationships of material entities.\n
footer Copyright (C) 2020 Cervon Wong

class Card {
	id        : int
	isStarred : bool
	isHidden  : bool
}

class Entry {
	id        : int
	tags      : Set<EntryTag>
	fieldData : Map<EntryFieldSpec, EntryFieldDatum>
}

class Deck {
	id                 : int
	name               : String
	createdDateTime    : DateTime
	lastEditedDateTime : DateTime
	authorName         : String
	description        : String
}

class EntryTag {
	id   : int
	name : String
}

abstract class EntryFieldDatum {
	type : EntryFieldType
}

class EntryType {
	id          : int
	name        : String
	cardFormats : List<CardFormat>
	fieldSpecs  : List<EntryFieldSpec>
}

class EntryFieldSpec {
	id   : int
	type : EntryFieldType
	name : String
}

class CardFormat {
	id    : int
	name  : String
	front : CardFormatStructure
	back  : CardFormatStructure
}

class CardFormatStructure {
	components : List<Component>
}

abstract class Component {
	name : String
	type : ComponentType
}

Deck                "1"                                  <- -> "0..*" Entry               : owns >
Entry               "1"                                  <- -> "1..*" Card                : generates >
Deck                "1"                                  <- -> "0..*" Card                : owns >
Entry               "0..*"                               o- - - "0..*" EntryTag            : is categorizable by >
Entry               "<<qualifier>>\n[EntryFieldSpec]\n1" *- - - "1"    EntryFieldDatum     : has data of each field in >
Entry                                                    ..>         EntryFieldSpec      : depends on >
Entry               "0..*"                               <- - -> "1"   EntryType           : has fields and Card generation defined by >
EntryType           "1"                                  *- - - "1..*" CardFormat          : contains for each Card generated by each Entry >
CardFormat          "1"                                  <- -> "0..*" Card                : specifies display style and structure of >
EntryType           "1"                                  *- - - "1..*" EntryFieldSpec      : has fields specified by >
CardFormat          "1"                                  *- - - "2"    CardFormatStructure : has structure specified by >
CardFormatStructure "1"                                  *- - - "0..*" Component           : is composed of >

@enduml

PlantUML version 1.2020.23(Mon Dec 14 03:14:58 SGT 2020)
(GPL source distribution)
Java Runtime: OpenJDK Runtime Environment
JVM: OpenJDK 64-Bit Server VM
Default Encoding: Cp1252
Language: en
Country: GB
--></g></svg>