<?xml version="1.0" encoding="UTF-8" standalone="no"?><svg xmlns="http://www.w3.org/2000/svg" xmlns:xlink="http://www.w3.org/1999/xlink" contentScriptType="application/ecmascript" contentStyleType="text/css" height="1048.8px" preserveAspectRatio="none" style="width:713px;height:1048px;" version="1.1" viewBox="0 0 713 1048" width="713.4px" zoomAndPan="magnify"><defs/><g><text fill="#888888" font-family="monospace" font-size="9.6" lengthAdjust="spacingAndGlyphs" textLength="414" x="291.6" y="9.6516">This diagram is part of a visualisation of the code written for Sona.</text><text fill="#888888" font-family="monospace" font-size="9.6" lengthAdjust="spacingAndGlyphs" textLength="330" x="375.6" y="22.1859">View the project at github.com/cervonwong/sona-flutter.</text><text fill="#000000" font-family="monospace" font-size="14.4" font-weight="bold" lengthAdjust="spacingAndGlyphs" textLength="294" x="205.8" y="39.5461">Relationships of material entities.</text><text fill="#000000" font-family="monospace" font-size="14.4" font-weight="bold" lengthAdjust="spacingAndGlyphs" textLength="0" x="357" y="58.3477"/><!--MD5=[5e305716458bbdabbd2d7f572ed2bae2]
class Card--><rect codeLine="14" fill="#FEFECE" height="66.4031" id="Card" style="stroke: #A80036; stroke-width: 0.8999999999999999;" width="103.2" x="572.4" y="761.6719"/><ellipse cx="609.45" cy="771.2719" fill="#ADD1B2" rx="6.6" ry="6.6" style="stroke: #A80036; stroke-width: 0.6;"/><path d="M610.8,769.4719 Q611.2219,769.1719 611.2125,769.0219 Q611.2031,768.8719 611.3625,768.8719 Q611.6438,768.8719 611.8219,769.0031 Q612,769.125 612,769.4156 L612,770.1188 Q612,770.4187 611.9156,770.55 Q611.8313,770.6719 611.7,770.6719 Q611.5781,770.6719 611.5125,770.5688 Q611.4375,770.4656 611.4,770.1938 Q611.3625,770.0063 611.25,769.9031 Q611.0156,769.7063 610.6125,769.5938 Q610.2094,769.4719 609.8063,769.4719 Q609.3,769.4719 608.8313,769.6687 Q608.3719,769.8656 608.0813,770.3063 Q607.8,770.7375 607.8,771.3375 L607.8,771.9844 Q607.8,772.7063 608.3063,773.1938 Q608.8125,773.6719 609.7125,773.6719 Q610.2469,773.6719 610.6219,773.4281 Q610.8375,773.2875 611.0813,772.875 Q611.2406,772.6219 611.325,772.5469 Q611.4094,772.4719 611.5125,772.4719 Q611.7094,772.4719 611.85,772.6313 Q612,772.7813 612,772.9969 Q612,773.2031 611.4938,773.4469 Q611.4938,773.8031 611.0156,774 Q610.3875,774.2719 609.6188,774.2719 Q608.7188,774.2719 607.9969,773.9531 Q607.4156,773.7 607.0031,773.1563 Q606.6,772.6031 606.6,771.9469 L606.6,771.3656 Q606.6,770.6813 606.9563,770.1 Q607.3219,769.5094 607.95,769.1906 Q608.5875,768.8719 609.3,768.8719 Q609.7312,768.8719 610.1438,768.9844 Q610.5563,769.0969 610.8,769.4719 Z " fill="#000000"/><text fill="#000000" font-family="monospace" font-size="9.6" lengthAdjust="spacingAndGlyphs" textLength="24" x="621.75" y="774.6563">Card</text><line style="stroke: #A80036; stroke-width: 0.8999999999999999;" x1="573" x2="675" y1="780.8719" y2="780.8719"/><text fill="#000000" font-family="monospace" font-size="9.6" lengthAdjust="spacingAndGlyphs" textLength="90" x="576" y="792.9234">id        : int</text><text fill="#000000" font-family="monospace" font-size="9.6" lengthAdjust="spacingAndGlyphs" textLength="96" x="576" y="805.4578">isStarred : bool</text><text fill="#000000" font-family="monospace" font-size="9.6" lengthAdjust="spacingAndGlyphs" textLength="96" x="576" y="817.9922">isHidden  : bool</text><line style="stroke: #A80036; stroke-width: 0.8999999999999999;" x1="573" x2="675" y1="823.275" y2="823.275"/><!--MD5=[96293e8b231702a792e4ba32419ac2da]
class Entry--><rect codeLine="20" fill="#FEFECE" height="78.9375" id="Entry" style="stroke: #A80036; stroke-width: 0.8999999999999999;" width="199.2" x="361.2" y="216.8719"/><ellipse cx="443.25" cy="226.4719" fill="#ADD1B2" rx="6.6" ry="6.6" style="stroke: #A80036; stroke-width: 0.6;"/><path d="M444.6,224.6719 Q445.0219,224.3719 445.0125,224.2219 Q445.0031,224.0719 445.1625,224.0719 Q445.4437,224.0719 445.6219,224.2031 Q445.8,224.325 445.8,224.6156 L445.8,225.3188 Q445.8,225.6188 445.7156,225.75 Q445.6312,225.8719 445.5,225.8719 Q445.3781,225.8719 445.3125,225.7687 Q445.2375,225.6656 445.2,225.3937 Q445.1625,225.2062 445.05,225.1031 Q444.8156,224.9063 444.4125,224.7938 Q444.0094,224.6719 443.6063,224.6719 Q443.1,224.6719 442.6312,224.8688 Q442.1719,225.0656 441.8812,225.5063 Q441.6,225.9375 441.6,226.5375 L441.6,227.1844 Q441.6,227.9063 442.1063,228.3937 Q442.6125,228.8719 443.5125,228.8719 Q444.0469,228.8719 444.4219,228.6281 Q444.6375,228.4875 444.8812,228.075 Q445.0406,227.8219 445.125,227.7469 Q445.2094,227.6719 445.3125,227.6719 Q445.5094,227.6719 445.65,227.8312 Q445.8,227.9813 445.8,228.1969 Q445.8,228.4031 445.2938,228.6469 Q445.2938,229.0031 444.8156,229.2 Q444.1875,229.4719 443.4188,229.4719 Q442.5188,229.4719 441.7969,229.1531 Q441.2156,228.9 440.8031,228.3563 Q440.4,227.8031 440.4,227.1469 L440.4,226.5656 Q440.4,225.8813 440.7562,225.3 Q441.1219,224.7094 441.75,224.3906 Q442.3875,224.0719 443.1,224.0719 Q443.5313,224.0719 443.9437,224.1844 Q444.3563,224.2969 444.6,224.6719 Z " fill="#000000"/><text fill="#000000" font-family="monospace" font-size="9.6" lengthAdjust="spacingAndGlyphs" textLength="30" x="455.55" y="229.8563">Entry</text><line style="stroke: #A80036; stroke-width: 0.8999999999999999;" x1="361.8" x2="559.8" y1="236.0719" y2="236.0719"/><text fill="#000000" font-family="monospace" font-size="9.6" lengthAdjust="spacingAndGlyphs" textLength="90" x="364.8" y="248.1234">id        : int</text><text fill="#000000" font-family="monospace" font-size="9.6" lengthAdjust="spacingAndGlyphs" textLength="150" x="364.8" y="260.6578">tags      : Set&lt;EntryTag&gt;</text><text fill="#000000" font-family="monospace" font-size="9.6" lengthAdjust="spacingAndGlyphs" textLength="186" x="364.8" y="273.1922">fieldData : Map&lt;EntryFieldSpec,</text><text fill="#000000" font-family="monospace" font-size="9.6" lengthAdjust="spacingAndGlyphs" textLength="96" x="364.8" y="285.7266">EntryFieldDatum&gt;</text><line style="stroke: #A80036; stroke-width: 0.8999999999999999;" x1="361.8" x2="559.8" y1="291.0094" y2="291.0094"/><!--MD5=[30299a58ba6b78debaaed5ddbb42f29a]
class Deck--><rect codeLine="26" fill="#FEFECE" height="104.0063" id="Deck" style="stroke: #A80036; stroke-width: 0.8999999999999999;" width="181.2" x="528" y="66.8719"/><ellipse cx="604.05" cy="76.4719" fill="#ADD1B2" rx="6.6" ry="6.6" style="stroke: #A80036; stroke-width: 0.6;"/><path d="M605.4,74.6719 Q605.8219,74.3719 605.8125,74.2219 Q605.8031,74.0719 605.9625,74.0719 Q606.2438,74.0719 606.4219,74.2031 Q606.6,74.325 606.6,74.6156 L606.6,75.3188 Q606.6,75.6187 606.5156,75.75 Q606.4313,75.8719 606.3,75.8719 Q606.1781,75.8719 606.1125,75.7688 Q606.0375,75.6656 606,75.3938 Q605.9625,75.2063 605.85,75.1031 Q605.6156,74.9063 605.2125,74.7938 Q604.8094,74.6719 604.4063,74.6719 Q603.9,74.6719 603.4313,74.8687 Q602.9719,75.0656 602.6813,75.5063 Q602.4,75.9375 602.4,76.5375 L602.4,77.1844 Q602.4,77.9063 602.9063,78.3938 Q603.4125,78.8719 604.3125,78.8719 Q604.8469,78.8719 605.2219,78.6281 Q605.4375,78.4875 605.6813,78.075 Q605.8406,77.8219 605.925,77.7469 Q606.0094,77.6719 606.1125,77.6719 Q606.3094,77.6719 606.45,77.8313 Q606.6,77.9813 606.6,78.1969 Q606.6,78.4031 606.0938,78.6469 Q606.0938,79.0031 605.6156,79.2 Q604.9875,79.4719 604.2188,79.4719 Q603.3188,79.4719 602.5969,79.1531 Q602.0156,78.9 601.6031,78.3563 Q601.2,77.8031 601.2,77.1469 L601.2,76.5656 Q601.2,75.8813 601.5563,75.3 Q601.9219,74.7094 602.55,74.3906 Q603.1875,74.0719 603.9,74.0719 Q604.3313,74.0719 604.7438,74.1844 Q605.1563,74.2969 605.4,74.6719 Z " fill="#000000"/><text fill="#000000" font-family="monospace" font-size="9.6" lengthAdjust="spacingAndGlyphs" textLength="24" x="616.35" y="79.8563">Deck</text><line style="stroke: #A80036; stroke-width: 0.8999999999999999;" x1="528.6" x2="708.6" y1="86.0719" y2="86.0719"/><text fill="#000000" font-family="monospace" font-size="9.6" lengthAdjust="spacingAndGlyphs" textLength="144" x="531.6" y="98.1234">id                 : int</text><text fill="#000000" font-family="monospace" font-size="9.6" lengthAdjust="spacingAndGlyphs" textLength="162" x="531.6" y="110.6578">name               : String</text><text fill="#000000" font-family="monospace" font-size="9.6" lengthAdjust="spacingAndGlyphs" textLength="174" x="531.6" y="123.1922">createdDateTime    : DateTime</text><text fill="#000000" font-family="monospace" font-size="9.6" lengthAdjust="spacingAndGlyphs" textLength="174" x="531.6" y="135.7266">lastEditedDateTime : DateTime</text><text fill="#000000" font-family="monospace" font-size="9.6" lengthAdjust="spacingAndGlyphs" textLength="162" x="531.6" y="148.2609">authorName         : String</text><text fill="#000000" font-family="monospace" font-size="9.6" lengthAdjust="spacingAndGlyphs" textLength="162" x="531.6" y="160.7953">description        : String</text><line style="stroke: #A80036; stroke-width: 0.8999999999999999;" x1="528.6" x2="708.6" y1="166.0781" y2="166.0781"/><!--MD5=[4722c72c0cc62bb66b1eedbfdebc182b]
class EntryTag--><rect codeLine="35" fill="#FEFECE" height="53.8688" id="EntryTag" style="stroke: #A80036; stroke-width: 0.8999999999999999;" width="85.2" x="352.8" y="420.2719"/><ellipse cx="369.9" cy="429.8719" fill="#ADD1B2" rx="6.6" ry="6.6" style="stroke: #A80036; stroke-width: 0.6;"/><path d="M371.25,428.0719 Q371.6719,427.7719 371.6625,427.6219 Q371.6531,427.4719 371.8125,427.4719 Q372.0938,427.4719 372.2719,427.6031 Q372.45,427.725 372.45,428.0156 L372.45,428.7188 Q372.45,429.0188 372.3656,429.15 Q372.2813,429.2719 372.15,429.2719 Q372.0281,429.2719 371.9625,429.1688 Q371.8875,429.0656 371.85,428.7938 Q371.8125,428.6063 371.7,428.5031 Q371.4656,428.3063 371.0625,428.1937 Q370.6594,428.0719 370.2562,428.0719 Q369.75,428.0719 369.2813,428.2688 Q368.8219,428.4656 368.5313,428.9063 Q368.25,429.3375 368.25,429.9375 L368.25,430.5844 Q368.25,431.3063 368.7562,431.7938 Q369.2625,432.2719 370.1625,432.2719 Q370.6969,432.2719 371.0719,432.0281 Q371.2875,431.8875 371.5313,431.475 Q371.6906,431.2219 371.775,431.1469 Q371.8594,431.0719 371.9625,431.0719 Q372.1594,431.0719 372.3,431.2313 Q372.45,431.3812 372.45,431.5969 Q372.45,431.8031 371.9437,432.0469 Q371.9437,432.4031 371.4656,432.6 Q370.8375,432.8719 370.0687,432.8719 Q369.1688,432.8719 368.4469,432.5531 Q367.8656,432.3 367.4531,431.7562 Q367.05,431.2031 367.05,430.5469 L367.05,429.9656 Q367.05,429.2813 367.4063,428.7 Q367.7719,428.1094 368.4,427.7906 Q369.0375,427.4719 369.75,427.4719 Q370.1813,427.4719 370.5938,427.5844 Q371.0062,427.6969 371.25,428.0719 Z " fill="#000000"/><text fill="#000000" font-family="monospace" font-size="9.6" lengthAdjust="spacingAndGlyphs" textLength="48" x="380.1" y="433.2562">EntryTag</text><line style="stroke: #A80036; stroke-width: 0.8999999999999999;" x1="353.4" x2="437.4" y1="439.4719" y2="439.4719"/><text fill="#000000" font-family="monospace" font-size="9.6" lengthAdjust="spacingAndGlyphs" textLength="60" x="356.4" y="451.5234">id   : int</text><text fill="#000000" font-family="monospace" font-size="9.6" lengthAdjust="spacingAndGlyphs" textLength="78" x="356.4" y="464.0578">name : String</text><line style="stroke: #A80036; stroke-width: 0.8999999999999999;" x1="353.4" x2="437.4" y1="469.3406" y2="469.3406"/><!--MD5=[0366a75604b4b181d94e41fa62d982a6]
class EntryFieldDatum--><rect codeLine="40" fill="#FEFECE" height="41.3344" id="EntryFieldDatum" style="stroke: #A80036; stroke-width: 0.8999999999999999;" width="133.2" x="459" y="426.5719"/><ellipse cx="478.8" cy="436.1719" fill="#A9DCDF" rx="6.6" ry="6.6" style="stroke: #A80036; stroke-width: 0.6;"/><path d="M479.6625,436.7719 L477.6375,436.7719 L477.6563,437.9719 L477.6563,437.9719 L477.9,437.9719 L478.2,438.0563 L478.2,438.2719 L478.2,438.4875 L477.9,438.5719 L477.6563,438.5719 L476.2781,438.5719 L476.1,438.5719 L475.8,438.4875 L475.8,438.2719 L475.8,438.0563 L476.1,437.9719 L476.2781,437.9719 L477.7125,433.7719 L477.1125,433.7719 L476.7,433.7719 L476.4,433.6875 L476.4,433.4719 L476.4,433.2562 L476.7,433.1719 L477.1125,433.1719 L479.6719,433.1719 L481.3219,437.9719 L481.5,437.9719 L481.5,437.9719 L481.8,438.0563 L481.8,438.2719 L481.8,438.4875 L481.5,438.5719 L481.3219,438.5719 L480.0469,438.5719 L479.7,438.5719 L479.4,438.4875 L479.4,438.2719 L479.4,438.0563 L479.7,437.9719 L480.0469,437.9719 L480.0469,437.9719 L479.6625,436.7719 Z M479.5406,436.1719 L478.8,433.5844 L478.0406,436.1719 L479.5406,436.1719 Z " fill="#000000"/><text fill="#000000" font-family="monospace" font-size="9.6" font-style="italic" lengthAdjust="spacingAndGlyphs" textLength="90" x="489.6" y="439.5563">EntryFieldDatum</text><line style="stroke: #A80036; stroke-width: 0.8999999999999999;" x1="459.6" x2="591.6" y1="445.7719" y2="445.7719"/><text fill="#000000" font-family="monospace" font-size="9.6" lengthAdjust="spacingAndGlyphs" textLength="126" x="462.6" y="457.8234">type : EntryFieldType</text><line style="stroke: #A80036; stroke-width: 0.8999999999999999;" x1="459.6" x2="591.6" y1="463.1063" y2="463.1063"/><!--MD5=[b2d156dca0a40869c1874008509ae15f]
class EntryType--><rect codeLine="44" fill="#FEFECE" height="78.9375" id="EntryType" style="stroke: #A80036; stroke-width: 0.8999999999999999;" width="211.2" x="28.2" y="407.6719"/><ellipse cx="104.25" cy="417.2719" fill="#ADD1B2" rx="6.6" ry="6.6" style="stroke: #A80036; stroke-width: 0.6;"/><path d="M105.6,415.4719 Q106.0219,415.1719 106.0125,415.0219 Q106.0031,414.8719 106.1625,414.8719 Q106.4438,414.8719 106.6219,415.0031 Q106.8,415.125 106.8,415.4156 L106.8,416.1188 Q106.8,416.4188 106.7156,416.55 Q106.6313,416.6719 106.5,416.6719 Q106.3781,416.6719 106.3125,416.5687 Q106.2375,416.4656 106.2,416.1937 Q106.1625,416.0062 106.05,415.9031 Q105.8156,415.7063 105.4125,415.5938 Q105.0094,415.4719 104.6063,415.4719 Q104.1,415.4719 103.6313,415.6688 Q103.1719,415.8656 102.8813,416.3063 Q102.6,416.7375 102.6,417.3375 L102.6,417.9844 Q102.6,418.7063 103.1063,419.1937 Q103.6125,419.6719 104.5125,419.6719 Q105.0469,419.6719 105.4219,419.4281 Q105.6375,419.2875 105.8813,418.875 Q106.0406,418.6219 106.125,418.5469 Q106.2094,418.4719 106.3125,418.4719 Q106.5094,418.4719 106.65,418.6312 Q106.8,418.7813 106.8,418.9969 Q106.8,419.2031 106.2938,419.4469 Q106.2938,419.8031 105.8156,420 Q105.1875,420.2719 104.4188,420.2719 Q103.5188,420.2719 102.7969,419.9531 Q102.2156,419.7 101.8031,419.1563 Q101.4,418.6031 101.4,417.9469 L101.4,417.3656 Q101.4,416.6813 101.7563,416.1 Q102.1219,415.5094 102.75,415.1906 Q103.3875,414.8719 104.1,414.8719 Q104.5313,414.8719 104.9438,414.9844 Q105.3563,415.0969 105.6,415.4719 Z " fill="#000000"/><text fill="#000000" font-family="monospace" font-size="9.6" lengthAdjust="spacingAndGlyphs" textLength="54" x="116.55" y="420.6563">EntryType</text><line style="stroke: #A80036; stroke-width: 0.8999999999999999;" x1="28.8" x2="238.8" y1="426.8719" y2="426.8719"/><text fill="#000000" font-family="monospace" font-size="9.6" lengthAdjust="spacingAndGlyphs" textLength="102" x="31.8" y="438.9234">id          : int</text><text fill="#000000" font-family="monospace" font-size="9.6" lengthAdjust="spacingAndGlyphs" textLength="120" x="31.8" y="451.4578">name        : String</text><text fill="#000000" font-family="monospace" font-size="9.6" lengthAdjust="spacingAndGlyphs" textLength="180" x="31.8" y="463.9922">cardFormats : List&lt;CardFormat&gt;</text><text fill="#000000" font-family="monospace" font-size="9.6" lengthAdjust="spacingAndGlyphs" textLength="204" x="31.8" y="476.5266">fieldSpecs  : List&lt;EntryFieldSpec&gt;</text><line style="stroke: #A80036; stroke-width: 0.8999999999999999;" x1="28.8" x2="238.8" y1="481.8094" y2="481.8094"/><!--MD5=[efd546f96fee886f76cb42981cca7ab1]
class EntryFieldSpec--><rect codeLine="51" fill="#FEFECE" height="66.4031" id="EntryFieldSpec" style="stroke: #A80036; stroke-width: 0.8999999999999999;" width="133.2" x="203.4" y="614.3719"/><ellipse cx="225.9" cy="623.9719" fill="#ADD1B2" rx="6.6" ry="6.6" style="stroke: #A80036; stroke-width: 0.6;"/><path d="M227.25,622.1719 Q227.6719,621.8719 227.6625,621.7219 Q227.6531,621.5719 227.8125,621.5719 Q228.0938,621.5719 228.2719,621.7031 Q228.45,621.825 228.45,622.1156 L228.45,622.8188 Q228.45,623.1188 228.3656,623.25 Q228.2813,623.3719 228.15,623.3719 Q228.0281,623.3719 227.9625,623.2688 Q227.8875,623.1656 227.85,622.8938 Q227.8125,622.7063 227.7,622.6031 Q227.4656,622.4063 227.0625,622.2937 Q226.6594,622.1719 226.2563,622.1719 Q225.75,622.1719 225.2813,622.3688 Q224.8219,622.5656 224.5313,623.0063 Q224.25,623.4375 224.25,624.0375 L224.25,624.6844 Q224.25,625.4063 224.7563,625.8938 Q225.2625,626.3719 226.1625,626.3719 Q226.6969,626.3719 227.0719,626.1281 Q227.2875,625.9875 227.5313,625.575 Q227.6906,625.3219 227.775,625.2469 Q227.8594,625.1719 227.9625,625.1719 Q228.1594,625.1719 228.3,625.3313 Q228.45,625.4812 228.45,625.6969 Q228.45,625.9031 227.9438,626.1469 Q227.9438,626.5031 227.4656,626.7 Q226.8375,626.9719 226.0688,626.9719 Q225.1688,626.9719 224.4469,626.6531 Q223.8656,626.4 223.4531,625.8562 Q223.05,625.3031 223.05,624.6469 L223.05,624.0656 Q223.05,623.3813 223.4063,622.8 Q223.7719,622.2094 224.4,621.8906 Q225.0375,621.5719 225.75,621.5719 Q226.1813,621.5719 226.5938,621.6844 Q227.0063,621.7969 227.25,622.1719 Z " fill="#000000"/><text fill="#000000" font-family="monospace" font-size="9.6" lengthAdjust="spacingAndGlyphs" textLength="84" x="237.3" y="627.3562">EntryFieldSpec</text><line style="stroke: #A80036; stroke-width: 0.8999999999999999;" x1="204" x2="336" y1="633.5719" y2="633.5719"/><text fill="#000000" font-family="monospace" font-size="9.6" lengthAdjust="spacingAndGlyphs" textLength="60" x="207" y="645.6234">id   : int</text><text fill="#000000" font-family="monospace" font-size="9.6" lengthAdjust="spacingAndGlyphs" textLength="126" x="207" y="658.1578">type : EntryFieldType</text><text fill="#000000" font-family="monospace" font-size="9.6" lengthAdjust="spacingAndGlyphs" textLength="78" x="207" y="670.6922">name : String</text><line style="stroke: #A80036; stroke-width: 0.8999999999999999;" x1="204" x2="336" y1="675.975" y2="675.975"/><!--MD5=[a2a32ce212da801967a91f887b856d92]
class CardFormat--><rect codeLine="57" fill="#FEFECE" height="78.9375" id="CardFormat" style="stroke: #A80036; stroke-width: 0.8999999999999999;" width="169.2" x="7.2" y="608.0719"/><ellipse cx="59.25" cy="617.6719" fill="#ADD1B2" rx="6.6" ry="6.6" style="stroke: #A80036; stroke-width: 0.6;"/><path d="M60.6,615.8719 Q61.0219,615.5719 61.0125,615.4219 Q61.0031,615.2719 61.1625,615.2719 Q61.4437,615.2719 61.6219,615.4031 Q61.8,615.525 61.8,615.8156 L61.8,616.5188 Q61.8,616.8188 61.7156,616.95 Q61.6312,617.0719 61.5,617.0719 Q61.3781,617.0719 61.3125,616.9688 Q61.2375,616.8656 61.2,616.5938 Q61.1625,616.4063 61.05,616.3031 Q60.8156,616.1062 60.4125,615.9938 Q60.0094,615.8719 59.6062,615.8719 Q59.1,615.8719 58.6312,616.0688 Q58.1719,616.2656 57.8812,616.7063 Q57.6,617.1375 57.6,617.7375 L57.6,618.3844 Q57.6,619.1062 58.1062,619.5938 Q58.6125,620.0719 59.5125,620.0719 Q60.0469,620.0719 60.4219,619.8281 Q60.6375,619.6875 60.8812,619.275 Q61.0406,619.0219 61.125,618.9469 Q61.2094,618.8719 61.3125,618.8719 Q61.5094,618.8719 61.65,619.0313 Q61.8,619.1813 61.8,619.3969 Q61.8,619.6031 61.2937,619.8469 Q61.2937,620.2031 60.8156,620.4 Q60.1875,620.6719 59.4187,620.6719 Q58.5188,620.6719 57.7969,620.3531 Q57.2156,620.1 56.8031,619.5563 Q56.4,619.0031 56.4,618.3469 L56.4,617.7656 Q56.4,617.0813 56.7563,616.5 Q57.1219,615.9094 57.75,615.5906 Q58.3875,615.2719 59.1,615.2719 Q59.5313,615.2719 59.9437,615.3844 Q60.3562,615.4969 60.6,615.8719 Z " fill="#000000"/><text fill="#000000" font-family="monospace" font-size="9.6" lengthAdjust="spacingAndGlyphs" textLength="60" x="71.55" y="621.0563">CardFormat</text><line style="stroke: #A80036; stroke-width: 0.8999999999999999;" x1="7.8" x2="175.8" y1="627.2719" y2="627.2719"/><text fill="#000000" font-family="monospace" font-size="9.6" lengthAdjust="spacingAndGlyphs" textLength="66" x="10.8" y="639.3234">id    : int</text><text fill="#000000" font-family="monospace" font-size="9.6" lengthAdjust="spacingAndGlyphs" textLength="84" x="10.8" y="651.8578">name  : String</text><text fill="#000000" font-family="monospace" font-size="9.6" lengthAdjust="spacingAndGlyphs" textLength="162" x="10.8" y="664.3922">front : CardFormatStructure</text><text fill="#000000" font-family="monospace" font-size="9.6" lengthAdjust="spacingAndGlyphs" textLength="162" x="10.8" y="676.9266">back  : CardFormatStructure</text><line style="stroke: #A80036; stroke-width: 0.8999999999999999;" x1="7.8" x2="175.8" y1="682.2094" y2="682.2094"/><!--MD5=[2ebb7e34a8accc695b7c3b6efb33eac9]
class CardFormatStructure--><rect codeLine="64" fill="#FEFECE" height="41.3344" id="CardFormatStructure" style="stroke: #A80036; stroke-width: 0.8999999999999999;" width="175.2" x="4.2" y="864.8719"/><ellipse cx="32.25" cy="874.4719" fill="#ADD1B2" rx="6.6" ry="6.6" style="stroke: #A80036; stroke-width: 0.6;"/><path d="M33.6,872.6719 Q34.0219,872.3719 34.0125,872.2219 Q34.0031,872.0719 34.1625,872.0719 Q34.4438,872.0719 34.6219,872.2031 Q34.8,872.325 34.8,872.6156 L34.8,873.3188 Q34.8,873.6188 34.7156,873.75 Q34.6313,873.8719 34.5,873.8719 Q34.3781,873.8719 34.3125,873.7688 Q34.2375,873.6656 34.2,873.3938 Q34.1625,873.2063 34.05,873.1031 Q33.8156,872.9063 33.4125,872.7937 Q33.0094,872.6719 32.6062,872.6719 Q32.1,872.6719 31.6312,872.8688 Q31.1719,873.0656 30.8812,873.5063 Q30.6,873.9375 30.6,874.5375 L30.6,875.1844 Q30.6,875.9063 31.1063,876.3938 Q31.6125,876.8719 32.5125,876.8719 Q33.0469,876.8719 33.4219,876.6281 Q33.6375,876.4875 33.8813,876.075 Q34.0406,875.8219 34.125,875.7469 Q34.2094,875.6719 34.3125,875.6719 Q34.5094,875.6719 34.65,875.8313 Q34.8,875.9812 34.8,876.1969 Q34.8,876.4031 34.2937,876.6469 Q34.2937,877.0031 33.8156,877.2 Q33.1875,877.4719 32.4187,877.4719 Q31.5187,877.4719 30.7969,877.1531 Q30.2156,876.9 29.8031,876.3562 Q29.4,875.8031 29.4,875.1469 L29.4,874.5656 Q29.4,873.8813 29.7562,873.3 Q30.1219,872.7094 30.75,872.3906 Q31.3875,872.0719 32.1,872.0719 Q32.5313,872.0719 32.9438,872.1844 Q33.3562,872.2969 33.6,872.6719 Z " fill="#000000"/><text fill="#000000" font-family="monospace" font-size="9.6" lengthAdjust="spacingAndGlyphs" textLength="114" x="44.55" y="877.8562">CardFormatStructure</text><line style="stroke: #A80036; stroke-width: 0.8999999999999999;" x1="4.8" x2="178.8" y1="884.0719" y2="884.0719"/><text fill="#000000" font-family="monospace" font-size="9.6" lengthAdjust="spacingAndGlyphs" textLength="168" x="7.8" y="896.1234">components : List&lt;Component&gt;</text><line style="stroke: #A80036; stroke-width: 0.8999999999999999;" x1="4.8" x2="178.8" y1="901.4063" y2="901.4063"/><!--MD5=[4e13963c9dc916a21a8436ef39422b32]
class Component--><rect codeLine="68" fill="#FEFECE" height="41.3344" id="Component" style="stroke: #A80036; stroke-width: 0.8999999999999999;" width="85.2" x="49.2" y="989.6719"/><ellipse cx="63.6" cy="999.2719" fill="#A9DCDF" rx="6.6" ry="6.6" style="stroke: #A80036; stroke-width: 0.6;"/><path d="M64.4625,999.8719 L62.4375,999.8719 L62.4563,1001.0719 L62.4563,1001.0719 L62.7,1001.0719 L63,1001.1563 L63,1001.3719 L63,1001.5875 L62.7,1001.6719 L62.4563,1001.6719 L61.0781,1001.6719 L60.9,1001.6719 L60.6,1001.5875 L60.6,1001.3719 L60.6,1001.1563 L60.9,1001.0719 L61.0781,1001.0719 L62.5125,996.8719 L61.9125,996.8719 L61.5,996.8719 L61.2,996.7875 L61.2,996.5719 L61.2,996.3562 L61.5,996.2719 L61.9125,996.2719 L64.4719,996.2719 L66.1219,1001.0719 L66.3,1001.0719 L66.3,1001.0719 L66.6,1001.1563 L66.6,1001.3719 L66.6,1001.5875 L66.3,1001.6719 L66.1219,1001.6719 L64.8469,1001.6719 L64.5,1001.6719 L64.2,1001.5875 L64.2,1001.3719 L64.2,1001.1563 L64.5,1001.0719 L64.8469,1001.0719 L64.8469,1001.0719 L64.4625,999.8719 Z M64.3406,999.2719 L63.6,996.6844 L62.8406,999.2719 L64.3406,999.2719 Z " fill="#000000"/><text fill="#000000" font-family="monospace" font-size="9.6" font-style="italic" lengthAdjust="spacingAndGlyphs" textLength="54" x="73.2" y="1002.6563">Component</text><line style="stroke: #A80036; stroke-width: 0.8999999999999999;" x1="49.8" x2="133.8" y1="1008.8719" y2="1008.8719"/><text fill="#000000" font-family="monospace" font-size="9.6" lengthAdjust="spacingAndGlyphs" textLength="78" x="52.8" y="1020.9234">name : String</text><line style="stroke: #A80036; stroke-width: 0.8999999999999999;" x1="49.8" x2="133.8" y1="1026.2063" y2="1026.2063"/><!--MD5=[ccc747f01eddbd59fce34d989a37199f]
link Deck to Entry--><path codeLine="72" d="M556.8852,172.7539 C540.7512,186.7099 523.6098,201.5419 508.3404,214.7479 " fill="none" id="Deck-Entry" style="stroke: #A80036; stroke-width: 0.6;"/><polygon fill="#A80036" points="505.9062,216.8539,511.558,215.1285,508.1724,214.8881,508.4128,211.5025,505.9062,216.8539" style="stroke: #A80036; stroke-width: 0.6;"/><polygon fill="#A80036" points="559.1676,170.7799,553.5126,172.4947,556.8977,172.7414,556.651,176.1265,559.1676,170.7799" style="stroke: #A80036; stroke-width: 0.6;"/><polygon fill="#000000" points="535.1849,195.5424,539.3914,193.7689,537.5455,191.6351,535.1849,195.5424" style="stroke: #000000; stroke-width: 0.6;"/><text fill="#000000" font-family="monospace" font-size="7.2" lengthAdjust="spacingAndGlyphs" textLength="16.8" x="542.4" y="196.5105">owns</text><text fill="#000000" font-family="monospace" font-size="7.2" lengthAdjust="spacingAndGlyphs" textLength="4.2" x="549.6797" y="182.8831">1</text><text fill="#000000" font-family="monospace" font-size="7.2" lengthAdjust="spacingAndGlyphs" textLength="16.8" x="493.3504" y="210.0297">0..*</text><!--MD5=[9979ec116d4477b40d23877d49752063]
link Entry to Card--><path codeLine="73" d="M563.2122,280.4719 C596.0094,294.4759 624,316.5859 624,351.2719 C624,351.2719 624,351.2719 624,648.2719 C624,685.8379 624,728.8369 624,758.4097 " fill="none" id="Entry-Card" style="stroke: #A80036; stroke-width: 0.6;"/><polygon fill="#A80036" points="624,761.5879,626.4,756.1879,624,758.5879,621.6,756.1879,624,761.5879" style="stroke: #A80036; stroke-width: 0.6;"/><polygon fill="#A80036" points="560.4354,279.3079,564.4911,283.6057,563.2031,280.4655,566.3433,279.1775,560.4354,279.3079" style="stroke: #A80036; stroke-width: 0.6;"/><polygon fill="#000000" points="626.7028,512.5531,627.5544,508.0682,624.7556,508.4241,626.7028,512.5531" style="stroke: #000000; stroke-width: 0.6;"/><text fill="#000000" font-family="monospace" font-size="7.2" lengthAdjust="spacingAndGlyphs" textLength="37.8" x="631.8" y="512.7105">generates</text><text fill="#000000" font-family="monospace" font-size="7.2" lengthAdjust="spacingAndGlyphs" textLength="4.2" x="565.0453" y="278.3924">1</text><text fill="#000000" font-family="monospace" font-size="7.2" lengthAdjust="spacingAndGlyphs" textLength="16.8" x="606.0713" y="754.776">1..*</text><!--MD5=[c905f1b8e8f3426bca82a4905da2e16e]
link Deck to Card--><path codeLine="74" d="M657.972,173.4079 C671.82,197.4499 684,226.8439 684,255.8719 C684,255.8719 684,255.8719 684,648.2719 C684,688.2499 664.536,730.0789 647.784,758.6839 " fill="none" id="Deck-Card" style="stroke: #A80036; stroke-width: 0.6;"/><polygon fill="#A80036" points="646.17,761.4109,650.9854,757.9856,647.6977,758.829,646.8543,755.5413,646.17,761.4109" style="stroke: #A80036; stroke-width: 0.6;"/><polygon fill="#A80036" points="656.454,170.8039,657.0994,176.6778,657.9645,173.3958,661.2465,174.261,656.454,170.8039" style="stroke: #A80036; stroke-width: 0.6;"/><polygon fill="#000000" points="686.3582,449.8719,687.8443,445.5555,685.0233,445.5064,686.3582,449.8719" style="stroke: #000000; stroke-width: 0.6;"/><text fill="#000000" font-family="monospace" font-size="7.2" lengthAdjust="spacingAndGlyphs" textLength="16.8" x="691.8" y="450.0105">owns</text><text fill="#000000" font-family="monospace" font-size="7.2" lengthAdjust="spacingAndGlyphs" textLength="4.2" x="655.3266" y="182.9091">1</text><text fill="#000000" font-family="monospace" font-size="7.2" lengthAdjust="spacingAndGlyphs" textLength="16.8" x="631.1343" y="754.8113">0..*</text><!--MD5=[aaeb6ccba3c6ba94b26795672558142d]
reverse link Entry to EntryTag--><path codeLine="75" d="M428.9508,302.9959 C423.474,312.4759 418.3488,322.6459 414.6,332.6719 C403.8486,361.4359 399.0906,396.5359 397.002,420.1279 " fill="none" id="Entry-backto-EntryTag" style="stroke: #A80036; stroke-width: 0.6;"/><polygon fill="#FFFFFF" points="432.9864,296.2219,429.0834,298.0891,429.3058,302.41,433.2088,300.5428,432.9864,296.2219" style="stroke: #A80036; stroke-width: 0.6;"/><polygon fill="#000000" points="416.3684,354.1885,418.8719,350.3711,416.15,349.6286,416.3684,354.1885" style="stroke: #000000; stroke-width: 0.6;"/><text fill="#000000" font-family="monospace" font-size="7.2" lengthAdjust="spacingAndGlyphs" textLength="8.4" x="445.5" y="345.0105">is</text><text fill="#000000" font-family="monospace" font-size="7.2" lengthAdjust="spacingAndGlyphs" textLength="54.6" x="422.4" y="354.4113">categorizable</text><text fill="#000000" font-family="monospace" font-size="7.2" lengthAdjust="spacingAndGlyphs" textLength="8.4" x="447.6" y="363.8121">by</text><text fill="#000000" font-family="monospace" font-size="7.2" lengthAdjust="spacingAndGlyphs" textLength="16.8" x="412.6216" y="307.8491">0..*</text><text fill="#000000" font-family="monospace" font-size="7.2" lengthAdjust="spacingAndGlyphs" textLength="16.8" x="379.1186" y="413.3657">0..*</text><!--MD5=[70d7557a94af25ce1808f2d96c9065c9]
reverse link Entry to EntryFieldDatum--><path codeLine="76" d="M476.676,303.5239 C490.1046,342.8119 508.7034,397.2319 518.6556,426.3559 " fill="none" id="Entry-backto-EntryFieldDatum" style="stroke: #A80036; stroke-width: 0.6;"/><polygon fill="#A80036" points="474.1482,296.1259,473.0445,300.3094,476.4817,302.9373,477.5854,298.7537,474.1482,296.1259" style="stroke: #A80036; stroke-width: 0.6;"/><polygon fill="#000000" points="502.3762,354.2437,502.307,349.6791,499.6372,350.5916,502.3762,354.2437" style="stroke: #000000; stroke-width: 0.6;"/><text fill="#000000" font-family="monospace" font-size="7.2" lengthAdjust="spacingAndGlyphs" textLength="46.2" x="509.1" y="349.8105">has data of</text><text fill="#000000" font-family="monospace" font-size="7.2" lengthAdjust="spacingAndGlyphs" textLength="54.6" x="507" y="359.2113">each field in</text><text fill="#000000" font-family="monospace" font-size="7.2" lengthAdjust="spacingAndGlyphs" textLength="54.6" x="484.3361" y="307.827">&lt;&lt;qualifier&gt;&gt;</text><text fill="#000000" font-family="monospace" font-size="7.2" lengthAdjust="spacingAndGlyphs" textLength="67.2" x="478.0361" y="317.2278">[EntryFieldSpec]</text><text fill="#000000" font-family="monospace" font-size="7.2" lengthAdjust="spacingAndGlyphs" textLength="4.2" x="509.5361" y="326.6286">1</text><text fill="#000000" font-family="monospace" font-size="7.2" lengthAdjust="spacingAndGlyphs" textLength="4.2" x="512.675" y="419.6367">1</text><!--MD5=[255c1cea35baf15e69e7ce5cb9234b82]
link Entry to EntryFieldSpec--><path codeLine="77" d="M361.1322,273.3259 C319.8396,286.3099 281.4,309.5839 281.4,351.2719 C281.4,351.2719 281.4,351.2719 281.4,552.8719 C281.4,572.2597 278.9904,593.7307 276.387,611.2717 " fill="none" id="Entry-to-EntryFieldSpec" style="stroke: #A80036; stroke-width: 0.6; stroke-dasharray: 7.0,7.0;"/><polygon fill="#A80036" points="275.934,614.2753,279.1125,609.2936,276.3814,611.3088,274.3662,608.5777,275.934,614.2753" style="stroke: #A80036; stroke-width: 0.6;"/><polygon fill="#000000" points="283.2162,449.8002,285.6406,445.9321,282.904,445.2458,283.2162,449.8002" style="stroke: #000000; stroke-width: 0.6;"/><text fill="#000000" font-family="monospace" font-size="7.2" lengthAdjust="spacingAndGlyphs" textLength="42" x="289.2" y="450.0105">depends on</text><!--MD5=[cfec0ab29adb9efd8a6c964edc7a195e]
link Entry to EntryType--><path codeLine="78" d="M358.206,268.0519 C305.9922,277.9579 244.1154,296.8099 198.6,332.6719 C175.2306,351.0859 158.8338,380.4079 148.3806,404.7019 " fill="none" id="Entry-EntryType" style="stroke: #A80036; stroke-width: 0.6;"/><polygon fill="#A80036" points="147.1356,407.6419,151.4572,403.6116,148.3095,404.8811,147.04,401.7333,147.1356,407.6419" style="stroke: #A80036; stroke-width: 0.6;"/><polygon fill="#A80036" points="361.1568,267.4999,355.4074,266.1345,358.208,268.0519,356.2906,270.8526,361.1568,267.4999" style="stroke: #A80036; stroke-width: 0.6;"/><polygon fill="#000000" points="198.9889,353.3832,203.3969,352.1959,201.8572,349.8317,198.9889,353.3832" style="stroke: #000000; stroke-width: 0.6;"/><text fill="#000000" font-family="monospace" font-size="7.2" lengthAdjust="spacingAndGlyphs" textLength="58.8" x="206.4" y="340.5105">has fields and</text><text fill="#000000" font-family="monospace" font-size="7.2" lengthAdjust="spacingAndGlyphs" textLength="16.8" x="225.3" y="349.9113">Card</text><text fill="#000000" font-family="monospace" font-size="7.2" lengthAdjust="spacingAndGlyphs" textLength="42" x="212.7" y="359.3121">generation</text><text fill="#000000" font-family="monospace" font-size="7.2" lengthAdjust="spacingAndGlyphs" textLength="42" x="214.8" y="368.7129">defined by</text><text fill="#000000" font-family="monospace" font-size="7.2" lengthAdjust="spacingAndGlyphs" textLength="16.8" x="339.4611" y="266.0494">0..*</text><text fill="#000000" font-family="monospace" font-size="7.2" lengthAdjust="spacingAndGlyphs" textLength="4.2" x="144.2347" y="400.8164">1</text><!--MD5=[2aac9294946bbd31e65ecbfd6b136182]
reverse link EntryType to CardFormat--><path codeLine="79" d="M113.8686,494.4127 C109.2852,506.7781 104.9082,520.2613 102,533.0719 C96.435,557.5849 93.8796,585.7081 92.7174,607.8877 " fill="none" id="EntryType-backto-CardFormat" style="stroke: #A80036; stroke-width: 0.6;"/><polygon fill="#A80036" points="116.6598,487.0753,113.1368,489.587,114.1004,493.805,117.6233,491.2933,116.6598,487.0753" style="stroke: #A80036; stroke-width: 0.6;"/><polygon fill="#000000" points="103.9602,554.8328,106.1426,550.8232,103.369,550.3062,103.9602,554.8328" style="stroke: #000000; stroke-width: 0.6;"/><text fill="#000000" font-family="monospace" font-size="7.2" lengthAdjust="spacingAndGlyphs" textLength="50.4" x="109.8" y="540.9105">contains for</text><text fill="#000000" font-family="monospace" font-size="7.2" lengthAdjust="spacingAndGlyphs" textLength="37.8" x="116.1" y="550.3113">each Card</text><text fill="#000000" font-family="monospace" font-size="7.2" lengthAdjust="spacingAndGlyphs" textLength="50.4" x="109.8" y="559.7121">generated by</text><text fill="#000000" font-family="monospace" font-size="7.2" lengthAdjust="spacingAndGlyphs" textLength="42" x="116.1" y="569.1129">each Entry</text><text fill="#000000" font-family="monospace" font-size="7.2" lengthAdjust="spacingAndGlyphs" textLength="4.2" x="110.5658" y="498.7077">1</text><text fill="#000000" font-family="monospace" font-size="7.2" lengthAdjust="spacingAndGlyphs" textLength="16.8" x="75.0522" y="601.0443">1..*</text><!--MD5=[fb4432f1c08088e56047396f0082ea25]
link CardFormat to Card--><path codeLine="80" d="M179.5458,682.9687 C183.9426,684.4723 188.3118,685.9159 192.6,687.2719 C325.9026,729.4225 486.5898,765.5527 569.139,783.0733 " fill="none" id="CardFormat-Card" style="stroke: #A80036; stroke-width: 0.6;"/><polygon fill="#A80036" points="572.2842,783.7399,567.4995,780.272,569.3494,783.1176,566.5038,784.9676,572.2842,783.7399" style="stroke: #A80036; stroke-width: 0.6;"/><polygon fill="#A80036" points="176.4984,681.9181,180.8222,685.9461,179.3348,682.8953,182.3856,681.4079,176.4984,681.9181" style="stroke: #A80036; stroke-width: 0.6;"/><polygon fill="#000000" points="397.1245,725.2707,393.2705,722.8239,392.5684,725.5565,397.1245,725.2707" style="stroke: #000000; stroke-width: 0.6;"/><text fill="#000000" font-family="monospace" font-size="7.2" lengthAdjust="spacingAndGlyphs" textLength="37.8" x="408.6" y="713.1105">specifies</text><text fill="#000000" font-family="monospace" font-size="7.2" lengthAdjust="spacingAndGlyphs" textLength="54.6" x="400.2" y="722.5113">display style</text><text fill="#000000" font-family="monospace" font-size="7.2" lengthAdjust="spacingAndGlyphs" textLength="54.6" x="400.2" y="731.9121">and structure</text><text fill="#000000" font-family="monospace" font-size="7.2" lengthAdjust="spacingAndGlyphs" textLength="8.4" x="425.4" y="741.3129">of</text><text fill="#000000" font-family="monospace" font-size="7.2" lengthAdjust="spacingAndGlyphs" textLength="4.2" x="181.2452" y="681.8016">1</text><text fill="#000000" font-family="monospace" font-size="7.2" lengthAdjust="spacingAndGlyphs" textLength="16.8" x="550.8816" y="780.7969">0..*</text><!--MD5=[16d0c882c8d324787220be535d491a6e]
reverse link EntryType to EntryFieldSpec--><path codeLine="81" d="M158.712,493.8727 C172.1472,517.6165 189.5238,546.7165 207,571.4719 C217.2966,586.0573 229.6848,601.3321 240.741,614.3035 " fill="none" id="EntryType-backto-EntryFieldSpec" style="stroke: #A80036; stroke-width: 0.6;"/><polygon fill="#A80036" points="154.8522,487.0075,154.5242,491.3217,158.3804,493.2837,158.7084,488.9695,154.8522,487.0075" style="stroke: #A80036; stroke-width: 0.6;"/><polygon fill="#000000" points="210.7511,554.3562,209.4729,549.9738,207.141,551.562,210.7511,554.3562" style="stroke: #000000; stroke-width: 0.6;"/><text fill="#000000" font-family="monospace" font-size="7.2" lengthAdjust="spacingAndGlyphs" textLength="42" x="216.9" y="550.2105">has fields</text><text fill="#000000" font-family="monospace" font-size="7.2" lengthAdjust="spacingAndGlyphs" textLength="50.4" x="214.8" y="559.6113">specified by</text><text fill="#000000" font-family="monospace" font-size="7.2" lengthAdjust="spacingAndGlyphs" textLength="4.2" x="152.5178" y="498.6332">1</text><text fill="#000000" font-family="monospace" font-size="7.2" lengthAdjust="spacingAndGlyphs" textLength="16.8" x="218.8806" y="607.4937">1..*</text><!--MD5=[499010a3f9f5c1505401b65f50e7d61b]
reverse link CardFormat to CardFormatStructure--><path codeLine="82" d="M91.8,695.2297 C91.8,746.8741 91.8,827.4763 91.8,864.7783 " fill="none" id="CardFormat-backto-CardFormatStructure" style="stroke: #A80036; stroke-width: 0.6;"/><polygon fill="#A80036" points="91.8,687.3583,89.4,690.9583,91.8,694.5583,94.2,690.9583,91.8,687.3583" style="stroke: #A80036; stroke-width: 0.6;"/><polygon fill="#000000" points="94.2,797.4727,95.6107,793.131,92.7893,793.131,94.2,797.4727" style="stroke: #000000; stroke-width: 0.6;"/><text fill="#000000" font-family="monospace" font-size="7.2" lengthAdjust="spacingAndGlyphs" textLength="54.6" x="99.6" y="792.9105">has structure</text><text fill="#000000" font-family="monospace" font-size="7.2" lengthAdjust="spacingAndGlyphs" textLength="50.4" x="103.8" y="802.3113">specified by</text><text fill="#000000" font-family="monospace" font-size="7.2" lengthAdjust="spacingAndGlyphs" textLength="4.2" x="87.3933" y="698.9792">1</text><text fill="#000000" font-family="monospace" font-size="7.2" lengthAdjust="spacingAndGlyphs" textLength="4.2" x="87.1669" y="857.8482">2</text><!--MD5=[2e2e4d03125a574c29033226ea946ab3]
reverse link CardFormatStructure to Component--><path codeLine="83" d="M91.8,914.1751 C91.8,937.1539 91.8,969.1351 91.8,989.6469 " fill="none" id="CardFormatStructure-backto-Component" style="stroke: #A80036; stroke-width: 0.6;"/><polygon fill="#A80036" points="91.8,906.3055,89.4,909.9055,91.8,913.5055,94.2,909.9055,91.8,906.3055" style="stroke: #A80036; stroke-width: 0.6;"/><polygon fill="#000000" points="94.2,950.5723,95.6107,946.2306,92.7893,946.2306,94.2,950.5723" style="stroke: #000000; stroke-width: 0.6;"/><text fill="#000000" font-family="monospace" font-size="7.2" lengthAdjust="spacingAndGlyphs" textLength="58.8" x="99.6" y="950.7105">is composed of</text><text fill="#000000" font-family="monospace" font-size="7.2" lengthAdjust="spacingAndGlyphs" textLength="4.2" x="87.2128" y="918.2396">1</text><text fill="#000000" font-family="monospace" font-size="7.2" lengthAdjust="spacingAndGlyphs" textLength="16.8" x="73.2675" y="982.731">0..*</text><text fill="#888888" font-family="monospace" font-size="9.6" lengthAdjust="spacingAndGlyphs" textLength="180" x="262.8" y="1044.2578">Copyright (C) 2020 Cervon Wong</text><!--MD5=[352e55b6b47ecd3386f409bc38f1064a]
@startuml
skinparam classAttributeIconSize 0
skinparam wrapWidth 400

skinparam maxMessageSize 100
skinparam shadowing false
skinparam defaultFontName monospaced
skinparam defaultFontSize 16
skinparam arrowFontSize 12
skinparam titleFontSize 24
skinparam titleFontStyle bold

header This diagram is part of a visualisation of the code written for Sona.\n View the project at github.com/cervonwong/sona-flutter.
title Relationships of material entities.\n
footer Copyright (C) 2020 Cervon Wong

class Card {
	id        : int
	isStarred : bool
	isHidden  : bool
}

class Entry {
	id        : int
	tags      : Set<EntryTag>
	fieldData : Map<EntryFieldSpec, EntryFieldDatum>
}

class Deck {
	id                 : int
	name               : String
	createdDateTime    : DateTime
	lastEditedDateTime : DateTime
	authorName         : String
	description        : String
}

class EntryTag {
	id   : int
	name : String
}

abstract class EntryFieldDatum {
	type : EntryFieldType
}

class EntryType {
	id          : int
	name        : String
	cardFormats : List<CardFormat>
	fieldSpecs  : List<EntryFieldSpec>
}

class EntryFieldSpec {
	id   : int
	type : EntryFieldType
	name : String
}

class CardFormat {
	id    : int
	name  : String
	front : CardFormatStructure
	back  : CardFormatStructure
}

class CardFormatStructure {
	components : List<Component>
}

abstract class Component {
	name : String
}

Deck                "1"                                  <- -> "0..*" Entry               : owns >
Entry               "1"                                  <- -> "1..*" Card                : generates >
Deck                "1"                                  <- -> "0..*" Card                : owns >
Entry               "0..*"                               o- - - "0..*" EntryTag            : is categorizable by >
Entry               "<<qualifier>>\n[EntryFieldSpec]\n1" *- - - "1"    EntryFieldDatum     : has data of each field in >
Entry                                                    ..>         EntryFieldSpec      : depends on >
Entry               "0..*"                               <- - -> "1"   EntryType           : has fields and Card generation defined by >
EntryType           "1"                                  *- - - "1..*" CardFormat          : contains for each Card generated by each Entry >
CardFormat          "1"                                  <- -> "0..*" Card                : specifies display style and structure of >
EntryType           "1"                                  *- - - "1..*" EntryFieldSpec      : has fields specified by >
CardFormat          "1"                                  *- - - "2"    CardFormatStructure : has structure specified by >
CardFormatStructure "1"                                  *- - - "0..*" Component           : is composed of >

@enduml

PlantUML version 1.2020.20(Sat Nov 21 18:02:45 SGT 2020)
(GPL source distribution)
Java Runtime: OpenJDK Runtime Environment
JVM: OpenJDK 64-Bit Server VM
Default Encoding: Cp1252
Language: en
Country: GB
--></g></svg>