<?xml version="1.0" encoding="UTF-8" standalone="no"?><svg xmlns="http://www.w3.org/2000/svg" xmlns:xlink="http://www.w3.org/1999/xlink" contentScriptType="application/ecmascript" contentStyleType="text/css" height="1769px" preserveAspectRatio="none" style="width:1189px;height:1769px;" version="1.1" viewBox="0 0 1189 1769" width="1189px" zoomAndPan="magnify"><defs/><g><text fill="#888888" font-family="monospace" font-size="16" lengthAdjust="spacingAndGlyphs" textLength="690" x="486" y="16.0859">This diagram is part of a visualisation of the code written for Sona.</text><text fill="#888888" font-family="monospace" font-size="16" lengthAdjust="spacingAndGlyphs" textLength="550" x="626" y="36.9766">View the project at github.com/cervonwong/sona-flutter.</text><text fill="#000000" font-family="monospace" font-size="24" font-weight="bold" lengthAdjust="spacingAndGlyphs" textLength="490" x="343" y="65.9102">Relationships of material entities.</text><text fill="#000000" font-family="monospace" font-size="24" font-weight="bold" lengthAdjust="spacingAndGlyphs" textLength="0" x="595" y="97.2461"/><!--MD5=[5e305716458bbdabbd2d7f572ed2bae2]
class Card--><rect codeLine="15" fill="#FEFECE" height="110.6719" id="Card" style="stroke:#A80036;stroke-width:1.5;" width="172" x="954" y="1269.4531"/><ellipse cx="1015.75" cy="1285.4531" fill="#ADD1B2" rx="11" ry="11" style="stroke:#A80036;stroke-width:1.0;"/><path d="M1018,1282.4531 Q1018.7031,1281.9531 1018.6875,1281.7031 Q1018.6719,1281.4531 1018.9375,1281.4531 Q1019.4063,1281.4531 1019.7031,1281.6719 Q1020,1281.875 1020,1282.3594 L1020,1283.5313 Q1020,1284.0313 1019.8594,1284.25 Q1019.7188,1284.4531 1019.5,1284.4531 Q1019.2969,1284.4531 1019.1875,1284.2813 Q1019.0625,1284.1094 1019,1283.6563 Q1018.9375,1283.3438 1018.75,1283.1719 Q1018.3594,1282.8438 1017.6875,1282.6563 Q1017.0156,1282.4531 1016.3438,1282.4531 Q1015.5,1282.4531 1014.7188,1282.7813 Q1013.9531,1283.1094 1013.4688,1283.8438 Q1013,1284.5625 1013,1285.5625 L1013,1286.6406 Q1013,1287.8438 1013.8438,1288.6563 Q1014.6875,1289.4531 1016.1875,1289.4531 Q1017.0781,1289.4531 1017.7031,1289.0469 Q1018.0625,1288.8125 1018.4688,1288.125 Q1018.7344,1287.7031 1018.875,1287.5781 Q1019.0156,1287.4531 1019.1875,1287.4531 Q1019.5156,1287.4531 1019.75,1287.7188 Q1020,1287.9688 1020,1288.3281 Q1020,1288.6719 1019.1563,1289.0781 Q1019.1563,1289.6719 1018.3594,1290 Q1017.3125,1290.4531 1016.0313,1290.4531 Q1014.5313,1290.4531 1013.3281,1289.9219 Q1012.3594,1289.5 1011.6719,1288.5938 Q1011,1287.6719 1011,1286.5781 L1011,1285.6094 Q1011,1284.4688 1011.5938,1283.5 Q1012.2031,1282.5156 1013.25,1281.9844 Q1014.3125,1281.4531 1015.5,1281.4531 Q1016.2188,1281.4531 1016.9063,1281.6406 Q1017.5938,1281.8281 1018,1282.4531 Z " fill="#000000"/><text fill="#000000" font-family="monospace" font-size="16" font-weight="bold" lengthAdjust="spacingAndGlyphs" textLength="40" x="1036.25" y="1291.0938">Card</text><line style="stroke:#A80036;stroke-width:1.5;" x1="955" x2="1125" y1="1301.4531" y2="1301.4531"/><text fill="#000000" font-family="monospace" font-size="16" lengthAdjust="spacingAndGlyphs" textLength="150" x="960" y="1321.5391">id        : int</text><text fill="#000000" font-family="monospace" font-size="16" lengthAdjust="spacingAndGlyphs" textLength="160" x="960" y="1342.4297">isStarred : bool</text><text fill="#000000" font-family="monospace" font-size="16" lengthAdjust="spacingAndGlyphs" textLength="160" x="960" y="1363.3203">isHidden  : bool</text><line style="stroke:#A80036;stroke-width:1.5;" x1="955" x2="1125" y1="1372.125" y2="1372.125"/><!--MD5=[96293e8b231702a792e4ba32419ac2da]
class Entry--><rect codeLine="21" fill="#FEFECE" height="131.5625" id="Entry" style="stroke:#A80036;stroke-width:1.5;" width="332" x="602" y="361.4531"/><ellipse cx="738.75" cy="377.4531" fill="#ADD1B2" rx="11" ry="11" style="stroke:#A80036;stroke-width:1.0;"/><path d="M741,374.4531 Q741.7031,373.9531 741.6875,373.7031 Q741.6719,373.4531 741.9375,373.4531 Q742.4063,373.4531 742.7031,373.6719 Q743,373.875 743,374.3594 L743,375.5313 Q743,376.0313 742.8594,376.25 Q742.7188,376.4531 742.5,376.4531 Q742.2969,376.4531 742.1875,376.2813 Q742.0625,376.1094 742,375.6563 Q741.9375,375.3438 741.75,375.1719 Q741.3594,374.8438 740.6875,374.6563 Q740.0156,374.4531 739.3438,374.4531 Q738.5,374.4531 737.7188,374.7813 Q736.9531,375.1094 736.4688,375.8438 Q736,376.5625 736,377.5625 L736,378.6406 Q736,379.8438 736.8438,380.6563 Q737.6875,381.4531 739.1875,381.4531 Q740.0781,381.4531 740.7031,381.0469 Q741.0625,380.8125 741.4688,380.125 Q741.7344,379.7031 741.875,379.5781 Q742.0156,379.4531 742.1875,379.4531 Q742.5156,379.4531 742.75,379.7188 Q743,379.9688 743,380.3281 Q743,380.6719 742.1563,381.0781 Q742.1563,381.6719 741.3594,382 Q740.3125,382.4531 739.0313,382.4531 Q737.5313,382.4531 736.3281,381.9219 Q735.3594,381.5 734.6719,380.5938 Q734,379.6719 734,378.5781 L734,377.6094 Q734,376.4688 734.5938,375.5 Q735.2031,374.5156 736.25,373.9844 Q737.3125,373.4531 738.5,373.4531 Q739.2188,373.4531 739.9063,373.6406 Q740.5938,373.8281 741,374.4531 Z " fill="#000000"/><text fill="#000000" font-family="monospace" font-size="16" font-weight="bold" lengthAdjust="spacingAndGlyphs" textLength="50" x="759.25" y="383.0938">Entry</text><line style="stroke:#A80036;stroke-width:1.5;" x1="603" x2="933" y1="393.4531" y2="393.4531"/><text fill="#000000" font-family="monospace" font-size="16" lengthAdjust="spacingAndGlyphs" textLength="150" x="608" y="413.5391">id        : int</text><text fill="#000000" font-family="monospace" font-size="16" lengthAdjust="spacingAndGlyphs" textLength="250" x="608" y="434.4297">tags      : Set&lt;EntryTag&gt;</text><text fill="#000000" font-family="monospace" font-size="16" lengthAdjust="spacingAndGlyphs" textLength="310" x="608" y="455.3203">fieldData : Map&lt;EntryFieldSpec,</text><text fill="#000000" font-family="monospace" font-size="16" lengthAdjust="spacingAndGlyphs" textLength="160" x="608" y="476.2109">EntryFieldDatum&gt;</text><line style="stroke:#A80036;stroke-width:1.5;" x1="603" x2="933" y1="485.0156" y2="485.0156"/><!--MD5=[30299a58ba6b78debaaed5ddbb42f29a]
class Deck--><rect codeLine="27" fill="#FEFECE" height="173.3438" id="Deck" style="stroke:#A80036;stroke-width:1.5;" width="302" x="857" y="111.4531"/><ellipse cx="983.75" cy="127.4531" fill="#ADD1B2" rx="11" ry="11" style="stroke:#A80036;stroke-width:1.0;"/><path d="M986,124.4531 Q986.7031,123.9531 986.6875,123.7031 Q986.6719,123.4531 986.9375,123.4531 Q987.4063,123.4531 987.7031,123.6719 Q988,123.875 988,124.3594 L988,125.5313 Q988,126.0313 987.8594,126.25 Q987.7188,126.4531 987.5,126.4531 Q987.2969,126.4531 987.1875,126.2813 Q987.0625,126.1094 987,125.6563 Q986.9375,125.3438 986.75,125.1719 Q986.3594,124.8438 985.6875,124.6563 Q985.0156,124.4531 984.3438,124.4531 Q983.5,124.4531 982.7188,124.7813 Q981.9531,125.1094 981.4688,125.8438 Q981,126.5625 981,127.5625 L981,128.6406 Q981,129.8438 981.8438,130.6563 Q982.6875,131.4531 984.1875,131.4531 Q985.0781,131.4531 985.7031,131.0469 Q986.0625,130.8125 986.4688,130.125 Q986.7344,129.7031 986.875,129.5781 Q987.0156,129.4531 987.1875,129.4531 Q987.5156,129.4531 987.75,129.7188 Q988,129.9688 988,130.3281 Q988,130.6719 987.1563,131.0781 Q987.1563,131.6719 986.3594,132 Q985.3125,132.4531 984.0313,132.4531 Q982.5313,132.4531 981.3281,131.9219 Q980.3594,131.5 979.6719,130.5938 Q979,129.6719 979,128.5781 L979,127.6094 Q979,126.4688 979.5938,125.5 Q980.2031,124.5156 981.25,123.9844 Q982.3125,123.4531 983.5,123.4531 Q984.2188,123.4531 984.9063,123.6406 Q985.5938,123.8281 986,124.4531 Z " fill="#000000"/><text fill="#000000" font-family="monospace" font-size="16" font-weight="bold" lengthAdjust="spacingAndGlyphs" textLength="40" x="1004.25" y="133.0938">Deck</text><line style="stroke:#A80036;stroke-width:1.5;" x1="858" x2="1158" y1="143.4531" y2="143.4531"/><text fill="#000000" font-family="monospace" font-size="16" lengthAdjust="spacingAndGlyphs" textLength="240" x="863" y="163.5391">id                 : int</text><text fill="#000000" font-family="monospace" font-size="16" lengthAdjust="spacingAndGlyphs" textLength="270" x="863" y="184.4297">name               : String</text><text fill="#000000" font-family="monospace" font-size="16" lengthAdjust="spacingAndGlyphs" textLength="290" x="863" y="205.3203">createdDateTime    : DateTime</text><text fill="#000000" font-family="monospace" font-size="16" lengthAdjust="spacingAndGlyphs" textLength="290" x="863" y="226.2109">lastEditedDateTime : DateTime</text><text fill="#000000" font-family="monospace" font-size="16" lengthAdjust="spacingAndGlyphs" textLength="280" x="863" y="247.1016">authorName         : String?</text><text fill="#000000" font-family="monospace" font-size="16" lengthAdjust="spacingAndGlyphs" textLength="280" x="863" y="267.9922">description        : String?</text><line style="stroke:#A80036;stroke-width:1.5;" x1="858" x2="1158" y1="276.7969" y2="276.7969"/><!--MD5=[4722c72c0cc62bb66b1eedbfdebc182b]
class EntryTag--><rect codeLine="36" fill="#FEFECE" height="89.7813" id="EntryTag" style="stroke:#A80036;stroke-width:1.5;" width="142" x="588" y="700.4531"/><ellipse cx="616.5" cy="716.4531" fill="#ADD1B2" rx="11" ry="11" style="stroke:#A80036;stroke-width:1.0;"/><path d="M618.75,713.4531 Q619.4531,712.9531 619.4375,712.7031 Q619.4219,712.4531 619.6875,712.4531 Q620.1563,712.4531 620.4531,712.6719 Q620.75,712.875 620.75,713.3594 L620.75,714.5313 Q620.75,715.0313 620.6094,715.25 Q620.4688,715.4531 620.25,715.4531 Q620.0469,715.4531 619.9375,715.2813 Q619.8125,715.1094 619.75,714.6563 Q619.6875,714.3438 619.5,714.1719 Q619.1094,713.8438 618.4375,713.6563 Q617.7656,713.4531 617.0938,713.4531 Q616.25,713.4531 615.4688,713.7813 Q614.7031,714.1094 614.2188,714.8438 Q613.75,715.5625 613.75,716.5625 L613.75,717.6406 Q613.75,718.8438 614.5938,719.6563 Q615.4375,720.4531 616.9375,720.4531 Q617.8281,720.4531 618.4531,720.0469 Q618.8125,719.8125 619.2188,719.125 Q619.4844,718.7031 619.625,718.5781 Q619.7656,718.4531 619.9375,718.4531 Q620.2656,718.4531 620.5,718.7188 Q620.75,718.9688 620.75,719.3281 Q620.75,719.6719 619.9063,720.0781 Q619.9063,720.6719 619.1094,721 Q618.0625,721.4531 616.7813,721.4531 Q615.2813,721.4531 614.0781,720.9219 Q613.1094,720.5 612.4219,719.5938 Q611.75,718.6719 611.75,717.5781 L611.75,716.6094 Q611.75,715.4688 612.3438,714.5 Q612.9531,713.5156 614,712.9844 Q615.0625,712.4531 616.25,712.4531 Q616.9688,712.4531 617.6563,712.6406 Q618.3438,712.8281 618.75,713.4531 Z " fill="#000000"/><text fill="#000000" font-family="monospace" font-size="16" font-weight="bold" lengthAdjust="spacingAndGlyphs" textLength="80" x="633.5" y="722.0938">EntryTag</text><line style="stroke:#A80036;stroke-width:1.5;" x1="589" x2="729" y1="732.4531" y2="732.4531"/><text fill="#000000" font-family="monospace" font-size="16" lengthAdjust="spacingAndGlyphs" textLength="100" x="594" y="752.5391">id   : int</text><text fill="#000000" font-family="monospace" font-size="16" lengthAdjust="spacingAndGlyphs" textLength="130" x="594" y="773.4297">name : String</text><line style="stroke:#A80036;stroke-width:1.5;" x1="589" x2="729" y1="782.2344" y2="782.2344"/><!--MD5=[0366a75604b4b181d94e41fa62d982a6]
class EntryFieldDatum--><rect codeLine="41" fill="#FEFECE" height="68.8906" id="EntryFieldDatum" style="stroke:#A80036;stroke-width:1.5;" width="222" x="765" y="710.9531"/><ellipse cx="798" cy="726.9531" fill="#A9DCDF" rx="11" ry="11" style="stroke:#A80036;stroke-width:1.0;"/><path d="M799.4375,727.9531 L796.0625,727.9531 L796.0938,729.9531 L796.0938,729.9531 L796.5,729.9531 L797,730.0938 L797,730.4531 L797,730.8125 L796.5,730.9531 L796.0938,730.9531 L793.7969,730.9531 L793.5,730.9531 L793,730.8125 L793,730.4531 L793,730.0938 L793.5,729.9531 L793.7969,729.9531 L796.1875,722.9531 L795.1875,722.9531 L794.5,722.9531 L794,722.8125 L794,722.4531 L794,722.0938 L794.5,721.9531 L795.1875,721.9531 L799.4531,721.9531 L802.2031,729.9531 L802.5,729.9531 L802.5,729.9531 L803,730.0938 L803,730.4531 L803,730.8125 L802.5,730.9531 L802.2031,730.9531 L800.0781,730.9531 L799.5,730.9531 L799,730.8125 L799,730.4531 L799,730.0938 L799.5,729.9531 L800.0781,729.9531 L800.0781,729.9531 L799.4375,727.9531 Z M799.2344,726.9531 L798,722.6406 L796.7344,726.9531 L799.2344,726.9531 Z " fill="#000000"/><text fill="#000000" font-family="monospace" font-size="16" font-style="italic" font-weight="bold" lengthAdjust="spacingAndGlyphs" textLength="150" x="816" y="732.5938">EntryFieldDatum</text><line style="stroke:#A80036;stroke-width:1.5;" x1="766" x2="986" y1="742.9531" y2="742.9531"/><text fill="#000000" font-family="monospace" font-size="16" lengthAdjust="spacingAndGlyphs" textLength="210" x="771" y="763.0391">type : EntryFieldType</text><line style="stroke:#A80036;stroke-width:1.5;" x1="766" x2="986" y1="771.8438" y2="771.8438"/><!--MD5=[b2d156dca0a40869c1874008509ae15f]
class EntryType--><rect codeLine="45" fill="#FEFECE" height="131.5625" id="EntryType" style="stroke:#A80036;stroke-width:1.5;" width="352" x="47" y="679.4531"/><ellipse cx="173.75" cy="695.4531" fill="#ADD1B2" rx="11" ry="11" style="stroke:#A80036;stroke-width:1.0;"/><path d="M176,692.4531 Q176.7031,691.9531 176.6875,691.7031 Q176.6719,691.4531 176.9375,691.4531 Q177.4063,691.4531 177.7031,691.6719 Q178,691.875 178,692.3594 L178,693.5313 Q178,694.0313 177.8594,694.25 Q177.7188,694.4531 177.5,694.4531 Q177.2969,694.4531 177.1875,694.2813 Q177.0625,694.1094 177,693.6563 Q176.9375,693.3438 176.75,693.1719 Q176.3594,692.8438 175.6875,692.6563 Q175.0156,692.4531 174.3438,692.4531 Q173.5,692.4531 172.7188,692.7813 Q171.9531,693.1094 171.4688,693.8438 Q171,694.5625 171,695.5625 L171,696.6406 Q171,697.8438 171.8438,698.6563 Q172.6875,699.4531 174.1875,699.4531 Q175.0781,699.4531 175.7031,699.0469 Q176.0625,698.8125 176.4688,698.125 Q176.7344,697.7031 176.875,697.5781 Q177.0156,697.4531 177.1875,697.4531 Q177.5156,697.4531 177.75,697.7188 Q178,697.9688 178,698.3281 Q178,698.6719 177.1563,699.0781 Q177.1563,699.6719 176.3594,700 Q175.3125,700.4531 174.0313,700.4531 Q172.5313,700.4531 171.3281,699.9219 Q170.3594,699.5 169.6719,698.5938 Q169,697.6719 169,696.5781 L169,695.6094 Q169,694.4688 169.5938,693.5 Q170.2031,692.5156 171.25,691.9844 Q172.3125,691.4531 173.5,691.4531 Q174.2188,691.4531 174.9063,691.6406 Q175.5938,691.8281 176,692.4531 Z " fill="#000000"/><text fill="#000000" font-family="monospace" font-size="16" font-weight="bold" lengthAdjust="spacingAndGlyphs" textLength="90" x="194.25" y="701.0938">EntryType</text><line style="stroke:#A80036;stroke-width:1.5;" x1="48" x2="398" y1="711.4531" y2="711.4531"/><text fill="#000000" font-family="monospace" font-size="16" lengthAdjust="spacingAndGlyphs" textLength="170" x="53" y="731.5391">id          : int</text><text fill="#000000" font-family="monospace" font-size="16" lengthAdjust="spacingAndGlyphs" textLength="200" x="53" y="752.4297">name        : String</text><text fill="#000000" font-family="monospace" font-size="16" lengthAdjust="spacingAndGlyphs" textLength="300" x="53" y="773.3203">cardFormats : List&lt;CardFormat&gt;</text><text fill="#000000" font-family="monospace" font-size="16" lengthAdjust="spacingAndGlyphs" textLength="340" x="53" y="794.2109">fieldSpecs  : List&lt;EntryFieldSpec&gt;</text><line style="stroke:#A80036;stroke-width:1.5;" x1="48" x2="398" y1="803.0156" y2="803.0156"/><!--MD5=[efd546f96fee886f76cb42981cca7ab1]
class EntryFieldSpec--><rect codeLine="52" fill="#FEFECE" height="110.6719" id="EntryFieldSpec" style="stroke:#A80036;stroke-width:1.5;" width="222" x="339" y="1023.9531"/><ellipse cx="376.5" cy="1039.9531" fill="#ADD1B2" rx="11" ry="11" style="stroke:#A80036;stroke-width:1.0;"/><path d="M378.75,1036.9531 Q379.4531,1036.4531 379.4375,1036.2031 Q379.4219,1035.9531 379.6875,1035.9531 Q380.1563,1035.9531 380.4531,1036.1719 Q380.75,1036.375 380.75,1036.8594 L380.75,1038.0313 Q380.75,1038.5313 380.6094,1038.75 Q380.4688,1038.9531 380.25,1038.9531 Q380.0469,1038.9531 379.9375,1038.7813 Q379.8125,1038.6094 379.75,1038.1563 Q379.6875,1037.8438 379.5,1037.6719 Q379.1094,1037.3438 378.4375,1037.1563 Q377.7656,1036.9531 377.0938,1036.9531 Q376.25,1036.9531 375.4688,1037.2813 Q374.7031,1037.6094 374.2188,1038.3438 Q373.75,1039.0625 373.75,1040.0625 L373.75,1041.1406 Q373.75,1042.3438 374.5938,1043.1563 Q375.4375,1043.9531 376.9375,1043.9531 Q377.8281,1043.9531 378.4531,1043.5469 Q378.8125,1043.3125 379.2188,1042.625 Q379.4844,1042.2031 379.625,1042.0781 Q379.7656,1041.9531 379.9375,1041.9531 Q380.2656,1041.9531 380.5,1042.2188 Q380.75,1042.4688 380.75,1042.8281 Q380.75,1043.1719 379.9063,1043.5781 Q379.9063,1044.1719 379.1094,1044.5 Q378.0625,1044.9531 376.7813,1044.9531 Q375.2813,1044.9531 374.0781,1044.4219 Q373.1094,1044 372.4219,1043.0938 Q371.75,1042.1719 371.75,1041.0781 L371.75,1040.1094 Q371.75,1038.9688 372.3438,1038 Q372.9531,1037.0156 374,1036.4844 Q375.0625,1035.9531 376.25,1035.9531 Q376.9688,1035.9531 377.6563,1036.1406 Q378.3438,1036.3281 378.75,1036.9531 Z " fill="#000000"/><text fill="#000000" font-family="monospace" font-size="16" font-weight="bold" lengthAdjust="spacingAndGlyphs" textLength="140" x="395.5" y="1045.5938">EntryFieldSpec</text><line style="stroke:#A80036;stroke-width:1.5;" x1="340" x2="560" y1="1055.9531" y2="1055.9531"/><text fill="#000000" font-family="monospace" font-size="16" lengthAdjust="spacingAndGlyphs" textLength="100" x="345" y="1076.0391">id   : int</text><text fill="#000000" font-family="monospace" font-size="16" lengthAdjust="spacingAndGlyphs" textLength="210" x="345" y="1096.9297">type : EntryFieldType</text><text fill="#000000" font-family="monospace" font-size="16" lengthAdjust="spacingAndGlyphs" textLength="130" x="345" y="1117.8203">name : String</text><line style="stroke:#A80036;stroke-width:1.5;" x1="340" x2="560" y1="1126.625" y2="1126.625"/><!--MD5=[a2a32ce212da801967a91f887b856d92]
class CardFormat--><rect codeLine="58" fill="#FEFECE" height="131.5625" id="CardFormat" style="stroke:#A80036;stroke-width:1.5;" width="282" x="12" y="1013.4531"/><ellipse cx="98.75" cy="1029.4531" fill="#ADD1B2" rx="11" ry="11" style="stroke:#A80036;stroke-width:1.0;"/><path d="M101,1026.4531 Q101.7031,1025.9531 101.6875,1025.7031 Q101.6719,1025.4531 101.9375,1025.4531 Q102.4063,1025.4531 102.7031,1025.6719 Q103,1025.875 103,1026.3594 L103,1027.5313 Q103,1028.0313 102.8594,1028.25 Q102.7188,1028.4531 102.5,1028.4531 Q102.2969,1028.4531 102.1875,1028.2813 Q102.0625,1028.1094 102,1027.6563 Q101.9375,1027.3438 101.75,1027.1719 Q101.3594,1026.8438 100.6875,1026.6563 Q100.0156,1026.4531 99.3438,1026.4531 Q98.5,1026.4531 97.7188,1026.7813 Q96.9531,1027.1094 96.4688,1027.8438 Q96,1028.5625 96,1029.5625 L96,1030.6406 Q96,1031.8438 96.8438,1032.6563 Q97.6875,1033.4531 99.1875,1033.4531 Q100.0781,1033.4531 100.7031,1033.0469 Q101.0625,1032.8125 101.4688,1032.125 Q101.7344,1031.7031 101.875,1031.5781 Q102.0156,1031.4531 102.1875,1031.4531 Q102.5156,1031.4531 102.75,1031.7188 Q103,1031.9688 103,1032.3281 Q103,1032.6719 102.1563,1033.0781 Q102.1563,1033.6719 101.3594,1034 Q100.3125,1034.4531 99.0313,1034.4531 Q97.5313,1034.4531 96.3281,1033.9219 Q95.3594,1033.5 94.6719,1032.5938 Q94,1031.6719 94,1030.5781 L94,1029.6094 Q94,1028.4688 94.5938,1027.5 Q95.2031,1026.5156 96.25,1025.9844 Q97.3125,1025.4531 98.5,1025.4531 Q99.2188,1025.4531 99.9063,1025.6406 Q100.5938,1025.8281 101,1026.4531 Z " fill="#000000"/><text fill="#000000" font-family="monospace" font-size="16" font-weight="bold" lengthAdjust="spacingAndGlyphs" textLength="100" x="119.25" y="1035.0938">CardFormat</text><line style="stroke:#A80036;stroke-width:1.5;" x1="13" x2="293" y1="1045.4531" y2="1045.4531"/><text fill="#000000" font-family="monospace" font-size="16" lengthAdjust="spacingAndGlyphs" textLength="110" x="18" y="1065.5391">id    : int</text><text fill="#000000" font-family="monospace" font-size="16" lengthAdjust="spacingAndGlyphs" textLength="140" x="18" y="1086.4297">name  : String</text><text fill="#000000" font-family="monospace" font-size="16" lengthAdjust="spacingAndGlyphs" textLength="270" x="18" y="1107.3203">front : CardFormatStructure</text><text fill="#000000" font-family="monospace" font-size="16" lengthAdjust="spacingAndGlyphs" textLength="270" x="18" y="1128.2109">back  : CardFormatStructure</text><line style="stroke:#A80036;stroke-width:1.5;" x1="13" x2="293" y1="1137.0156" y2="1137.0156"/><!--MD5=[2ebb7e34a8accc695b7c3b6efb33eac9]
class CardFormatStructure--><rect codeLine="65" fill="#FEFECE" height="68.8906" id="CardFormatStructure" style="stroke:#A80036;stroke-width:1.5;" width="292" x="7" y="1441.4531"/><ellipse cx="53.75" cy="1457.4531" fill="#ADD1B2" rx="11" ry="11" style="stroke:#A80036;stroke-width:1.0;"/><path d="M56,1454.4531 Q56.7031,1453.9531 56.6875,1453.7031 Q56.6719,1453.4531 56.9375,1453.4531 Q57.4063,1453.4531 57.7031,1453.6719 Q58,1453.875 58,1454.3594 L58,1455.5313 Q58,1456.0313 57.8594,1456.25 Q57.7188,1456.4531 57.5,1456.4531 Q57.2969,1456.4531 57.1875,1456.2813 Q57.0625,1456.1094 57,1455.6563 Q56.9375,1455.3438 56.75,1455.1719 Q56.3594,1454.8438 55.6875,1454.6563 Q55.0156,1454.4531 54.3438,1454.4531 Q53.5,1454.4531 52.7188,1454.7813 Q51.9531,1455.1094 51.4688,1455.8438 Q51,1456.5625 51,1457.5625 L51,1458.6406 Q51,1459.8438 51.8438,1460.6563 Q52.6875,1461.4531 54.1875,1461.4531 Q55.0781,1461.4531 55.7031,1461.0469 Q56.0625,1460.8125 56.4688,1460.125 Q56.7344,1459.7031 56.875,1459.5781 Q57.0156,1459.4531 57.1875,1459.4531 Q57.5156,1459.4531 57.75,1459.7188 Q58,1459.9688 58,1460.3281 Q58,1460.6719 57.1563,1461.0781 Q57.1563,1461.6719 56.3594,1462 Q55.3125,1462.4531 54.0313,1462.4531 Q52.5313,1462.4531 51.3281,1461.9219 Q50.3594,1461.5 49.6719,1460.5938 Q49,1459.6719 49,1458.5781 L49,1457.6094 Q49,1456.4688 49.5938,1455.5 Q50.2031,1454.5156 51.25,1453.9844 Q52.3125,1453.4531 53.5,1453.4531 Q54.2188,1453.4531 54.9063,1453.6406 Q55.5938,1453.8281 56,1454.4531 Z " fill="#000000"/><text fill="#000000" font-family="monospace" font-size="16" font-weight="bold" lengthAdjust="spacingAndGlyphs" textLength="190" x="74.25" y="1463.0938">CardFormatStructure</text><line style="stroke:#A80036;stroke-width:1.5;" x1="8" x2="298" y1="1473.4531" y2="1473.4531"/><text fill="#000000" font-family="monospace" font-size="16" lengthAdjust="spacingAndGlyphs" textLength="280" x="13" y="1493.5391">components : List&lt;Component&gt;</text><line style="stroke:#A80036;stroke-width:1.5;" x1="8" x2="298" y1="1502.3438" y2="1502.3438"/><!--MD5=[4e13963c9dc916a21a8436ef39422b32]
class Component--><rect codeLine="69" fill="#FEFECE" height="89.7813" id="Component" style="stroke:#A80036;stroke-width:1.5;" width="212" x="47" y="1649.4531"/><ellipse cx="103.75" cy="1665.4531" fill="#A9DCDF" rx="11" ry="11" style="stroke:#A80036;stroke-width:1.0;"/><path d="M105.1875,1666.4531 L101.8125,1666.4531 L101.8438,1668.4531 L101.8438,1668.4531 L102.25,1668.4531 L102.75,1668.5938 L102.75,1668.9531 L102.75,1669.3125 L102.25,1669.4531 L101.8438,1669.4531 L99.5469,1669.4531 L99.25,1669.4531 L98.75,1669.3125 L98.75,1668.9531 L98.75,1668.5938 L99.25,1668.4531 L99.5469,1668.4531 L101.9375,1661.4531 L100.9375,1661.4531 L100.25,1661.4531 L99.75,1661.3125 L99.75,1660.9531 L99.75,1660.5938 L100.25,1660.4531 L100.9375,1660.4531 L105.2031,1660.4531 L107.9531,1668.4531 L108.25,1668.4531 L108.25,1668.4531 L108.75,1668.5938 L108.75,1668.9531 L108.75,1669.3125 L108.25,1669.4531 L107.9531,1669.4531 L105.8281,1669.4531 L105.25,1669.4531 L104.75,1669.3125 L104.75,1668.9531 L104.75,1668.5938 L105.25,1668.4531 L105.8281,1668.4531 L105.8281,1668.4531 L105.1875,1666.4531 Z M104.9844,1665.4531 L103.75,1661.1406 L102.4844,1665.4531 L104.9844,1665.4531 Z " fill="#000000"/><text fill="#000000" font-family="monospace" font-size="16" font-style="italic" font-weight="bold" lengthAdjust="spacingAndGlyphs" textLength="90" x="124.25" y="1671.0938">Component</text><line style="stroke:#A80036;stroke-width:1.5;" x1="48" x2="258" y1="1681.4531" y2="1681.4531"/><text fill="#000000" font-family="monospace" font-size="16" lengthAdjust="spacingAndGlyphs" textLength="130" x="53" y="1701.5391">name : String</text><text fill="#000000" font-family="monospace" font-size="16" lengthAdjust="spacingAndGlyphs" textLength="200" x="53" y="1722.4297">type : ComponentType</text><line style="stroke:#A80036;stroke-width:1.5;" x1="48" x2="258" y1="1731.2344" y2="1731.2344"/><!--MD5=[ccc747f01eddbd59fce34d989a37199f]
link Deck to Entry--><path codeLine="74" d="M913.82,288.2231 C889.37,311.4031 863.42,336.0031 840.29,357.9331 " fill="none" id="Deck-Entry" style="stroke:#A80036;stroke-width:1.0;"/><polygon fill="#A80036" points="836.6,361.4231,845.882,358.1301,840.2271,357.9816,840.3756,352.3267,836.6,361.4231" style="stroke:#A80036;stroke-width:1.0;"/><polygon fill="#A80036" points="917.61,284.6331,908.3211,287.9068,913.9757,288.0671,913.8155,293.7217,917.61,284.6331" style="stroke:#A80036;stroke-width:1.0;"/><polygon fill="#000000" points="881.0972,326.0391,887.966,322.7669,884.7308,319.3544,881.0972,326.0391" style="stroke:#000000;stroke-width:1.0;"/><text fill="#000000" font-family="monospace" font-size="12" lengthAdjust="spacingAndGlyphs" textLength="28" x="893" y="327.5176">owns</text><text fill="#000000" font-family="monospace" font-size="12" lengthAdjust="spacingAndGlyphs" textLength="7" x="902.5413" y="304.8051">1</text><text fill="#000000" font-family="monospace" font-size="12" lengthAdjust="spacingAndGlyphs" textLength="28" x="814.9131" y="350.0496">0..*</text><!--MD5=[9979ec116d4477b40d23877d49752063]
link Entry to Card--><path codeLine="75" d="M938.69,467.4531 C993.35,490.7931 1040,527.6431 1040,585.4531 C1040,585.4531 1040,585.4531 1040,1080.4531 C1040,1143.0631 1040,1214.7231 1040,1264.0131 " fill="none" id="Entry-Card" style="stroke:#A80036;stroke-width:1.0;"/><polygon fill="#A80036" points="1040,1269.3131,1044,1260.3131,1040,1264.3131,1036,1260.3131,1040,1269.3131" style="stroke:#A80036;stroke-width:1.0;"/><polygon fill="#A80036" points="934.06,465.5131,940.8214,472.6744,938.6733,467.4413,943.9064,465.2932,934.06,465.5131" style="stroke:#A80036;stroke-width:1.0;"/><polygon fill="#000000" points="1044.5047,854.2551,1045.9241,846.7803,1041.2594,847.3735,1044.5047,854.2551" style="stroke:#000000;stroke-width:1.0;"/><text fill="#000000" font-family="monospace" font-size="12" lengthAdjust="spacingAndGlyphs" textLength="63" x="1053" y="854.5176">generates</text><text fill="#000000" font-family="monospace" font-size="12" lengthAdjust="spacingAndGlyphs" textLength="7" x="941.7432" y="463.9874">1</text><text fill="#000000" font-family="monospace" font-size="12" lengthAdjust="spacingAndGlyphs" textLength="28" x="1010.1188" y="1257.9601">1..*</text><!--MD5=[c905f1b8e8f3426bca82a4905da2e16e]
link Deck to Card--><path codeLine="76" d="M1088.75,288.8431 C1116.16,328.2431 1140,376.7731 1140,426.4531 C1140,426.4531 1140,426.4531 1140,1080.4531 C1140,1147.0831 1107.56,1216.8031 1079.64,1264.4731 " fill="none" id="Deck-Card" style="stroke:#A80036;stroke-width:1.0;"/><polygon fill="#A80036" points="1076.95,1269.0131,1084.9742,1263.3024,1079.4951,1264.7093,1078.0881,1259.2303,1076.95,1269.0131" style="stroke:#A80036;stroke-width:1.0;"/><polygon fill="#A80036" points="1085.74,284.5731,1087.6424,294.2365,1088.615,288.6639,1094.1876,289.6365,1085.74,284.5731" style="stroke:#A80036;stroke-width:1.0;"/><polygon fill="#000000" points="1143.9627,749.7869,1146.3813,742.5731,1141.6792,742.5292,1143.9627,749.7869" style="stroke:#000000;stroke-width:1.0;"/><text fill="#000000" font-family="monospace" font-size="12" lengthAdjust="spacingAndGlyphs" textLength="28" x="1153" y="750.0176">owns</text><text fill="#000000" font-family="monospace" font-size="12" lengthAdjust="spacingAndGlyphs" textLength="7" x="1085.12" y="304.7399">1</text><text fill="#000000" font-family="monospace" font-size="12" lengthAdjust="spacingAndGlyphs" textLength="28" x="1051.8905" y="1258.0131">0..*</text><!--MD5=[aaeb6ccba3c6ba94b26795672558142d]
reverse link Entry to EntryTag--><path codeLine="77" d="M714.92,504.9931 C705.79,520.7931 697.25,537.7431 691,554.4531 C673.08,602.3931 665.15,660.8931 661.67,700.2131 " fill="none" id="Entry-backto-EntryTag" style="stroke:#A80036;stroke-width:1.0;"/><polygon fill="#FFFFFF" points="721.64,493.7031,715.1353,496.8159,715.5068,504.0174,722.0115,500.9047,721.64,493.7031" style="stroke:#A80036;stroke-width:1.0;"/><polygon fill="#000000" points="693.9474,590.3141,698.1199,583.9518,693.5833,582.7144,693.9474,590.3141" style="stroke:#000000;stroke-width:1.0;"/><text fill="#000000" font-family="monospace" font-size="12" lengthAdjust="spacingAndGlyphs" textLength="14" x="742.5" y="575.0176">is</text><text fill="#000000" font-family="monospace" font-size="12" lengthAdjust="spacingAndGlyphs" textLength="91" x="704" y="590.6855">categorizable</text><text fill="#000000" font-family="monospace" font-size="12" lengthAdjust="spacingAndGlyphs" textLength="14" x="746" y="606.3535">by</text><text fill="#000000" font-family="monospace" font-size="12" lengthAdjust="spacingAndGlyphs" textLength="28" x="687.6983" y="513.0818">0..*</text><text fill="#000000" font-family="monospace" font-size="12" lengthAdjust="spacingAndGlyphs" textLength="28" x="631.8643" y="688.9428">0..*</text><!--MD5=[70d7557a94af25ce1808f2d96c9065c9]
reverse link Entry to EntryFieldDatum--><path codeLine="78" d="M794.46,505.8731 C816.84,571.3531 847.84,662.0531 864.43,710.5931 " fill="none" id="Entry-backto-EntryFieldDatum" style="stroke:#A80036;stroke-width:1.0;"/><polygon fill="#A80036" points="790.25,493.5431,788.4107,500.5157,794.1395,504.8953,795.9788,497.9227,790.25,493.5431" style="stroke:#A80036;stroke-width:1.0;"/><polygon fill="#000000" points="837.2937,590.4061,837.1782,582.7985,832.7286,584.3193,837.2937,590.4061" style="stroke:#000000;stroke-width:1.0;"/><text fill="#000000" font-family="monospace" font-size="12" lengthAdjust="spacingAndGlyphs" textLength="77" x="848.5" y="583.0176">has data of</text><text fill="#000000" font-family="monospace" font-size="12" lengthAdjust="spacingAndGlyphs" textLength="91" x="845" y="598.6855">each field in</text><text fill="#000000" font-family="monospace" font-size="12" lengthAdjust="spacingAndGlyphs" textLength="91" x="807.2301" y="513.045">&lt;&lt;qualifier&gt;&gt;</text><text fill="#000000" font-family="monospace" font-size="12" lengthAdjust="spacingAndGlyphs" textLength="112" x="796.7301" y="528.713">[EntryFieldSpec]</text><text fill="#000000" font-family="monospace" font-size="12" lengthAdjust="spacingAndGlyphs" textLength="7" x="849.2301" y="544.381">1</text><text fill="#000000" font-family="monospace" font-size="12" lengthAdjust="spacingAndGlyphs" textLength="7" x="854.4631" y="699.3945">1</text><!--MD5=[255c1cea35baf15e69e7ce5cb9234b82]
link Entry to EntryFieldSpec--><path codeLine="79" d="M601.89,455.5431 C533.07,477.1831 469,515.9731 469,585.4531 C469,585.4531 469,585.4531 469,921.4531 C469,953.7631 464.98,989.5531 460.65,1018.7831 " fill="none" id="Entry-to-EntryFieldSpec" style="stroke:#A80036;stroke-width:1.0;stroke-dasharray:7.0,7.0;"/><polygon fill="#A80036" points="459.89,1023.7931,465.2066,1015.5025,460.6471,1018.8508,457.2988,1014.2912,459.89,1023.7931" style="stroke:#A80036;stroke-width:1.0;"/><polygon fill="#000000" points="472.0271,749.667,476.0676,743.2201,471.5066,742.0764,472.0271,749.667" style="stroke:#000000;stroke-width:1.0;"/><text fill="#000000" font-family="monospace" font-size="12" lengthAdjust="spacingAndGlyphs" textLength="70" x="482" y="750.0176">depends on</text><!--MD5=[cfec0ab29adb9efd8a6c964edc7a195e]
link Entry to EntryType--><path codeLine="80" d="M597.01,446.7531 C509.99,463.2631 406.86,494.6831 331,554.4531 C292.05,585.1431 264.72,634.0131 247.3,674.5031 " fill="none" id="Entry-EntryType" style="stroke:#A80036;stroke-width:1.0;"/><polygon fill="#A80036" points="245.23,679.4031,252.4342,672.6876,247.1875,674.8022,245.0728,669.5555,245.23,679.4031" style="stroke:#A80036;stroke-width:1.0;"/><polygon fill="#A80036" points="601.93,445.8331,592.3438,443.5737,597.0169,446.7615,593.8292,451.4346,601.93,445.8331" style="stroke:#A80036;stroke-width:1.0;"/><polygon fill="#000000" points="331.6481,588.972,338.9948,586.9932,336.4286,583.0529,331.6481,588.972" style="stroke:#000000;stroke-width:1.0;"/><text fill="#000000" font-family="monospace" font-size="12" lengthAdjust="spacingAndGlyphs" textLength="98" x="344" y="567.5176">has fields and</text><text fill="#000000" font-family="monospace" font-size="12" lengthAdjust="spacingAndGlyphs" textLength="28" x="375.5" y="583.1855">Card</text><text fill="#000000" font-family="monospace" font-size="12" lengthAdjust="spacingAndGlyphs" textLength="70" x="354.5" y="598.8535">generation</text><text fill="#000000" font-family="monospace" font-size="12" lengthAdjust="spacingAndGlyphs" textLength="70" x="358" y="614.5215">defined by</text><text fill="#000000" font-family="monospace" font-size="12" lengthAdjust="spacingAndGlyphs" textLength="28" x="565.7706" y="443.4156">0..*</text><text fill="#000000" font-family="monospace" font-size="12" lengthAdjust="spacingAndGlyphs" textLength="7" x="240.3957" y="668.0273">1</text><!--MD5=[2aac9294946bbd31e65ecbfd6b136182]
reverse link EntryType to CardFormat--><path codeLine="81" d="M189.78,824.0231 C182.14,844.6331 174.85,867.1031 170,888.4531 C160.73,929.3031 156.47,976.1831 154.53,1013.1431 " fill="none" id="EntryType-backto-CardFormat" style="stroke:#A80036;stroke-width:1.0;"/><polygon fill="#A80036" points="194.43,811.7931,188.5553,815.9749,190.1559,823.0061,196.0306,818.8243,194.43,811.7931" style="stroke:#A80036;stroke-width:1.0;"/><polygon fill="#000000" points="173.2671,924.7213,176.9043,918.0386,172.2816,917.177,173.2671,924.7213" style="stroke:#000000;stroke-width:1.0;"/><text fill="#000000" font-family="monospace" font-size="12" lengthAdjust="spacingAndGlyphs" textLength="84" x="183" y="901.5176">contains for</text><text fill="#000000" font-family="monospace" font-size="12" lengthAdjust="spacingAndGlyphs" textLength="63" x="193.5" y="917.1855">each Card</text><text fill="#000000" font-family="monospace" font-size="12" lengthAdjust="spacingAndGlyphs" textLength="84" x="183" y="932.8535">generated by</text><text fill="#000000" font-family="monospace" font-size="12" lengthAdjust="spacingAndGlyphs" textLength="70" x="193.5" y="948.5215">each Entry</text><text fill="#000000" font-family="monospace" font-size="12" lengthAdjust="spacingAndGlyphs" textLength="7" x="184.2731" y="831.1806">1</text><text fill="#000000" font-family="monospace" font-size="12" lengthAdjust="spacingAndGlyphs" textLength="28" x="125.0882" y="1001.7372">1..*</text><!--MD5=[fb4432f1c08088e56047396f0082ea25]
link CardFormat to Card--><path codeLine="82" d="M299.24,1138.2831 C306.57,1140.7831 313.85,1143.1931 321,1145.4531 C543.17,1215.7031 810.98,1275.9231 948.56,1305.1231 " fill="none" id="CardFormat-Card" style="stroke:#A80036;stroke-width:1.0;"/><polygon fill="#A80036" points="953.81,1306.2331,945.8398,1300.4473,948.9195,1305.1923,944.1745,1308.272,953.81,1306.2331" style="stroke:#A80036;stroke-width:1.0;"/><polygon fill="#A80036" points="294.16,1136.5331,301.3669,1143.2458,298.8875,1138.1613,303.972,1135.6819,294.16,1136.5331" style="stroke:#A80036;stroke-width:1.0;"/><polygon fill="#000000" points="661.8742,1208.7845,655.4509,1204.7066,654.2806,1209.2609,661.8742,1208.7845" style="stroke:#000000;stroke-width:1.0;"/><text fill="#000000" font-family="monospace" font-size="12" lengthAdjust="spacingAndGlyphs" textLength="63" x="681" y="1188.5176">specifies</text><text fill="#000000" font-family="monospace" font-size="12" lengthAdjust="spacingAndGlyphs" textLength="91" x="667" y="1204.1855">display style</text><text fill="#000000" font-family="monospace" font-size="12" lengthAdjust="spacingAndGlyphs" textLength="91" x="667" y="1219.8535">and structure</text><text fill="#000000" font-family="monospace" font-size="12" lengthAdjust="spacingAndGlyphs" textLength="14" x="709" y="1235.5215">of</text><text fill="#000000" font-family="monospace" font-size="12" lengthAdjust="spacingAndGlyphs" textLength="7" x="302.0711" y="1136.3392">1</text><text fill="#000000" font-family="monospace" font-size="12" lengthAdjust="spacingAndGlyphs" textLength="28" x="918.1392" y="1301.3282">0..*</text><!--MD5=[16d0c882c8d324787220be535d491a6e]
reverse link EntryType to EntryFieldSpec--><path codeLine="83" d="M264.52,823.1231 C286.91,862.6931 315.87,911.1931 345,952.4531 C362.16,976.7631 382.81,1002.2231 401.24,1023.8431 " fill="none" id="EntryType-backto-EntryFieldSpec" style="stroke:#A80036;stroke-width:1.0;"/><polygon fill="#A80036" points="258.09,811.6831,257.5448,818.8736,263.9725,822.1424,264.5177,814.9519,258.09,811.6831" style="stroke:#A80036;stroke-width:1.0;"/><polygon fill="#000000" points="351.2518,923.927,349.1214,916.6229,345.235,919.2701,351.2518,923.927" style="stroke:#000000;stroke-width:1.0;"/><text fill="#000000" font-family="monospace" font-size="12" lengthAdjust="spacingAndGlyphs" textLength="70" x="361.5" y="917.0176">has fields</text><text fill="#000000" font-family="monospace" font-size="12" lengthAdjust="spacingAndGlyphs" textLength="84" x="358" y="932.6855">specified by</text><text fill="#000000" font-family="monospace" font-size="12" lengthAdjust="spacingAndGlyphs" textLength="7" x="254.1996" y="831.0598">1</text><text fill="#000000" font-family="monospace" font-size="12" lengthAdjust="spacingAndGlyphs" textLength="28" x="364.8066" y="1012.4941">1..*</text><!--MD5=[499010a3f9f5c1505401b65f50e7d61b]
reverse link CardFormat to CardFormatStructure--><path codeLine="84" d="M153,1158.7131 C153,1244.7931 153,1379.1231 153,1441.2931 " fill="none" id="CardFormat-backto-CardFormatStructure" style="stroke:#A80036;stroke-width:1.0;"/><polygon fill="#A80036" points="153,1145.5931,149,1151.5931,153,1157.5931,157,1151.5931,153,1145.5931" style="stroke:#A80036;stroke-width:1.0;"/><polygon fill="#000000" points="157,1329.1211,159.3511,1321.885,154.6489,1321.885,157,1329.1211" style="stroke:#000000;stroke-width:1.0;"/><text fill="#000000" font-family="monospace" font-size="12" lengthAdjust="spacingAndGlyphs" textLength="91" x="166" y="1321.5176">has structure</text><text fill="#000000" font-family="monospace" font-size="12" lengthAdjust="spacingAndGlyphs" textLength="84" x="173" y="1337.1855">specified by</text><text fill="#000000" font-family="monospace" font-size="12" lengthAdjust="spacingAndGlyphs" textLength="7" x="145.6391" y="1165.3087">1</text><text fill="#000000" font-family="monospace" font-size="12" lengthAdjust="spacingAndGlyphs" textLength="7" x="145.2781" y="1429.7422">2</text><!--MD5=[2e2e4d03125a574c29033226ea946ab3]
reverse link CardFormatStructure to Component--><path codeLine="85" d="M153,1523.8031 C153,1561.0731 153,1612.8531 153,1649.3831 " fill="none" id="CardFormatStructure-backto-Component" style="stroke:#A80036;stroke-width:1.0;"/><polygon fill="#A80036" points="153,1510.7831,149,1516.7831,153,1522.7831,157,1516.7831,153,1510.7831" style="stroke:#A80036;stroke-width:1.0;"/><polygon fill="#000000" points="157,1584.2871,159.3511,1577.051,154.6489,1577.051,157,1584.2871" style="stroke:#000000;stroke-width:1.0;"/><text fill="#000000" font-family="monospace" font-size="12" lengthAdjust="spacingAndGlyphs" textLength="98" x="166" y="1584.5176">is composed of</text><text fill="#000000" font-family="monospace" font-size="12" lengthAdjust="spacingAndGlyphs" textLength="7" x="145.3766" y="1530.4568">1</text><text fill="#000000" font-family="monospace" font-size="12" lengthAdjust="spacingAndGlyphs" textLength="28" x="122.6813" y="1637.8141">0..*</text><text fill="#888888" font-family="monospace" font-size="16" lengthAdjust="spacingAndGlyphs" textLength="300" x="438" y="1761.3203">Copyright (C) 2020 Cervon Wong</text><!--MD5=[962ee1a3627b6107a0b16c16ca4dd90c]
@startuml
skinparam classAttributeIconSize 0
skinparam wrapWidth 400

skinparam maxMessageSize 100
skinparam shadowing false
skinparam defaultFontName monospaced
skinparam defaultFontSize 16
skinparam classFontStyle bold
skinparam arrowFontSize 12
skinparam titleFontSize 24
skinparam titleFontStyle bold

header This diagram is part of a visualisation of the code written for Sona.\n View the project at github.com/cervonwong/sona-flutter.
title Relationships of material entities.\n
footer Copyright (C) 2020 Cervon Wong

class Card {
	id        : int
	isStarred : bool
	isHidden  : bool
}

class Entry {
	id        : int
	tags      : Set<EntryTag>
	fieldData : Map<EntryFieldSpec, EntryFieldDatum>
}

class Deck {
	id                 : int
	name               : String
	createdDateTime    : DateTime
	lastEditedDateTime : DateTime
	authorName         : String?
	description        : String?
}

class EntryTag {
	id   : int
	name : String
}

abstract class EntryFieldDatum {
	type : EntryFieldType
}

class EntryType {
	id          : int
	name        : String
	cardFormats : List<CardFormat>
	fieldSpecs  : List<EntryFieldSpec>
}

class EntryFieldSpec {
	id   : int
	type : EntryFieldType
	name : String
}

class CardFormat {
	id    : int
	name  : String
	front : CardFormatStructure
	back  : CardFormatStructure
}

class CardFormatStructure {
	components : List<Component>
}

abstract class Component {
	name : String
	type : ComponentType
}

Deck                "1"                                  <- -> "0..*" Entry               : owns >
Entry               "1"                                  <- -> "1..*" Card                : generates >
Deck                "1"                                  <- -> "0..*" Card                : owns >
Entry               "0..*"                               o- - - "0..*" EntryTag            : is categorizable by >
Entry               "<<qualifier>>\n[EntryFieldSpec]\n1" *- - - "1"    EntryFieldDatum     : has data of each field in >
Entry                                                    ..>         EntryFieldSpec      : depends on >
Entry               "0..*"                               <- - -> "1"   EntryType           : has fields and Card generation defined by >
EntryType           "1"                                  *- - - "1..*" CardFormat          : contains for each Card generated by each Entry >
CardFormat          "1"                                  <- -> "0..*" Card                : specifies display style and structure of >
EntryType           "1"                                  *- - - "1..*" EntryFieldSpec      : has fields specified by >
CardFormat          "1"                                  *- - - "2"    CardFormatStructure : has structure specified by >
CardFormatStructure "1"                                  *- - - "0..*" Component           : is composed of >

@enduml

PlantUML version 1.2020.23(Mon Dec 14 03:14:58 SGT 2020)
(GPL source distribution)
Java Runtime: OpenJDK Runtime Environment
JVM: OpenJDK 64-Bit Server VM
Default Encoding: Cp1252
Language: en
Country: GB
--></g></svg>