<?xml version="1.0" encoding="UTF-8" standalone="no"?><svg xmlns="http://www.w3.org/2000/svg" xmlns:xlink="http://www.w3.org/1999/xlink" contentScriptType="application/ecmascript" contentStyleType="text/css" height="1061.4px" preserveAspectRatio="none" style="width:946px;height:1061px;background:#FFFFFF;" version="1.1" viewBox="0 0 946 1061" width="946.2px" zoomAndPan="magnify"><defs/><g><text fill="#888888" font-family="monospace" font-size="9.6" lengthAdjust="spacing" textLength="414" x="524.4" y="9.6516">This diagram is part of a visualisation of the code written for Sona.</text><text fill="#888888" font-family="monospace" font-size="9.6" lengthAdjust="spacing" textLength="330" x="608.4" y="22.1859">View the project at github.com/cervonwong/sona-flutter.</text><text fill="#000000" font-family="monospace" font-size="14.4" font-weight="bold" lengthAdjust="spacing" textLength="294" x="322.2" y="39.5461">Relationships of material entities.</text><text fill="#000000" font-family="monospace" font-size="14.4" font-weight="bold" lengthAdjust="spacing" textLength="0" x="473.4" y="58.3477"/><!--MD5=[5e305716458bbdabbd2d7f572ed2bae2]
class Card--><rect codeLine="15" fill="#FEFECE" height="66.4031" id="Card" style="stroke:#A80036;stroke-width:0.8999999999999999;" width="103.2" x="94.8" y="761.6719"/><ellipse cx="131.85" cy="771.2719" fill="#ADD1B2" rx="6.6" ry="6.6" style="stroke:#A80036;stroke-width:0.6;"/><path d="M133.2,769.4719 Q133.6219,769.1719 133.6125,769.0219 Q133.6031,768.8719 133.7625,768.8719 Q134.0438,768.8719 134.2219,769.0031 Q134.4,769.125 134.4,769.4156 L134.4,770.1188 Q134.4,770.4187 134.3156,770.55 Q134.2313,770.6719 134.1,770.6719 Q133.9781,770.6719 133.9125,770.5688 Q133.8375,770.4656 133.8,770.1938 Q133.7625,770.0063 133.65,769.9031 Q133.4156,769.7063 133.0125,769.5938 Q132.6094,769.4719 132.2062,769.4719 Q131.7,769.4719 131.2313,769.6687 Q130.7719,769.8656 130.4813,770.3063 Q130.2,770.7375 130.2,771.3375 L130.2,771.9844 Q130.2,772.7063 130.7062,773.1938 Q131.2125,773.6719 132.1125,773.6719 Q132.6469,773.6719 133.0219,773.4281 Q133.2375,773.2875 133.4813,772.875 Q133.6406,772.6219 133.725,772.5469 Q133.8094,772.4719 133.9125,772.4719 Q134.1094,772.4719 134.25,772.6313 Q134.4,772.7813 134.4,772.9969 Q134.4,773.2031 133.8937,773.4469 Q133.8937,773.8031 133.4156,774 Q132.7875,774.2719 132.0187,774.2719 Q131.1188,774.2719 130.3969,773.9531 Q129.8156,773.7 129.4031,773.1563 Q129,772.6031 129,771.9469 L129,771.3656 Q129,770.6813 129.3563,770.1 Q129.7219,769.5094 130.35,769.1906 Q130.9875,768.8719 131.7,768.8719 Q132.1313,768.8719 132.5438,768.9844 Q132.9562,769.0969 133.2,769.4719 Z " fill="#000000"/><text fill="#000000" font-family="monospace" font-size="9.6" font-weight="bold" lengthAdjust="spacing" textLength="24" x="144.15" y="774.6563">Card</text><line style="stroke:#A80036;stroke-width:0.8999999999999999;" x1="95.4" x2="197.4" y1="780.8719" y2="780.8719"/><text fill="#000000" font-family="monospace" font-size="9.6" lengthAdjust="spacing" textLength="90" x="98.4" y="792.9234">id        : int</text><text fill="#000000" font-family="monospace" font-size="9.6" lengthAdjust="spacing" textLength="96" x="98.4" y="805.4578">isStarred : bool</text><text fill="#000000" font-family="monospace" font-size="9.6" lengthAdjust="spacing" textLength="96" x="98.4" y="817.9922">isHidden  : bool</text><line style="stroke:#A80036;stroke-width:0.8999999999999999;" x1="95.4" x2="197.4" y1="823.275" y2="823.275"/><!--MD5=[96293e8b231702a792e4ba32419ac2da]
class Entry--><rect codeLine="21" fill="#FEFECE" height="66.4031" id="Entry" style="stroke:#A80036;stroke-width:0.8999999999999999;" width="163.2" x="202.2" y="229.4719"/><ellipse cx="266.25" cy="239.0719" fill="#ADD1B2" rx="6.6" ry="6.6" style="stroke:#A80036;stroke-width:0.6;"/><path d="M267.6,237.2719 Q268.0219,236.9719 268.0125,236.8219 Q268.0031,236.6719 268.1625,236.6719 Q268.4437,236.6719 268.6219,236.8031 Q268.8,236.925 268.8,237.2156 L268.8,237.9188 Q268.8,238.2188 268.7156,238.35 Q268.6312,238.4719 268.5,238.4719 Q268.3781,238.4719 268.3125,238.3687 Q268.2375,238.2656 268.2,237.9937 Q268.1625,237.8062 268.05,237.7031 Q267.8156,237.5063 267.4125,237.3937 Q267.0094,237.2719 266.6063,237.2719 Q266.1,237.2719 265.6312,237.4688 Q265.1719,237.6656 264.8812,238.1063 Q264.6,238.5375 264.6,239.1375 L264.6,239.7844 Q264.6,240.5063 265.1063,240.9937 Q265.6125,241.4719 266.5125,241.4719 Q267.0469,241.4719 267.4219,241.2281 Q267.6375,241.0875 267.8812,240.675 Q268.0406,240.4219 268.125,240.3469 Q268.2094,240.2719 268.3125,240.2719 Q268.5094,240.2719 268.65,240.4312 Q268.8,240.5812 268.8,240.7969 Q268.8,241.0031 268.2938,241.2469 Q268.2938,241.6031 267.8156,241.8 Q267.1875,242.0719 266.4188,242.0719 Q265.5188,242.0719 264.7969,241.7531 Q264.2156,241.5 263.8031,240.9562 Q263.4,240.4031 263.4,239.7469 L263.4,239.1656 Q263.4,238.4813 263.7562,237.9 Q264.1219,237.3094 264.75,236.9906 Q265.3875,236.6719 266.1,236.6719 Q266.5313,236.6719 266.9437,236.7844 Q267.3563,236.8969 267.6,237.2719 Z " fill="#000000"/><text fill="#000000" font-family="monospace" font-size="9.6" font-weight="bold" lengthAdjust="spacing" textLength="30" x="278.55" y="242.4562">Entry</text><line style="stroke:#A80036;stroke-width:0.8999999999999999;" x1="202.8" x2="364.8" y1="248.6719" y2="248.6719"/><text fill="#000000" font-family="monospace" font-size="9.6" lengthAdjust="spacing" textLength="90" x="205.8" y="260.7234">id        : int</text><text fill="#000000" font-family="monospace" font-size="9.6" lengthAdjust="spacing" textLength="150" x="205.8" y="273.2578">tags      : Set&lt;EntryTag&gt;</text><text fill="#000000" font-family="monospace" font-size="9.6" lengthAdjust="spacing" textLength="156" x="205.8" y="285.7922">fieldData : EntryFieldData</text><line style="stroke:#A80036;stroke-width:0.8999999999999999;" x1="202.8" x2="364.8" y1="291.075" y2="291.075"/><!--MD5=[30299a58ba6b78debaaed5ddbb42f29a]
class Deck--><rect codeLine="27" fill="#FEFECE" height="116.5406" id="Deck" style="stroke:#A80036;stroke-width:0.8999999999999999;" width="205.2" x="4.2" y="66.8719"/><ellipse cx="92.25" cy="76.4719" fill="#ADD1B2" rx="6.6" ry="6.6" style="stroke:#A80036;stroke-width:0.6;"/><path d="M93.6,74.6719 Q94.0219,74.3719 94.0125,74.2219 Q94.0031,74.0719 94.1625,74.0719 Q94.4438,74.0719 94.6219,74.2031 Q94.8,74.325 94.8,74.6156 L94.8,75.3188 Q94.8,75.6187 94.7156,75.75 Q94.6313,75.8719 94.5,75.8719 Q94.3781,75.8719 94.3125,75.7688 Q94.2375,75.6656 94.2,75.3938 Q94.1625,75.2063 94.05,75.1031 Q93.8156,74.9063 93.4125,74.7938 Q93.0094,74.6719 92.6063,74.6719 Q92.1,74.6719 91.6313,74.8687 Q91.1719,75.0656 90.8813,75.5063 Q90.6,75.9375 90.6,76.5375 L90.6,77.1844 Q90.6,77.9063 91.1063,78.3938 Q91.6125,78.8719 92.5125,78.8719 Q93.0469,78.8719 93.4219,78.6281 Q93.6375,78.4875 93.8813,78.075 Q94.0406,77.8219 94.125,77.7469 Q94.2094,77.6719 94.3125,77.6719 Q94.5094,77.6719 94.65,77.8313 Q94.8,77.9813 94.8,78.1969 Q94.8,78.4031 94.2938,78.6469 Q94.2938,79.0031 93.8156,79.2 Q93.1875,79.4719 92.4188,79.4719 Q91.5188,79.4719 90.7969,79.1531 Q90.2156,78.9 89.8031,78.3563 Q89.4,77.8031 89.4,77.1469 L89.4,76.5656 Q89.4,75.8813 89.7563,75.3 Q90.1219,74.7094 90.75,74.3906 Q91.3875,74.0719 92.1,74.0719 Q92.5313,74.0719 92.9438,74.1844 Q93.3563,74.2969 93.6,74.6719 Z " fill="#000000"/><text fill="#000000" font-family="monospace" font-size="9.6" font-weight="bold" lengthAdjust="spacing" textLength="24" x="104.55" y="79.8563">Deck</text><line style="stroke:#A80036;stroke-width:0.8999999999999999;" x1="4.8" x2="208.8" y1="86.0719" y2="86.0719"/><text fill="#000000" font-family="monospace" font-size="9.6" lengthAdjust="spacing" textLength="144" x="7.8" y="98.1234">id                 : int</text><text fill="#000000" font-family="monospace" font-size="9.6" lengthAdjust="spacing" textLength="162" x="7.8" y="110.6578">name               : String</text><text fill="#000000" font-family="monospace" font-size="9.6" lengthAdjust="spacing" textLength="174" x="7.8" y="123.1922">createdDateTime    : DateTime</text><text fill="#000000" font-family="monospace" font-size="9.6" lengthAdjust="spacing" textLength="174" x="7.8" y="135.7266">lastEditedDateTime : DateTime</text><text fill="#000000" font-family="monospace" font-size="9.6" lengthAdjust="spacing" textLength="168" x="7.8" y="148.2609">authorName         : String?</text><text fill="#000000" font-family="monospace" font-size="9.6" lengthAdjust="spacing" textLength="168" x="7.8" y="160.7953">description        : String?</text><text fill="#000000" font-family="monospace" font-size="9.6" lengthAdjust="spacing" textLength="198" x="7.8" y="173.3297">iconData           : DeckIconData</text><line style="stroke:#A80036;stroke-width:0.8999999999999999;" x1="4.8" x2="208.8" y1="178.6125" y2="178.6125"/><!--MD5=[9c5f926e3992febf48e8e5623ee2cb6d]
class DeckIconData--><rect codeLine="37" fill="#FEFECE" height="53.8688" id="DeckIconData" style="stroke:#A80036;stroke-width:0.8999999999999999;" width="151.2" x="230.4" y="98.0719"/><ellipse cx="267.45" cy="107.6719" fill="#ADD1B2" rx="6.6" ry="6.6" style="stroke:#A80036;stroke-width:0.6;"/><path d="M268.8,105.8719 Q269.2219,105.5719 269.2125,105.4219 Q269.2031,105.2719 269.3625,105.2719 Q269.6438,105.2719 269.8219,105.4031 Q270,105.525 270,105.8156 L270,106.5188 Q270,106.8188 269.9156,106.95 Q269.8313,107.0719 269.7,107.0719 Q269.5781,107.0719 269.5125,106.9688 Q269.4375,106.8656 269.4,106.5938 Q269.3625,106.4063 269.25,106.3031 Q269.0156,106.1063 268.6125,105.9937 Q268.2094,105.8719 267.8063,105.8719 Q267.3,105.8719 266.8313,106.0688 Q266.3719,106.2656 266.0813,106.7063 Q265.8,107.1375 265.8,107.7375 L265.8,108.3844 Q265.8,109.1063 266.3063,109.5938 Q266.8125,110.0719 267.7125,110.0719 Q268.2469,110.0719 268.6219,109.8281 Q268.8375,109.6875 269.0813,109.275 Q269.2406,109.0219 269.325,108.9469 Q269.4094,108.8719 269.5125,108.8719 Q269.7094,108.8719 269.85,109.0313 Q270,109.1812 270,109.3969 Q270,109.6031 269.4938,109.8469 Q269.4938,110.2031 269.0156,110.4 Q268.3875,110.6719 267.6188,110.6719 Q266.7188,110.6719 265.9969,110.3531 Q265.4156,110.1 265.0031,109.5562 Q264.6,109.0031 264.6,108.3469 L264.6,107.7656 Q264.6,107.0813 264.9563,106.5 Q265.3219,105.9094 265.95,105.5906 Q266.5875,105.2719 267.3,105.2719 Q267.7313,105.2719 268.1438,105.3844 Q268.5563,105.4969 268.8,105.8719 Z " fill="#000000"/><text fill="#000000" font-family="monospace" font-size="9.6" font-weight="bold" lengthAdjust="spacing" textLength="72" x="279.75" y="111.0562">DeckIconData</text><line style="stroke:#A80036;stroke-width:0.8999999999999999;" x1="231" x2="381" y1="117.2719" y2="117.2719"/><text fill="#000000" font-family="monospace" font-size="9.6" lengthAdjust="spacing" textLength="138" x="234" y="129.3234">color   : DeckIconColor</text><text fill="#000000" font-family="monospace" font-size="9.6" lengthAdjust="spacing" textLength="144" x="234" y="141.8578">symbol  : DeckIconSymbol</text><line style="stroke:#A80036;stroke-width:0.8999999999999999;" x1="231" x2="381" y1="147.1406" y2="147.1406"/><!--MD5=[4722c72c0cc62bb66b1eedbfdebc182b]
class EntryTag--><rect codeLine="42" fill="#FEFECE" height="53.8688" id="EntryTag" style="stroke:#A80036;stroke-width:0.8999999999999999;" width="85.2" x="856.8" y="420.2719"/><ellipse cx="873.9" cy="429.8719" fill="#ADD1B2" rx="6.6" ry="6.6" style="stroke:#A80036;stroke-width:0.6;"/><path d="M875.25,428.0719 Q875.6719,427.7719 875.6625,427.6219 Q875.6531,427.4719 875.8125,427.4719 Q876.0938,427.4719 876.2719,427.6031 Q876.45,427.725 876.45,428.0156 L876.45,428.7188 Q876.45,429.0188 876.3656,429.15 Q876.2813,429.2719 876.15,429.2719 Q876.0281,429.2719 875.9625,429.1688 Q875.8875,429.0656 875.85,428.7938 Q875.8125,428.6063 875.7,428.5031 Q875.4656,428.3063 875.0625,428.1937 Q874.6594,428.0719 874.2563,428.0719 Q873.75,428.0719 873.2813,428.2688 Q872.8219,428.4656 872.5313,428.9063 Q872.25,429.3375 872.25,429.9375 L872.25,430.5844 Q872.25,431.3063 872.7563,431.7938 Q873.2625,432.2719 874.1625,432.2719 Q874.6969,432.2719 875.0719,432.0281 Q875.2875,431.8875 875.5313,431.475 Q875.6906,431.2219 875.775,431.1469 Q875.8594,431.0719 875.9625,431.0719 Q876.1594,431.0719 876.3,431.2313 Q876.45,431.3812 876.45,431.5969 Q876.45,431.8031 875.9438,432.0469 Q875.9438,432.4031 875.4656,432.6 Q874.8375,432.8719 874.0688,432.8719 Q873.1687,432.8719 872.4469,432.5531 Q871.8656,432.3 871.4531,431.7562 Q871.05,431.2031 871.05,430.5469 L871.05,429.9656 Q871.05,429.2813 871.4063,428.7 Q871.7719,428.1094 872.4,427.7906 Q873.0375,427.4719 873.75,427.4719 Q874.1813,427.4719 874.5938,427.5844 Q875.0063,427.6969 875.25,428.0719 Z " fill="#000000"/><text fill="#000000" font-family="monospace" font-size="9.6" font-weight="bold" lengthAdjust="spacing" textLength="48" x="884.1" y="433.2562">EntryTag</text><line style="stroke:#A80036;stroke-width:0.8999999999999999;" x1="857.4" x2="941.4" y1="439.4719" y2="439.4719"/><text fill="#000000" font-family="monospace" font-size="9.6" lengthAdjust="spacing" textLength="60" x="860.4" y="451.5234">id   : int</text><text fill="#000000" font-family="monospace" font-size="9.6" lengthAdjust="spacing" textLength="78" x="860.4" y="464.0578">name : String</text><line style="stroke:#A80036;stroke-width:0.8999999999999999;" x1="857.4" x2="941.4" y1="469.3406" y2="469.3406"/><!--MD5=[0366a75604b4b181d94e41fa62d982a6]
class EntryFieldDatum--><rect codeLine="47" fill="#FEFECE" height="41.3344" id="EntryFieldDatum" style="stroke:#A80036;stroke-width:0.8999999999999999;" width="133.2" x="636.6" y="626.9719"/><ellipse cx="656.4" cy="636.5719" fill="#A9DCDF" rx="6.6" ry="6.6" style="stroke:#A80036;stroke-width:0.6;"/><path d="M657.2625,637.1719 L655.2375,637.1719 L655.2563,638.3719 L655.2563,638.3719 L655.5,638.3719 L655.8,638.4563 L655.8,638.6719 L655.8,638.8875 L655.5,638.9719 L655.2563,638.9719 L653.8781,638.9719 L653.7,638.9719 L653.4,638.8875 L653.4,638.6719 L653.4,638.4563 L653.7,638.3719 L653.8781,638.3719 L655.3125,634.1719 L654.7125,634.1719 L654.3,634.1719 L654,634.0875 L654,633.8719 L654,633.6563 L654.3,633.5719 L654.7125,633.5719 L657.2719,633.5719 L658.9219,638.3719 L659.1,638.3719 L659.1,638.3719 L659.4,638.4563 L659.4,638.6719 L659.4,638.8875 L659.1,638.9719 L658.9219,638.9719 L657.6469,638.9719 L657.3,638.9719 L657,638.8875 L657,638.6719 L657,638.4563 L657.3,638.3719 L657.6469,638.3719 L657.6469,638.3719 L657.2625,637.1719 Z M657.1406,636.5719 L656.4,633.9844 L655.6406,636.5719 L657.1406,636.5719 Z " fill="#000000"/><text fill="#000000" font-family="monospace" font-size="9.6" font-style="italic" font-weight="bold" lengthAdjust="spacing" textLength="90" x="667.2" y="639.9563">EntryFieldDatum</text><line style="stroke:#A80036;stroke-width:0.8999999999999999;" x1="637.2" x2="769.2" y1="646.1719" y2="646.1719"/><text fill="#000000" font-family="monospace" font-size="9.6" lengthAdjust="spacing" textLength="126" x="640.2" y="658.2234">type : EntryFieldType</text><line style="stroke:#A80036;stroke-width:0.8999999999999999;" x1="637.2" x2="769.2" y1="663.5063" y2="663.5063"/><!--MD5=[b2d156dca0a40869c1874008509ae15f]
class EntryType--><rect codeLine="51" fill="#FEFECE" height="78.9375" id="EntryType" style="stroke:#A80036;stroke-width:0.8999999999999999;" width="211.2" x="178.2" y="407.6719"/><ellipse cx="254.25" cy="417.2719" fill="#ADD1B2" rx="6.6" ry="6.6" style="stroke:#A80036;stroke-width:0.6;"/><path d="M255.6,415.4719 Q256.0219,415.1719 256.0125,415.0219 Q256.0031,414.8719 256.1625,414.8719 Q256.4437,414.8719 256.6219,415.0031 Q256.8,415.125 256.8,415.4156 L256.8,416.1188 Q256.8,416.4188 256.7156,416.55 Q256.6312,416.6719 256.5,416.6719 Q256.3781,416.6719 256.3125,416.5687 Q256.2375,416.4656 256.2,416.1937 Q256.1625,416.0062 256.05,415.9031 Q255.8156,415.7063 255.4125,415.5938 Q255.0094,415.4719 254.6063,415.4719 Q254.1,415.4719 253.6313,415.6688 Q253.1719,415.8656 252.8813,416.3063 Q252.6,416.7375 252.6,417.3375 L252.6,417.9844 Q252.6,418.7063 253.1063,419.1937 Q253.6125,419.6719 254.5125,419.6719 Q255.0469,419.6719 255.4219,419.4281 Q255.6375,419.2875 255.8813,418.875 Q256.0406,418.6219 256.125,418.5469 Q256.2094,418.4719 256.3125,418.4719 Q256.5094,418.4719 256.65,418.6312 Q256.8,418.7813 256.8,418.9969 Q256.8,419.2031 256.2938,419.4469 Q256.2938,419.8031 255.8156,420 Q255.1875,420.2719 254.4188,420.2719 Q253.5187,420.2719 252.7969,419.9531 Q252.2156,419.7 251.8031,419.1563 Q251.4,418.6031 251.4,417.9469 L251.4,417.3656 Q251.4,416.6813 251.7563,416.1 Q252.1219,415.5094 252.75,415.1906 Q253.3875,414.8719 254.1,414.8719 Q254.5313,414.8719 254.9438,414.9844 Q255.3563,415.0969 255.6,415.4719 Z " fill="#000000"/><text fill="#000000" font-family="monospace" font-size="9.6" font-weight="bold" lengthAdjust="spacing" textLength="54" x="266.55" y="420.6563">EntryType</text><line style="stroke:#A80036;stroke-width:0.8999999999999999;" x1="178.8" x2="388.8" y1="426.8719" y2="426.8719"/><text fill="#000000" font-family="monospace" font-size="9.6" lengthAdjust="spacing" textLength="102" x="181.8" y="438.9234">id          : int</text><text fill="#000000" font-family="monospace" font-size="9.6" lengthAdjust="spacing" textLength="120" x="181.8" y="451.4578">name        : String</text><text fill="#000000" font-family="monospace" font-size="9.6" lengthAdjust="spacing" textLength="180" x="181.8" y="463.9922">cardFormats : List&lt;CardFormat&gt;</text><text fill="#000000" font-family="monospace" font-size="9.6" lengthAdjust="spacing" textLength="204" x="181.8" y="476.5266">fieldSpecs  : List&lt;EntryFieldSpec&gt;</text><line style="stroke:#A80036;stroke-width:0.8999999999999999;" x1="178.8" x2="388.8" y1="481.8094" y2="481.8094"/><!--MD5=[efd546f96fee886f76cb42981cca7ab1]
class EntryFieldSpec--><rect codeLine="58" fill="#FEFECE" height="66.4031" id="EntryFieldSpec" style="stroke:#A80036;stroke-width:0.8999999999999999;" width="133.2" x="442.2" y="614.3719"/><ellipse cx="464.7" cy="623.9719" fill="#ADD1B2" rx="6.6" ry="6.6" style="stroke:#A80036;stroke-width:0.6;"/><path d="M466.05,622.1719 Q466.4719,621.8719 466.4625,621.7219 Q466.4531,621.5719 466.6125,621.5719 Q466.8937,621.5719 467.0719,621.7031 Q467.25,621.825 467.25,622.1156 L467.25,622.8188 Q467.25,623.1188 467.1656,623.25 Q467.0812,623.3719 466.95,623.3719 Q466.8281,623.3719 466.7625,623.2688 Q466.6875,623.1656 466.65,622.8938 Q466.6125,622.7063 466.5,622.6031 Q466.2656,622.4063 465.8625,622.2937 Q465.4594,622.1719 465.0563,622.1719 Q464.55,622.1719 464.0812,622.3688 Q463.6219,622.5656 463.3312,623.0063 Q463.05,623.4375 463.05,624.0375 L463.05,624.6844 Q463.05,625.4063 463.5563,625.8938 Q464.0625,626.3719 464.9625,626.3719 Q465.4969,626.3719 465.8719,626.1281 Q466.0875,625.9875 466.3312,625.575 Q466.4906,625.3219 466.575,625.2469 Q466.6594,625.1719 466.7625,625.1719 Q466.9594,625.1719 467.1,625.3313 Q467.25,625.4812 467.25,625.6969 Q467.25,625.9031 466.7438,626.1469 Q466.7438,626.5031 466.2656,626.7 Q465.6375,626.9719 464.8688,626.9719 Q463.9688,626.9719 463.2469,626.6531 Q462.6656,626.4 462.2531,625.8562 Q461.85,625.3031 461.85,624.6469 L461.85,624.0656 Q461.85,623.3813 462.2062,622.8 Q462.5719,622.2094 463.2,621.8906 Q463.8375,621.5719 464.55,621.5719 Q464.9813,621.5719 465.3937,621.6844 Q465.8063,621.7969 466.05,622.1719 Z " fill="#000000"/><text fill="#000000" font-family="monospace" font-size="9.6" font-weight="bold" lengthAdjust="spacing" textLength="84" x="476.1" y="627.3562">EntryFieldSpec</text><line style="stroke:#A80036;stroke-width:0.8999999999999999;" x1="442.8" x2="574.8" y1="633.5719" y2="633.5719"/><text fill="#000000" font-family="monospace" font-size="9.6" lengthAdjust="spacing" textLength="60" x="445.8" y="645.6234">id   : int</text><text fill="#000000" font-family="monospace" font-size="9.6" lengthAdjust="spacing" textLength="126" x="445.8" y="658.1578">type : EntryFieldType</text><text fill="#000000" font-family="monospace" font-size="9.6" lengthAdjust="spacing" textLength="78" x="445.8" y="670.6922">name : String</text><line style="stroke:#A80036;stroke-width:0.8999999999999999;" x1="442.8" x2="574.8" y1="675.975" y2="675.975"/><!--MD5=[fb6b157b11ea2c105398f6867ed26f0d]
class EntryFieldData--><rect codeLine="64" fill="#FEFECE" height="41.3344" id="EntryFieldData" style="stroke:#A80036;stroke-width:0.8999999999999999;" width="265.2" x="570.6" y="426.5719"/><ellipse cx="658.65" cy="436.1719" fill="#ADD1B2" rx="6.6" ry="6.6" style="stroke:#A80036;stroke-width:0.6;"/><path d="M660,434.3719 Q660.4219,434.0719 660.4125,433.9219 Q660.4031,433.7719 660.5625,433.7719 Q660.8438,433.7719 661.0219,433.9031 Q661.2,434.025 661.2,434.3156 L661.2,435.0188 Q661.2,435.3187 661.1156,435.45 Q661.0313,435.5719 660.9,435.5719 Q660.7781,435.5719 660.7125,435.4688 Q660.6375,435.3656 660.6,435.0938 Q660.5625,434.9063 660.45,434.8031 Q660.2156,434.6063 659.8125,434.4938 Q659.4094,434.3719 659.0063,434.3719 Q658.5,434.3719 658.0313,434.5687 Q657.5719,434.7656 657.2813,435.2063 Q657,435.6375 657,436.2375 L657,436.8844 Q657,437.6063 657.5063,438.0938 Q658.0125,438.5719 658.9125,438.5719 Q659.4469,438.5719 659.8219,438.3281 Q660.0375,438.1875 660.2813,437.775 Q660.4406,437.5219 660.525,437.4469 Q660.6094,437.3719 660.7125,437.3719 Q660.9094,437.3719 661.05,437.5313 Q661.2,437.6813 661.2,437.8969 Q661.2,438.1031 660.6938,438.3469 Q660.6938,438.7031 660.2156,438.9 Q659.5875,439.1719 658.8188,439.1719 Q657.9187,439.1719 657.1969,438.8531 Q656.6156,438.6 656.2031,438.0563 Q655.8,437.5031 655.8,436.8469 L655.8,436.2656 Q655.8,435.5813 656.1563,435 Q656.5219,434.4094 657.15,434.0906 Q657.7875,433.7719 658.5,433.7719 Q658.9313,433.7719 659.3438,433.8844 Q659.7563,433.9969 660,434.3719 Z " fill="#000000"/><text fill="#000000" font-family="monospace" font-size="9.6" font-weight="bold" lengthAdjust="spacing" textLength="84" x="670.95" y="439.5563">EntryFieldData</text><line style="stroke:#A80036;stroke-width:0.8999999999999999;" x1="571.2" x2="835.2" y1="445.7719" y2="445.7719"/><text fill="#000000" font-family="monospace" font-size="9.6" lengthAdjust="spacing" textLength="258" x="574.2" y="457.8234">data : Map&lt;EntryFieldSpec, EntryFieldDatum&gt;</text><line style="stroke:#A80036;stroke-width:0.8999999999999999;" x1="571.2" x2="835.2" y1="463.1063" y2="463.1063"/><!--MD5=[a2a32ce212da801967a91f887b856d92]
class CardFormat--><rect codeLine="68" fill="#FEFECE" height="78.9375" id="CardFormat" style="stroke:#A80036;stroke-width:0.8999999999999999;" width="169.2" x="188.4" y="608.0719"/><ellipse cx="240.45" cy="617.6719" fill="#ADD1B2" rx="6.6" ry="6.6" style="stroke:#A80036;stroke-width:0.6;"/><path d="M241.8,615.8719 Q242.2219,615.5719 242.2125,615.4219 Q242.2031,615.2719 242.3625,615.2719 Q242.6437,615.2719 242.8219,615.4031 Q243,615.525 243,615.8156 L243,616.5188 Q243,616.8188 242.9156,616.95 Q242.8312,617.0719 242.7,617.0719 Q242.5781,617.0719 242.5125,616.9688 Q242.4375,616.8656 242.4,616.5938 Q242.3625,616.4063 242.25,616.3031 Q242.0156,616.1062 241.6125,615.9938 Q241.2094,615.8719 240.8062,615.8719 Q240.3,615.8719 239.8312,616.0688 Q239.3719,616.2656 239.0812,616.7063 Q238.8,617.1375 238.8,617.7375 L238.8,618.3844 Q238.8,619.1062 239.3062,619.5938 Q239.8125,620.0719 240.7125,620.0719 Q241.2469,620.0719 241.6219,619.8281 Q241.8375,619.6875 242.0812,619.275 Q242.2406,619.0219 242.325,618.9469 Q242.4094,618.8719 242.5125,618.8719 Q242.7094,618.8719 242.85,619.0313 Q243,619.1813 243,619.3969 Q243,619.6031 242.4937,619.8469 Q242.4937,620.2031 242.0156,620.4 Q241.3875,620.6719 240.6187,620.6719 Q239.7188,620.6719 238.9969,620.3531 Q238.4156,620.1 238.0031,619.5563 Q237.6,619.0031 237.6,618.3469 L237.6,617.7656 Q237.6,617.0813 237.9562,616.5 Q238.3219,615.9094 238.95,615.5906 Q239.5875,615.2719 240.3,615.2719 Q240.7313,615.2719 241.1437,615.3844 Q241.5562,615.4969 241.8,615.8719 Z " fill="#000000"/><text fill="#000000" font-family="monospace" font-size="9.6" font-weight="bold" lengthAdjust="spacing" textLength="60" x="252.75" y="621.0563">CardFormat</text><line style="stroke:#A80036;stroke-width:0.8999999999999999;" x1="189" x2="357" y1="627.2719" y2="627.2719"/><text fill="#000000" font-family="monospace" font-size="9.6" lengthAdjust="spacing" textLength="66" x="192" y="639.3234">id    : int</text><text fill="#000000" font-family="monospace" font-size="9.6" lengthAdjust="spacing" textLength="84" x="192" y="651.8578">name  : String</text><text fill="#000000" font-family="monospace" font-size="9.6" lengthAdjust="spacing" textLength="162" x="192" y="664.3922">front : CardFormatStructure</text><text fill="#000000" font-family="monospace" font-size="9.6" lengthAdjust="spacing" textLength="162" x="192" y="676.9266">back  : CardFormatStructure</text><line style="stroke:#A80036;stroke-width:0.8999999999999999;" x1="189" x2="357" y1="682.2094" y2="682.2094"/><!--MD5=[2ebb7e34a8accc695b7c3b6efb33eac9]
class CardFormatStructure--><rect codeLine="75" fill="#FEFECE" height="41.3344" id="CardFormatStructure" style="stroke:#A80036;stroke-width:0.8999999999999999;" width="175.2" x="185.4" y="864.8719"/><ellipse cx="213.45" cy="874.4719" fill="#ADD1B2" rx="6.6" ry="6.6" style="stroke:#A80036;stroke-width:0.6;"/><path d="M214.8,872.6719 Q215.2219,872.3719 215.2125,872.2219 Q215.2031,872.0719 215.3625,872.0719 Q215.6437,872.0719 215.8219,872.2031 Q216,872.325 216,872.6156 L216,873.3188 Q216,873.6188 215.9156,873.75 Q215.8312,873.8719 215.7,873.8719 Q215.5781,873.8719 215.5125,873.7688 Q215.4375,873.6656 215.4,873.3938 Q215.3625,873.2063 215.25,873.1031 Q215.0156,872.9063 214.6125,872.7937 Q214.2094,872.6719 213.8063,872.6719 Q213.3,872.6719 212.8312,872.8688 Q212.3719,873.0656 212.0812,873.5063 Q211.8,873.9375 211.8,874.5375 L211.8,875.1844 Q211.8,875.9063 212.3063,876.3938 Q212.8125,876.8719 213.7125,876.8719 Q214.2469,876.8719 214.6219,876.6281 Q214.8375,876.4875 215.0812,876.075 Q215.2406,875.8219 215.325,875.7469 Q215.4094,875.6719 215.5125,875.6719 Q215.7094,875.6719 215.85,875.8313 Q216,875.9812 216,876.1969 Q216,876.4031 215.4938,876.6469 Q215.4938,877.0031 215.0156,877.2 Q214.3875,877.4719 213.6188,877.4719 Q212.7188,877.4719 211.9969,877.1531 Q211.4156,876.9 211.0031,876.3562 Q210.6,875.8031 210.6,875.1469 L210.6,874.5656 Q210.6,873.8813 210.9562,873.3 Q211.3219,872.7094 211.95,872.3906 Q212.5875,872.0719 213.3,872.0719 Q213.7313,872.0719 214.1437,872.1844 Q214.5563,872.2969 214.8,872.6719 Z " fill="#000000"/><text fill="#000000" font-family="monospace" font-size="9.6" font-weight="bold" lengthAdjust="spacing" textLength="114" x="225.75" y="877.8562">CardFormatStructure</text><line style="stroke:#A80036;stroke-width:0.8999999999999999;" x1="186" x2="360" y1="884.0719" y2="884.0719"/><text fill="#000000" font-family="monospace" font-size="9.6" lengthAdjust="spacing" textLength="168" x="189" y="896.1234">components : List&lt;Component&gt;</text><line style="stroke:#A80036;stroke-width:0.8999999999999999;" x1="186" x2="360" y1="901.4063" y2="901.4063"/><!--MD5=[4e13963c9dc916a21a8436ef39422b32]
class Component--><rect codeLine="79" fill="#FEFECE" height="53.8688" id="Component" style="stroke:#A80036;stroke-width:0.8999999999999999;" width="127.2" x="209.4" y="989.6719"/><ellipse cx="243.45" cy="999.2719" fill="#A9DCDF" rx="6.6" ry="6.6" style="stroke:#A80036;stroke-width:0.6;"/><path d="M244.3125,999.8719 L242.2875,999.8719 L242.3062,1001.0719 L242.3062,1001.0719 L242.55,1001.0719 L242.85,1001.1563 L242.85,1001.3719 L242.85,1001.5875 L242.55,1001.6719 L242.3062,1001.6719 L240.9281,1001.6719 L240.75,1001.6719 L240.45,1001.5875 L240.45,1001.3719 L240.45,1001.1563 L240.75,1001.0719 L240.9281,1001.0719 L242.3625,996.8719 L241.7625,996.8719 L241.35,996.8719 L241.05,996.7875 L241.05,996.5719 L241.05,996.3562 L241.35,996.2719 L241.7625,996.2719 L244.3219,996.2719 L245.9719,1001.0719 L246.15,1001.0719 L246.15,1001.0719 L246.45,1001.1563 L246.45,1001.3719 L246.45,1001.5875 L246.15,1001.6719 L245.9719,1001.6719 L244.6969,1001.6719 L244.35,1001.6719 L244.05,1001.5875 L244.05,1001.3719 L244.05,1001.1563 L244.35,1001.0719 L244.6969,1001.0719 L244.6969,1001.0719 L244.3125,999.8719 Z M244.1906,999.2719 L243.45,996.6844 L242.6906,999.2719 L244.1906,999.2719 Z " fill="#000000"/><text fill="#000000" font-family="monospace" font-size="9.6" font-style="italic" font-weight="bold" lengthAdjust="spacing" textLength="54" x="255.75" y="1002.6563">Component</text><line style="stroke:#A80036;stroke-width:0.8999999999999999;" x1="210" x2="336" y1="1008.8719" y2="1008.8719"/><text fill="#000000" font-family="monospace" font-size="9.6" lengthAdjust="spacing" textLength="78" x="213" y="1020.9234">name : String</text><text fill="#000000" font-family="monospace" font-size="9.6" lengthAdjust="spacing" textLength="120" x="213" y="1033.4578">type : ComponentType</text><line style="stroke:#A80036;stroke-width:0.8999999999999999;" x1="210" x2="336" y1="1038.7406" y2="1038.7406"/><path d="M410.7,425.3719 L410.7,468.975 L549.3,468.975 L549.3,431.3719 L543.3,425.3719 L410.7,425.3719 " fill="#FBFB77" style="stroke:#A80036;stroke-width:0.6;"/><path d="M543.3,425.3719 L543.3,431.3719 L549.3,431.3719 L543.3,425.3719 " fill="#FBFB77" style="stroke:#A80036;stroke-width:0.6;"/><text fill="#000000" font-family="monospace" font-size="9.6" lengthAdjust="spacing" textLength="126" x="414.3" y="438.0234">Their EntryFieldSpecs</text><text fill="#000000" font-family="monospace" font-size="9.6" lengthAdjust="spacing" textLength="120" x="414.3" y="450.5578">must sync if assoced</text><text fill="#000000" font-family="monospace" font-size="9.6" lengthAdjust="spacing" textLength="90" x="414.3" y="463.0922">with same Entry</text><!--MD5=[8134a134317461ba9fe89065654d1307]
reverse link Deck to DeckIconData--><path codeLine="84" d="M217.446,125.0719 C221.712,125.0719 225.978,125.0719 230.244,125.0719 " fill="none" id="Deck-backto-DeckIconData" style="stroke:#A80036;stroke-width:0.6;"/><polygon fill="#A80036" points="209.514,125.0719,213.114,127.4719,216.714,125.0719,213.114,122.6719,209.514,125.0719" style="stroke:#A80036;stroke-width:0.6;"/><text fill="#000000" font-family="monospace" font-size="7.2" lengthAdjust="spacing" textLength="16.8" x="208.8589" y="122.8431">1..*</text><text fill="#000000" font-family="monospace" font-size="7.2" lengthAdjust="spacing" textLength="4.2" x="221.2997" y="132.601">1</text><!--MD5=[ccc747f01eddbd59fce34d989a37199f]
link Deck to Entry--><path codeLine="85" d="M184.002,185.2099 C202.728,199.6519 222.15,214.6279 238.818,227.4859 " fill="none" id="Deck-Entry" style="stroke:#A80036;stroke-width:0.6;"/><polygon fill="#A80036" points="241.26,229.3639,238.4449,224.1682,238.8828,227.5339,235.517,227.9717,241.26,229.3639" style="stroke:#A80036;stroke-width:0.6;"/><polygon fill="#A80036" points="181.608,183.3619,184.414,188.5625,183.982,185.196,187.3486,184.764,181.608,183.3619" style="stroke:#A80036;stroke-width:0.6;"/><polygon fill="#000000" points="220.9005,208.038,218.324,204.2694,216.601,206.5036,220.9005,208.038" style="stroke:#000000;stroke-width:0.6;"/><text fill="#000000" font-family="monospace" font-size="7.2" lengthAdjust="spacing" textLength="16.8" x="224.4" y="209.1105">owns</text><text fill="#000000" font-family="monospace" font-size="7.2" lengthAdjust="spacing" textLength="4.2" x="182.9747" y="195.4179">1</text><text fill="#000000" font-family="monospace" font-size="7.2" lengthAdjust="spacing" textLength="16.8" x="217.6149" y="222.5488">0..*</text><!--MD5=[9979ec116d4477b40d23877d49752063]
link Entry to Card--><path codeLine="86" d="M199.332,286.7779 C170.97,300.1699 146.4,320.6179 146.4,351.2719 C146.4,351.2719 146.4,351.2719 146.4,648.2719 C146.4,685.8379 146.4,728.8339 146.4,758.4079 " fill="none" id="Entry-Card" style="stroke:#A80036;stroke-width:0.6;"/><polygon fill="#A80036" points="146.4,761.5879,148.8,756.1879,146.4,758.5879,144,756.1879,146.4,761.5879" style="stroke:#A80036;stroke-width:0.6;"/><polygon fill="#A80036" points="202.086,285.5059,196.1774,285.6003,199.3644,286.7679,198.1968,289.9549,202.086,285.5059" style="stroke:#A80036;stroke-width:0.6;"/><polygon fill="#000000" points="148.5323,512.5573,150.4184,508.4001,147.6147,508.0854,148.5323,512.5573" style="stroke:#000000;stroke-width:0.6;"/><text fill="#000000" font-family="monospace" font-size="7.2" lengthAdjust="spacing" textLength="37.8" x="154.2" y="512.7105">generates</text><text fill="#000000" font-family="monospace" font-size="7.2" lengthAdjust="spacing" textLength="4.2" x="193.3024" y="284.7581">1</text><text fill="#000000" font-family="monospace" font-size="7.2" lengthAdjust="spacing" textLength="16.8" x="128.4713" y="754.776">1..*</text><!--MD5=[c905f1b8e8f3426bca82a4905da2e16e]
link Deck to Card--><path codeLine="87" d="M95.688,186.5659 C92.274,210.0979 89.4,237.3079 89.4,262.1719 C89.4,262.1719 89.4,262.1719 89.4,648.2719 C89.4,688.0999 108.012,730.1119 123.966,758.8099 " fill="none" id="Deck-Card" style="stroke:#A80036;stroke-width:0.6;"/><polygon fill="#A80036" points="125.496,761.5459,124.9486,755.662,124.0289,758.9291,120.7618,758.0094,125.496,761.5459" style="stroke:#A80036;stroke-width:0.6;"/><polygon fill="#A80036" points="96.15,183.4159,92.9903,188.4095,95.7138,186.384,97.7393,189.1075,96.15,183.4159" style="stroke:#A80036;stroke-width:0.6;"/><polygon fill="#000000" points="91.9185,449.8693,93.1131,445.4634,90.2952,445.6026,91.9185,449.8693" style="stroke:#000000;stroke-width:0.6;"/><text fill="#000000" font-family="monospace" font-size="7.2" lengthAdjust="spacing" textLength="16.8" x="97.2" y="450.0105">owns</text><text fill="#000000" font-family="monospace" font-size="7.2" lengthAdjust="spacing" textLength="4.2" x="90.9738" y="195.476">1</text><text fill="#000000" font-family="monospace" font-size="7.2" lengthAdjust="spacing" textLength="16.8" x="104.7583" y="754.7284">0..*</text><!--MD5=[aaeb6ccba3c6ba94b26795672558142d]
reverse link Entry to EntryTag--><path codeLine="88" d="M373.182,274.3159 C487.782,290.9779 690.336,329.3959 846.6,407.6719 C853.53,411.1399 860.502,415.5199 867.006,420.0799 " fill="none" id="Entry-backto-EntryTag" style="stroke:#A80036;stroke-width:0.6;"/><polygon fill="#FFFFFF" points="365.424,273.2059,368.6444,276.0954,372.5502,274.2341,369.3298,271.3446,365.424,273.2059" style="stroke:#A80036;stroke-width:0.6;"/><polygon fill="#000000" points="766.7018,352.5525,762.9372,349.9704,762.1384,352.6763,766.7018,352.5525" style="stroke:#000000;stroke-width:0.6;"/><text fill="#000000" font-family="monospace" font-size="7.2" lengthAdjust="spacing" textLength="8.4" x="792.9" y="345.0105">is</text><text fill="#000000" font-family="monospace" font-size="7.2" lengthAdjust="spacing" textLength="54.6" x="769.8" y="354.4113">categorizable</text><text fill="#000000" font-family="monospace" font-size="7.2" lengthAdjust="spacing" textLength="8.4" x="795" y="363.8121">by</text><text fill="#000000" font-family="monospace" font-size="7.2" lengthAdjust="spacing" textLength="16.8" x="370.0659" y="271.7659">0..*</text><text fill="#000000" font-family="monospace" font-size="7.2" lengthAdjust="spacing" textLength="16.8" x="843.7045" y="413.31">0..*</text><!--MD5=[67807a00d5300488fd65eecfb3079e6c]
reverse link Entry to EntryFieldData--><path codeLine="89" d="M366,299.2999 C452.958,337.3039 587.07,395.9179 657.072,426.5119 " fill="none" id="Entry-backto-EntryFieldData" style="stroke:#A80036;stroke-width:0.6;"/><polygon fill="#A80036" points="358.782,296.1439,361.1214,299.7835,365.3809,299.024,363.0415,295.3843,358.782,296.1439" style="stroke:#A80036;stroke-width:0.6;"/><polygon fill="#000000" points="534.3991,352.9338,530.9858,349.9025,529.8559,352.4877,534.3991,352.9338" style="stroke:#000000;stroke-width:0.6;"/><text fill="#000000" font-family="monospace" font-size="7.2" lengthAdjust="spacing" textLength="46.2" x="539.7" y="349.8105">has data of</text><text fill="#000000" font-family="monospace" font-size="7.2" lengthAdjust="spacing" textLength="54.6" x="537.6" y="359.2113">each field in</text><text fill="#000000" font-family="monospace" font-size="7.2" lengthAdjust="spacing" textLength="4.2" x="363.009" y="307.796">1</text><text fill="#000000" font-family="monospace" font-size="7.2" lengthAdjust="spacing" textLength="4.2" x="642.925" y="419.5888">1</text><!--MD5=[29dd7fa911a353e71cc60bc362b7e8da]
reverse link EntryFieldData to EntryFieldSpec--><path codeLine="90" d="M677.892,473.8039 C642.738,509.8279 579.132,575.0059 540.75,614.3359 " fill="none" id="EntryFieldData-backto-EntryFieldSpec" style="stroke:#A80036;stroke-width:0.6;"/><polygon fill="#FFFFFF" points="683.49,468.0679,679.2589,468.9724,678.4665,473.2258,682.6976,472.3214,683.49,468.0679" style="stroke:#A80036;stroke-width:0.6;"/><text fill="#000000" font-family="monospace" font-size="7.2" lengthAdjust="spacing" textLength="16.8" x="661.5072" y="480.0135">0..*</text><text fill="#000000" font-family="monospace" font-size="7.2" lengthAdjust="spacing" textLength="16.8" x="527.2617" y="607.2959">1..*</text><!--MD5=[27c7fd3e646fe1211a172f7e873ddca2]
reverse link EntryFieldData to EntryFieldDatum--><path codeLine="91" d="M703.2,475.9759 C703.2,516.6799 703.2,591.0619 703.2,626.8219 " fill="none" id="EntryFieldData-backto-EntryFieldDatum" style="stroke:#A80036;stroke-width:0.6;"/><polygon fill="#A80036" points="703.2,468.0679,700.8,471.6679,703.2,475.2679,705.6,471.6679,703.2,468.0679" style="stroke:#A80036;stroke-width:0.6;"/><text fill="#000000" font-family="monospace" font-size="7.2" lengthAdjust="spacing" textLength="4.2" x="698.6128" y="480.0135">1</text><text fill="#000000" font-family="monospace" font-size="7.2" lengthAdjust="spacing" textLength="16.8" x="684.6675" y="619.8802">1..*</text><!--MD5=[cfec0ab29adb9efd8a6c964edc7a195e]
link Entry to EntryType--><path codeLine="92" d="M283.8,299.3059 C283.8,329.5339 283.8,372.7879 283.8,404.6179 " fill="none" id="Entry-EntryType" style="stroke:#A80036;stroke-width:0.6;"/><polygon fill="#A80036" points="283.8,407.6599,286.2,402.2599,283.8,404.6599,281.4,402.2599,283.8,407.6599" style="stroke:#A80036;stroke-width:0.6;"/><polygon fill="#A80036" points="283.8,296.1439,281.4,301.5439,283.8,299.1439,286.2,301.5439,283.8,296.1439" style="stroke:#A80036;stroke-width:0.6;"/><polygon fill="#000000" points="286.2,354.4734,287.6107,350.1318,284.7893,350.1318,286.2,354.4734" style="stroke:#000000;stroke-width:0.6;"/><text fill="#000000" font-family="monospace" font-size="7.2" lengthAdjust="spacing" textLength="58.8" x="291.6" y="340.5105">has fields and</text><text fill="#000000" font-family="monospace" font-size="7.2" lengthAdjust="spacing" textLength="16.8" x="310.5" y="349.9113">Card</text><text fill="#000000" font-family="monospace" font-size="7.2" lengthAdjust="spacing" textLength="42" x="297.9" y="359.3121">generation</text><text fill="#000000" font-family="monospace" font-size="7.2" lengthAdjust="spacing" textLength="42" x="300" y="368.7129">defined by</text><text fill="#000000" font-family="monospace" font-size="7.2" lengthAdjust="spacing" textLength="16.8" x="266.0288" y="307.796">0..*</text><text fill="#000000" font-family="monospace" font-size="7.2" lengthAdjust="spacing" textLength="4.2" x="279.3572" y="400.8364">1</text><!--MD5=[2aac9294946bbd31e65ecbfd6b136182]
reverse link EntryType to CardFormat--><path codeLine="93" d="M281.256,494.8219 C279.384,529.2979 276.876,575.5879 275.118,608.0419 " fill="none" id="EntryType-backto-CardFormat" style="stroke:#A80036;stroke-width:0.6;"/><polygon fill="#A80036" points="281.682,486.9919,279.0915,490.4573,281.294,494.1814,283.8845,490.716,281.682,486.9919" style="stroke:#A80036;stroke-width:0.6;"/><polygon fill="#000000" points="281.2701,554.8699,282.9137,550.611,280.0965,550.4583,281.2701,554.8699" style="stroke:#000000;stroke-width:0.6;"/><text fill="#000000" font-family="monospace" font-size="7.2" lengthAdjust="spacing" textLength="50.4" x="286.8" y="540.9105">contains for</text><text fill="#000000" font-family="monospace" font-size="7.2" lengthAdjust="spacing" textLength="37.8" x="293.1" y="550.3113">each Card</text><text fill="#000000" font-family="monospace" font-size="7.2" lengthAdjust="spacing" textLength="50.4" x="286.8" y="559.7121">generated by</text><text fill="#000000" font-family="monospace" font-size="7.2" lengthAdjust="spacing" textLength="42" x="293.1" y="569.1129">each Entry</text><text fill="#000000" font-family="monospace" font-size="7.2" lengthAdjust="spacing" textLength="4.2" x="277.0668" y="498.6161">1</text><text fill="#000000" font-family="monospace" font-size="7.2" lengthAdjust="spacing" textLength="16.8" x="257.5916" y="601.2164">1..*</text><!--MD5=[fb4432f1c08088e56047396f0082ea25]
link CardFormat to Card--><path codeLine="94" d="M206.532,689.2579 C200.652,694.2619 195.084,699.6139 190.2,705.2719 C176.778,720.8119 166.368,741.1759 159.066,758.5159 " fill="none" id="CardFormat-Card" style="stroke:#A80036;stroke-width:0.6;"/><polygon fill="#A80036" points="157.83,761.4919,162.1268,757.4351,158.9869,758.7239,157.698,755.584,157.83,761.4919" style="stroke:#A80036;stroke-width:0.6;"/><polygon fill="#A80036" points="208.896,687.2839,203.2135,688.9055,206.5942,689.2078,206.2918,692.5884,208.896,687.2839" style="stroke:#A80036;stroke-width:0.6;"/><polygon fill="#000000" points="191.2432,726.6531,194.8613,723.8693,192.534,722.2743,191.2432,726.6531" style="stroke:#000000;stroke-width:0.6;"/><text fill="#000000" font-family="monospace" font-size="7.2" lengthAdjust="spacing" textLength="37.8" x="206.4" y="713.1105">specifies</text><text fill="#000000" font-family="monospace" font-size="7.2" lengthAdjust="spacing" textLength="54.6" x="198" y="722.5113">display style</text><text fill="#000000" font-family="monospace" font-size="7.2" lengthAdjust="spacing" textLength="54.6" x="198" y="731.9121">and structure</text><text fill="#000000" font-family="monospace" font-size="7.2" lengthAdjust="spacing" textLength="8.4" x="223.2" y="741.3129">of</text><text fill="#000000" font-family="monospace" font-size="7.2" lengthAdjust="spacing" textLength="4.2" x="197.8687" y="699.1058">1</text><text fill="#000000" font-family="monospace" font-size="7.2" lengthAdjust="spacing" textLength="16.8" x="160.4947" y="754.6671">0..*</text><!--MD5=[16d0c882c8d324787220be535d491a6e]
reverse link EntryType to EntryFieldSpec--><path codeLine="95" d="M334.02,492.3319 C375.762,529.2859 434.208,581.0359 471.792,614.3059 " fill="none" id="EntryType-backto-EntryFieldSpec" style="stroke:#A80036;stroke-width:0.6;"/><polygon fill="#FFFFFF" points="327.984,486.9919,329.0882,491.1753,333.3745,491.765,332.2703,487.5816,327.984,486.9919" style="stroke:#A80036;stroke-width:0.6;"/><polygon fill="#000000" points="427.197,553.9636,424.8813,550.0294,423.0111,552.1418,427.197,553.9636" style="stroke:#000000;stroke-width:0.6;"/><text fill="#000000" font-family="monospace" font-size="7.2" lengthAdjust="spacing" textLength="42" x="432.9" y="550.2105">has fields</text><text fill="#000000" font-family="monospace" font-size="7.2" lengthAdjust="spacing" textLength="50.4" x="430.8" y="559.6113">specified by</text><text fill="#000000" font-family="monospace" font-size="7.2" lengthAdjust="spacing" textLength="4.2" x="327.9266" y="498.6161">1</text><text fill="#000000" font-family="monospace" font-size="7.2" lengthAdjust="spacing" textLength="16.8" x="448.8903" y="607.4965">1..*</text><!--MD5=[499010a3f9f5c1505401b65f50e7d61b]
reverse link CardFormat to CardFormatStructure--><path codeLine="96" d="M273,695.2279 C273,746.8759 273,827.4739 273,864.7759 " fill="none" id="CardFormat-backto-CardFormatStructure" style="stroke:#A80036;stroke-width:0.6;"/><polygon fill="#A80036" points="273,687.3559,270.6,690.9559,273,694.5559,275.4,690.9559,273,687.3559" style="stroke:#A80036;stroke-width:0.6;"/><polygon fill="#000000" points="275.4,797.4727,276.8107,793.131,273.9893,793.131,275.4,797.4727" style="stroke:#000000;stroke-width:0.6;"/><text fill="#000000" font-family="monospace" font-size="7.2" lengthAdjust="spacing" textLength="54.6" x="280.8" y="792.9105">has structure</text><text fill="#000000" font-family="monospace" font-size="7.2" lengthAdjust="spacing" textLength="50.4" x="285" y="802.3113">specified by</text><text fill="#000000" font-family="monospace" font-size="7.2" lengthAdjust="spacing" textLength="4.2" x="268.5834" y="699.1852">1</text><text fill="#000000" font-family="monospace" font-size="7.2" lengthAdjust="spacing" textLength="4.2" x="268.3669" y="857.8453">2</text><!--MD5=[2e2e4d03125a574c29033226ea946ab3]
reverse link CardFormatStructure to Component--><path codeLine="97" d="M273,914.2819 C273,936.6439 273,967.7119 273,989.6299 " fill="none" id="CardFormatStructure-backto-Component" style="stroke:#A80036;stroke-width:0.6;"/><polygon fill="#A80036" points="273,906.4699,270.6,910.0699,273,913.6699,275.4,910.0699,273,906.4699" style="stroke:#A80036;stroke-width:0.6;"/><polygon fill="#000000" points="275.4,950.5723,276.8107,946.2306,273.9893,946.2306,275.4,950.5723" style="stroke:#000000;stroke-width:0.6;"/><text fill="#000000" font-family="monospace" font-size="7.2" lengthAdjust="spacing" textLength="58.8" x="280.8" y="950.7105">is composed of</text><text fill="#000000" font-family="monospace" font-size="7.2" lengthAdjust="spacing" textLength="4.2" x="268.4259" y="918.2741">1</text><text fill="#000000" font-family="monospace" font-size="7.2" lengthAdjust="spacing" textLength="16.8" x="254.8087" y="982.6885">0..*</text><!--MD5=[c2c6fe00260f9525a643a514d000888b]
link EntryType to n1--><path codeLine="100" d="M389.562,447.2719 C396.57,447.2719 403.578,447.2719 410.586,447.2719 " fill="none" id="EntryType-n1" style="stroke:#A80036;stroke-width:0.6;stroke-dasharray:7.0,7.0;"/><!--MD5=[fae26b4190636580aa93fa6a110bac6d]
link n1 to EntryFieldData--><path codeLine="101" d="M549.312,447.2719 C556.38,447.2719 563.442,447.2719 570.504,447.2719 " fill="none" id="n1-EntryFieldData" style="stroke:#A80036;stroke-width:0.6;stroke-dasharray:7.0,7.0;"/><text fill="#888888" font-family="monospace" font-size="9.6" lengthAdjust="spacing" textLength="180" x="379.2" y="1056.7922">Copyright (C) 2020 Cervon Wong</text><!--MD5=[3d6446ce5245eedaafae2aaba42fb645]
@startuml

skinparam maxMessageSize 100
skinparam shadowing false
skinparam defaultFontName monospaced
skinparam defaultFontSize 16
skinparam classFontStyle bold
skinparam arrowFontSize 12
skinparam titleFontSize 24
skinparam titleFontStyle bold

header This diagram is part of a visualisation of the code written for Sona.\n View the project at github.com/cervonwong/sona-flutter.
title Relationships of material entities.\n
footer Copyright (C) 2020 Cervon Wong

class Card {
	id        : int
	isStarred : bool
	isHidden  : bool
}

class Entry {
	id        : int
	tags      : Set<EntryTag>
	fieldData : EntryFieldData
}

class Deck {
	id                 : int
	name               : String
	createdDateTime    : DateTime
	lastEditedDateTime : DateTime
	authorName         : String?
	description        : String?
	iconData           : DeckIconData
}

class DeckIconData {
	color   : DeckIconColor
	symbol  : DeckIconSymbol
}

class EntryTag {
	id   : int
	name : String
}

abstract class EntryFieldDatum {
	type : EntryFieldType
}

class EntryType {
	id          : int
	name        : String
	cardFormats : List<CardFormat>
	fieldSpecs  : List<EntryFieldSpec>
}

class EntryFieldSpec {
	id   : int
	type : EntryFieldType
	name : String
}

class EntryFieldData {
    data : Map<EntryFieldSpec, EntryFieldDatum>
}

class CardFormat {
	id    : int
	name  : String
	front : CardFormatStructure
	back  : CardFormatStructure
}

class CardFormatStructure {
	components : List<Component>
}

abstract class Component {
	name : String
	type : ComponentType
}

Deck 				"1..*" *-   "1"    DeckIconData
Deck                "1"    <- -> "0..*" Entry               : owns >
Entry               "1"    <- -> "1..*" Card                : generates >
Deck                "1"    <- -> "0..*" Card                : owns >
Entry               "0..*" o- - - "0..*" EntryTag            : is categorizable by >
Entry               "1"    *- - - "1"    EntryFieldData      : has data of each field in >
EntryFieldData      "0..*" o- - - "1..*" EntryFieldSpec
EntryFieldData      "1"    *- - - "1..*" EntryFieldDatum
Entry               "0..*" <- - -> "1"   EntryType           : has fields and Card generation defined by >
EntryType           "1"    *- - - "1..*" CardFormat          : contains for each Card generated by each Entry >
CardFormat          "1"    <- -> "0..*" Card                : specifies display style and structure of >
EntryType           "1"    o- - - "1..*" EntryFieldSpec      : has fields specified by >
CardFormat          "1"    *- - - "2"    CardFormatStructure : has structure specified by >
CardFormatStructure "1"    *- - - "0..*" Component           : is composed of >

note "Their EntryFieldSpecs\nmust sync if assoced\nwith same Entry" as n1
EntryType . n1
n1 . EntryFieldData
@enduml

PlantUML version 1.2021.7(Sun May 23 20:40:07 SGT 2021)
(GPL source distribution)
Java Runtime: OpenJDK Runtime Environment
JVM: Dynamic Code Evolution 64-Bit Server VM
Default Encoding: Cp1252
Language: en
Country: US
--></g></svg>