<?xml version="1.0" encoding="UTF-8" standalone="no"?><svg xmlns="http://www.w3.org/2000/svg" xmlns:xlink="http://www.w3.org/1999/xlink" contentScriptType="application/ecmascript" contentStyleType="text/css" height="1432px" preserveAspectRatio="none" style="width:1178px;height:1432px;" version="1.1" viewBox="0 0 1178 1432" width="1178.4px" zoomAndPan="magnify"><defs/><g><text fill="#888888" font-family="monospace" font-size="12.8" lengthAdjust="spacing" textLength="552" x="616" y="12.8688">This diagram is part of a visualisation of the code written for Sona.</text><text fill="#888888" font-family="monospace" font-size="12.8" lengthAdjust="spacing" textLength="440" x="728" y="29.5813">View the project at github.com/cervonwong/sona-flutter.</text><text fill="#000000" font-family="monospace" font-size="19.2" font-weight="bold" lengthAdjust="spacing" textLength="392" x="388" y="52.7281">Relationships of material entities.</text><text fill="#000000" font-family="monospace" font-size="19.2" font-weight="bold" lengthAdjust="spacing" textLength="0" x="589.6" y="77.7969"/><!--MD5=[5e305716458bbdabbd2d7f572ed2bae2]
class Card--><rect codeLine="15" fill="#FEFECE" height="88.5375" id="Card" style="stroke:#A80036;stroke-width:1.2000000000000002;" width="137.6" x="763.2" y="1032.3625"/><ellipse cx="812.6" cy="1045.1625" fill="#ADD1B2" rx="8.8" ry="8.8" style="stroke:#A80036;stroke-width:0.8000000000000002;"/><path d="M814.4,1042.7625 Q814.9625,1042.3625 814.95,1042.1625 Q814.9375,1041.9625 815.15,1041.9625 Q815.525,1041.9625 815.7625,1042.1375 Q816,1042.3 816,1042.6875 L816,1043.625 Q816,1044.025 815.8875,1044.2 Q815.775,1044.3625 815.6,1044.3625 Q815.4375,1044.3625 815.35,1044.225 Q815.25,1044.0875 815.2,1043.725 Q815.15,1043.475 815,1043.3375 Q814.6875,1043.075 814.15,1042.925 Q813.6125,1042.7625 813.075,1042.7625 Q812.4,1042.7625 811.775,1043.025 Q811.1625,1043.2875 810.775,1043.875 Q810.4,1044.45 810.4,1045.25 L810.4,1046.1125 Q810.4,1047.075 811.075,1047.725 Q811.75,1048.3625 812.95,1048.3625 Q813.6625,1048.3625 814.1625,1048.0375 Q814.45,1047.85 814.775,1047.3 Q814.9875,1046.9625 815.1,1046.8625 Q815.2125,1046.7625 815.35,1046.7625 Q815.6125,1046.7625 815.8,1046.975 Q816,1047.175 816,1047.4625 Q816,1047.7375 815.325,1048.0625 Q815.325,1048.5375 814.6875,1048.8 Q813.85,1049.1625 812.825,1049.1625 Q811.625,1049.1625 810.6625,1048.7375 Q809.8875,1048.4 809.3375,1047.675 Q808.8,1046.9375 808.8,1046.0625 L808.8,1045.2875 Q808.8,1044.375 809.275,1043.6 Q809.7625,1042.8125 810.6,1042.3875 Q811.45,1041.9625 812.4,1041.9625 Q812.975,1041.9625 813.525,1042.1125 Q814.075,1042.2625 814.4,1042.7625 Z " fill="#000000"/><text fill="#000000" font-family="monospace" font-size="12.8" font-weight="bold" lengthAdjust="spacing" textLength="32" x="829" y="1049.675">Card</text><line style="stroke:#A80036;stroke-width:1.2000000000000002;" x1="764" x2="900" y1="1057.9625" y2="1057.9625"/><text fill="#000000" font-family="monospace" font-size="12.8" lengthAdjust="spacing" textLength="120" x="768" y="1074.0313">id        : int</text><text fill="#000000" font-family="monospace" font-size="12.8" lengthAdjust="spacing" textLength="128" x="768" y="1090.7438">isStarred : bool</text><text fill="#000000" font-family="monospace" font-size="12.8" lengthAdjust="spacing" textLength="128" x="768" y="1107.4563">isHidden  : bool</text><line style="stroke:#A80036;stroke-width:1.2000000000000002;" x1="764" x2="900" y1="1114.5" y2="1114.5"/><!--MD5=[96293e8b231702a792e4ba32419ac2da]
class Entry--><rect codeLine="21" fill="#FEFECE" height="105.25" id="Entry" style="stroke:#A80036;stroke-width:1.2000000000000002;" width="265.6" x="481.6" y="305.9625"/><ellipse cx="591" cy="318.7625" fill="#ADD1B2" rx="8.8" ry="8.8" style="stroke:#A80036;stroke-width:0.8000000000000002;"/><path d="M592.8,316.3625 Q593.3625,315.9625 593.35,315.7625 Q593.3375,315.5625 593.55,315.5625 Q593.925,315.5625 594.1625,315.7375 Q594.4,315.9 594.4,316.2875 L594.4,317.225 Q594.4,317.625 594.2875,317.8 Q594.175,317.9625 594,317.9625 Q593.8375,317.9625 593.75,317.825 Q593.65,317.6875 593.6,317.325 Q593.55,317.075 593.4,316.9375 Q593.0875,316.675 592.55,316.525 Q592.0125,316.3625 591.475,316.3625 Q590.8,316.3625 590.175,316.625 Q589.5625,316.8875 589.175,317.475 Q588.8,318.05 588.8,318.85 L588.8,319.7125 Q588.8,320.675 589.475,321.325 Q590.15,321.9625 591.35,321.9625 Q592.0625,321.9625 592.5625,321.6375 Q592.85,321.45 593.175,320.9 Q593.3875,320.5625 593.5,320.4625 Q593.6125,320.3625 593.75,320.3625 Q594.0125,320.3625 594.2,320.575 Q594.4,320.775 594.4,321.0625 Q594.4,321.3375 593.725,321.6625 Q593.725,322.1375 593.0875,322.4 Q592.25,322.7625 591.225,322.7625 Q590.025,322.7625 589.0625,322.3375 Q588.2875,322 587.7375,321.275 Q587.2,320.5375 587.2,319.6625 L587.2,318.8875 Q587.2,317.975 587.675,317.2 Q588.1625,316.4125 589,315.9875 Q589.85,315.5625 590.8,315.5625 Q591.375,315.5625 591.925,315.7125 Q592.475,315.8625 592.8,316.3625 Z " fill="#000000"/><text fill="#000000" font-family="monospace" font-size="12.8" font-weight="bold" lengthAdjust="spacing" textLength="40" x="607.4" y="323.275">Entry</text><line style="stroke:#A80036;stroke-width:1.2000000000000002;" x1="482.4" x2="746.4" y1="331.5625" y2="331.5625"/><text fill="#000000" font-family="monospace" font-size="12.8" lengthAdjust="spacing" textLength="120" x="486.4" y="347.6313">id        : int</text><text fill="#000000" font-family="monospace" font-size="12.8" lengthAdjust="spacing" textLength="200" x="486.4" y="364.3438">tags      : Set&lt;EntryTag&gt;</text><text fill="#000000" font-family="monospace" font-size="12.8" lengthAdjust="spacing" textLength="248" x="486.4" y="381.0563">fieldData : Map&lt;EntryFieldSpec,</text><text fill="#000000" font-family="monospace" font-size="12.8" lengthAdjust="spacing" textLength="128" x="486.4" y="397.7688">EntryFieldDatum&gt;</text><line style="stroke:#A80036;stroke-width:1.2000000000000002;" x1="482.4" x2="746.4" y1="404.8125" y2="404.8125"/><!--MD5=[30299a58ba6b78debaaed5ddbb42f29a]
class Deck--><rect codeLine="27" fill="#FEFECE" height="155.3875" id="Deck" style="stroke:#A80036;stroke-width:1.2000000000000002;" width="273.6" x="669.6" y="89.1625"/><ellipse cx="787" cy="101.9625" fill="#ADD1B2" rx="8.8" ry="8.8" style="stroke:#A80036;stroke-width:0.8000000000000002;"/><path d="M788.8,99.5625 Q789.3625,99.1625 789.35,98.9625 Q789.3375,98.7625 789.55,98.7625 Q789.925,98.7625 790.1625,98.9375 Q790.4,99.1 790.4,99.4875 L790.4,100.425 Q790.4,100.825 790.2875,101 Q790.175,101.1625 790,101.1625 Q789.8375,101.1625 789.75,101.025 Q789.65,100.8875 789.6,100.525 Q789.55,100.275 789.4,100.1375 Q789.0875,99.875 788.55,99.725 Q788.0125,99.5625 787.475,99.5625 Q786.8,99.5625 786.175,99.825 Q785.5625,100.0875 785.175,100.675 Q784.8,101.25 784.8,102.05 L784.8,102.9125 Q784.8,103.875 785.475,104.525 Q786.15,105.1625 787.35,105.1625 Q788.0625,105.1625 788.5625,104.8375 Q788.85,104.65 789.175,104.1 Q789.3875,103.7625 789.5,103.6625 Q789.6125,103.5625 789.75,103.5625 Q790.0125,103.5625 790.2,103.775 Q790.4,103.975 790.4,104.2625 Q790.4,104.5375 789.725,104.8625 Q789.725,105.3375 789.0875,105.6 Q788.25,105.9625 787.225,105.9625 Q786.025,105.9625 785.0625,105.5375 Q784.2875,105.2 783.7375,104.475 Q783.2,103.7375 783.2,102.8625 L783.2,102.0875 Q783.2,101.175 783.675,100.4 Q784.1625,99.6125 785,99.1875 Q785.85,98.7625 786.8,98.7625 Q787.375,98.7625 787.925,98.9125 Q788.475,99.0625 788.8,99.5625 Z " fill="#000000"/><text fill="#000000" font-family="monospace" font-size="12.8" font-weight="bold" lengthAdjust="spacing" textLength="32" x="803.4" y="106.475">Deck</text><line style="stroke:#A80036;stroke-width:1.2000000000000002;" x1="670.4" x2="942.4" y1="114.7625" y2="114.7625"/><text fill="#000000" font-family="monospace" font-size="12.8" lengthAdjust="spacing" textLength="192" x="674.4" y="130.8313">id                 : int</text><text fill="#000000" font-family="monospace" font-size="12.8" lengthAdjust="spacing" textLength="216" x="674.4" y="147.5438">name               : String</text><text fill="#000000" font-family="monospace" font-size="12.8" lengthAdjust="spacing" textLength="232" x="674.4" y="164.2563">createdDateTime    : DateTime</text><text fill="#000000" font-family="monospace" font-size="12.8" lengthAdjust="spacing" textLength="232" x="674.4" y="180.9688">lastEditedDateTime : DateTime</text><text fill="#000000" font-family="monospace" font-size="12.8" lengthAdjust="spacing" textLength="224" x="674.4" y="197.6813">authorName         : String?</text><text fill="#000000" font-family="monospace" font-size="12.8" lengthAdjust="spacing" textLength="224" x="674.4" y="214.3938">description        : String?</text><text fill="#000000" font-family="monospace" font-size="12.8" lengthAdjust="spacing" textLength="264" x="674.4" y="231.1063">iconData           : DeckIconData</text><line style="stroke:#A80036;stroke-width:1.2000000000000002;" x1="670.4" x2="942.4" y1="238.15" y2="238.15"/><!--MD5=[9c5f926e3992febf48e8e5623ee2cb6d]
class DeckIconData--><rect codeLine="37" fill="#FEFECE" height="71.825" id="DeckIconData" style="stroke:#A80036;stroke-width:1.2000000000000002;" width="201.6" x="971.2" y="130.7625"/><ellipse cx="1020.6" cy="143.5625" fill="#ADD1B2" rx="8.8" ry="8.8" style="stroke:#A80036;stroke-width:0.8000000000000002;"/><path d="M1022.4,141.1625 Q1022.9625,140.7625 1022.95,140.5625 Q1022.9375,140.3625 1023.15,140.3625 Q1023.525,140.3625 1023.7625,140.5375 Q1024,140.7 1024,141.0875 L1024,142.025 Q1024,142.425 1023.8875,142.6 Q1023.775,142.7625 1023.6,142.7625 Q1023.4375,142.7625 1023.35,142.625 Q1023.25,142.4875 1023.2,142.125 Q1023.15,141.875 1023,141.7375 Q1022.6875,141.475 1022.15,141.325 Q1021.6125,141.1625 1021.075,141.1625 Q1020.4,141.1625 1019.775,141.425 Q1019.1625,141.6875 1018.775,142.275 Q1018.4,142.85 1018.4,143.65 L1018.4,144.5125 Q1018.4,145.475 1019.075,146.125 Q1019.75,146.7625 1020.95,146.7625 Q1021.6625,146.7625 1022.1625,146.4375 Q1022.45,146.25 1022.775,145.7 Q1022.9875,145.3625 1023.1,145.2625 Q1023.2125,145.1625 1023.35,145.1625 Q1023.6125,145.1625 1023.8,145.375 Q1024,145.575 1024,145.8625 Q1024,146.1375 1023.325,146.4625 Q1023.325,146.9375 1022.6875,147.2 Q1021.85,147.5625 1020.825,147.5625 Q1019.625,147.5625 1018.6625,147.1375 Q1017.8875,146.8 1017.3375,146.075 Q1016.8,145.3375 1016.8,144.4625 L1016.8,143.6875 Q1016.8,142.775 1017.275,142 Q1017.7625,141.2125 1018.6,140.7875 Q1019.45,140.3625 1020.4,140.3625 Q1020.975,140.3625 1021.525,140.5125 Q1022.075,140.6625 1022.4,141.1625 Z " fill="#000000"/><text fill="#000000" font-family="monospace" font-size="12.8" font-weight="bold" lengthAdjust="spacing" textLength="96" x="1037" y="148.075">DeckIconData</text><line style="stroke:#A80036;stroke-width:1.2000000000000002;" x1="972" x2="1172" y1="156.3625" y2="156.3625"/><text fill="#000000" font-family="monospace" font-size="12.8" lengthAdjust="spacing" textLength="184" x="976" y="172.4313">color   : DeckIconColor</text><text fill="#000000" font-family="monospace" font-size="12.8" lengthAdjust="spacing" textLength="192" x="976" y="189.1438">symbol  : DeckIconSymbol</text><line style="stroke:#A80036;stroke-width:1.2000000000000002;" x1="972" x2="1172" y1="196.1875" y2="196.1875"/><!--MD5=[4722c72c0cc62bb66b1eedbfdebc182b]
class EntryTag--><rect codeLine="42" fill="#FEFECE" height="71.825" id="EntryTag" style="stroke:#A80036;stroke-width:1.2000000000000002;" width="113.6" x="470.4" y="577.1625"/><ellipse cx="493.2" cy="589.9625" fill="#ADD1B2" rx="8.8" ry="8.8" style="stroke:#A80036;stroke-width:0.8000000000000002;"/><path d="M495,587.5625 Q495.5625,587.1625 495.55,586.9625 Q495.5375,586.7625 495.75,586.7625 Q496.125,586.7625 496.3625,586.9375 Q496.6,587.1 496.6,587.4875 L496.6,588.425 Q496.6,588.825 496.4875,589 Q496.375,589.1625 496.2,589.1625 Q496.0375,589.1625 495.95,589.025 Q495.85,588.8875 495.8,588.525 Q495.75,588.275 495.6,588.1375 Q495.2875,587.875 494.75,587.725 Q494.2125,587.5625 493.675,587.5625 Q493,587.5625 492.375,587.825 Q491.7625,588.0875 491.375,588.675 Q491,589.25 491,590.05 L491,590.9125 Q491,591.875 491.675,592.525 Q492.35,593.1625 493.55,593.1625 Q494.2625,593.1625 494.7625,592.8375 Q495.05,592.65 495.375,592.1 Q495.5875,591.7625 495.7,591.6625 Q495.8125,591.5625 495.95,591.5625 Q496.2125,591.5625 496.4,591.775 Q496.6,591.975 496.6,592.2625 Q496.6,592.5375 495.925,592.8625 Q495.925,593.3375 495.2875,593.6 Q494.45,593.9625 493.425,593.9625 Q492.225,593.9625 491.2625,593.5375 Q490.4875,593.2 489.9375,592.475 Q489.4,591.7375 489.4,590.8625 L489.4,590.0875 Q489.4,589.175 489.875,588.4 Q490.3625,587.6125 491.2,587.1875 Q492.05,586.7625 493,586.7625 Q493.575,586.7625 494.125,586.9125 Q494.675,587.0625 495,587.5625 Z " fill="#000000"/><text fill="#000000" font-family="monospace" font-size="12.8" font-weight="bold" lengthAdjust="spacing" textLength="64" x="506.8" y="594.475">EntryTag</text><line style="stroke:#A80036;stroke-width:1.2000000000000002;" x1="471.2" x2="583.2" y1="602.7625" y2="602.7625"/><text fill="#000000" font-family="monospace" font-size="12.8" lengthAdjust="spacing" textLength="80" x="475.2" y="618.8313">id   : int</text><text fill="#000000" font-family="monospace" font-size="12.8" lengthAdjust="spacing" textLength="104" x="475.2" y="635.5438">name : String</text><line style="stroke:#A80036;stroke-width:1.2000000000000002;" x1="471.2" x2="583.2" y1="642.5875" y2="642.5875"/><!--MD5=[0366a75604b4b181d94e41fa62d982a6]
class EntryFieldDatum--><rect codeLine="47" fill="#FEFECE" height="55.1125" id="EntryFieldDatum" style="stroke:#A80036;stroke-width:1.2000000000000002;" width="177.6" x="612" y="585.5625"/><ellipse cx="638.4" cy="598.3625" fill="#A9DCDF" rx="8.8" ry="8.8" style="stroke:#A80036;stroke-width:0.8000000000000002;"/><path d="M639.55,599.1625 L636.85,599.1625 L636.875,600.7625 L636.875,600.7625 L637.2,600.7625 L637.6,600.875 L637.6,601.1625 L637.6,601.45 L637.2,601.5625 L636.875,601.5625 L635.0375,601.5625 L634.8,601.5625 L634.4,601.45 L634.4,601.1625 L634.4,600.875 L634.8,600.7625 L635.0375,600.7625 L636.95,595.1625 L636.15,595.1625 L635.6,595.1625 L635.2,595.05 L635.2,594.7625 L635.2,594.475 L635.6,594.3625 L636.15,594.3625 L639.5625,594.3625 L641.7625,600.7625 L642,600.7625 L642,600.7625 L642.4,600.875 L642.4,601.1625 L642.4,601.45 L642,601.5625 L641.7625,601.5625 L640.0625,601.5625 L639.6,601.5625 L639.2,601.45 L639.2,601.1625 L639.2,600.875 L639.6,600.7625 L640.0625,600.7625 L640.0625,600.7625 L639.55,599.1625 Z M639.3875,598.3625 L638.4,594.9125 L637.3875,598.3625 L639.3875,598.3625 Z " fill="#000000"/><text fill="#000000" font-family="monospace" font-size="12.8" font-style="italic" font-weight="bold" lengthAdjust="spacing" textLength="120" x="652.8" y="602.875">EntryFieldDatum</text><line style="stroke:#A80036;stroke-width:1.2000000000000002;" x1="612.8" x2="788.8" y1="611.1625" y2="611.1625"/><text fill="#000000" font-family="monospace" font-size="12.8" lengthAdjust="spacing" textLength="168" x="616.8" y="627.2313">type : EntryFieldType</text><line style="stroke:#A80036;stroke-width:1.2000000000000002;" x1="612.8" x2="788.8" y1="634.275" y2="634.275"/><!--MD5=[b2d156dca0a40869c1874008509ae15f]
class EntryType--><rect codeLine="51" fill="#FEFECE" height="105.25" id="EntryType" style="stroke:#A80036;stroke-width:1.2000000000000002;" width="281.6" x="37.6" y="560.3625"/><ellipse cx="139" cy="573.1625" fill="#ADD1B2" rx="8.8" ry="8.8" style="stroke:#A80036;stroke-width:0.8000000000000002;"/><path d="M140.8,570.7625 Q141.3625,570.3625 141.35,570.1625 Q141.3375,569.9625 141.55,569.9625 Q141.925,569.9625 142.1625,570.1375 Q142.4,570.3 142.4,570.6875 L142.4,571.625 Q142.4,572.025 142.2875,572.2 Q142.175,572.3625 142,572.3625 Q141.8375,572.3625 141.75,572.225 Q141.65,572.0875 141.6,571.725 Q141.55,571.475 141.4,571.3375 Q141.0875,571.075 140.55,570.925 Q140.0125,570.7625 139.475,570.7625 Q138.8,570.7625 138.175,571.025 Q137.5625,571.2875 137.175,571.875 Q136.8,572.45 136.8,573.25 L136.8,574.1125 Q136.8,575.075 137.475,575.725 Q138.15,576.3625 139.35,576.3625 Q140.0625,576.3625 140.5625,576.0375 Q140.85,575.85 141.175,575.3 Q141.3875,574.9625 141.5,574.8625 Q141.6125,574.7625 141.75,574.7625 Q142.0125,574.7625 142.2,574.975 Q142.4,575.175 142.4,575.4625 Q142.4,575.7375 141.725,576.0625 Q141.725,576.5375 141.0875,576.8 Q140.25,577.1625 139.225,577.1625 Q138.025,577.1625 137.0625,576.7375 Q136.2875,576.4 135.7375,575.675 Q135.2,574.9375 135.2,574.0625 L135.2,573.2875 Q135.2,572.375 135.675,571.6 Q136.1625,570.8125 137,570.3875 Q137.85,569.9625 138.8,569.9625 Q139.375,569.9625 139.925,570.1125 Q140.475,570.2625 140.8,570.7625 Z " fill="#000000"/><text fill="#000000" font-family="monospace" font-size="12.8" font-weight="bold" lengthAdjust="spacing" textLength="72" x="155.4" y="577.675">EntryType</text><line style="stroke:#A80036;stroke-width:1.2000000000000002;" x1="38.4" x2="318.4" y1="585.9625" y2="585.9625"/><text fill="#000000" font-family="monospace" font-size="12.8" lengthAdjust="spacing" textLength="136" x="42.4" y="602.0313">id          : int</text><text fill="#000000" font-family="monospace" font-size="12.8" lengthAdjust="spacing" textLength="160" x="42.4" y="618.7438">name        : String</text><text fill="#000000" font-family="monospace" font-size="12.8" lengthAdjust="spacing" textLength="240" x="42.4" y="635.4563">cardFormats : List&lt;CardFormat&gt;</text><text fill="#000000" font-family="monospace" font-size="12.8" lengthAdjust="spacing" textLength="272" x="42.4" y="652.1688">fieldSpecs  : List&lt;EntryFieldSpec&gt;</text><line style="stroke:#A80036;stroke-width:1.2000000000000002;" x1="38.4" x2="318.4" y1="659.2125" y2="659.2125"/><!--MD5=[efd546f96fee886f76cb42981cca7ab1]
class EntryFieldSpec--><rect codeLine="58" fill="#FEFECE" height="88.5375" id="EntryFieldSpec" style="stroke:#A80036;stroke-width:1.2000000000000002;" width="177.6" x="271.2" y="835.9625"/><ellipse cx="301.2" cy="848.7625" fill="#ADD1B2" rx="8.8" ry="8.8" style="stroke:#A80036;stroke-width:0.8000000000000002;"/><path d="M303,846.3625 Q303.5625,845.9625 303.55,845.7625 Q303.5375,845.5625 303.75,845.5625 Q304.125,845.5625 304.3625,845.7375 Q304.6,845.9 304.6,846.2875 L304.6,847.225 Q304.6,847.625 304.4875,847.8 Q304.375,847.9625 304.2,847.9625 Q304.0375,847.9625 303.95,847.825 Q303.85,847.6875 303.8,847.325 Q303.75,847.075 303.6,846.9375 Q303.2875,846.675 302.75,846.525 Q302.2125,846.3625 301.675,846.3625 Q301,846.3625 300.375,846.625 Q299.7625,846.8875 299.375,847.475 Q299,848.05 299,848.85 L299,849.7125 Q299,850.675 299.675,851.325 Q300.35,851.9625 301.55,851.9625 Q302.2625,851.9625 302.7625,851.6375 Q303.05,851.45 303.375,850.9 Q303.5875,850.5625 303.7,850.4625 Q303.8125,850.3625 303.95,850.3625 Q304.2125,850.3625 304.4,850.575 Q304.6,850.775 304.6,851.0625 Q304.6,851.3375 303.925,851.6625 Q303.925,852.1375 303.2875,852.4 Q302.45,852.7625 301.425,852.7625 Q300.225,852.7625 299.2625,852.3375 Q298.4875,852 297.9375,851.275 Q297.4,850.5375 297.4,849.6625 L297.4,848.8875 Q297.4,847.975 297.875,847.2 Q298.3625,846.4125 299.2,845.9875 Q300.05,845.5625 301,845.5625 Q301.575,845.5625 302.125,845.7125 Q302.675,845.8625 303,846.3625 Z " fill="#000000"/><text fill="#000000" font-family="monospace" font-size="12.8" font-weight="bold" lengthAdjust="spacing" textLength="112" x="316.4" y="853.275">EntryFieldSpec</text><line style="stroke:#A80036;stroke-width:1.2000000000000002;" x1="272" x2="448" y1="861.5625" y2="861.5625"/><text fill="#000000" font-family="monospace" font-size="12.8" lengthAdjust="spacing" textLength="80" x="276" y="877.6313">id   : int</text><text fill="#000000" font-family="monospace" font-size="12.8" lengthAdjust="spacing" textLength="168" x="276" y="894.3438">type : EntryFieldType</text><text fill="#000000" font-family="monospace" font-size="12.8" lengthAdjust="spacing" textLength="104" x="276" y="911.0563">name : String</text><line style="stroke:#A80036;stroke-width:1.2000000000000002;" x1="272" x2="448" y1="918.1" y2="918.1"/><!--MD5=[a2a32ce212da801967a91f887b856d92]
class CardFormat--><rect codeLine="64" fill="#FEFECE" height="105.25" id="CardFormat" style="stroke:#A80036;stroke-width:1.2000000000000002;" width="225.6" x="9.6" y="827.5625"/><ellipse cx="79" cy="840.3625" fill="#ADD1B2" rx="8.8" ry="8.8" style="stroke:#A80036;stroke-width:0.8000000000000002;"/><path d="M80.8,837.9625 Q81.3625,837.5625 81.35,837.3625 Q81.3375,837.1625 81.55,837.1625 Q81.925,837.1625 82.1625,837.3375 Q82.4,837.5 82.4,837.8875 L82.4,838.825 Q82.4,839.225 82.2875,839.4 Q82.175,839.5625 82,839.5625 Q81.8375,839.5625 81.75,839.425 Q81.65,839.2875 81.6,838.925 Q81.55,838.675 81.4,838.5375 Q81.0875,838.275 80.55,838.125 Q80.0125,837.9625 79.475,837.9625 Q78.8,837.9625 78.175,838.225 Q77.5625,838.4875 77.175,839.075 Q76.8,839.65 76.8,840.45 L76.8,841.3125 Q76.8,842.275 77.475,842.925 Q78.15,843.5625 79.35,843.5625 Q80.0625,843.5625 80.5625,843.2375 Q80.85,843.05 81.175,842.5 Q81.3875,842.1625 81.5,842.0625 Q81.6125,841.9625 81.75,841.9625 Q82.0125,841.9625 82.2,842.175 Q82.4,842.375 82.4,842.6625 Q82.4,842.9375 81.725,843.2625 Q81.725,843.7375 81.0875,844 Q80.25,844.3625 79.225,844.3625 Q78.025,844.3625 77.0625,843.9375 Q76.2875,843.6 75.7375,842.875 Q75.2,842.1375 75.2,841.2625 L75.2,840.4875 Q75.2,839.575 75.675,838.8 Q76.1625,838.0125 77,837.5875 Q77.85,837.1625 78.8,837.1625 Q79.375,837.1625 79.925,837.3125 Q80.475,837.4625 80.8,837.9625 Z " fill="#000000"/><text fill="#000000" font-family="monospace" font-size="12.8" font-weight="bold" lengthAdjust="spacing" textLength="80" x="95.4" y="844.875">CardFormat</text><line style="stroke:#A80036;stroke-width:1.2000000000000002;" x1="10.4" x2="234.4" y1="853.1625" y2="853.1625"/><text fill="#000000" font-family="monospace" font-size="12.8" lengthAdjust="spacing" textLength="88" x="14.4" y="869.2313">id    : int</text><text fill="#000000" font-family="monospace" font-size="12.8" lengthAdjust="spacing" textLength="112" x="14.4" y="885.9438">name  : String</text><text fill="#000000" font-family="monospace" font-size="12.8" lengthAdjust="spacing" textLength="216" x="14.4" y="902.6563">front : CardFormatStructure</text><text fill="#000000" font-family="monospace" font-size="12.8" lengthAdjust="spacing" textLength="216" x="14.4" y="919.3688">back  : CardFormatStructure</text><line style="stroke:#A80036;stroke-width:1.2000000000000002;" x1="10.4" x2="234.4" y1="926.4125" y2="926.4125"/><!--MD5=[2ebb7e34a8accc695b7c3b6efb33eac9]
class CardFormatStructure--><rect codeLine="71" fill="#FEFECE" height="55.1125" id="CardFormatStructure" style="stroke:#A80036;stroke-width:1.2000000000000002;" width="233.6" x="5.6" y="1169.9625"/><ellipse cx="43" cy="1182.7625" fill="#ADD1B2" rx="8.8" ry="8.8" style="stroke:#A80036;stroke-width:0.8000000000000002;"/><path d="M44.8,1180.3625 Q45.3625,1179.9625 45.35,1179.7625 Q45.3375,1179.5625 45.55,1179.5625 Q45.925,1179.5625 46.1625,1179.7375 Q46.4,1179.9 46.4,1180.2875 L46.4,1181.225 Q46.4,1181.625 46.2875,1181.8 Q46.175,1181.9625 46,1181.9625 Q45.8375,1181.9625 45.75,1181.825 Q45.65,1181.6875 45.6,1181.325 Q45.55,1181.075 45.4,1180.9375 Q45.0875,1180.675 44.55,1180.525 Q44.0125,1180.3625 43.475,1180.3625 Q42.8,1180.3625 42.175,1180.625 Q41.5625,1180.8875 41.175,1181.475 Q40.8,1182.05 40.8,1182.85 L40.8,1183.7125 Q40.8,1184.675 41.475,1185.325 Q42.15,1185.9625 43.35,1185.9625 Q44.0625,1185.9625 44.5625,1185.6375 Q44.85,1185.45 45.175,1184.9 Q45.3875,1184.5625 45.5,1184.4625 Q45.6125,1184.3625 45.75,1184.3625 Q46.0125,1184.3625 46.2,1184.575 Q46.4,1184.775 46.4,1185.0625 Q46.4,1185.3375 45.725,1185.6625 Q45.725,1186.1375 45.0875,1186.4 Q44.25,1186.7625 43.225,1186.7625 Q42.025,1186.7625 41.0625,1186.3375 Q40.2875,1186 39.7375,1185.275 Q39.2,1184.5375 39.2,1183.6625 L39.2,1182.8875 Q39.2,1181.975 39.675,1181.2 Q40.1625,1180.4125 41,1179.9875 Q41.85,1179.5625 42.8,1179.5625 Q43.375,1179.5625 43.925,1179.7125 Q44.475,1179.8625 44.8,1180.3625 Z " fill="#000000"/><text fill="#000000" font-family="monospace" font-size="12.8" font-weight="bold" lengthAdjust="spacing" textLength="152" x="59.4" y="1187.275">CardFormatStructure</text><line style="stroke:#A80036;stroke-width:1.2000000000000002;" x1="6.4" x2="238.4" y1="1195.5625" y2="1195.5625"/><text fill="#000000" font-family="monospace" font-size="12.8" lengthAdjust="spacing" textLength="224" x="10.4" y="1211.6313">components : List&lt;Component&gt;</text><line style="stroke:#A80036;stroke-width:1.2000000000000002;" x1="6.4" x2="238.4" y1="1218.675" y2="1218.675"/><!--MD5=[4e13963c9dc916a21a8436ef39422b32]
class Component--><rect codeLine="75" fill="#FEFECE" height="71.825" id="Component" style="stroke:#A80036;stroke-width:1.2000000000000002;" width="169.6" x="37.6" y="1336.3625"/><ellipse cx="83" cy="1349.1625" fill="#A9DCDF" rx="8.8" ry="8.8" style="stroke:#A80036;stroke-width:0.8000000000000002;"/><path d="M84.15,1349.9625 L81.45,1349.9625 L81.475,1351.5625 L81.475,1351.5625 L81.8,1351.5625 L82.2,1351.675 L82.2,1351.9625 L82.2,1352.25 L81.8,1352.3625 L81.475,1352.3625 L79.6375,1352.3625 L79.4,1352.3625 L79,1352.25 L79,1351.9625 L79,1351.675 L79.4,1351.5625 L79.6375,1351.5625 L81.55,1345.9625 L80.75,1345.9625 L80.2,1345.9625 L79.8,1345.85 L79.8,1345.5625 L79.8,1345.275 L80.2,1345.1625 L80.75,1345.1625 L84.1625,1345.1625 L86.3625,1351.5625 L86.6,1351.5625 L86.6,1351.5625 L87,1351.675 L87,1351.9625 L87,1352.25 L86.6,1352.3625 L86.3625,1352.3625 L84.6625,1352.3625 L84.2,1352.3625 L83.8,1352.25 L83.8,1351.9625 L83.8,1351.675 L84.2,1351.5625 L84.6625,1351.5625 L84.6625,1351.5625 L84.15,1349.9625 Z M83.9875,1349.1625 L83,1345.7125 L81.9875,1349.1625 L83.9875,1349.1625 Z " fill="#000000"/><text fill="#000000" font-family="monospace" font-size="12.8" font-style="italic" font-weight="bold" lengthAdjust="spacing" textLength="72" x="99.4" y="1353.675">Component</text><line style="stroke:#A80036;stroke-width:1.2000000000000002;" x1="38.4" x2="206.4" y1="1361.9625" y2="1361.9625"/><text fill="#000000" font-family="monospace" font-size="12.8" lengthAdjust="spacing" textLength="104" x="42.4" y="1378.0313">name : String</text><text fill="#000000" font-family="monospace" font-size="12.8" lengthAdjust="spacing" textLength="160" x="42.4" y="1394.7438">type : ComponentType</text><line style="stroke:#A80036;stroke-width:1.2000000000000002;" x1="38.4" x2="206.4" y1="1401.7875" y2="1401.7875"/><!--MD5=[8134a134317461ba9fe89065654d1307]
reverse link Deck to DeckIconData--><path codeLine="80" d="M953.928,166.7625 C959.616,166.7625 965.304,166.7625 970.992,166.7625 " fill="none" id="Deck-backto-DeckIconData" style="stroke:#A80036;stroke-width:0.8000000000000002;"/><polygon fill="#A80036" points="943.352,166.7625,948.152,169.9625,952.952,166.7625,948.152,163.5625,943.352,166.7625" style="stroke:#A80036;stroke-width:0.8000000000000002;"/><text fill="#000000" font-family="monospace" font-size="9.6" lengthAdjust="spacing" textLength="22.4" x="942.4786" y="163.7909">1..*</text><text fill="#000000" font-family="monospace" font-size="9.6" lengthAdjust="spacing" textLength="5.6" x="959.0662" y="176.8013">1</text><!--MD5=[ccc747f01eddbd59fce34d989a37199f]
link Deck to Entry--><path codeLine="81" d="M725.928,247.3705 C707.08,266.0585 687.408,285.5625 669.928,302.8905 " fill="none" id="Deck-Entry" style="stroke:#A80036;stroke-width:0.8000000000000002;"/><polygon fill="#A80036" points="666.92,305.8825,674.2909,303.0987,669.7655,303.0713,669.7929,298.5459,666.92,305.8825" style="stroke:#A80036;stroke-width:0.8000000000000002;"/><polygon fill="#A80036" points="728.856,244.4585,721.4964,247.2721,726.0219,247.2812,726.0127,251.8067,728.856,244.4585" style="stroke:#A80036;stroke-width:0.8000000000000002;"/><polygon fill="#000000" points="704.9275,277.6827,710.3627,274.9427,707.7142,272.2713,704.9275,277.6827" style="stroke:#000000;stroke-width:0.8000000000000002;"/><text fill="#000000" font-family="monospace" font-size="9.6" lengthAdjust="spacing" textLength="22.4" x="714.4" y="278.8141">owns</text><text fill="#000000" font-family="monospace" font-size="9.6" lengthAdjust="spacing" textLength="5.6" x="717.1047" y="260.5313">1</text><text fill="#000000" font-family="monospace" font-size="9.6" lengthAdjust="spacing" textLength="22.4" x="649.2976" y="296.7772">0..*</text><!--MD5=[9979ec116d4477b40d23877d49752063]
link Entry to Card--><path codeLine="82" d="M750.952,390.7625 C794.68,409.4345 832,438.9145 832,485.1625 C832,485.1625 832,485.1625 832,881.1625 C832,931.2505 832,988.5785 832,1028.0105 " fill="none" id="Entry-Card" style="stroke:#A80036;stroke-width:0.8000000000000002;"/><polygon fill="#A80036" points="832,1032.2505,835.2,1025.0505,832,1028.2505,828.8,1025.0505,832,1032.2505" style="stroke:#A80036;stroke-width:0.8000000000000002;"/><polygon fill="#A80036" points="747.248,389.2105,752.6571,394.9395,750.9386,390.753,755.1251,389.0345,747.248,389.2105" style="stroke:#A80036;stroke-width:0.8000000000000002;"/><polygon fill="#000000" points="835.6037,700.2041,836.7393,694.2242,833.0075,694.6988,835.6037,700.2041" style="stroke:#000000;stroke-width:0.8000000000000002;"/><text fill="#000000" font-family="monospace" font-size="9.6" lengthAdjust="spacing" textLength="50.4" x="842.4" y="700.4141">generates</text><text fill="#000000" font-family="monospace" font-size="9.6" lengthAdjust="spacing" textLength="5.6" x="753.3946" y="387.9899">1</text><text fill="#000000" font-family="monospace" font-size="9.6" lengthAdjust="spacing" textLength="22.4" x="808.095" y="1023.1681">1..*</text><!--MD5=[c905f1b8e8f3426bca82a4905da2e16e]
link Deck to Card--><path codeLine="83" d="M874.04,247.9065 C894.664,280.0665 912,318.7545 912,357.9625 C912,357.9625 912,357.9625 912,881.1625 C912,934.4665 886.048,990.2425 863.712,1028.3785 " fill="none" id="Deck-Card" style="stroke:#A80036;stroke-width:0.8000000000000002;"/><polygon fill="#A80036" points="861.56,1032.0105,867.9794,1027.4419,863.5961,1028.5675,862.4705,1024.1842,861.56,1032.0105" style="stroke:#A80036;stroke-width:0.8000000000000002;"/><polygon fill="#A80036" points="871.776,244.4185,873.0272,252.1976,873.9604,247.7694,878.3886,248.7026,871.776,244.4185" style="stroke:#A80036;stroke-width:0.8000000000000002;"/><polygon fill="#000000" points="915.1577,616.6294,917.115,610.8659,913.3535,610.8162,915.1577,616.6294" style="stroke:#000000;stroke-width:0.8000000000000002;"/><text fill="#000000" font-family="monospace" font-size="9.6" lengthAdjust="spacing" textLength="22.4" x="922.4" y="616.8141">owns</text><text fill="#000000" font-family="monospace" font-size="9.6" lengthAdjust="spacing" textLength="5.6" x="870.967" y="260.4883">1</text><text fill="#000000" font-family="monospace" font-size="9.6" lengthAdjust="spacing" textLength="22.4" x="841.5124" y="1023.2105">0..*</text><!--MD5=[aaeb6ccba3c6ba94b26795672558142d]
reverse link Entry to EntryTag--><path codeLine="84" d="M571.936,420.7945 C564.632,433.4345 557.8,446.9945 552.8,460.3625 C538.464,498.7145 532.12,545.5145 529.336,576.9705 " fill="none" id="Entry-backto-EntryTag" style="stroke:#A80036;stroke-width:0.8000000000000002;"/><polygon fill="#FFFFFF" points="577.312,411.7625,572.1083,414.2527,572.4055,420.0139,577.6092,417.5237,577.312,411.7625" style="stroke:#A80036;stroke-width:0.8000000000000002;"/><polygon fill="#000000" points="555.1579,489.0513,558.4959,483.9614,554.8667,482.9715,555.1579,489.0513" style="stroke:#000000;stroke-width:0.8000000000000002;"/><text fill="#000000" font-family="monospace" font-size="9.6" lengthAdjust="spacing" textLength="11.2" x="594" y="476.8141">is</text><text fill="#000000" font-family="monospace" font-size="9.6" lengthAdjust="spacing" textLength="72.8" x="563.2" y="489.3484">categorizable</text><text fill="#000000" font-family="monospace" font-size="9.6" lengthAdjust="spacing" textLength="11.2" x="596.8" y="501.8828">by</text><text fill="#000000" font-family="monospace" font-size="9.6" lengthAdjust="spacing" textLength="22.4" x="550.1587" y="427.2654">0..*</text><text fill="#000000" font-family="monospace" font-size="9.6" lengthAdjust="spacing" textLength="22.4" x="505.4914" y="567.9542">0..*</text><!--MD5=[70d7557a94af25ce1808f2d96c9065c9]
reverse link Entry to EntryFieldDatum--><path codeLine="85" d="M635.568,421.4985 C653.472,473.8825 678.272,546.4425 691.544,585.2745 " fill="none" id="Entry-backto-EntryFieldDatum" style="stroke:#A80036;stroke-width:0.8000000000000002;"/><polygon fill="#A80036" points="632.2,411.6345,630.7286,417.2126,635.3116,420.7162,636.7831,415.1382,632.2,411.6345" style="stroke:#A80036;stroke-width:0.8000000000000002;"/><polygon fill="#000000" points="669.8349,489.1249,669.7426,483.0388,666.1829,484.2555,669.8349,489.1249" style="stroke:#000000;stroke-width:0.8000000000000002;"/><text fill="#000000" font-family="monospace" font-size="9.6" lengthAdjust="spacing" textLength="61.6" x="678.8" y="483.2141">has data of</text><text fill="#000000" font-family="monospace" font-size="9.6" lengthAdjust="spacing" textLength="72.8" x="676" y="495.7484">each field in</text><text fill="#000000" font-family="monospace" font-size="9.6" lengthAdjust="spacing" textLength="72.8" x="645.7841" y="427.236">&lt;&lt;qualifier&gt;&gt;</text><text fill="#000000" font-family="monospace" font-size="9.6" lengthAdjust="spacing" textLength="89.6" x="637.3841" y="439.7704">[EntryFieldSpec]</text><text fill="#000000" font-family="monospace" font-size="9.6" lengthAdjust="spacing" textLength="5.6" x="679.3841" y="452.3048">1</text><text fill="#000000" font-family="monospace" font-size="9.6" lengthAdjust="spacing" textLength="5.6" x="683.5705" y="576.3156">1</text><!--MD5=[255c1cea35baf15e69e7ce5cb9234b82]
link Entry to EntryFieldSpec--><path codeLine="86" d="M481.512,381.2345 C426.456,398.5465 375.2,429.5785 375.2,485.1625 C375.2,485.1625 375.2,485.1625 375.2,753.9625 C375.2,779.8105 371.984,808.4425 368.52,831.8265 " fill="none" id="Entry-to-EntryFieldSpec" style="stroke:#A80036;stroke-width:0.8000000000000002;stroke-dasharray:7.0,7.0;"/><polygon fill="#A80036" points="367.912,835.8345,372.1653,829.202,368.5177,831.8806,365.8391,828.233,367.912,835.8345" style="stroke:#A80036;stroke-width:0.8000000000000002;"/><polygon fill="#000000" points="377.6217,616.5336,380.8541,611.3761,377.2053,610.4611,377.6217,616.5336" style="stroke:#000000;stroke-width:0.8000000000000002;"/><text fill="#000000" font-family="monospace" font-size="9.6" lengthAdjust="spacing" textLength="56" x="385.6" y="616.8141">depends on</text><!--MD5=[cfec0ab29adb9efd8a6c964edc7a195e]
link Entry to EntryType--><path codeLine="87" d="M477.608,374.2025 C407.992,387.4105 325.488,412.5465 264.8,460.3625 C233.64,484.9145 211.776,524.0105 197.84,556.4025 " fill="none" id="Entry-EntryType" style="stroke:#A80036;stroke-width:0.8000000000000002;"/><polygon fill="#A80036" points="196.184,560.3225,201.9474,554.95,197.75,556.6418,196.0583,552.4444,196.184,560.3225" style="stroke:#A80036;stroke-width:0.8000000000000002;"/><polygon fill="#A80036" points="481.544,373.4665,473.8751,371.6589,477.6135,374.2092,475.0633,377.9477,481.544,373.4665" style="stroke:#A80036;stroke-width:0.8000000000000002;"/><polygon fill="#000000" points="265.3185,487.9776,271.1958,486.3946,269.1429,483.2423,265.3185,487.9776" style="stroke:#000000;stroke-width:0.8000000000000002;"/><text fill="#000000" font-family="monospace" font-size="9.6" lengthAdjust="spacing" textLength="78.4" x="275.2" y="470.8141">has fields and</text><text fill="#000000" font-family="monospace" font-size="9.6" lengthAdjust="spacing" textLength="22.4" x="300.4" y="483.3484">Card</text><text fill="#000000" font-family="monospace" font-size="9.6" lengthAdjust="spacing" textLength="56" x="283.6" y="495.8828">generation</text><text fill="#000000" font-family="monospace" font-size="9.6" lengthAdjust="spacing" textLength="56" x="286.4" y="508.4172">defined by</text><text fill="#000000" font-family="monospace" font-size="9.6" lengthAdjust="spacing" textLength="22.4" x="452.6165" y="371.5325">0..*</text><text fill="#000000" font-family="monospace" font-size="9.6" lengthAdjust="spacing" textLength="5.6" x="192.3165" y="551.2218">1</text><!--MD5=[2aac9294946bbd31e65ecbfd6b136182]
reverse link EntryType to CardFormat--><path codeLine="88" d="M151.824,676.0185 C145.712,692.5065 139.88,710.4825 136,727.5625 C128.584,760.2425 125.176,797.7465 123.624,827.3145 " fill="none" id="EntryType-backto-CardFormat" style="stroke:#A80036;stroke-width:0.8000000000000002;"/><polygon fill="#A80036" points="155.544,666.2345,150.8442,669.5799,152.1247,675.2049,156.8245,671.8595,155.544,666.2345" style="stroke:#A80036;stroke-width:0.8000000000000002;"/><polygon fill="#000000" points="138.6137,756.5771,141.5234,751.2309,137.8253,750.5416,138.6137,756.5771" style="stroke:#000000;stroke-width:0.8000000000000002;"/><text fill="#000000" font-family="monospace" font-size="9.6" lengthAdjust="spacing" textLength="67.2" x="146.4" y="738.0141">contains for</text><text fill="#000000" font-family="monospace" font-size="9.6" lengthAdjust="spacing" textLength="50.4" x="154.8" y="750.5484">each Card</text><text fill="#000000" font-family="monospace" font-size="9.6" lengthAdjust="spacing" textLength="67.2" x="146.4" y="763.0828">generated by</text><text fill="#000000" font-family="monospace" font-size="9.6" lengthAdjust="spacing" textLength="56" x="154.8" y="775.6172">each Entry</text><text fill="#000000" font-family="monospace" font-size="9.6" lengthAdjust="spacing" textLength="5.6" x="147.4185" y="681.7445">1</text><text fill="#000000" font-family="monospace" font-size="9.6" lengthAdjust="spacing" textLength="22.4" x="100.0705" y="818.1898">1..*</text><!--MD5=[fb4432f1c08088e56047396f0082ea25]
link CardFormat to Card--><path codeLine="89" d="M239.392,927.4265 C245.256,929.4265 251.08,931.3545 256.8,933.1625 C434.536,989.3625 648.784,1037.5385 758.848,1060.8985 " fill="none" id="CardFormat-Card" style="stroke:#A80036;stroke-width:0.8000000000000002;"/><polygon fill="#A80036" points="763.048,1061.7865,756.6719,1057.1578,759.1356,1060.9538,755.3396,1063.4176,763.048,1061.7865" style="stroke:#A80036;stroke-width:0.8000000000000002;"/><polygon fill="#A80036" points="235.328,926.0265,241.0935,931.3967,239.11,927.3291,243.1776,925.3455,235.328,926.0265" style="stroke:#A80036;stroke-width:0.8000000000000002;"/><polygon fill="#000000" points="529.4993,983.8276,524.3607,980.5652,523.4245,984.2087,529.4993,983.8276" style="stroke:#000000;stroke-width:0.8000000000000002;"/><text fill="#000000" font-family="monospace" font-size="9.6" lengthAdjust="spacing" textLength="50.4" x="544.8" y="967.6141">specifies</text><text fill="#000000" font-family="monospace" font-size="9.6" lengthAdjust="spacing" textLength="72.8" x="533.6" y="980.1484">display style</text><text fill="#000000" font-family="monospace" font-size="9.6" lengthAdjust="spacing" textLength="72.8" x="533.6" y="992.6828">and structure</text><text fill="#000000" font-family="monospace" font-size="9.6" lengthAdjust="spacing" textLength="11.2" x="567.2" y="1005.2172">of</text><text fill="#000000" font-family="monospace" font-size="9.6" lengthAdjust="spacing" textLength="5.6" x="241.6569" y="925.8714">1</text><text fill="#000000" font-family="monospace" font-size="9.6" lengthAdjust="spacing" textLength="22.4" x="734.5114" y="1057.8626">0..*</text><!--MD5=[16d0c882c8d324787220be535d491a6e]
reverse link EntryType to EntryFieldSpec--><path codeLine="90" d="M211.616,675.2985 C229.528,706.9545 252.696,745.7545 276,778.7625 C289.728,798.2105 306.248,818.5785 320.992,835.8745 " fill="none" id="EntryType-backto-EntryFieldSpec" style="stroke:#A80036;stroke-width:0.8000000000000002;"/><polygon fill="#A80036" points="206.472,666.1465,206.0359,671.8989,211.178,674.5139,211.6141,668.7615,206.472,666.1465" style="stroke:#A80036;stroke-width:0.8000000000000002;"/><polygon fill="#000000" points="281.0015,755.9416,279.2971,750.0983,276.188,752.2161,281.0015,755.9416" style="stroke:#000000;stroke-width:0.8000000000000002;"/><text fill="#000000" font-family="monospace" font-size="9.6" lengthAdjust="spacing" textLength="56" x="289.2" y="750.4141">has fields</text><text fill="#000000" font-family="monospace" font-size="9.6" lengthAdjust="spacing" textLength="67.2" x="286.4" y="762.9484">specified by</text><text fill="#000000" font-family="monospace" font-size="9.6" lengthAdjust="spacing" textLength="5.6" x="203.3597" y="681.6478">1</text><text fill="#000000" font-family="monospace" font-size="9.6" lengthAdjust="spacing" textLength="22.4" x="291.8453" y="826.7953">1..*</text><!--MD5=[499010a3f9f5c1505401b65f50e7d61b]
reverse link CardFormat to CardFormatStructure--><path codeLine="91" d="M122.4,943.7705 C122.4,1012.6345 122.4,1120.0985 122.4,1169.8345 " fill="none" id="CardFormat-backto-CardFormatStructure" style="stroke:#A80036;stroke-width:0.8000000000000002;"/><polygon fill="#A80036" points="122.4,933.2745,119.2,938.0745,122.4,942.8745,125.6,938.0745,122.4,933.2745" style="stroke:#A80036;stroke-width:0.8000000000000002;"/><polygon fill="#000000" points="125.6,1080.0969,127.4809,1074.308,123.7191,1074.308,125.6,1080.0969" style="stroke:#000000;stroke-width:0.8000000000000002;"/><text fill="#000000" font-family="monospace" font-size="9.6" lengthAdjust="spacing" textLength="72.8" x="132.8" y="1074.0141">has structure</text><text fill="#000000" font-family="monospace" font-size="9.6" lengthAdjust="spacing" textLength="67.2" x="138.4" y="1086.5484">specified by</text><text fill="#000000" font-family="monospace" font-size="9.6" lengthAdjust="spacing" textLength="5.6" x="116.5113" y="949.047">1</text><text fill="#000000" font-family="monospace" font-size="9.6" lengthAdjust="spacing" textLength="5.6" x="116.2225" y="1160.5938">2</text><!--MD5=[2e2e4d03125a574c29033226ea946ab3]
reverse link CardFormatStructure to Component--><path codeLine="92" d="M122.4,1235.8425 C122.4,1265.6585 122.4,1307.0825 122.4,1336.3065 " fill="none" id="CardFormatStructure-backto-Component" style="stroke:#A80036;stroke-width:0.8000000000000002;"/><polygon fill="#A80036" points="122.4,1225.4265,119.2,1230.2265,122.4,1235.0265,125.6,1230.2265,122.4,1225.4265" style="stroke:#A80036;stroke-width:0.8000000000000002;"/><polygon fill="#000000" points="125.6,1284.2297,127.4809,1278.4408,123.7191,1278.4408,125.6,1284.2297" style="stroke:#000000;stroke-width:0.8000000000000002;"/><text fill="#000000" font-family="monospace" font-size="9.6" lengthAdjust="spacing" textLength="78.4" x="132.8" y="1284.4141">is composed of</text><text fill="#000000" font-family="monospace" font-size="9.6" lengthAdjust="spacing" textLength="5.6" x="116.3013" y="1241.1655">1</text><text fill="#000000" font-family="monospace" font-size="9.6" lengthAdjust="spacing" textLength="22.4" x="98.145" y="1327.0513">0..*</text><text fill="#888888" font-family="monospace" font-size="12.8" lengthAdjust="spacing" textLength="240" x="464" y="1425.8563">Copyright (C) 2020 Cervon Wong</text><!--MD5=[c58cbd3eb37bea2a2f2749469c1f9101]
@startuml
skinparam classAttributeIconSize 0
skinparam wrapWidth 400

skinparam maxMessageSize 100
skinparam shadowing false
skinparam defaultFontName monospaced
skinparam defaultFontSize 16
skinparam classFontStyle bold
skinparam arrowFontSize 12
skinparam titleFontSize 24
skinparam titleFontStyle bold

header This diagram is part of a visualisation of the code written for Sona.\n View the project at github.com/cervonwong/sona-flutter.
title Relationships of material entities.\n
footer Copyright (C) 2020 Cervon Wong

class Card {
	id        : int
	isStarred : bool
	isHidden  : bool
}

class Entry {
	id        : int
	tags      : Set<EntryTag>
	fieldData : Map<EntryFieldSpec, EntryFieldDatum>
}

class Deck {
	id                 : int
	name               : String
	createdDateTime    : DateTime
	lastEditedDateTime : DateTime
	authorName         : String?
	description        : String?
	iconData           : DeckIconData
}

class DeckIconData {
	color   : DeckIconColor
	symbol  : DeckIconSymbol
}

class EntryTag {
	id   : int
	name : String
}

abstract class EntryFieldDatum {
	type : EntryFieldType
}

class EntryType {
	id          : int
	name        : String
	cardFormats : List<CardFormat>
	fieldSpecs  : List<EntryFieldSpec>
}

class EntryFieldSpec {
	id   : int
	type : EntryFieldType
	name : String
}

class CardFormat {
	id    : int
	name  : String
	front : CardFormatStructure
	back  : CardFormatStructure
}

class CardFormatStructure {
	components : List<Component>
}

abstract class Component {
	name : String
	type : ComponentType
}

Deck 				"1..*"								 *-   "1"    DeckIconData
Deck                "1"                                  <- -> "0..*" Entry               : owns >
Entry               "1"                                  <- -> "1..*" Card                : generates >
Deck                "1"                                  <- -> "0..*" Card                : owns >
Entry               "0..*"                               o- - - "0..*" EntryTag            : is categorizable by >
Entry               "<<qualifier>>\n[EntryFieldSpec]\n1" *- - - "1"    EntryFieldDatum     : has data of each field in >
Entry                                                    ..>         EntryFieldSpec      : depends on >
Entry               "0..*"                               <- - -> "1"   EntryType           : has fields and Card generation defined by >
EntryType           "1"                                  *- - - "1..*" CardFormat          : contains for each Card generated by each Entry >
CardFormat          "1"                                  <- -> "0..*" Card                : specifies display style and structure of >
EntryType           "1"                                  *- - - "1..*" EntryFieldSpec      : has fields specified by >
CardFormat          "1"                                  *- - - "2"    CardFormatStructure : has structure specified by >
CardFormatStructure "1"                                  *- - - "0..*" Component           : is composed of >

@enduml

PlantUML version 1.2021.5(Sun Apr 25 19:20:28 SGT 2021)
(GPL source distribution)
Java Runtime: OpenJDK Runtime Environment
JVM: Dynamic Code Evolution 64-Bit Server VM
Default Encoding: Cp1252
Language: en
Country: GB
--></g></svg>