<?xml version="1.0" encoding="UTF-8" standalone="no"?><svg xmlns="http://www.w3.org/2000/svg" xmlns:xlink="http://www.w3.org/1999/xlink" contentScriptType="application/ecmascript" contentStyleType="text/css" height="3494.4px" preserveAspectRatio="none" style="width:3030px;height:3494px;" version="1.1" viewBox="0 0 3030 3494" width="3030.3px" zoomAndPan="magnify"><defs/><g><text fill="#888888" font-family="monospace" font-size="31.2" lengthAdjust="spacing" textLength="1345.5" x="1659.45" y="31.3676">This diagram is part of a visualisation of the code written for Sona.</text><text fill="#888888" font-family="monospace" font-size="31.2" lengthAdjust="spacing" textLength="1072.5" x="1932.45" y="72.1043">View the project at github.com/cervonwong/sona-flutter.</text><text fill="#000000" font-family="monospace" font-size="46.8" font-weight="bold" lengthAdjust="spacing" textLength="1064.7" x="970.125" y="128.5248">Dependencies between layers of the app.</text><text fill="#000000" font-family="monospace" font-size="46.8" font-weight="bold" lengthAdjust="spacing" textLength="0" x="1516.125" y="189.6299"/><!--MD5=[e3bd33a92827c21193f8eb915c8968a3]
cluster Features--><polygon fill="#FFFFFF" points="592.8,314.8336,612.3,295.3336,2375.1,295.3336,2375.1,3415.3336,2355.6,3434.8336,592.8,3434.8336,592.8,314.8336" style="stroke:#000000;stroke-width:2.925;"/><line style="stroke:#000000;stroke-width:2.925;" x1="2355.6" x2="2375.1" y1="314.8336" y2="295.3336"/><line style="stroke:#000000;stroke-width:2.925;" x1="592.8" x2="2355.6" y1="314.8336" y2="314.8336"/><line style="stroke:#000000;stroke-width:2.925;" x1="2355.6" x2="2355.6" y1="314.8336" y2="3434.8336"/><text fill="#000000" font-family="monospace" font-size="31.2" font-weight="bold" lengthAdjust="spacing" textLength="156" x="1398.15" y="352.0512">Features</text><!--MD5=[8fd473fd151a2794da4f2c8684676405]
cluster Presentation--><path d="M1885.1004,439.5994 C1902.8594,407.1586 1931.6951,402.4123 1954.9967,433.5014 C1974.5413,402.6454 1995.3904,405.5349 2016.5842,431.7207 C2037.4662,398.9863 2058.7617,398.9533 2083.4168,427.6134 C2103.78,393.9717 2133.665,395.2464 2151.224,430.3781 C2175.3357,396.8527 2200.3994,406.4115 2217.0389,437.938 C2244.7348,402.7818 2280.2867,411.661 2295.15,451.3336 C2301.0705,450.713 2305.1171,454.6332 2302.7452,460.7215 C2327.3014,475.3319 2322.3034,497.1255 2301.6178,510.7156 C2336.7459,527.7967 2338.5763,549.0593 2307.9066,572.8047 C2330.2564,585.7763 2330.4724,602.0981 2313.3082,619.628 C2348.3905,639.0047 2346.473,659.7478 2317.7052,683.5187 C2340.2954,700.6935 2341.0728,728.2068 2311.249,739.317 C2335.7471,754.5527 2341.7255,776.675 2315.4326,795.6806 C2339.0814,807.6647 2341.2295,826.8454 2319.982,843.1338 C2346.5563,859.1066 2346.2453,881.6245 2322.1172,899.5173 C2349.1879,917.4756 2345.7384,940.3625 2318.5128,954.7793 C2344.5519,976.4132 2337.6635,1006.426 2307.6565,1018.5131 C2333.7645,1031.1025 2335.8288,1050.474 2313.9157,1069.0152 C2335.8755,1087.2278 2333.4815,1114.0332 2303.8061,1122.4827 C2330.7635,1140.5643 2335.5007,1163.7711 2303.6563,1181.7039 C2330.6766,1209.2415 2314.0749,1238.3122 2281.5,1244.9836 C2283.5236,1246.0262 2283.6446,1247.7696 2281.5695,1248.8853 C2269.3607,1277.9311 2243.2297,1279.4049 2224.9348,1255.3801 C2210.9552,1285.1272 2177.7434,1290.6611 2157.1737,1263.1835 C2133.6231,1293.2483 2108.7256,1299.0512 2085.3065,1263.0404 C2065.0175,1291.2763 2034.6473,1294.4993 2019.0617,1258.2115 C1997.9853,1287.0227 1971.7006,1283.2422 1957.3031,1251.4098 C1922.2222,1293.847 1883.2499,1283.9929 1870.05,1231.3336 C1874.5114,1228.3893 1878.1513,1230.3938 1878.0732,1235.7313 C1848.9854,1225.3685 1848.7384,1200.1239 1869.947,1182.1351 C1847.6,1163.5169 1843.2938,1142.1081 1873.3616,1126.7196 C1842.6617,1115.7154 1842.2594,1089.3582 1863.6357,1069.502 C1836.3852,1050.4759 1835.9096,1031.0606 1865.7042,1014.1671 C1836.238,998.7896 1826.9614,976.7585 1857.3619,953.1904 C1834.5229,937.4967 1833.0696,923.3445 1856.5095,906.8004 C1827.7391,892.5268 1827.3616,871.2207 1847.7343,849.4303 C1827.9497,825.8388 1829.6051,808.6185 1858.7053,794.8537 C1831.4379,778.2871 1831.8003,753.5837 1858.9206,737.2203 C1831.5308,716.6644 1837.86,695.5935 1863.737,679.4809 C1833.3936,657.6829 1833.3248,639.2 1866.2398,620.0666 C1841.0538,603.2967 1842.033,587.0389 1863.3476,567.7007 C1839.1703,548.384 1835.7428,525.879 1867.469,510.597 C1839.3174,477.944 1848.5957,456.2555 1883.7,437.6836 C1884.9404,437.6492 1885.5085,438.4288 1885.1004,439.5994 " fill="#FFFFFF" style="stroke:#000000;stroke-width:2.925;"/><text fill="#000000" font-family="monospace" font-size="31.2" font-weight="bold" lengthAdjust="spacing" textLength="234" x="1965.6" y="478.8012">Presentation</text><!--MD5=[121a8bf1197281ab89ed693fab589f94]
cluster Domain--><path d="M1797.7775,1623.5298 C1826.1535,1575.3856 1860.03,1583.5334 1891.5275,1620.0742 C1924.7942,1572.2911 1966.31,1570.434 2002.787,1616.2585 C2031.3816,1567.3668 2071.4568,1580.3991 2096.8918,1619.6326 C2132.0657,1573.1478 2173.4676,1577.8778 2199.6,1629.1336 C2207.7919,1628.6818 2213.0471,1633.3603 2209.5618,1641.9704 C2249.5421,1668.6839 2245.7982,1704.1851 2209.3328,1730.7013 C2254.9495,1758.8625 2260.4256,1791.4019 2214.7382,1824.8075 C2250.0617,1858.0485 2249.39,1891.5495 2202.2469,1913.1271 C2242.324,1939.84 2244.5144,1971.2654 2207.908,2002.8183 C2252.554,2022.6282 2251.5026,2052.1552 2216.3334,2080.6097 C2255.982,2110.0755 2258.2588,2148.5204 2211.1723,2173.1489 C2261.034,2197.9189 2256.6759,2242.6266 2218.235,2273.6049 C2252.9941,2303.477 2260.6726,2328.4071 2215.2188,2355.3184 C2256.5936,2385.8327 2248.4263,2427.4433 2204.6003,2448.2192 C2245.279,2476.8716 2248.0926,2515.2897 2203.017,2542.502 C2242.1598,2568.534 2249.7144,2593.8202 2207.19,2624.0322 C2260.4343,2653.3882 2252.1746,2690.6003 2208.49,2721.2524 C2250.2667,2751.4685 2257.7343,2782.6711 2208.0214,2812.4169 C2236.8483,2850.8918 2235.9104,2883.316 2185.95,2902.4836 C2190.9522,2903.9029 2192.3017,2906.6902 2188.7573,2910.9451 C2167.0599,2949.0325 2132.9219,2953.9922 2102.8947,2921.0085 C2072.3463,2959.8171 2030.8336,2970.0751 2003.7377,2917.2717 C1970.8404,2972.1234 1930.1651,2970.6981 1894.6256,2920.0032 C1849.6197,2967.1811 1790.2987,2959.7842 1776.45,2888.8336 C1786.2979,2889.613 1788.345,2897.4099 1783.5254,2904.7213 C1730.2614,2876.125 1746.5597,2826.4277 1789.3817,2803.3842 C1743.6361,2781.6539 1745.4322,2745.2567 1786.5814,2720.5875 C1741.5552,2697.3975 1724.6019,2657.644 1770.5718,2619.9747 C1732.0052,2586.8772 1730.2585,2556.0969 1780.0843,2532.6255 C1737.7938,2508.4416 1732.4619,2481.1282 1769.1705,2446.8883 C1728.7773,2413.8662 1725.2517,2384.2977 1772.5858,2354.5193 C1723.2963,2337.1466 1724.4536,2295.2555 1756.5039,2263.5096 C1722.421,2232.6818 1727.6787,2198.5952 1772.5897,2183.686 C1723.4156,2162.0355 1723.0262,2118.7588 1762.2994,2087.6327 C1722.0472,2053.3157 1740.0478,2020.9233 1780.4316,2004.1123 C1741.0273,1975.3984 1730.4111,1949.2163 1774.7684,1915.1692 C1724.4588,1890.7583 1729.627,1850.6554 1772.4158,1823.8463 C1732.8234,1790.9874 1733.7118,1755.6895 1781.274,1731.1602 C1734.0757,1691.6624 1737.0178,1647.3301 1790.1,1615.4836 C1796.9678,1613.8791 1799.7193,1616.7283 1797.7775,1623.5298 " fill="#FFFFFF" style="stroke:#000000;stroke-width:2.925;"/><text fill="#000000" font-family="monospace" font-size="31.2" font-weight="bold" lengthAdjust="spacing" textLength="117" x="1929.525" y="1656.6012">Domain</text><!--MD5=[f21b1f164e99c6b37934f23ad048ad54]
cluster Data--><path d="M702.7609,1596.7846 C731.8518,1552.4046 777.6837,1543.5627 805.9322,1597.6672 C838.1139,1556.2417 867.2825,1551.3114 900.8462,1596.1465 C928.5757,1548.2756 955.7982,1541.6179 992.738,1587.0784 C1025.6728,1544.3315 1061.526,1535.5935 1096.7018,1584.5375 C1128.2125,1547.4736 1163.9983,1541.9403 1187.3646,1592.9238 C1218.1158,1546.3309 1249.4418,1546.0784 1280.665,1592.4502 C1306.5556,1545.6773 1341.2384,1544.0062 1370.801,1588.837 C1397.5401,1545.1154 1440.4332,1538.5991 1472.3861,1582.814 C1504.5863,1534.8392 1547.8666,1544.6347 1575.5127,1587.9581 C1608.9607,1541.0067 1642.5148,1543.3405 1667.25,1595.9836 C1675.7427,1590.759 1681.5017,1596.1772 1681.1128,1604.8458 C1723.5512,1640.7009 1717.2132,1674.8479 1673.7059,1704.3023 C1719.0847,1726.8077 1727.5106,1759.233 1684.5328,1792.5755 C1728.8441,1822.6262 1720.3401,1856.2097 1682.6371,1884.5703 C1719.6462,1916.4555 1719.7456,1953.7564 1677.1751,1981.1404 C1731.8591,2010.6879 1725.5815,2045.8532 1681.7697,2079.9794 C1734.5924,2103.5894 1736.0053,2152.3471 1686.2936,2180.5685 C1720.217,2209.2541 1722.0237,2237.119 1683.2603,2263.1343 C1720.6212,2294.9528 1723.7606,2339.6028 1672.7241,2362.0009 C1713.7798,2390.1722 1724.1413,2427.6913 1674.8667,2457.8812 C1719.5445,2481.4008 1713.3584,2521.5584 1675.5093,2545.6821 C1716.8838,2579.0543 1731.1027,2613.8023 1676.4774,2648.0821 C1726.31,2669.6619 1717.9917,2707.2314 1683.587,2735.6504 C1728.8594,2773.281 1730.5305,2807.1857 1673.6931,2834.6072 C1711.6464,2869.7231 1704.1384,2918.1178 1653.6,2935.6336 C1656.6649,2931.248 1661.1536,2932.015 1663.5127,2936.4286 C1645.6435,2978.7617 1601.269,2992.2388 1571.525,2949.2279 C1542.928,2990.7801 1503.7561,2983.4158 1479.4519,2944.3265 C1453.5158,2998.3168 1415.7038,2997.7885 1378.1964,2956.642 C1350.5349,3009.1717 1317.7408,3001.6718 1281.6336,2965.8752 C1247.9681,3009.3794 1212.2175,3017.3313 1182.5729,2961.8512 C1156.5757,3011.258 1113.9717,3010.8133 1086.6286,2963.1819 C1057.669,2999.4098 1010.1269,2999.2954 991.7261,2951.2863 C964.9772,2994.5567 932.9478,2999.2744 898.2157,2960.3708 C868.606,3009.4184 826.5263,3004.3641 800.3426,2956.8967 C748.8729,2999.7931 706.5443,2981.321 686.4,2921.9836 C690.3664,2920.9633 692.6426,2922.182 692.2792,2926.6347 C650.7932,2904.2033 646.7534,2861.7244 691.7507,2838.7727 C642.9632,2812.5707 642.117,2767.3332 693.3185,2742.7639 C641.6217,2714.8497 654.2615,2663.814 697.5641,2639.8176 C655.5133,2620.4469 649.2787,2578.4839 692.9217,2554.453 C643.2419,2525.2218 633.232,2492.0024 681.8063,2452.1008 C644.065,2425.2746 641.2918,2381.6861 686.9713,2359.5135 C641.1237,2333.003 631.1558,2300.5881 678.8327,2265.9431 C636.7109,2241.2207 641.2323,2195.9913 679.7705,2172.0747 C638.917,2141.1603 638.3159,2093.3462 692.2937,2074.6175 C643.3863,2047.9751 645.9383,2004.8353 692.6325,1978.5299 C649.2184,1951.078 644.457,1921.389 684.1274,1886.2772 C635.8055,1851.4829 653.91,1813.059 696.877,1790.4047 C646.6484,1760.0987 646.7792,1732.4651 693.927,1699.0158 C634.2698,1663.9447 636.6541,1610.9473 700.05,1582.3336 C707.931,1585.7339 709.6204,1590.6191 702.7609,1596.7846 " fill="#FFFFFF" style="stroke:#000000;stroke-width:2.925;"/><text fill="#000000" font-family="monospace" font-size="31.2" font-weight="bold" lengthAdjust="spacing" textLength="78" x="1137.825" y="1623.4512">Data</text><!--MD5=[2c2e2644034c00788261e03c85b06837]
cluster Core--><polygon fill="#FFFFFF" points="2453.1,408.4336,2472.6,388.9336,2997.15,388.9336,2997.15,714.5836,2977.65,734.0836,2453.1,734.0836,2453.1,408.4336" style="stroke:#000000;stroke-width:2.925;"/><line style="stroke:#000000;stroke-width:2.925;" x1="2977.65" x2="2997.15" y1="408.4336" y2="388.9336"/><line style="stroke:#000000;stroke-width:2.925;" x1="2453.1" x2="2977.65" y1="408.4336" y2="408.4336"/><line style="stroke:#000000;stroke-width:2.925;" x1="2977.65" x2="2977.65" y1="408.4336" y2="734.0836"/><text fill="#000000" font-family="monospace" font-size="31.2" font-weight="bold" lengthAdjust="spacing" textLength="78" x="2678.325" y="445.6512">Core</text><path d="M888.225,3042.8836 L888.225,3388.2773 A0,0 0 0 0 888.225,3388.2773 L1397.175,3388.2773 A0,0 0 0 0 1397.175,3388.2773 L1397.175,3062.3836 L1377.675,3042.8836 L1150.5,3042.8836 L1142.7,2920.9111 L1134.9,3042.8836 L888.225,3042.8836 A0,0 0 0 0 888.225,3042.8836 " fill="#FBFB77" style="stroke:#A80036;stroke-width:1.95;"/><path d="M1377.675,3042.8836 L1377.675,3062.3836 L1397.175,3062.3836 L1377.675,3042.8836 " fill="#FBFB77" style="stroke:#A80036;stroke-width:1.95;"/><text fill="#000000" font-family="monospace" font-size="31.2" lengthAdjust="spacing" textLength="351" x="899.925" y="3084.0012">Models are part of</text><text fill="#000000" font-family="monospace" font-size="31.2" lengthAdjust="spacing" textLength="370.5" x="899.925" y="3124.7379">the database due to</text><text fill="#000000" font-family="monospace" font-size="31.2" lengthAdjust="spacing" textLength="351" x="899.925" y="3165.4746">the limitations of</text><text fill="#000000" font-family="monospace" font-size="31.2" lengthAdjust="spacing" textLength="390" x="899.925" y="3206.2113">moor's builders. See</text><text fill="#000000" font-family="monospace" font-size="31.2" font-style="italic" lengthAdjust="spacing" textLength="370.5" x="899.925" y="3246.948">https://github.com/</text><text fill="#000000" font-family="monospace" font-size="31.2" font-style="italic" lengthAdjust="spacing" textLength="468" x="899.925" y="3287.6848">simolus3/moor/issues/490</text><text fill="#000000" font-family="monospace" font-size="31.2" lengthAdjust="spacing" textLength="390" x="899.925" y="3328.4215">for progress on this</text><text fill="#000000" font-family="monospace" font-size="31.2" lengthAdjust="spacing" textLength="39" x="899.925" y="3369.1582">:)</text><rect fill="#FEFECE" height="145.6102" style="stroke:#A80036;stroke-width:2.925;" width="393.9" x="1885.65" y="542.9836"/><text fill="#000000" font-family="monospace" font-size="31.2" font-weight="bold" lengthAdjust="spacing" textLength="136.5" x="2014.35" y="578.2512">Widgets</text><line style="stroke:#A80036;stroke-width:2.925;" x1="1887.6" x2="2277.6" y1="591.5203" y2="591.5203"/><text fill="#000000" font-family="monospace" font-size="31.2" lengthAdjust="spacing" textLength="351" x="1897.35" y="630.6879">*See diagram on UI</text><text fill="#000000" font-family="monospace" font-size="31.2" lengthAdjust="spacing" textLength="351" x="1897.35" y="671.4246">layer dependencies</text><rect fill="#FEFECE" height="145.6102" style="stroke:#A80036;stroke-width:2.925;" width="354.9" x="1901.25" y="1083.1336"/><text fill="#000000" font-family="monospace" font-size="31.2" font-weight="bold" lengthAdjust="spacing" textLength="312" x="1922.7" y="1118.4012">State Management</text><line style="stroke:#A80036;stroke-width:2.925;" x1="1903.2" x2="2254.2" y1="1131.6703" y2="1131.6703"/><text fill="#000000" font-family="monospace" font-size="31.2" lengthAdjust="spacing" textLength="97.5" x="1912.95" y="1170.8379">BLoC,</text><text fill="#000000" font-family="monospace" font-size="31.2" lengthAdjust="spacing" textLength="331.5" x="1912.95" y="1211.5746">ChangeNotifier...</text><rect fill="#FEFECE" height="79.7367" style="stroke:#A80036;stroke-width:2.925;" width="202.8" x="1922.7" y="1720.7836"/><text fill="#000000" font-family="monospace" font-size="31.2" font-weight="bold" lengthAdjust="spacing" textLength="175.5" x="1936.35" y="1756.0512">Use Cases</text><line style="stroke:#A80036;stroke-width:2.925;" x1="1924.65" x2="2123.55" y1="1769.3203" y2="1769.3203"/><rect fill="#FEFECE" height="79.7367" style="stroke:#A80036;stroke-width:2.925;" width="183.3" x="1932.45" y="2806.9336"/><text fill="#000000" font-family="monospace" font-size="31.2" font-weight="bold" lengthAdjust="spacing" textLength="156" x="1946.1" y="2842.2012">Entities</text><line style="stroke:#A80036;stroke-width:2.925;" x1="1934.4" x2="2113.8" y1="2855.4703" y2="2855.4703"/><rect fill="#FEFECE" height="79.7367" style="stroke:#A80036;stroke-width:2.925;" width="319.8" x="1864.2" y="2248.2586"/><text fill="#000000" font-family="monospace" font-size="31.2" font-weight="bold" lengthAdjust="spacing" textLength="292.5" x="1877.85" y="2283.5262">Repo Interfaces</text><line style="stroke:#A80036;stroke-width:2.925;" x1="1866.15" x2="2182.05" y1="2296.7953" y2="2296.7953"/><rect fill="#FEFECE" height="145.6102" style="stroke:#A80036;stroke-width:2.925;" width="393.9" x="1257.75" y="1687.6336"/><text fill="#000000" font-family="monospace" font-size="31.2" font-weight="bold" lengthAdjust="spacing" textLength="195" x="1357.2" y="1722.9012">Repo Impls</text><line style="stroke:#A80036;stroke-width:2.925;" x1="1259.7" x2="1649.7" y1="1736.1703" y2="1736.1703"/><text fill="#000000" font-family="monospace" font-size="31.2" lengthAdjust="spacing" textLength="351" x="1269.45" y="1775.3379">and Entity&lt;-&gt;Model</text><text fill="#000000" font-family="monospace" font-size="31.2" lengthAdjust="spacing" textLength="136.5" x="1269.45" y="1816.0746">mappers</text><rect fill="#FEFECE" height="104.8734" style="stroke:#A80036;stroke-width:2.925;" width="354.9" x="768.3" y="1708.1086"/><text fill="#000000" font-family="monospace" font-size="31.2" font-weight="bold" lengthAdjust="spacing" textLength="175.5" x="858" y="1743.3762">DAO Impls</text><line style="stroke:#A80036;stroke-width:2.925;" x1="770.25" x2="1121.25" y1="1756.6453" y2="1756.6453"/><text fill="#000000" font-family="monospace" font-size="31.2" lengthAdjust="spacing" textLength="331.5" x="780" y="1795.8129">also Data Sources</text><rect fill="#FEFECE" height="104.8734" style="stroke:#A80036;stroke-width:2.925;" width="354.9" x="965.25" y="2235.5836"/><text fill="#000000" font-family="monospace" font-size="31.2" font-weight="bold" lengthAdjust="spacing" textLength="273" x="1006.2" y="2270.8512">DAO Interfaces</text><line style="stroke:#A80036;stroke-width:2.925;" x1="967.2" x2="1318.2" y1="2284.1203" y2="2284.1203"/><text fill="#000000" font-family="monospace" font-size="31.2" lengthAdjust="spacing" textLength="331.5" x="976.95" y="2323.2879">also Data Sources</text><rect fill="#FEFECE" height="145.6102" style="stroke:#A80036;stroke-width:2.925;" width="354.9" x="965.25" y="2773.7836"/><text fill="#000000" font-family="monospace" font-size="31.2" font-weight="bold" lengthAdjust="spacing" textLength="253.5" x="1015.95" y="2809.0512">Moor Database</text><line style="stroke:#A80036;stroke-width:2.925;" x1="967.2" x2="1318.2" y1="2822.3203" y2="2822.3203"/><text fill="#000000" font-family="monospace" font-size="31.2" lengthAdjust="spacing" textLength="312" x="976.95" y="2861.4879">Configs, Tables,</text><text fill="#000000" font-family="monospace" font-size="31.2" lengthAdjust="spacing" textLength="117" x="976.95" y="2902.2246">Models</text><path d="M2537.925,544.9336 L2537.925,686.6438 L2949.375,686.6438 L2949.375,564.4336 L2929.875,544.9336 L2537.925,544.9336 " fill="#FBFB77" style="stroke:#A80036;stroke-width:1.95;"/><path d="M2929.875,544.9336 L2929.875,564.4336 L2949.375,564.4336 L2929.875,544.9336 " fill="#FBFB77" style="stroke:#A80036;stroke-width:1.95;"/><text fill="#000000" font-family="monospace" font-size="31.2" lengthAdjust="spacing" textLength="331.5" x="2549.625" y="586.0512">Constants, utils,</text><text fill="#000000" font-family="monospace" font-size="31.2" lengthAdjust="spacing" textLength="351" x="2549.625" y="626.7879">shared components,</text><text fill="#000000" font-family="monospace" font-size="31.2" lengthAdjust="spacing" textLength="78" x="2549.625" y="667.5246">etc.</text><rect fill="#FEFECE" height="186.3469" style="stroke:#A80036;stroke-width:2.925;" width="413.4" x="13.65" y="522.5086"/><text fill="#000000" font-family="monospace" font-size="31.2" font-weight="bold" lengthAdjust="spacing" textLength="292.5" x="74.1" y="557.7762">Service Locator</text><line style="stroke:#A80036;stroke-width:2.925;" x1="15.6" x2="425.1" y1="571.0453" y2="571.0453"/><text fill="#000000" font-family="monospace" font-size="31.2" lengthAdjust="spacing" textLength="370.5" x="25.35" y="610.2129">Injection Container</text><text fill="#000000" font-family="monospace" font-size="31.2" lengthAdjust="spacing" textLength="273" x="25.35" y="650.9496">for Dependency</text><text fill="#000000" font-family="monospace" font-size="31.2" lengthAdjust="spacing" textLength="175.5" x="25.35" y="691.6863">Injection</text><!--MD5=[d82ef6b2c738c1c7a188aee55dc2c4f7]
link w to s--><path codeLine="60" d="M2082.0735,689.2726 C2081.352,788.6251 2080.0455,968.3956 2079.285,1072.9351 " fill="none" id="w-to-s" style="stroke:#A80036;stroke-width:1.95;stroke-dasharray:7.0,7.0;"/><polygon fill="#A80036" points="2079.2265,1082.8021,2087.1267,1065.297,2079.2822,1073.0523,2071.5269,1065.2078,2079.2265,1082.8021" style="stroke:#A80036;stroke-width:1.95;"/><!--MD5=[4546973ef7dacf83725163dac0c05358]
link w to e--><path codeLine="61" d="M2227.212,689.5066 C2279.6865,726.2836 2326.35,777.0616 2326.35,841.3336 C2326.35,841.3336 2326.35,841.3336 2326.35,2654.8336 C2326.35,2751.7291 2213.679,2801.1811 2125.9095,2824.9906 " fill="none" id="w-to-e" style="stroke:#A80036;stroke-width:1.95;stroke-dasharray:7.0,7.0;"/><polygon fill="#A80036" points="2116.4325,2827.5061,2135.3902,2830.5802,2125.8611,2825.0234,2131.4179,2815.4944,2116.4325,2827.5061" style="stroke:#A80036;stroke-width:1.95;"/><!--MD5=[f7ac959458b02596d8dec769f76e38c2]
link s to u--><path codeLine="62" d="M2072.226,1229.4616 C2060.955,1353.4816 2038.0035,1605.8116 2028.4485,1711.0531 " fill="none" id="s-to-u" style="stroke:#A80036;stroke-width:1.95;stroke-dasharray:7.0,7.0;"/><polygon fill="#A80036" points="2027.5515,1720.7641,2036.9214,1703.9996,2028.4417,1711.0548,2021.3865,1702.5752,2027.5515,1720.7641" style="stroke:#A80036;stroke-width:1.95;"/><!--MD5=[fcf18d6011f98154ac9c493f12e89716]
link s to e--><path codeLine="63" d="M2187.8415,1229.4811 C2223.546,1261.7731 2254.2,1303.6396 2254.2,1352.2336 C2254.2,1352.2336 2254.2,1352.2336 2254.2,2654.8336 C2254.2,2726.4571 2187.1395,2776.1626 2125.422,2806.7386 " fill="none" id="s-to-e" style="stroke:#A80036;stroke-width:1.95;stroke-dasharray:7.0,7.0;"/><polygon fill="#A80036" points="2116.374,2811.1066,2135.5698,2810.5045,2125.1551,2806.8693,2128.7902,2796.4546,2116.374,2811.1066" style="stroke:#A80036;stroke-width:1.95;"/><!--MD5=[045ac208ce3b5b3d224befd3f4c5c570]
link u to e--><path codeLine="64" d="M2002.572,1801.2406 C1962.2655,1875.1261 1875.51,2042.9041 1831.05,2194.6336 C1800.006,2300.6161 1794,2329.9051 1794,2440.3336 C1794,2440.3336 1794,2440.3336 1794,2654.8336 C1794,2726.4571 1861.0605,2776.1626 1922.778,2806.7386 " fill="none" id="u-to-e" style="stroke:#A80036;stroke-width:1.95;stroke-dasharray:7.0,7.0;"/><polygon fill="#A80036" points="1931.826,2811.1066,1919.4098,2796.4546,1923.0449,2806.8693,1912.6302,2810.5045,1931.826,2811.1066" style="stroke:#A80036;stroke-width:1.95;"/><!--MD5=[10426faf2822c007a77520b7cd00fe82]
link u to ir--><path codeLine="65" d="M2024.1,1801.2016 C2024.1,1894.8211 2024.1,2134.2226 2024.1,2237.5726 " fill="none" id="u-to-ir" style="stroke:#A80036;stroke-width:1.95;stroke-dasharray:7.0,7.0;"/><polygon fill="#A80036" points="2024.1,2247.7321,2031.9,2230.1821,2024.1,2237.9821,2016.3,2230.1821,2024.1,2247.7321" style="stroke:#A80036;stroke-width:1.95;"/><!--MD5=[3b1f9e3a281d418c889bfca96d71d676]
link ir to e--><path codeLine="66" d="M2024.1,2328.3061 C2024.1,2426.4886 2024.1,2687.8666 2024.1,2796.5401 " fill="none" id="ir-to-e" style="stroke:#A80036;stroke-width:1.95;stroke-dasharray:7.0,7.0;"/><polygon fill="#A80036" points="2024.1,2806.5631,2031.9,2789.0131,2024.1,2796.8131,2016.3,2789.0131,2024.1,2806.5631" style="stroke:#A80036;stroke-width:1.95;"/><!--MD5=[4db938e82141146da7a044fb7966322c]
link ri to ir--><path codeLine="67" d="M1630.005,1834.1761 C1661.517,1850.8876 1692.8925,1870.3681 1719.9,1892.3836 C1780.116,1941.4846 1905.8715,2116.0096 1975.35,2215.4986 " fill="none" id="ri-to-ir" style="stroke:#A80036;stroke-width:1.95;stroke-dasharray:7.0,7.0;"/><polygon fill="none" points="1986.7575,2207.9911,1997.775,2247.8101,1964.3325,2223.5521,1986.7575,2207.9911" style="stroke:#A80036;stroke-width:1.95;"/><!--MD5=[ef247cbac8668f60d8ea88c662449112]
link ri to id--><path codeLine="68" d="M1411.9755,1834.4101 C1349.9265,1938.5401 1236.0075,2129.6986 1178.268,2226.5941 " fill="none" id="ri-to-id" style="stroke:#A80036;stroke-width:1.95;stroke-dasharray:7.0,7.0;"/><polygon fill="#A80036" points="1173.198,2235.1156,1188.8725,2224.0182,1178.1815,2226.7354,1175.4643,2216.0445,1173.198,2235.1156" style="stroke:#A80036;stroke-width:1.95;"/><!--MD5=[717df48724e670f5b4538fa9178e9ed6]
link ri to db--><path codeLine="69" d="M1455.7725,1834.0396 C1456.221,1869.7051 1456.65,1913.5606 1456.65,1952.8336 C1456.65,1952.8336 1456.65,1952.8336 1456.65,2654.8336 C1456.65,2725.8721 1397.097,2771.1121 1329.861,2799.5236 " fill="none" id="ri-to-db" style="stroke:#A80036;stroke-width:1.95;stroke-dasharray:7.0,7.0;"/><polygon fill="#A80036" points="1320.774,2803.2481,1339.9719,2803.7784,1329.7896,2799.5358,1334.0323,2789.3534,1320.774,2803.2481" style="stroke:#A80036;stroke-width:1.95;"/><text fill="#000000" font-family="monospace" font-size="23.4" lengthAdjust="spacing" textLength="150.15" x="1479.075" y="2220.1093">models only</text><text fill="#000000" font-family="monospace" font-size="23.4" lengthAdjust="spacing" textLength="0" x="1560.975" y="2250.6618"/><text fill="#000000" font-family="monospace" font-size="23.4" font-style="italic" lengthAdjust="spacing" textLength="163.8" x="1465.425" y="2281.2144">(also should</text><text fill="#000000" font-family="monospace" font-size="23.4" font-style="italic" lengthAdjust="spacing" textLength="177.45" x="1458.6" y="2311.7669">not depend on</text><text fill="#000000" font-family="monospace" font-size="23.4" font-style="italic" lengthAdjust="spacing" textLength="177.45" x="1458.6" y="2342.3194">moor-specific</text><text fill="#000000" font-family="monospace" font-size="23.4" font-style="italic" lengthAdjust="spacing" textLength="68.25" x="1520.025" y="2372.872">code)</text><!--MD5=[3aadb2425ab340d75a2b8369b88c3090]
link ri to e--><path codeLine="70" d="M1503.7035,1834.2346 C1580.826,1953.9841 1721.85,2205.1246 1721.85,2440.3336 C1721.85,2440.3336 1721.85,2440.3336 1721.85,2654.8336 C1721.85,2751.7291 1834.521,2801.1811 1922.2905,2824.9906 " fill="none" id="ri-to-e" style="stroke:#A80036;stroke-width:1.95;stroke-dasharray:7.0,7.0;"/><polygon fill="#A80036" points="1931.7675,2827.5061,1916.7821,2815.4944,1922.3389,2825.0234,1912.8098,2830.5802,1931.7675,2827.5061" style="stroke:#A80036;stroke-width:1.95;"/><!--MD5=[99a72c7b55631d88e329c6e8e8a1d276]
link di to db--><path codeLine="71" d="M859.5405,1813.4866 C815.1585,1846.6951 770.25,1894.6651 770.25,1952.8336 C770.25,1952.8336 770.25,1952.8336 770.25,2654.8336 C770.25,2747.4781 862.797,2794.9996 955.6365,2819.3746 " fill="none" id="di-to-db" style="stroke:#A80036;stroke-width:1.95;stroke-dasharray:7.0,7.0;"/><polygon fill="#A80036" points="965.211,2821.7926,950.1179,2809.9166,955.7604,2819.3951,946.2819,2825.0376,965.211,2821.7926" style="stroke:#A80036;stroke-width:1.95;"/><text fill="#000000" font-family="monospace" font-size="23.4" lengthAdjust="spacing" textLength="109.2" x="772.2" y="2281.5343">tables &amp;</text><text fill="#000000" font-family="monospace" font-size="23.4" lengthAdjust="spacing" textLength="81.9" x="792.675" y="2312.0868">models</text><!--MD5=[7aa9af87c0b9289b42293f157a53e025]
link di to id--><path codeLine="72" d="M964.9965,1813.8571 C998.5365,1903.0111 1068.054,2087.8321 1109.4915,2198.0071 " fill="none" id="di-to-id" style="stroke:#A80036;stroke-width:1.95;stroke-dasharray:7.0,7.0;"/><polygon fill="none" points="1122.42,2193.6196,1123.3755,2234.9206,1096.875,2203.2136,1122.42,2193.6196" style="stroke:#A80036;stroke-width:1.95;"/><!--MD5=[7a510777642ea981a0fd51bcb327fe86]
link id to db--><path codeLine="73" d="M1142.7,2340.8836 C1142.7,2436.9601 1142.7,2646.2926 1142.7,2762.7076 " fill="none" id="id-to-db" style="stroke:#A80036;stroke-width:1.95;stroke-dasharray:7.0,7.0;"/><polygon fill="#A80036" points="1142.7,2772.9841,1150.5,2755.4341,1142.7,2763.2341,1134.9,2755.4341,1142.7,2772.9841" style="stroke:#A80036;stroke-width:1.95;"/><text fill="#000000" font-family="monospace" font-size="23.4" lengthAdjust="spacing" textLength="150.15" x="1144.65" y="2586.7093">models only</text><!--MD5=[02bc40338c3adfdf4b8dbb99de91cf24]
link sl to Features--><path codeLine="75" d="M427.44,616.1086 C470.7885,616.1086 513.2595,616.1086 546.1511,616.1086 C562.5969,616.1086 576.6479,616.1086 587.2163,616.1086 C588.5373,616.1086 589.804,616.1086 591.0141,616.1086 C591.6191,616.1086 592.21,616.1086 592.7865,616.1086 " fill="none" id="sl-to-Features" style="stroke:#A80036;stroke-width:1.95;stroke-dasharray:7.0,7.0;"/><polygon fill="#A80036" points="592.7865,616.1086,575.2365,608.3086,583.0365,616.1086,575.2365,623.9086,592.7865,616.1086" style="stroke:#A80036;stroke-width:1.95;"/><!--MD5=[2c271655a0c9ad5e3dece1b2ef732d32]
link Features to Core--><path d="M2375.2862,372.3453 C2376.6747,374.1521 2378.0438,375.9753 2379.3937,377.8137 C2382.0935,381.4905 2384.7166,385.228 2387.265,389.0165 C2407.6516,419.3243 2423.2528,452.8936 2435.0674,484.7176 C2440.9747,500.6296 2445.9353,516.1053 2450.0741,530.5188 C2451.1088,534.1222 2452.0921,537.6592 2453.026,541.1201 " fill="none" id="Features-to-Core" style="stroke:#A80036;stroke-width:1.95;stroke-dasharray:7.0,7.0;"/><polygon fill="#A80036" points="2453.026,541.1201,2455.9843,522.144,2450.4858,531.7068,2440.923,526.2083,2453.026,541.1201" style="stroke:#A80036;stroke-width:1.95;"/><text fill="#888888" font-family="monospace" font-size="31.2" lengthAdjust="spacing" textLength="585" x="1209.975" y="3477.9012">Copyright (C) 2020 Cervon Wong</text><!--MD5=[87ba2ce2787378a42e38a349521ac198]
@startuml
skinparam classAttributeIconSize 0
skinparam wrapWidth 400

skinparam wrapWidth 200
skinparam maxMessageSize 100
skinparam defaultFontName Monospaced
skinparam defaultFontSize 16
skinparam arrowFontSize 12
skinparam objectFontStyle bold
skinparam titleFontSize 24
skinparam titleFontStyle bold
skinparam shadowing false

header This diagram is part of a visualisation of the code written for Sona.\n View the project at github.com/cervonwong/sona-flutter.
title Dependencies between layers of the app.\n
footer Copyright (C) 2020 Cervon Wong

package Features <<Node>> {
	package Presentation <<Cloud>> {
		object "Widgets" as w {
			*See diagram on UI layer dependencies
		}
		object "State Management" as s {
			BLoC, ChangeNotifier...
		}
	}
	
	package Domain <<Cloud>> {
		object "Use Cases" as u
		object "Entities" as e
		object "Repo Interfaces" as ir
	}
	
	package Data <<Cloud>> {
		object "Repo Impls" as ri {
			and Entity<->Model mappers
		}
		object "DAO Impls" AS di {
			also Data Sources
		}
		object "DAO Interfaces" as id {
			also Data Sources
		}
		object "Moor Database" as db {
			Configs, Tables, Models
		}
	}

	note bottom of db
    	Models are part of the database due to the limitations of moor's builders. See <i>https://github.com/ simolus3/moor/issues/490</i>for progress on this :)
    end note
}

object "Service Locator" as sl {
	Injection Container for Dependency Injection
}

package Core <<Node>> {
	note "Constants, utils, shared components, etc." as n1
}

w  ....>  s
w  ....>  e
s  ....>  u
s  ....>  e
u  ....>  e
u  ....>  ir
ir ....>  e
ri ....|> ir
ri ....>  id
ri ....>  db : models only\n\n<i>(also should not depend on moor-specific code)
ri ....>  e
di ....>  db : tables & models
di ....|> id
id ....>  db : models only

sl .> Features : \t
Features .> Core : \t

@enduml

PlantUML version 1.2021.00(Sun Jan 10 18:25:05 SGT 2021)
(GPL source distribution)
Java Runtime: OpenJDK Runtime Environment
JVM: OpenJDK 64-Bit Server VM
Default Encoding: Cp1252
Language: en
Country: GB
--></g></svg>