<?xml version="1.0" encoding="UTF-8" standalone="no"?><svg xmlns="http://www.w3.org/2000/svg" xmlns:xlink="http://www.w3.org/1999/xlink" contentScriptType="application/ecmascript" contentStyleType="text/css" height="424px" preserveAspectRatio="none" style="width:1530px;height:424px;background:#FFFFFF;" version="1.1" viewBox="0 0 1530 424" width="1530px" zoomAndPan="magnify"><defs/><g><text fill="#888888" font-family="monospace" font-size="16" lengthAdjust="spacing" textLength="690" x="827" y="16.0859">This diagram is part of a visualisation of the code written for Sona.</text><text fill="#888888" font-family="monospace" font-size="16" lengthAdjust="spacing" textLength="550" x="967" y="36.9766">View the project at github.com/cervonwong/sona-flutter.</text><text fill="#000000" font-family="monospace" font-size="24" font-weight="bold" lengthAdjust="spacing" textLength="700" x="408.5" y="65.9102">Dependency relationships between main directories.</text><text fill="#000000" font-family="monospace" font-size="24" font-weight="bold" lengthAdjust="spacing" textLength="0" x="765.5" y="97.2461"/><rect fill="#FEFECE" height="53.7813" style="stroke:#A80036;stroke-width:1.5;" width="432" x="555" y="111.7578"/><text fill="#000000" font-family="monospace" font-size="16" font-weight="bold" lengthAdjust="spacing" textLength="40" x="751" y="129.8438">core</text><line style="stroke:#A80036;stroke-width:1.5;" x1="556" x2="986" y1="136.6484" y2="136.6484"/><text fill="#000000" font-family="monospace" font-size="16" lengthAdjust="spacing" textLength="420" x="561" y="156.7344">Shared components used throughout the app.</text><rect fill="#FEFECE" height="53.7813" style="stroke:#A80036;stroke-width:1.5;" width="982" x="280" y="339.7578"/><text fill="#000000" font-family="monospace" font-size="16" font-weight="bold" lengthAdjust="spacing" textLength="70" x="736" y="357.8438">screens</text><line style="stroke:#A80036;stroke-width:1.5;" x1="281" x2="1261" y1="364.6484" y2="364.6484"/><text fill="#000000" font-family="monospace" font-size="16" lengthAdjust="spacing" textLength="970" x="286" y="384.7344">Widgets that represent a navigation destination. Screens depends on one or more feature packages.</text><rect fill="#FEFECE" height="53.7813" style="stroke:#A80036;stroke-width:1.5;" width="222" x="7" y="225.7578"/><text fill="#000000" font-family="monospace" font-size="16" font-weight="bold" lengthAdjust="spacing" textLength="60" x="88" y="243.8438">search</text><line style="stroke:#A80036;stroke-width:1.5;" x1="8" x2="228" y1="250.6484" y2="250.6484"/><text fill="#000000" font-family="monospace" font-size="16" lengthAdjust="spacing" textLength="210" x="13" y="270.7344">"filter/sort + table"</text><rect fill="#FEFECE" height="53.7813" style="stroke:#A80036;stroke-width:1.5;" width="212" x="264" y="225.7578"/><text fill="#000000" font-family="monospace" font-size="16" font-weight="bold" lengthAdjust="spacing" textLength="60" x="340" y="243.8438">review</text><line style="stroke:#A80036;stroke-width:1.5;" x1="265" x2="475" y1="250.6484" y2="250.6484"/><text fill="#000000" font-family="monospace" font-size="16" lengthAdjust="spacing" textLength="200" x="270" y="270.7344">controls + presenter</text><rect fill="#FEFECE" height="53.7813" style="stroke:#A80036;stroke-width:1.5;" width="104" x="511" y="225.7578"/><text fill="#000000" font-family="monospace" font-size="16" font-weight="bold" lengthAdjust="spacing" textLength="90" x="518" y="243.8438">scheduler</text><line style="stroke:#A80036;stroke-width:1.5;" x1="512" x2="614" y1="250.6484" y2="250.6484"/><text fill="#000000" font-family="monospace" font-size="16" lengthAdjust="spacing" textLength="90" x="517" y="270.7344">algorithm</text><rect fill="#FEFECE" height="53.7813" style="stroke:#A80036;stroke-width:1.5;" width="242" x="650" y="225.7578"/><text fill="#000000" font-family="monospace" font-size="16" font-weight="bold" lengthAdjust="spacing" textLength="60" x="741" y="243.8438">editor</text><line style="stroke:#A80036;stroke-width:1.5;" x1="651" x2="891" y1="250.6484" y2="250.6484"/><text fill="#000000" font-family="monospace" font-size="16" lengthAdjust="spacing" textLength="230" x="656" y="270.7344">adding/updating entries</text><rect fill="#FEFECE" height="53.7813" style="stroke:#A80036;stroke-width:1.5;" width="232" x="927" y="225.7578"/><text fill="#000000" font-family="monospace" font-size="16" font-weight="bold" lengthAdjust="spacing" textLength="90" x="998" y="243.8438">formatter</text><line style="stroke:#A80036;stroke-width:1.5;" x1="928" x2="1158" y1="250.6484" y2="250.6484"/><text fill="#000000" font-family="monospace" font-size="16" lengthAdjust="spacing" textLength="220" x="933" y="270.7344">format style/structure</text><rect fill="#FEFECE" height="53.7813" style="stroke:#A80036;stroke-width:1.5;" width="132" x="1194" y="225.7578"/><text fill="#000000" font-family="monospace" font-size="16" font-weight="bold" lengthAdjust="spacing" textLength="50" x="1235" y="243.8438">stats</text><line style="stroke:#A80036;stroke-width:1.5;" x1="1195" x2="1325" y1="250.6484" y2="250.6484"/><text fill="#000000" font-family="monospace" font-size="16" lengthAdjust="spacing" textLength="120" x="1200" y="270.7344">graphs, etc.</text><rect fill="#FEFECE" height="53.7813" style="stroke:#A80036;stroke-width:1.5;" width="162" x="1361" y="225.7578"/><text fill="#000000" font-family="monospace" font-size="16" font-weight="bold" lengthAdjust="spacing" textLength="40" x="1422" y="243.8438">deck</text><line style="stroke:#A80036;stroke-width:1.5;" x1="1362" x2="1522" y1="250.6484" y2="250.6484"/><text fill="#000000" font-family="monospace" font-size="16" lengthAdjust="spacing" textLength="150" x="1367" y="270.7344">deck view, etc.</text><!--MD5=[ec3fe329b127ee769849f7510cac8a65]
reverse link search to screens--><path codeLine="24" d="M234.31,277.5778 C238.25,278.3278 242.16,279.0578 246,279.7578 C364.67,301.5178 498.92,323.4678 601.96,339.7378 " fill="none" id="search-backto-screens" style="stroke:#A80036;stroke-width:1.0;stroke-dasharray:7.0,7.0;"/><polygon fill="#A80036" points="229.3,276.6278,237.3979,282.2336,234.2126,277.5588,238.8874,274.3735,229.3,276.6278" style="stroke:#A80036;stroke-width:1.0;"/><!--MD5=[78ededb24225f7d695327f3829ba9ecc]
reverse link core to search--><path codeLine="25" d="M596.8,166.5878 C494.47,182.7778 362.7,204.3578 246,225.7578 C240.54,226.7578 234.94,227.8078 229.3,228.8878 " fill="none" id="core-backto-search" style="stroke:#A80036;stroke-width:1.0;stroke-dasharray:7.0,7.0;"/><polygon fill="#A80036" points="601.96,165.7778,592.4436,163.2403,597.022,166.5628,593.6996,171.1411,601.96,165.7778" style="stroke:#A80036;stroke-width:1.0;"/><!--MD5=[9c071918e24def5112afa02a835b54ad]
reverse link review to screens--><path codeLine="30" d="M468.21,281.1878 C532.03,299.0078 614.73,322.1078 677.57,339.6678 " fill="none" id="review-backto-screens" style="stroke:#A80036;stroke-width:1.0;stroke-dasharray:7.0,7.0;"/><polygon fill="#A80036" points="463.26,279.8078,470.8544,286.0788,468.0762,281.1512,473.0038,278.373,463.26,279.8078" style="stroke:#A80036;stroke-width:1.0;"/><!--MD5=[fd97e9525359b852a248d6b260c463da]
reverse link core to review--><path codeLine="31" d="M672.79,167.1878 C608.97,185.0078 526.27,208.1078 463.43,225.6678 " fill="none" id="core-backto-review" style="stroke:#A80036;stroke-width:1.0;stroke-dasharray:7.0,7.0;"/><polygon fill="#A80036" points="677.74,165.8078,667.9962,164.373,672.9238,167.1512,670.1456,172.0788,677.74,165.8078" style="stroke:#A80036;stroke-width:1.0;"/><!--MD5=[67ad85b4b14aabae87cedcd7ba0f28e8]
reverse link scheduler to screens--><path codeLine="36" d="M616.27,282.4378 C648.99,300.0578 690.6,322.4678 722.42,339.5978 " fill="none" id="scheduler-backto-screens" style="stroke:#A80036;stroke-width:1.0;stroke-dasharray:7.0,7.0;"/><polygon fill="#A80036" points="611.5,279.8778,617.5248,287.6689,615.9014,282.25,621.3204,280.6266,611.5,279.8778" style="stroke:#A80036;stroke-width:1.0;"/><!--MD5=[bc1f804ad6ab6c2bfcc53fb01995b6dc]
reverse link core to scheduler--><path codeLine="37" d="M717.73,168.4378 C685.01,186.0578 643.4,208.4678 611.58,225.5978 " fill="none" id="core-backto-scheduler" style="stroke:#A80036;stroke-width:1.0;stroke-dasharray:7.0,7.0;"/><polygon fill="#A80036" points="722.5,165.8778,712.6796,166.6266,718.0986,168.25,716.4752,173.6689,722.5,165.8778" style="stroke:#A80036;stroke-width:1.0;"/><!--MD5=[ad930bcea009b609db1d881a1ad3b70e]
reverse link editor to screens--><path codeLine="42" d="M771,285.2178 C771,302.3878 771,323.4078 771,339.6678 " fill="none" id="editor-backto-screens" style="stroke:#A80036;stroke-width:1.0;stroke-dasharray:7.0,7.0;"/><polygon fill="#A80036" points="771,280.0178,767,289.0178,771,285.0178,775,289.0178,771,280.0178" style="stroke:#A80036;stroke-width:1.0;"/><!--MD5=[3587e4aa55fdc2ea61715bb0525dcfdc]
reverse link core to editor--><path codeLine="43" d="M771,171.2178 C771,188.3878 771,209.4078 771,225.6678 " fill="none" id="core-backto-editor" style="stroke:#A80036;stroke-width:1.0;stroke-dasharray:7.0,7.0;"/><polygon fill="#A80036" points="771,166.0178,767,175.0178,771,171.0178,775,175.0178,771,166.0178" style="stroke:#A80036;stroke-width:1.0;"/><!--MD5=[4f7719e9688f8c5997e80a9f0686831a]
reverse link formatter to screens--><path codeLine="48" d="M974.92,281.7878 C931.89,299.5078 876.66,322.2478 834.53,339.5978 " fill="none" id="formatter-backto-screens" style="stroke:#A80036;stroke-width:1.0;stroke-dasharray:7.0,7.0;"/><polygon fill="#A80036" points="979.57,279.8778,969.7252,279.5951,974.9445,281.7765,972.7632,286.9959,979.57,279.8778" style="stroke:#A80036;stroke-width:1.0;"/><!--MD5=[190b640c21fe4a99aad077d4e153b9c5]
reverse link core to formatter--><path codeLine="49" d="M839.08,167.7878 C882.11,185.5078 937.34,208.2478 979.47,225.5978 " fill="none" id="core-backto-formatter" style="stroke:#A80036;stroke-width:1.0;stroke-dasharray:7.0,7.0;"/><polygon fill="#A80036" points="834.43,165.8778,841.2368,172.9959,839.0555,167.7765,844.2748,165.5951,834.43,165.8778" style="stroke:#A80036;stroke-width:1.0;"/><!--MD5=[672999b9ebf2d10801551f8c4f23fc0d]
reverse link stats to screens--><path codeLine="54" d="M1188.6,276.5978 C1184.69,277.6978 1180.8,278.7578 1177,279.7578 C1088.83,302.8478 988.66,324.1178 909.88,339.7278 " fill="none" id="stats-backto-screens" style="stroke:#A80036;stroke-width:1.0;stroke-dasharray:7.0,7.0;"/><polygon fill="#A80036" points="1193.57,275.1778,1183.8185,273.7966,1188.7613,276.5476,1186.0102,281.4905,1193.57,275.1778" style="stroke:#A80036;stroke-width:1.0;"/><!--MD5=[893185db6b508c02b0200d56cb72da59]
reverse link core to stats--><path codeLine="55" d="M914.99,166.7978 C992.96,182.3078 1090.72,203.1578 1177,225.7578 C1182.4,227.1778 1187.98,228.7278 1193.57,230.3378 " fill="none" id="core-backto-stats" style="stroke:#A80036;stroke-width:1.0;stroke-dasharray:7.0,7.0;"/><polygon fill="#A80036" points="909.88,165.7878,917.9303,171.4616,914.7845,166.7601,919.486,163.6144,909.88,165.7878" style="stroke:#A80036;stroke-width:1.0;"/><!--MD5=[f1158baac5b07d4a9472730074f13ec3]
reverse link deck to screens--><path codeLine="60" d="M1355.82,277.1878 C1351.83,278.0878 1347.88,278.9578 1344,279.7578 C1225.06,304.3878 1090.84,324.9078 982.22,339.7278 " fill="none" id="deck-backto-screens" style="stroke:#A80036;stroke-width:1.0;stroke-dasharray:7.0,7.0;"/><polygon fill="#A80036" points="1360.88,276.0178,1351.2094,274.1523,1356.009,277.1463,1353.015,281.9459,1360.88,276.0178" style="stroke:#A80036;stroke-width:1.0;"/><!--MD5=[1c3beedff1f4356a48c4717b5238f1db]
reverse link core to deck--><path codeLine="61" d="M987.33,166.4878 C1095.03,181.2478 1226.91,201.5178 1344,225.7578 C1349.52,226.8978 1355.18,228.1578 1360.88,229.4978 " fill="none" id="core-backto-deck" style="stroke:#A80036;stroke-width:1.0;stroke-dasharray:7.0,7.0;"/><polygon fill="#A80036" points="982.22,165.7878,990.587,170.9833,987.1728,166.4729,991.6832,163.0588,982.22,165.7878" style="stroke:#A80036;stroke-width:1.0;"/><text fill="#888888" font-family="monospace" font-size="16" lengthAdjust="spacing" textLength="360" x="578.5" y="415.625">Copyright (C) 2020, 2021 Cervon Wong</text><!--MD5=[34da81b2b65ea5d0f3c715cce8f6b200]
@startuml

skinparam defaultFontName Monospaced
skinparam defaultFontSize 16
skinparam objectFontStyle bold
skinparam titleFontSize 24
skinparam titleFontStyle bold
skinparam shadowing false

header This diagram is part of a visualisation of the code written for Sona.\n View the project at github.com/cervonwong/sona-flutter.
title Dependency relationships between main directories.\n
footer Copyright (C) 2020, 2021 Cervon Wong

object core {
	Shared components used throughout the app.
}

object screens {
	Widgets that represent a navigation destination. Screens depends on one or more feature packages.
}

object search {
	"filter/sort + table"
}
search <.. screens
core <.. search

object review {
	controls + presenter
}
review <.. screens
core <.. review

object scheduler {
	algorithm
}
scheduler <.. screens
core <.. scheduler

object editor {
	adding/updating entries
}
editor <.. screens
core <.. editor

object formatter {
	format style/structure
}
formatter <.. screens
core <.. formatter

object stats {
	graphs, etc.
}
stats <.. screens
core <.. stats

object deck {
	deck view, etc.
}
deck <.. screens
core <.. deck

@enduml

PlantUML version 1.2021.7(Sun May 23 20:40:07 SGT 2021)
(GPL source distribution)
Java Runtime: OpenJDK Runtime Environment
JVM: Dynamic Code Evolution 64-Bit Server VM
Default Encoding: Cp1252
Language: en
Country: US
--></g></svg>